<?xml version="1.0" encoding="utf-8"?>
<!-- Generator: Adobe Illustrator 27.4.1, SVG Export Plug-In . SVG Version: 6.00 Build 0)  -->
<svg version="1.1" id="Layer_1" xmlns="http://www.w3.org/2000/svg" xmlns:xlink="http://www.w3.org/1999/xlink" x="0px" y="0px"
	 viewBox="0 0 121.1 115.05" style="enable-background:new 0 0 121.1 115.05;" xml:space="preserve">
<style type="text/css">
	.st0{fill:#289847;}
	.st1{fill:#FFFFFF;}
</style>
<g>
	<path class="st0" d="M97.96,99.52H23.14c-2.81,0-5.09-2.28-5.09-5.09V20.61c0-2.81,2.28-5.09,5.09-5.09h74.83
		c2.81,0,5.09,2.28,5.09,5.09v73.83C103.05,97.25,100.77,99.52,97.96,99.52z"/>
	<g>
		<g>
			<path class="st1" d="M48.37,36.57l6.34,41.92H43.39l-0.6-7.53h-3.96l-0.67,7.53H26.71l5.65-41.92H48.37z M42.5,63.52
				c-0.56-4.75-1.12-10.62-1.69-17.61c-1.13,8.03-1.84,13.9-2.13,17.61H42.5z"/>
		</g>
		<path class="st1" d="M68.21,36.57v33.52h21.05v8.39H58.66v-41.9H68.21z"/>
	</g>
</g>
</svg>
