<?xml version="1.0" encoding="utf-8"?>
<!-- Generator: Adobe Illustrator 27.4.1, SVG Export Plug-In . SVG Version: 6.00 Build 0)  -->
<svg version="1.1" id="Layer_1" xmlns="http://www.w3.org/2000/svg" xmlns:xlink="http://www.w3.org/1999/xlink" x="0px" y="0px"
	 viewBox="0 0 121.1 115.05" style="enable-background:new 0 0 121.1 115.05;" xml:space="preserve">
<style type="text/css">
	.st0{display:none;}
	.st1{display:inline;fill:#289847;}
	.st2{display:inline;}
	.st3{fill:#FFFFFF;}
	.st4{display:inline;fill:#1B83C5;}
	.st5{display:inline;fill:#FECD14;}
	.st6{fill:#EB6A24;}
	.st7{display:inline;fill:#DC2227;}
</style>
<g class="st0">
	<path class="st1" d="M97.96,99.52H23.14c-2.81,0-5.09-2.28-5.09-5.09V20.61c0-2.81,2.28-5.09,5.09-5.09h74.83
		c2.81,0,5.09,2.28,5.09,5.09v73.83C103.05,97.25,100.77,99.52,97.96,99.52z"/>
	<g class="st2">
		<g>
			<path class="st3" d="M48.37,36.57l6.34,41.92H43.39l-0.6-7.53h-3.96l-0.67,7.53H26.71l5.65-41.92H48.37z M42.5,63.52
				c-0.56-4.75-1.12-10.62-1.69-17.61c-1.13,8.03-1.84,13.9-2.13,17.61H42.5z"/>
		</g>
		<path class="st3" d="M68.21,36.57v33.52h21.05v8.39H58.66v-41.9H68.21z"/>
	</g>
</g>
<g class="st0">
	<path class="st4" d="M97.96,99.52H23.14c-2.81,0-5.09-2.28-5.09-5.09V20.61c0-2.81,2.28-5.09,5.09-5.09h74.83
		c2.81,0,5.09,2.28,5.09,5.09v73.83C103.05,97.25,100.77,99.52,97.96,99.52z"/>
	<g class="st2">
		<path class="st3" d="M59.28,47.34c-1.56,1.47-3.07,2.52-4.96,3.15c-0.03-0.29-0.06-0.5-0.06-0.71c0-1.98,0.01-3.97-0.01-5.95
			c-0.01-0.54,0.14-0.89,0.63-1.18c2.21-1.33,3.98-3.08,5.12-5.44c0.14-0.28,0.61-0.55,0.93-0.56c1.92-0.05,3.85-0.01,5.78-0.03
			c0.49,0,0.69,0.17,0.65,0.65c-0.01,0.14,0,0.29,0,0.43c0,13.22-0.01,26.44,0.02,39.66c0,0.8-0.17,1.1-1.03,1.08
			c-2.32-0.06-4.64-0.02-7.05-0.02C59.28,68.09,59.28,57.84,59.28,47.34z"/>
		<g>
			<path class="st3" d="M47.94,36.57l6.34,41.92H42.96l-0.6-7.53H38.4l-0.67,7.53H26.28l5.65-41.92H47.94z M42.07,63.52
				c-0.56-4.75-1.12-10.62-1.69-17.61c-1.13,8.03-1.84,13.9-2.13,17.61H42.07z"/>
		</g>
		<path class="st3" d="M94.82,50.76v13.98c0,3.17-0.15,5.49-0.45,6.94c-0.3,1.45-0.93,2.8-1.88,4.06c-0.95,1.26-2.1,2.17-3.45,2.72
			c-1.34,0.55-2.85,0.83-4.51,0.83c-2.19,0-4.01-0.29-5.46-0.87c-1.45-0.58-2.61-1.48-3.47-2.7c-0.86-1.23-1.47-2.51-1.84-3.87
			c-0.36-1.35-0.54-3.51-0.54-6.46V50.76c0-3.85,0.29-6.73,0.87-8.64c0.58-1.92,1.74-3.45,3.47-4.61c1.73-1.16,3.83-1.73,6.29-1.73
			c2.01,0,3.81,0.4,5.39,1.2c1.59,0.8,2.77,1.78,3.56,2.94s1.32,2.46,1.6,3.91C94.68,45.27,94.82,47.58,94.82,50.76z M85.66,47.24
			c0-2.23-0.09-3.62-0.28-4.18c-0.19-0.56-0.63-0.84-1.33-0.84c-0.68,0-1.13,0.3-1.35,0.89c-0.22,0.6-0.33,1.97-0.33,4.13v20.45
			c0,2.43,0.1,3.9,0.31,4.4c0.2,0.5,0.65,0.75,1.33,0.75c0.68,0,1.13-0.29,1.34-0.88c0.21-0.59,0.32-1.91,0.32-3.96V47.24z"/>
	</g>
</g>
<g class="st0">
	<path class="st5" d="M97.96,99.52H23.14c-2.81,0-5.09-2.28-5.09-5.09V20.61c0-2.81,2.28-5.09,5.09-5.09h74.83
		c2.81,0,5.09,2.28,5.09,5.09v73.83C103.05,97.25,100.77,99.52,97.96,99.52z"/>
	<g class="st2">
		<path class="st3" d="M59.44,47.34c-1.56,1.47-3.07,2.52-4.96,3.15c-0.03-0.29-0.06-0.5-0.06-0.71c0-1.98,0.01-3.97-0.01-5.95
			c-0.01-0.54,0.14-0.89,0.63-1.18c2.21-1.33,3.98-3.08,5.12-5.44c0.14-0.28,0.61-0.55,0.93-0.56c1.92-0.05,3.85-0.01,5.78-0.03
			c0.49,0,0.69,0.17,0.65,0.65c-0.01,0.14,0,0.29,0,0.43c0,13.22-0.01,26.44,0.02,39.66c0,0.8-0.17,1.1-1.03,1.08
			c-2.32-0.06-4.64-0.02-7.05-0.02C59.44,68.09,59.44,57.84,59.44,47.34z"/>
		<g>
			<path class="st3" d="M48.1,36.57l6.34,41.92H43.12l-0.6-7.53h-3.96l-0.67,7.53H26.44l5.65-41.92H48.1z M42.23,63.52
				c-0.56-4.75-1.12-10.62-1.69-17.61c-1.13,8.03-1.84,13.9-2.13,17.61H42.23z"/>
		</g>
		<path class="st3" d="M93.84,71.73v7.14H73.69l0.01-5.98c5.97-11.15,9.51-18.04,10.64-20.69s1.69-4.71,1.69-6.2
			c0-1.14-0.17-1.99-0.51-2.55c-0.34-0.56-0.86-0.84-1.55-0.84c-0.7,0-1.22,0.31-1.56,0.93c-0.34,0.62-0.51,1.85-0.51,3.7v3.99
			h-8.21v-1.53c0-2.35,0.11-4.2,0.32-5.55c0.21-1.35,0.73-2.69,1.56-4c0.83-1.31,1.91-2.3,3.24-2.98c1.33-0.67,2.92-1.01,4.78-1.01
			c3.64,0,6.4,1.03,8.26,3.09s2.8,4.67,2.8,7.83c0,2.4-0.53,4.93-1.58,7.61c-1.05,2.67-4.14,8.35-9.28,17.03H93.84z"/>
	</g>
</g>
<g>
	<path class="st6" d="M97.96,99.52H23.14c-2.81,0-5.09-2.28-5.09-5.09V20.61c0-2.81,2.28-5.09,5.09-5.09h74.83
		c2.81,0,5.09,2.28,5.09,5.09v73.83C103.05,97.25,100.77,99.52,97.96,99.52z"/>
	<g>
		<path class="st3" d="M59.02,47.34c-1.56,1.47-3.07,2.52-4.96,3.15C54.03,50.2,54,49.99,54,49.78c0-1.98,0.01-3.97-0.01-5.95
			c-0.01-0.54,0.14-0.89,0.63-1.18c2.21-1.33,3.98-3.08,5.12-5.44c0.14-0.28,0.61-0.55,0.93-0.56c1.92-0.05,3.85-0.01,5.78-0.03
			c0.49,0,0.69,0.17,0.65,0.65c-0.01,0.14,0,0.29,0,0.43c0,13.22-0.01,26.44,0.02,39.66c0,0.8-0.17,1.1-1.03,1.08
			c-2.32-0.06-4.64-0.02-7.05-0.02C59.02,68.09,59.02,57.84,59.02,47.34z"/>
		<g>
			<path class="st3" d="M47.68,36.57l6.34,41.92H42.7l-0.6-7.53h-3.96l-0.67,7.53H26.02l5.65-41.92H47.68z M41.81,63.52
				c-0.56-4.75-1.12-10.62-1.69-17.61C39,53.94,38.29,59.81,38,63.52H41.81z"/>
		</g>
		<path class="st3" d="M92.47,36.57v27.38h2.61v7.14h-2.61v7.38h-9.16V71.1H72.43v-7.14l7.91-27.38H92.47z M83.31,63.96V46.12
			l-4.05,17.83H83.31z"/>
	</g>
</g>
<g class="st0">
	<path class="st7" d="M97.96,99.52H23.14c-2.81,0-5.09-2.28-5.09-5.09V20.61c0-2.81,2.28-5.09,5.09-5.09h74.83
		c2.81,0,5.09,2.28,5.09,5.09v73.83C103.05,97.25,100.77,99.52,97.96,99.52z"/>
	<g class="st2">
		<path class="st3" d="M59.18,47.34c-1.56,1.47-3.07,2.52-4.96,3.15c-0.03-0.29-0.06-0.5-0.06-0.71c0-1.98,0.01-3.97-0.01-5.95
			c-0.01-0.54,0.14-0.89,0.63-1.18c2.21-1.33,3.98-3.08,5.12-5.44c0.14-0.28,0.61-0.55,0.93-0.56c1.92-0.05,3.85-0.01,5.78-0.03
			c0.49,0,0.69,0.17,0.65,0.65c-0.01,0.14,0,0.29,0,0.43c0,13.22-0.01,26.44,0.02,39.66c0,0.8-0.17,1.1-1.03,1.08
			c-2.32-0.06-4.64-0.02-7.05-0.02C59.18,68.09,59.18,57.84,59.18,47.34z"/>
		<g>
			<path class="st3" d="M47.85,36.57l6.34,41.92H42.86l-0.6-7.53H38.3l-0.67,7.53H26.18l5.65-41.92H47.85z M41.98,63.52
				c-0.56-4.75-1.12-10.62-1.69-17.61c-1.13,8.03-1.84,13.9-2.13,17.61H41.98z"/>
		</g>
		<path class="st3" d="M94.91,47.72h-9.16c0-1.95-0.02-3.18-0.06-3.69c-0.04-0.51-0.22-0.94-0.54-1.28s-0.77-0.52-1.33-0.52
			c-0.47,0-0.85,0.16-1.16,0.49c-0.3,0.33-0.48,0.75-0.52,1.27c-0.05,0.52-0.07,1.56-0.07,3.13v6.68c0.47-1.12,1.16-1.96,2.06-2.52
			s2.02-0.84,3.35-0.84c1.68,0,3.16,0.52,4.44,1.55c1.28,1.04,2.1,2.28,2.45,3.73c0.35,1.45,0.52,3.41,0.52,5.88v3.34
			c0,2.93-0.1,5.12-0.29,6.55s-0.72,2.76-1.58,3.97c-0.85,1.22-2.02,2.16-3.51,2.83s-3.22,1.01-5.2,1.01
			c-2.46,0-4.48-0.39-6.05-1.16c-1.57-0.78-2.78-1.89-3.64-3.35c-0.85-1.46-1.35-2.99-1.5-4.59c-0.14-1.6-0.22-4.72-0.22-9.34v-5.8
			c0-4.99,0.06-8.32,0.19-10c0.13-1.68,0.65-3.27,1.58-4.78c0.92-1.5,2.18-2.63,3.77-3.38c1.59-0.75,3.43-1.13,5.52-1.13
			c2.57,0,4.68,0.47,6.32,1.42c1.65,0.95,2.83,2.29,3.54,4.01C94.56,42.92,94.91,45.09,94.91,47.72z M85.76,60.79
			c0-1.48-0.14-2.5-0.43-3.05c-0.29-0.55-0.76-0.83-1.41-0.83c-0.63,0-1.1,0.26-1.39,0.79c-0.29,0.53-0.44,1.56-0.44,3.09v7.58
			c0,1.85,0.14,3.05,0.42,3.62c0.28,0.57,0.74,0.85,1.39,0.85c0.39,0,0.8-0.22,1.22-0.66c0.42-0.44,0.63-1.63,0.63-3.56V60.79z"/>
	</g>
</g>
<g class="st0">
	<path class="st2" d="M97.96,99.52H23.14c-2.81,0-5.09-2.28-5.09-5.09V20.61c0-2.81,2.28-5.09,5.09-5.09h74.83
		c2.81,0,5.09,2.28,5.09,5.09v73.83C103.05,97.25,100.77,99.52,97.96,99.52z"/>
	<g class="st2">
		<path class="st3" d="M59.23,47.34c-1.56,1.47-3.07,2.52-4.96,3.15c-0.03-0.29-0.06-0.5-0.06-0.71c0-1.98,0.01-3.97-0.01-5.95
			c-0.01-0.54,0.14-0.89,0.63-1.18c2.21-1.33,3.98-3.08,5.12-5.44c0.14-0.28,0.61-0.55,0.93-0.56c1.92-0.05,3.85-0.01,5.78-0.03
			c0.49,0,0.69,0.17,0.65,0.65c-0.01,0.14,0,0.29,0,0.43c0,13.22-0.01,26.44,0.02,39.66c0,0.8-0.17,1.1-1.03,1.08
			c-2.32-0.06-4.64-0.02-7.05-0.02C59.23,68.09,59.23,57.84,59.23,47.34z"/>
		<g>
			<path class="st3" d="M47.89,36.57l6.34,41.92H42.91l-0.6-7.53h-3.96l-0.67,7.53H26.23l5.65-41.92H47.89z M42.02,63.52
				c-0.56-4.75-1.12-10.62-1.69-17.61c-1.13,8.03-1.84,13.9-2.13,17.61H42.02z"/>
		</g>
		<path class="st3" d="M90.68,54.7c1.34,0.62,2.38,1.55,3.11,2.78c0.73,1.23,1.09,4.17,1.09,8.82c0,3.38-0.29,5.88-0.86,7.48
			c-0.57,1.6-1.69,2.92-3.35,3.95c-1.66,1.03-3.89,1.54-6.69,1.54c-2.72,0-4.87-0.49-6.46-1.48c-1.59-0.99-2.72-2.29-3.41-3.91
			c-0.69-1.62-1.03-4.32-1.03-8.11c0-2.54,0.17-4.74,0.51-6.6c0.34-1.86,1.41-3.36,3.21-4.48c-1.13-0.62-1.98-1.61-2.55-2.96
			c-0.57-1.35-0.85-3.07-0.85-5.16c0-3.6,0.88-6.31,2.63-8.11c1.75-1.8,4.37-2.7,7.87-2.7c4.03,0,6.82,0.96,8.36,2.87
			c1.54,1.91,2.31,4.65,2.31,8.2c0,2.26-0.25,3.89-0.76,4.89S92.25,53.72,90.68,54.7z M85.71,63.13c0-1.6-0.14-2.67-0.43-3.2
			c-0.29-0.53-0.74-0.79-1.36-0.79c-0.6,0-1.04,0.25-1.3,0.76c-0.26,0.51-0.4,1.58-0.4,3.22v5.44c0,1.81,0.15,2.98,0.44,3.49
			c0.29,0.52,0.76,0.78,1.39,0.78c0.65,0,1.09-0.26,1.31-0.79s0.34-1.71,0.34-3.56V63.13z M85.53,45.71c0-1.41-0.11-2.35-0.33-2.81
			s-0.64-0.69-1.26-0.69c-0.6,0-1.01,0.25-1.22,0.74c-0.21,0.49-0.32,1.41-0.32,2.76v3.18c0,1.26,0.12,2.13,0.36,2.61
			c0.24,0.48,0.65,0.72,1.22,0.72c0.6,0,1.01-0.24,1.22-0.71c0.21-0.47,0.32-1.45,0.32-2.94V45.71z"/>
	</g>
</g>
</svg>
