<?xml version="1.0" encoding="utf-8"?>
<!-- Generator: Adobe Illustrator 27.4.1, SVG Export Plug-In . SVG Version: 6.00 Build 0)  -->
<svg version="1.1" id="Layer_1" xmlns="http://www.w3.org/2000/svg" xmlns:xlink="http://www.w3.org/1999/xlink" x="0px" y="0px"
	 viewBox="0 0 1080 483.7" style="enable-background:new 0 0 1080 483.7;" xml:space="preserve">
<g>
	<path d="M1051.4,214.5c-0.9-1.2-1.5-2.6-2.3-4.1c-1.3,1.1-2.3,0.6-3.5-0.6c-0.8-0.9-2.2-1.4-3.7-2.3c0.8,1.5,1.4,2.5,1.8,3.5
		c0.2,0.4,0.1,1.3-0.2,1.4c-0.6,0.3-1.7,0.6-2,0.3c-1.7-1.8-3.2-3.7-4.8-5.6c0.1-0.2,0.7-0.8,1.3-1.4c-1.1-0.4-1.9-0.1-2.7-0.3
		c-0.9-0.2-2.2-0.5-2.6-1.1c-2.2-3.8-3.3-4-5.9-0.5c-1.3-0.6-2.7-1.2-4.2-1.7c-0.7-0.3-1.7-0.6-2.3-0.4c-1.4,0.8-2.5,0.4-3.8-0.3
		c-1.6-1-2.6-0.4-2.9,1.5c-0.1,1.1-0.2,2.1-0.4,3.6c-1.5-2.1-2.6-3.9-3.9-5.5c-0.6-0.8-1.6-1.4-2.3-2c-0.6,0.8-1.2,1.7-1.9,2.5
		c-0.2,0.2-0.3,0.5-0.5,0.7c-0.4-0.7-0.7-1.7-1.3-2c-1-0.5-2.4-0.8-3.5-0.7c-1.7,0.2-3.4,0.9-5.4,1.5c0-0.1,0,0.4-0.1,1.3
		c-1.2-0.7-2.1-1.4-3.1-1.9c-0.2-0.1-0.7,0.1-1,0.3c-1.1-0.1-2.2-0.2-3.5-0.3c-0.2,0.9-0.4,2.1-0.5,2.8c-1.4-1.1-2.5-2.5-4-2.9
		c-0.7-0.2-1.9,1.6-3.3,2.9c-1.1-1-2.4-2.2-3.3-3.1c-1.1,0.9-1.9,1.9-2.9,2.2c-1.5,0.5-3.1,0.6-4.7,0.6c-2.7-0.1-1.6,2.4-2.6,3.4
		c-0.2,0.2-0.5,0.3-1.1,0.7c0.2-0.9,0.6-1.6,0.5-2.2c-0.3-1-0.6-2.6-1.3-2.8c-2.9-1.1-6-1-8.7,0.4c-2.5,1.3-4.9,1.7-7.6,0.2
		c-0.2,1.1-0.3,2.1-0.5,3.2c-1.7-0.8-3.2-1.4-4.2,1.3c1.2,0.1,2.2,0.1,3.2,0.1c-1.5,1.7-2.7,1.5-4.7-0.4c-0.6-0.6-1.5-1.4-2.3-1.4
		c-2.1-0.1-4.2,0.1-6.4,0.2c-1.9,0.1-4,0.6-5.7,0.1c-3.2-0.9-3.7-0.8-5.3,2.2c-0.3,0.5-1.6,1.1-2,0.9c-1.7-0.9-3.2-2.2-4.9-3.2
		c-0.5-0.3-1.2-0.4-1.8-0.2c-0.3,0.1-0.4,0.9-0.4,1.5c-0.1,0.8,0,1.6,0,2.5c-1.2-3.2-1.5-3.7-3.8-4c-0.8-0.1-1.7,0.6-2.5,0.9
		c0.6,0.4,1.3,0.7,1.9,1.1c0.5,0.3,1,0.5,1.3,0.9c0.1,0.1-0.2,0.8-0.5,1c-3.1,1.6-4.4,4.2-4.3,7.7c-0.9-0.7-1.6-1.4-2.7-2.3
		c0.4,2.4,0.6,4.2,0.8,5.8c0.9,0,1.7,0,2.4,0c-0.7,0.8-1.4,1.6-2.4,2.8c0,1,2,2.8-0.2,4.3c-1.4,1-3,1.7-4.4,2.6
		c0,0.1,0.1,0.2,0.1,0.4c2.4-0.3,4.7-0.6,7.4-1c0,1.8,0,3.2,0,4.7c3-3.3,6.5-1.3,9.8-1.4c-0.1-1.2-0.2-2.2-0.3-3.2
		c2.7,0.5,0.3,4.9,3.7,4.9c0.5-1.1,0.9-2,1.4-2.9c0.2,0.1,0.5,0.2,0.7,0.3c0.2,0.8,0.3,1.5,0.5,2.5c0.7-0.5,1.2-0.9,1.7-1.3
		c1.4-1.3,2.8-2.4,4.4-0.2c0.2,0.3,1.3,0.5,1.4,0.3c0.4-0.6,0.7-1.3,0.9-2.1c0.2-1,0.4-2.1,0.5-3.2c1,0.4,2.1,0.8,3.2,1.2
		c0.1,0.1,0.3,0,0.5,0c2.6-3.2,4-3.4,5.4-0.8c-1.3,1.1-2.7,2.2-4,3.2c0.2,0.3,0.3,0.5,0.5,0.8c1-0.6,1.9-1.4,3-1.8
		c0.9-0.3,2-0.3,2.9,0c0.3,0.1,0.2,1.5,0.2,2.3c0,0.5-0.2,0.9-0.3,1.4c0.2,0.2,0.3,0.4,0.5,0.7c1.1-0.6,2.5-1,3.3-2
		c2.4-2.8,2.3-2.9,4.9-0.6c0.1,0.1,0.3,0.1,0.5,0.1c4.8-3.8,4.2-3.4,6.6-0.8c0.4-0.3,1-0.5,1.4-0.9c2.1-2.1,4.4-3.6,7.7-2.7
		c1.5,0.4,3.2-0.2,4.8-0.3c0.8,0,1.8-0.2,2.4,0.2c1.7,1.1,3,0.8,4.2-0.8c0.6-0.8,1.8-1.5,2.1,0.1c0.4,2.4,1.5,2,3.1,1.2
		c0.8-0.5,1.9-0.8,2.5-1.4c1.4-1.4,2.8-0.8,4,0c2.8,2.2,2.8,2.2,5.6,0.1c0.6-0.4,2-0.6,2.4-0.2c1.6,1.7,3.4,1,5.2,0.8
		c1.7-0.2,3.4-0.3,5.2-0.4c2.3-0.1,4.7,0.1,6.9-0.4c1.4-0.3,2.1-0.2,2.9,0.8c1.2,1.5,2.5,2.9,3.8,4.4c0.3-0.1,0.5-0.2,0.8-0.3
		c-0.6-2.2-1.3-4.5-1.9-6.7c0.6,0,1.6,0,2.8,0c0.1,1.9,0.2,3.7,0.3,5.6c2.2-0.3,4.2-0.4,6.2-0.8c1.9-0.4,3.8-1.4,5.7-1.5
		c2.5-0.2,4.9,0.3,7.5,0.5c0-0.7,0.1-1.5,0.1-2.2c0.1-2.7,0.5-3,3.1-2.1c0.5,0.2,1.1,0.4,1.6,0.5c2.6,0.6,4.4-0.7,5-3.3
		C1053.1,218.8,1053,216.6,1051.4,214.5z M931.8,209.5c-0.3,0.2-0.5,0.4-0.8,0.6c-0.8-0.8-1.6-1.6-2.4-2.4c0.2-0.3,0.3-0.6,0.5-0.9
		c0.8-0.1,1.6-0.1,2.6-0.2C931.8,207.7,931.8,208.6,931.8,209.5z"/>
	<path d="M1024.5,274.1c0.9-1.3,2.6-2.5,2.4-3.4c-0.4-1.7-1.8-3.2-3.1-5.3c-0.2,1.8-0.4,2.9-0.6,4.3c-1.5-0.1-3.2,0.2-4.2-0.5
		c-0.7-0.4-0.5-2.3-0.8-3.8c-2.5,0.8-4.7,3.2-7.5,1.6c0.3-2.4,0.7-4.7,1.1-7.6c-4.2,0-7.9-0.1-11.6,0.1c-0.8,0-1.4,1-2.2,1.3
		c-0.6,0.2-1.5,0.3-2.1,0.1c-1.9-0.9-3.5-2.4-5.4-2.8c-2.8-0.6-5.7-0.3-8.5-0.5c-2.2-0.2-4.4-0.5-6.6-0.7c-0.9,0.1-1.9,1-3.1,1.2
		c-0.8,0.2-2.3,0-2.8-0.5c-1.2-1.6-2.7-1.6-4.4-1.5c-1.4,0-2.9-0.4-4.3-0.2c-0.9,0.1-2.1,0.6-2.5,1.2c-1.1,1.6-2,1.4-3.4,0.6
		c-0.9-0.5-2.1-0.7-3.1-1.1c-0.7-0.3-1.6-0.4-2.1-0.9c-1.1-1-1.8-1.1-3.2-0.3c-2.1,1.2-4.3,2-6.1-0.9c-0.9-1.5-2.4-0.9-3,1.1
		c-0.3,1-0.4,2.4-1.8,1.9c-0.5-0.2-0.7-1.4-1.1-2.2c-0.1-0.2-0.3-0.3-0.6-0.8c-0.6,0.8-1.2,1.6-1.3,1.7c-1.5-0.6-2.8-1.6-4-1.5
		c-2.5,0.2-4.9,2-7.6,1c-0.3-0.1-1,0.5-1.4,0.7c-1.9,1.1-3.8,2.2-5.7,3.3c-0.7-1.3-1.2-2.3-1.8-3.3c1,0.2,1.7,0.4,2.5,0.5
		c0-0.9,0-1.8,0-2.7c-1.5-0.3-2.6-0.6-3.7-0.6c-0.8,0-1.9,0.4-2.4,0.9c-1.4,1.7-2.5,1.3-3.3,0.2c-3.8,1.3-7.4,2.5-11,3.7
		c1.8,1.7,5.9-1.8,6.9,3c-2.9-0.2-5.8-0.4-7.7,2.3c-0.2,0.3-0.9,0.2-1.4,0.4c-2.1,0.5-2.2,1.1-0.9,2.9c1-0.2,1.9-0.5,2.8-0.7
		c0.1,0.3,0.3,0.5,0.4,0.8c-1.6,1-3.1,2-4.7,3c-0.6,0.4-1.6,1.1-1.5,1.5c0.1,0.6,0.9,1.2,1.7,2c0.4-1.3,0.6-1.9,0.8-2.6
		c0.2,0,0.3,0,0.5,0.1c0,0.9,0,1.9,0,3.2c1.6,0.4,3.4,0.8,5.1,1.2c-0.4,2.4,0,3.7,2.1,4.8c1.2,0.6,2.7,0.8,4,0.8
		c3.9-0.1,7.9,0.9,11.5-1.9c1.2-0.9,3.3-1.4,4.2,1.1c0.1,0.3,1.4,0.5,1.9,0.2c0.7-0.4,1.1-1.2,1.8-2.1c3.3,3.4,7.1,3.3,11,0.8
		c0.2,1.3,0.3,2.2,0.5,3.5c2.6-1.1,5.2-1.6,6.5,1c0.9-1.1,1.9-2.8,2.4-2.6c2.2,0.5,2.6-0.8,2.9-2.8c3.4,2.9,6.3,6.2,10.9,3.9
		c2.2,3.3,2.2,3.3,5.5,1.2c0.5-0.3,1.1-0.5,1.6-0.5c2.1,0,4.1-0.2,6.2,1.1c1.5,1,4.2,0.2,6.3,0.2c0-0.2,0-0.4,0.1-0.7
		c0.7,1.1,1.5,2.2,2.8,4c0.7-3.7,5.6-1.5,5.5-5.7c0.5,0.2,0.7,0.2,0.8,0.3c2.1,1.5,4.2,3,6.3,4.4c0.3,0.2,1,0.1,1.4-0.1
		c4.9-2,9.9-2.2,15.1-1.1c2,0.4,5,0.4,6.2-0.8c1.8-1.8,3.2-2.6,5.6-1.9c0.2,0.1,0.5-0.1,0.7,0c1.7,0.3,3.5,0.6,6,1
		c1.8-0.9,0.5-2.7-0.8-4.7c1.8-0.3,3.3-0.5,4.3-0.6C1027.7,276.9,1025.9,275.3,1024.5,274.1z"/>
	<path d="M892.9,194.5c0.8-0.1,1.5-0.7,2.2-1.1c-0.1,0.3-0.1,0.6-0.2,0.9c1,0.7,1.9,1.8,3,1.9c2.6,0.4,5.4,0.8,6-2.9
		c1.5,1.7,2.9,3.3,4.8,5.4c0.4-1.8,0.6-2.7,0.9-3.8c3.5-0.1,7-1.2,10,2.2c0.6-1.1,1.2-2.1,1.9-3.3c0.8,1,1.5,1.7,2.3,2.6
		c1.6-2,3-2.1,4.6,0c0.2,0.3,1.7,0.3,1.8,0c1.1-2.3,2.6-0.9,4.1-0.6c2.6,0.5,5.2,0.6,7.9,0.8c1.4,0.1,2.8,0,4.2,0
		c0.6,0,1.4,0,1.7-0.4c2.1-2.1,3.3-2.1,5.5,0c0.7,0.7,1.4,1.3,2.1,1.9c0.1-0.1,0.2-0.2,0.3-0.3c-0.6-1.2-1.2-2.3-1.8-3.5
		c0.3-0.2,0.5-0.5,0.8-0.7c1.5,3.9,4.5,3.5,7.5,3.2c2.1-0.2,4.2-0.3,6.2-0.3c1.7,0,3.7,0.6,5-0.1c2-1,3.5-1.8,5.1,0.4
		c0.5-1.9,0.9-3.4,1.4-4.9c0.3,0,0.5,0.1,0.8,0.1c0.3,0.4,0.5,0.8,0.7,1.2c0.9,1.7,2,1.9,3.2,0.4c1.3-1.6,2.3-3.4,3.6-5.4
		c-1.3-0.1-2.4,0-3.4-0.3c-0.7-0.2-1.4-0.8-1.7-1.4c-0.1-0.3,0.7-1,1-1.6c0.6-1,1.1-2.1,1.7-3.2c-2-0.3-3.9,0.1-4.5-0.7
		c-1.3-1.6-2.8-1.5-4.4-1.6c-1,0-2,0-3.2,0c0.7-2.9,2.2-4.5,5.3-4.8c-1.1-0.9-1.8-1.4-2.5-2c-1.5,2-2.8,1.9-4.3,0.2
		c-0.5-0.6-1.7-0.6-2.6-1c-0.8-0.3-1.8-0.4-2.4-1c-1.3-1.4-2.2-1.6-3.5,0.1c-1,1.3-2.6,2-4,0.5c-1.4-1.7-3.1-1.8-4.8-1.2
		c-1.6,0.5-3,1.4-4.4,2.1c-0.7-0.8-1.5-2.5-2.3-2.5c-2.2,0-4.2-0.7-6.2-1.3c-1.5-0.4-3.3-0.1-5.3-0.1c-0.1,0.2-0.4,0.9-0.8,1.7
		c-2.7-0.9-5.9,0.5-8.2-2.1c-0.2-0.2-0.6-0.3-0.9-0.3c-2.1,0-4.2-0.1-6.3,0c-0.5,0-1.1,0.1-1.4,0.4c-1.4,2-2.7,1.2-4.4,0.3
		c-2.4-1.4-5.7-0.5-8,1.1c-1.3,0.9-4.5,1.5-5,0.8c-1.9-2.4-4.3-1.9-6.7-2.2c-3-0.3-3.1-0.2-2.2,2.7c0.1,0.2-0.1,0.4-0.2,1.2
		c-0.9-0.8-1.5-1.3-2.2-2c-1,1.5-1.9,3.2-4.2,2.8c-0.1,0-0.6,1.8-0.6,2.7c0,0.5,1,0.9,1.5,1.4c-0.1,0.3-0.1,0.5-0.2,0.8
		c-1.5-0.1-3.1-0.1-4.8-0.2c-0.8,1-1.8,2.3-2.8,3.6c0.1,0.3,0.2,0.6,0.3,0.8c1.5-0.2,3-0.4,4.6-0.5c-0.7,1-1.6,1.8-2.5,1.8
		c-3.5,0.2-5.7,3.6-4.5,7.3c0.9-0.3,1.7-0.7,2.6-1.1c-0.6,3.9,3.2,4.7,4.1,6.5c2.1-0.5,3.6-0.9,5.2-1.1
		C890.7,194.4,891.8,194.7,892.9,194.5z M904.2,171.6c1.5,0.2,1.7,0.4,1.5,2.9c-2-0.1-3.9-0.2-6.6-0.3
		C901,173.2,902.3,172.6,904.2,171.6z"/>
	<path d="M261.3,202.7c-0.6-0.8-0.5-2.2-1.6-2.5c-1.7-0.6-0.9-1.2-0.3-2c0.3-0.4,0.7-0.8,1-1.3c0.4-0.5,0.4-1.1-0.2-1.5
		c-0.9-0.7-1.5-1.4-0.8-2.5c0.1-0.1,0-0.5-0.2-0.7c-1.6-1.6-2.9-3.4-4.8-4.6c-0.6-0.4-1.3-0.6-0.9-1.6c0.1-0.3,0-0.6-0.3-0.7
		c-0.3-0.2-0.6,0-0.7,0.3c-0.3,0.5-0.8,0.8-1.4,0.9c-0.4,0.1-0.9,0-0.9,0.5c0,0.5,0.6,0.4,1,0.4c1.6,0,2.6,0.9,3.3,2.4
		c-1.6-0.1-3.1-0.3-4.4,0.8c-0.5,0.5-1.1-0.1-1.3-0.7c-0.2-0.7-0.6-1.3-1.5-1.3c-0.9,0-1.4-0.4-1.8-1.2c-0.5-0.9-1.4-1-1.8-0.1
		c-0.7,1.7-1.3,0.9-2,0.1c-0.4-0.4-0.7-0.9-0.9-1.5c-0.8-2.5-0.9-2.5-3.4-1.9c-1.9,0.4-2.1,0.3-2.6-1.5c-0.1-0.2,0-0.5-0.4-0.6
		c-0.4,0-0.5,0.3-0.5,0.6c0,0.7,0,1.5-0.1,2.2c-0.1,0.6,0.3,1.5-0.7,1.4c-0.8-0.1-1.5-0.6-1.5-1.5c0-0.5,0.1-1.1,0.1-1.6
		c0-1.8,1.1-2.9,2.9-2.6c0.4,0,0.7,0.5,1,0c0.2-0.3-0.1-0.6-0.3-0.9c-0.3-0.4-0.6-0.9-1.2-0.6c-1,0.6-2.1,0.9-2.8,2
		c-0.8,1.4-1.9,2.5-3.3,3.4c-1.8,1.1-3.5,2.3-3.8,4.6c-0.1,0.7-0.6,1.2-1.2,1.6c-0.6,0.4-1.4,0.6-1.8-0.1c-0.4-0.7,0.2-1.1,0.8-1.4
		c1.2-0.4,1.8-1.4,2.5-2.4c0.2-0.3,0.3-0.7,0-1.1c-0.2-0.3-0.6-0.4-0.9-0.3c-1.2,0.6-2,0-2.7-0.9c-0.5-0.7-1.3-0.7-1.9-0.1
		c-0.4,0.4-0.9,0.9-1.5,0.7c-2.5-0.6-3.8,1.3-5.4,2.5c-0.6,0.5-0.9,1.3-2,1.1c-0.3-0.1-0.7,0.1-0.7,0.5c0,0.5,0.4,0.5,0.7,0.5
		c0.4,0,0.9-0.2,1.1,0.5c0.1,0.3-0.1,0.6-0.4,0.7c-0.5,0.3-0.9,0.3-1.4,0c-0.3-0.2-0.5-0.7-0.8-0.5c-0.8,0.6-1.8,0.6-2.7,1
		c-1.5,0.7-3.1,1.2-3.9,2.9c-0.1,0.2-0.6,0.2-0.9,0.3c-1,0.3-1.3,0.8-0.6,1.7c0.4,0.5,0.8,1.1,1.2,1.6c0.2,0.2,0.3,0.6,0,0.8
		c-0.3,0.3-0.5,0.1-0.8-0.1c-0.2-0.2-0.4-0.4-0.6-0.6c-1.7-1.6-2.6-1.4-3.8,0.5c-0.2,0.3-0.3,0.9-0.7,0.8c-1.3-0.2-1.8,0.6-2.4,1.5
		c-0.2,0.4-0.7,0.4-1,0.4c-1,0-1.8,0.4-2.4,1.1c-1.3,1.5-3.2,2.4-4.8,3.5c-0.2,0.2-0.7,0.2-0.5,0.8c1.6,0.2,1.7,1.4,1.9,2.6
		c0.1,0.3,0,0.7-0.4,0.8c-0.3,0.1-0.6,0-0.8-0.2c-1.1-1.6-1.4-0.4-1.7,0.5c-0.1,0.2-0.2,0.5-0.3,0.7c-0.4,0.6-0.9,1.4-1.6,1.3
		c-0.7-0.1-0.2-1.1-0.3-1.7c-0.1-0.3,0.1-0.8-0.2-0.9c-0.4-0.3-0.7,0.2-1,0.4c-1.6,1.3-3.1,2.8-4.3,4.5c-0.4,0.5-0.7,1-1.5,1
		c-0.5,0-1-0.1-1.2,0.5c-0.1,0.5,0.3,0.9,0.6,1.2c0.5,0.6,1.3,1.1,0.9,2c-0.4,0.7-0.1,1.1,0.3,1.7c1,1.1-0.7,1.3-0.8,2.1
		c0,0.4-0.2,0.8-0.7,0.8c-0.3,0-0.4-0.2-0.5-0.4c-0.3-0.5-0.3-1,0-1.5c0.4-0.8,0.2-1.6-0.5-2.2c-0.7-0.6-1.5-1-2.5-0.4
		c-1.1,0.6-2.1,1.3-2.8,2.2c-1.7,2.2-3.6,4-5.9,5.5c-0.3,0.2-0.7,0.4-0.5,0.8c0.2,0.4,0.6,0.2,0.9,0.2c2.9-0.2,2.9-0.2,2,2.5
		c-0.2,0.6-0.4,1.2-1,1.3c-0.7,0.1-0.7-0.6-0.9-0.9c-0.8-1.1-2.1-1.1-3.2-1.3c-0.8-0.1-1.3,1-1.5,1.8c-0.2,0.9-0.6,1.2-1.4,1.4
		c-0.6,0.1-1,0.4-0.9,1.1c0.1,0.6,0.6,0.7,1.1,0.7c0.9,0.1,1.7,0.3,2.3,1.4c-0.7,0-1.1,0-1.6,0c-2,0.1-4,0.4-5.7,1.5
		c-1.9,1.2-3.5,2.8-4.9,4.5c-0.8,1-1.3,2.2-1.3,3.4c0,1-0.3,1.2-1.2,1.1c-0.6-0.1-1.3-0.3-1.4,0.6c0,1-0.3,1.6-1.2,2.1
		c-0.6,0.3-0.5,1.1-0.1,1.5c0.5,0.6,0.8-0.1,1.1-0.4c0.3-0.3,0.6-0.5,0.8-0.9c0.6-1.1,1.1-1.6,1.8,0c0.2,0.5,0.7,0.9,1.3,0.7
		c0.5-0.2,0.4-0.7,0.4-1.1c-0.1-0.6,0.2-0.9,0.7-0.6c1.5,0.7,2.4-0.1,3.2-1.1c0.2-0.3,0.3-0.7,0.9-0.4c-0.4,0.9-0.7,1.8-1.2,2.6
		c-0.4,0.7-0.9,1.4-1.8,1.6c-1.1,0.2-2.1,0.8-2.9,1.6c-0.2,0.2-0.4,0.5-0.7,0.3c-0.3-0.2-0.2-0.5-0.1-0.8c0.1-0.3,0.3-0.7-0.1-0.9
		c-0.4-0.2-0.6,0.2-0.9,0.3c-0.3,0.2-0.6,0.4-0.8,0.6c-0.7,0.7-1.2,0.8-2.1,0.2c-1-0.6-2.2-0.6-3.2,0c-0.9,0.6-1.4,0.3-1.9-0.4
		c-0.6-0.8-0.5-1.4,0.2-2c0.7-0.6,1-1-0.1-1.5c-0.7-0.3-0.5-1.1-0.3-1.7c0.2-0.6,0.8-0.4,1.3-0.4c0.5,0,0.9,0.7,1.8,0.1
		c-0.5-0.4-0.9-0.7-1.4-1c-1.6-1.2-2.2-2.9-1.9-4.9c0.2-1.1,0.2-2.3,0.3-3.5c0-0.3,0-0.8,0.4-0.9c1.9-0.6,1.2-1.7,0.7-2.8
		c-0.6-1.2-1.2-2.4-0.2-3.5c0.8-1,1.1-2.1,1.5-3.3c0.6-1.8,0.7-1.9-1-2.8c-0.3-0.2-0.7-0.4-1-0.5c-0.7-0.3-1-0.8-0.2-1.3
		c1-0.7-0.1-2.2,1.2-2.8c0.1,0-0.2-0.4-0.5-0.4c-1.5-0.1-1-0.7-0.4-1.4c0.9-1.1,0.7-1.6-0.7-2c-0.8-0.3-1.6-0.4-2.3-0.9
		c-0.5-0.4-0.9-0.4-1.3,0.1c-0.6,0.6-1.5,1-2,0.4c-0.7-0.8,0.4-1.3,0.9-1.6c1.1-0.8,1.9-2,1.3-3.1c-0.7-1.3-1.4-2.8-2.8-3.6
		c-0.4-0.2-0.8-0.1-1.1,0.2c-0.5,0.4-1,0.8-1.5,1.2c-0.4,0.3-0.7,1.2-1.3,0.8c-0.5-0.3,0.2-0.8,0.4-1.2c0.2-0.4,0.1-0.8-0.1-1.1
		c-0.2-0.3-0.5-0.7-0.3-1.1c0.7-1.5,0-1.9-1.3-2.4c-1.1-0.5-1.2-0.3-1.2,0.7c0,0.5-0.3,1-0.8,0.6c-1.2-1-2.9-1.1-3.8-2.8
		c-0.8-1.5-1.6-1.4-2.6,0c-0.7,1.1-1.2,1.1-2.1,0.1c-0.6-0.8-1.9-0.8-2-0.1c-0.1,1.1-1,1.6-1.4,2.4c-0.6,1-1.2,0.7-2.1,0.8
		c-1.5,0.1-3.5-2.2-4.5,0.7c0,0-0.1,0-0.1,0.1c-0.4,0.3-1.4,0.2-1.2,1c0.1,0.6,0.9,0.3,1.4,0.4c0,0,0.1,0,0.1,0
		c0.4,0.1,0.8,0.4,1,0.8c0.2,0.6-0.4,0.6-0.8,0.8c-0.5,0.3-0.9,0.6-0.7,1.3c0.4,1-0.2,1.4-0.9,1.8c-0.9,0.5-1.7,1.1-2.4,1.8
		c-0.3,0.3-0.6,0.8-0.3,1.2c0.5,0.5,0.9,1.2,1.6,1.4c0.6,0.1,0.6-0.6,0.8-1c0.3-0.6,0.5-1.2,0.8-1.7c0.2-0.3,0.4-0.6,0.8-0.4
		c0.4,0.1,0.4,0.5,0.4,0.9c0,0.5-0.3,0.9-0.7,1.2c-0.8,0.7-1.4,1.6-1.7,2.7c-0.1,0.7-0.6,0.8-1.2,0.8c-0.5,0-1-0.1-1.1-0.7
		c-0.1-0.6-0.4-1.2-1-1.3c-1.6-0.4-1.5-1.2-0.7-2.3c0.2-0.3,0.3-0.6,0.4-0.9c0.1-0.6,0.4-1.3-0.5-1.6c-0.8-0.2-1.3,0.1-1.5,0.9
		c-0.5,1.9-1.8,2.7-3.6,2.8c-1,0.1-1.4,0.5-1.2,1.5c0.1,0.5,0.1,1,0.3,1.4c0.2,0.9,0.8,1,1.3,0.4c0.7-0.8,1.7-1.3,2.1-2.4
		c0.2-0.4,0.5-0.6,0.9-0.3c0.3,0.2,0.8,0.5,0.5,0.9c-1.1,1.6-0.2,2.5,1.1,3.4c0.6,0.5,0.9,1.1,0.3,1.9c-0.5,0.6-1,1.3-1.6,1.9
		c-0.7,0.8-1.5,0.3-2.1,0c-0.8-0.4-0.5-1.1-0.2-1.6c0.4-0.6,0.8-1.2,1.2-1.8c0.2-0.3,0.4-0.6,0.1-0.9c-0.3-0.2-0.7-0.1-0.9,0.2
		c-0.3,0.3-0.4,0.7-0.7,1.1c-0.6,0.8-0.7,2.4-2.4,1.2c-0.4-0.3-0.9,0.3-1.3,0.5c-1.1,0.7-2.1,0.9-3.2,0c-0.2-0.2-0.4-0.5-0.8-0.2
		c0.6,1.2,0.9,2.6,1.2,3.9c0.1,0.4,0.1,0.9-0.3,1.2c-0.5,0.4-0.7-0.2-1.1-0.4c-1.2-0.6-1.7-1.5-1.5-2.8c0-0.3,0.2-0.9-0.3-1
		c-0.6-0.1-0.6,0.5-0.7,0.9c-0.2,0.9,0.1,2-1.1,2.5c-0.1,0-0.1,0.2-0.2,0.4c-0.4,1.2,0.2,1.8,1.7,1.6c0.6-0.1,1.6-0.5,1.7,0.5
		c0.1,1-0.2,2.3-1.1,2.8c-1.1,0.6-0.7,1-0.3,1.7c0.2,0.4,0.5,0.7,0.7,1.1c1,1.4,0.8,1.7-0.8,2.1c-1.2,0.3-2.3,1-3.1,2
		c-1,1.5-1.6,3.1-1.3,5c0.2,0.8,0,1.6,0,2.5c0,0.8-0.3,1.1-1.1,0.6c-0.7-0.6-1.1-0.3-1.5,0.4c-0.2,0.4-0.6,0.8-0.9,1.1
		c-0.5,0.4-1,0.4-1.4-0.1c-0.3-0.4-0.3-3.4,0-3.7c0.5-0.5,0.5-1.1,0-1.5c-0.5-0.5-1.1-0.4-1.5,0.1c-0.5,0.6-1.1,0.9-1.8,1.1
		c-0.5,0.2-1,0.4-1.1,1.3c1.7-1.1,2.8-0.7,3.4,1c0.1,0.4,0.3,0.8,0.2,1.1c-0.2,1.3,0.2,2.1,1.9,2.2c-0.8,0.9-1.7,1.2-2.2,2
		c-0.2,0.3-0.7,0.3-0.9,0c-0.7-1.5-1.6-1-2.6-0.1c0.1-1.5,0.3-2.7,0.9-3.9c-0.2,0-0.4-0.1-0.4,0c-0.5,0.4-1.1,1-1.7,0.3
		c-0.6-0.6-0.2-1.2,0.3-1.8c0.2-0.3,0.6-0.8,0.2-1c-1.3-0.6-1.1-2.4-2.7-2.7c-0.4-0.1-0.4-0.3-0.2-0.6c0.5-1.4,1.2-1.5,2.6-0.3
		c1.6,1.3,1.9,1.2,2.8-0.6c0.2-0.3,0.3-0.6,0.4-0.9c0.2-0.9,0.6-1.4,1.6-0.9c0.4,0.2,0.9,0.1,1-0.4c0.1-0.5-0.2-0.8-0.7-0.9
		c-0.3,0-0.6,0-0.9,0c-1.3,0-2.7,0.7-3.5-1c-0.2-0.3-0.7-0.3-1.1-0.2c-0.6,0.1-1.1,0.3-1.7,0.5c-0.4,0.1-0.9,0.5-1.3,0.1
		c-0.4-0.4-0.1-1,0.1-1.4c0.6-1,0.9-2.3,1.7-3.2c0.6-0.7,0.4-1.1-0.4-1.4c-0.4-0.1-0.7-0.3-1-0.5c-0.4-0.4-0.4-0.9,0.2-0.9
		c1.2,0,1.6-0.8,2.2-1.6c0.4-0.6,0.9-1.3,1.7-0.4c0.3,0.3,0.6,1,1.1,0.3c0.4-0.6,0-1.2-0.6-1.4c-0.8-0.3-1.3-0.7-1.9-1.2
		c-0.9-0.8-1.6-0.5-1.9,0.6c-0.1,0.3-0.1,0.6-0.2,0.9c-0.1,0.3-0.2,0.6-0.6,0.5c-0.3,0-0.4-0.3-0.4-0.5c-0.1-0.9-0.2-1.7,1-2.1
		c1-0.4,1.2-1.1,0.3-1.9c-0.3-0.3-0.9-0.4-0.8-0.9c0.2-0.5,0.9-0.3,1.3-0.3c0.6-0.1,1.5,0.2,1.6-0.8c0.1-1.6-0.7-3.2-0.1-4.8
		c0,0,0-0.1-0.1-0.1c-0.7-0.7-0.2-1.1,0.3-1.5c0.5-0.5,1.2-1.3,0.4-1.8c-1.4-0.9-0.6-1.7-0.1-2.5c0.3-0.6,0.8-1.2,1.2-1.8
		c1.1-1.8,1.1-1.9-1-2.3c-0.5-0.1-1-0.3-1.3-0.5c-0.9-0.6-0.8-1.5,0.1-2.1c0.4-0.2,1.1-0.3,1-0.9c-0.1-0.7-0.8-0.7-1.3-0.7
		c-0.5,0-0.9-1.2-1.4-0.1c-0.2,0.6-0.5,1-1.1,0.6c-0.6-0.4-0.6-1-0.1-1.5c0.6-0.6,0.4-1-0.4-1.3c-1.3-0.4-1.1-1.3-0.5-2.1
		c0.2-0.3,0.6-0.4,0.4-0.8c-0.3-0.4-0.7-0.2-1.1-0.1c-0.6,0.2-1.3,0.8-1.5-0.5c0-0.2-0.3-0.1-0.5,0c-0.7,0.4-1.2,0.1-1.8-0.3
		c-0.6-0.3-1.1-0.5-1.8-0.3c-0.6,0.2-1.2,0-1.7-0.3c-0.8-0.5-1.4-0.5-1.7,0.6c-0.2,1-0.8,0.9-1.5,0.3c-0.3-0.3-0.6-0.5-0.9-0.8
		c-0.2-0.2-0.5-0.2-0.7-0.1c-0.3,0.2-0.2,0.5-0.1,0.8c0.5,1.7,0.3,2.1-1.5,1.9c-0.5,0-1-0.1-1.2,0.5c-0.2,0.6,0.3,0.8,0.7,1.1
		c1,0.6,1,1.5,0.2,2.3c-0.4,0.4-0.9,0.6-1.3,0.9c-0.6,0.4-0.8,0.8-0.6,1.5c0.1,0.3,0.4,0.8-0.1,1c-0.4,0.2-0.7,0-1.1-0.2
		c-0.2-0.2-0.5-0.6-0.9-0.2c0.4,0.8,1.1,1.1,1.8,1.3c0.4,0.1,0.7,0.3,0.7,0.8c0,0.4-0.3,0.7-0.6,0.9c-0.4,0.3-0.9,0.2-1.4,0.1
		c-0.2-0.1-0.5-0.1-0.6,0.2c-0.1,0.3,0.1,0.4,0.2,0.6c0.3,0.3,1,0.5,0.5,1c-0.5,0.5-0.3,1-0.3,1.6c0,1.3-1.3,2.3-2.3,1.8
		c-1.6-0.7-3.1,0-3.7,1.9c1-0.3,1.8-0.9,2.8-0.8c0.4,0,0.9,0,1.2,0.4c0.3,0.5-0.1,0.8-0.3,1.2c-0.3,0.6-0.6,1.2-0.9,1.8
		c-0.7,1-0.4,1.5,0.8,1.6c0.8,0.1,1,0.3,0.4,1.1c-0.9,1.1-1.6,2.2-3,2.8c-0.5,0.2-1,0.9-0.5,1.4c0.5,0.5,0.8-0.2,1.2-0.5
		c0.9-0.8,1.3-0.4,1.6,0.5c0.3,1,0.8,1.9,1.2,2.8c0.2,0.4,0.4,0.6,0.9,0.6c1.4,0.1,1.9,1.1,0.9,2.4c-0.4,0.6-1.1,1-1.2,1.7
		c0.2,0.6,1.5-0.3,1.1,0.9c-0.2,0.5-0.7,1.6-1.4,0.9c-0.6-0.5-2.3-0.4-1.5-2c0.1-0.3,0.4-0.5,0.1-0.8c-0.3-0.3-0.5,0-0.8,0.2
		c-1.8,1.1-2.5,0.8-2.7-1.1c-1.1,1-0.9,2,0.5,2.7c0.4,0.2,1,0.2,1.3,0.6c1,1.7,1.8,3.6,1.3,5.7c-0.1,0.2-0.2,0.6-0.3,0.6
		c-1.4,0-2,1.2-2.8,2c-0.2,0.2-0.6,0.5-1,0.2c0-0.6,1.2-1.1,0.4-1.7c-0.6-0.5-0.7,0.6-1.2,0.8c-2.2,0.7-1.6,0.9,0.1,1.7
		c0.9,0.5,1.6,0.9,2.6,0.7c0.5-0.1,1-0.1,1.4,0c0.4,0.1,1.1-0.3,1.3,0.3c0.2,0.6-0.5,0.7-0.8,1c-0.4,0.3-0.9,0.7-0.5,1.2
		c0.4,0.6,0.8,0.1,1.2-0.2c0.2-0.2,0.4-0.6,0.7-0.3c0.3,0.3,0.2,0.6,0,0.9c-0.2,0.3-0.4,0.5-0.8,0.5c-0.7,0-0.8,0.5-0.7,1
		c0.4,1.3-0.3,1.5-1.4,1.4c-0.5,0-1.3-0.2-1.3,0.3c0,0.8,0.3,1.7,0.7,2.4c0.3,0.5,1.1,0.5,1.8,0.3c0.3-0.1,0.6-0.3,0.9-0.4
		c0.4-0.1,1,0,0.8,0.4c-0.5,1,0.1,1.5,0.6,2.1c0.4,0.5,0.5,1.3,0.6,1.9c0.1,0.7,0,1.4-1,0.8c-1-0.5-1.1-0.1-0.8,0.8
		c0.1,0.4,0.3,0.9,0,1.2c-0.5,0.4-0.9,0-1.3-0.2c-0.5-0.2-1.2-0.6-1.3,0.2c-0.2,1.2-0.8,2.6,0.3,3.7c0.9,0.9,1.2,1.6,0,2.4
		c-0.3,0.2-0.5,0.6-0.2,1c0.2,0.4,0.7,0.4,1,0.3c0.5-0.1,1.1-0.1,1.6,0.1c0.3,0.1,0.6,0.1,0.6,0.5c0,0.3-0.4,0.4-0.6,0.5
		c-1.1,0.3-2.2,0.5-3.3,0.7c-1.5,0.4-1.9,0.9-0.8,2c2,1.9,0.7,4.2,1,6.3c0,0.2-0.2,0.4-0.4,0.5c-1,0.4-1.2,0.7,0,1.1
		c1,0.4,0.9,1.3,0.5,1.9c-0.4,0.7-1.2,1.1-0.4,2.1c0.2,0.3-0.3,0.4-0.5,0.5c-1.2,0.1-1.1,0.6-0.4,1.4c0.6,0.7,0.8,1.6-0.2,2.2
		c-1.1,0.7-0.8,0.9,0.2,1.4c2,0.9,2.1,1.5,0.8,3.2c-0.4,0.5-0.2,0.8,0.1,1.3c0.9,1.3,0.6,2.2-1,2.5c-0.9,0.2-1.1,0.7-0.5,1.3
		c1.3,1.4,0.5,2.7-0.1,4c-0.2,0.4-0.6,0.6-0.4,1.2c0.2,0.4,0.5,1,0,1.3c-0.6,0.3-1-0.3-1.4-0.7c-0.2-0.2-0.3-0.4-0.5-0.6
		c-0.2-0.2-0.3-0.6-0.7-0.4c-0.4,0.3-0.1,0.6,0.1,0.9c0.4,0.6,0.6,1.3,0.1,1.9c-1.2,1.5-0.3,3.8-2.1,5.1c-0.1,0.1,0,0.4,0,0.6
		c0.5,1.6,0.2,3.4,1.8,4.6c0.2,0.1,0.2,0.3,0,0.5c-0.7,0.1-1.1-0.3-1.5-0.8c-0.2-0.3-0.5-0.5-0.9-0.3c-0.4,0.2-0.4,0.5-0.3,0.9
		c0.2,0.9,0.2,1.8,0.7,2.6c0.4,0.6,0.2,1.2-0.6,1.2c-1.4,0.1-2.4,0.7-2.7,2.2c-0.1,0.4-0.5,0.7-0.8,1c-0.5,0.5-0.8,1.1-0.7,1.8
		c0.1,1,0.6,1.8,1.2,2.6c0.5,0.8,1.1,1.8,2.1,1.4c1-0.4,1.7-1.4,1.6-2.7c-0.1-1.7,0-1.8,1.8-1.8c0.3,0,0.7-0.1,0.9,0.2
		c0.2,0.4-0.2,0.6-0.4,0.9c-0.6,1.2-1.7,2.2-1.1,3.8c0.3,0.8-0.5,0.9-1,0.5c-0.6-0.4-0.9-0.6-1.3,0.3c-0.3,0.7-0.8,0.6-1.3,0.2
		c-0.3-0.2-0.5-0.6-0.7-0.9c-0.2-0.3-0.5-0.5-0.8-0.3c-0.3,0.2-0.2,0.5-0.1,0.8c0.2,0.3,0.5,0.6,0.8,0.9c1,0.8,1.9,1.6,2.3,2.9
		c0.2,0.6,0.6,0.7,1.1,0.5c0.5-0.2,1.3-0.5,1.6,0.1c0.3,0.6-0.4,1-0.8,1.4c-0.6,0.8-1.1,1.6-0.1,2.5c0.4,0.4,0.6,0.8-0.1,1.3
		c-0.7,0.5,0,0.8,0.3,1.1c0.3,0.3,0.7,1,1.1,0.4c0.8-0.9,1.1-0.6,1.2,0.4c0.1,0.6,0.6,1,1.1,1.3c0.6,0.3,1.1,0.8,1.4,1.4
		c0.6,1.3,1.5,1.6,2.8,0.7c0.4-0.3,0.8-0.8,1.4-0.6c1.1,0.3,2.1-0.1,3.2-0.1c1,0,1.6-0.4,1.8-1.4c0.1-0.8,0.6-1,1.3-1
		c0.6,0,1.3,0,1.9,0c1.2,0,1.7-0.6,1.8-1.8c-0.6-0.1-1.3,0.6-1.7-0.1c1.1-1.2,2.1-2.3,3.7-2.8c0.5-0.1,0.8-0.6,0.9-1.1
		c0.2-1.3,1.1-2.4,0.5-3.8c-0.2-0.5,0.2-0.8,0.7-0.9c0.7-0.2,1-0.7,1.1-1.4c0.2-1.8,1.9-3.1,1.6-5c0-0.1,0.1-0.3,0.2-0.4
		c1-0.5,0.9-1.4,0.9-2.3c-0.1-1.3,0.3-2.3,1.1-3.3c0.5-0.6,0.8-0.8,1.3-0.1c0.2,0.3,0.4,0.6,0.8,0.4c0.4-0.2,0.2-0.6,0.1-0.9
		c-0.1-0.4-0.1-0.8-0.4-1.1c-1.3-1.4-0.3-2.1,0.7-3c0.6-0.6,1.3,0.3,1.9-0.2c-1.6-2.2-2.2-2.5-4.5-1.7c-0.3,0.1-0.7,0.2-0.9-0.2
		c-0.2-0.4,0.1-0.7,0.4-0.8c0.4-0.2,1.1-0.3,1.3-0.6c0.7-1.4,1.6-1,2.6-0.5c0.7,0.4,1.5,0.2,2.1-0.5c0.5-0.7,0.3-1.3-0.3-1.8
		c-0.6-0.5-0.3-0.9,0.2-1.3c1-0.8,2.1-1.7,2.6-2.9c0.4-1.1,1-1.8,1.9-2.5c0.9-0.7,1-2.7,0.4-3.6c-0.9-1.1-1.7-0.6-2.4,0.2
		c-0.1,0.1-0.2,0.1-0.3,0.1c-0.5,0.1-0.8-0.1-1.1-0.5c-0.2-0.3-0.5-0.6-0.3-0.9c0.2-0.4,0.7-0.3,1.1-0.2c1.3,0.2,2.6-0.1,3.9,0.4
		c0.8,0.3,1.5-0.3,2-1c0.5-0.6,0.7-1.2,0.1-1.9c-0.4-0.5-0.3-1.1,0.2-1.6c1.9-1.8,2.8-4.4,4.7-6.2c0.3-0.3,0.5-0.6,0.3-1
		c-0.2-0.4-0.7-0.3-1-0.3c-1.2,0-2.3,0-3.5,0c-0.7,0-0.9-0.4-0.9-1c0-0.5,0-1.1,0.7-1.1c1.8,0.2,3-0.8,4.2-1.9
		c0.2-0.2,0.5-0.5,0.8,0c0.9,1.2,1.5,1.2,2.5,0c1.1-1.4,1.8-3,2.3-4.7c0.5-1.7,1.4-2.2,3-1.2c0.4,0.2,0.7,0.7,1.3,0.3
		c-0.1-0.6-0.6-0.8-1-1.2c-0.5-0.4-0.9-0.9-0.9-1.6c-0.1-1.1-0.7-1.7-1.9-1.4c-0.3,0.1-0.6,0.2-0.8-0.2c-0.2-0.3,0.2-0.5,0.3-0.7
		c0.8-1,1.8-1.5,3-1.5c0.6,0,1.3,0.1,1.7-0.6c1-1.8,2.3-3.5,2.9-5.5c0.6-1.9,1.2-3.9-0.3-5.8c-0.4-0.5-0.2-0.8,0.4-0.9
		c0.7,0,1.4,0,2,0c0.8,0,1.6-0.4,1.7-1.1c0.2-1.4,0.7-2.6,1.5-3.7c0.4-0.6,0.1-1-0.6-1.1c-0.3,0-0.7,0-1,0c-0.4,0-0.9-0.1-0.8-0.6
		c0.1-0.5,0.5-0.4,0.8-0.3c0.9,0.2,1.7,0.1,2.3-0.5c0.8-0.7,1.5-1.5,2.2-2.3c0.7-0.8,1.5-1.2,2.2-0.5c0.8,0.8,0.3,1.6-0.5,2.2
		c-1.3,0.9-1.7,2.2-1.5,3.7c0.1,0.9,1.2,1.3,1.3,2.2c0,0.3,0.2,0.6,0.5,0.6c0.5,0.1,0.5-0.3,0.6-0.7c0.1-0.3,0.2-0.7,0.6-0.7
		c0.5,0,0.6,0.5,0.6,0.9c0.1,0.6,0.3,1.2,0.8,1.5c1.5,0.8,2.5,1.9,2.9,3.6c0.1,0.4,0.7,0.8,0.2,1.3c-0.5,0.4-1.1,0.9-1.9,0.6
		c-0.8-0.4-1.8-0.4-2.5-1.1c-0.4-0.4-1-0.4-1.4,0.1c-0.6,0.7-1.6,1.3-1.5,2.4c0.1,0.7,0.9,0.6,1.5,0.7c0.9,0.1,1.4,0.4,0.6,1.2
		c-1,1.1-1.4,2.3-0.3,3.6c0.1,0.2,0.3,0.4-0.1,0.8c-0.9-0.7-1.3-1.8-1.9-2.8c-0.2-0.4-0.3-1.1-0.9-0.8c-0.5,0.2-0.3,0.9-0.2,1.3
		c0.1,0.3,0.3,0.6,0.5,0.9c0.5,0.6,0.5,1.2-0.1,1.8c-0.5,0.5-0.9,1.3-0.3,1.8c0.5,0.5,1-0.3,1.5-0.5c0.8-0.5,1.5-0.9,1.8,0.5
		c0.1,0.6,0.1,1.4,0.9,1.1c0.6-0.2,0.4-1,0.2-1.6c-0.1-0.3-0.3-0.5-0.5-0.7c-0.6-0.9,0.2-1.3,0.7-1.8c0.6-0.6,0.9,0,1.3,0.4
		c0.2,0.3,0.5,0.5,0.7,0.7c1.5,1.4,1.5,1.8-0.2,3c-1.1,0.7-1.7,1.6-1.8,2.9c-0.1,1-0.1,2.2-1.9,1.2c0.7,1.8,0.4,3.6,1.9,4.7
		c0.6,0.5,0.8,1.2,0.3,1.9c-0.5,0.8-1.1,1-2,0.5c-0.2-0.1-0.5-0.1-0.7-0.2c-1-0.1-1.4-0.4-0.6-1.3c0.8-0.8,0.7-1.8,0.4-2.7
		c-0.2-0.8-1-1.2-1.7-0.5c-0.9,1-1.6,1.6-2.4-0.1c-0.1-0.2-0.5-0.4-0.8-0.2c-0.3,0.1-0.4,0.4-0.2,0.6c0.6,0.7,0.2,1.7,0.6,2.3
		c0.7,1.1,0.4,1.8-0.4,2.5c-0.3,0.3-0.6,0.6-0.5,1c0.2,0.5,0.7,0.3,1.1,0.4c0.9,0.2,1.7,0.2,2.2-0.8c0.2-0.4,0.8-0.6,1.3-0.3
		c0.5,0.4,0.1,0.7-0.2,1.1c-0.7,0.9-0.4,1.6,0.6,2.1c0.3,0.2,0.8,0.2,0.9,0.6c-0.6,0.4-1.1,0-1.7-0.1c-0.5-0.1-1,0-0.9,0.6
		c0.4,1.4-0.8,1.5-1.6,2.4c0.2-1.1,0.3-2-0.8-2.2c-1.1-0.2-1.2,0.7-1.3,1.5c-0.1,0.5-0.4,0.9-0.9,0.7c-1.7-0.6-1.6,0.7-1.7,1.5
		c-0.2,1.6,0.5,3.6-2,4.1c-0.4,0.1-0.5,0.7-0.1,1.1c0.2,0.3,0.6,0.2,0.7-0.1c0.5-1,1.2-1.1,2.2-0.9c0.3,0.1,0.7-0.1,0.9-0.4
		c0.2-0.5-0.2-0.5-0.4-0.8c-0.8-0.8-0.5-1.7-0.1-2.5c0.1-0.2,0.2-0.4,0.5-0.4c0.3,0,0.4,0.3,0.5,0.5c0.2,0.6,0.2,1.2,0.4,1.8
		c0.7,1.8,0.6,1.9-1,3c-0.4,0.3-0.8,0.6-1.2,0.8c-1.2,0.6-0.9,1.3-0.4,2.1c0.6,0.9,1.3,0.8,2,0.2c0.5-0.4,1.1-0.8,1.8-0.9
		c0.5-0.1,0.8,0,0.5,0.6c-0.5,1.3-4.3,2.9-5.7,2.5c-0.5-0.2-0.8-0.1-1.2,0.3c-0.9,1-1.2,2.2-1.9,3.5c1.4-0.8,3.7-0.9,4.5-0.2
		c1,0.7,1,1.8,0.9,2.9c0,0.6-0.4,1.1-0.7,1.6c-0.6,1.1-0.8,2.2-0.4,3.4c0.1,0.2,0.1,0.5,0.4,0.5c0.4,0.1,0.5-0.2,0.6-0.5
		c0.3-1.6,1.7-2.4,2.8-3.4c1-0.9,1.7-0.6,2.1,0.7c0.1,0.3,0.2,0.6,0.4,0.9c0.2,0.3,0.7,0.4,0.5,0.9c-0.2,0.5-0.7,0.3-1,0.2
		c-0.4-0.1-0.8-0.2-1,0.3c-0.2,0.4,0.1,0.8,0.4,1c0.5,0.4,0.7,0.8,0.5,1.4c-0.1,0.3-0.2,0.6,0.2,0.8c0.3,0.1,0.6-0.1,0.8-0.3
		c0.6-0.6,1.2-0.7,1.8-0.1c0.4,0.4,1,0.8,0.7,1.4c-0.3,0.9-1,0.4-1.6,0.4c-0.3,0-0.6,0-0.8,0.3c-0.2,0.3,0.1,0.5,0.4,0.7
		c0.8,0.7,1.7,1.2,2.9,1.3c0.4,0,1,0,1.1,0.5c0.1,0.5-0.4,0.6-0.7,0.8c-0.9,0.7-0.8,1.5,0.2,2c0.8,0.4,1.6,0.4,2.2-0.4
		c0.2-0.3,0.6-0.6,0.8-0.2c0.7,1.2,1.3,0.5,2,0.1c1.4-0.8,1.9-0.5,2.2,1c0.2,0.9,1.3,1.2,2.1,0.5c0.3-0.3,0.5-0.7,0.8-1
		c1.3-1.6,2.4-3.3,4.4-4.5c3.2-1.9,5.2-5.4,8-7.9c0.6-0.5,1-1.3,1.9-1.4c0.6-0.1,0.9-0.6,0.5-1.2c-0.4-0.6-0.2-1,0.4-1
		c1.9,0,3.1-0.9,3.6-2.7c0.1-0.3,0.4-0.5,0.7-0.7c2.3-2,3.1-4.7,2-7.5c1.2,0.3,2.3,0.8,3.4,0.1c1.8-1.2,2.8-3.2,4-4.9
		c0.2-0.3,0.1-0.8-0.1-1.1c-0.2-0.5-0.1-0.8,0.5-0.9c3.4-0.9,5.7-3.1,7.4-6.2c0.1-0.3,0.5-0.5,0.8-0.6c1.8-0.6,2.1-3.1,4.2-3.3
		c0.1,0,0.1-0.2,0.2-0.2c0.9-1.2,2-2.3,3.1-3.3c0.4-0.4,0.8-0.7,0.6-1.3c-0.2-0.7,0.1-1.2,0.6-1.7c2.3-2,4-4.7,6.3-6.8
		c1.4-1.3,2.9-2.4,4.2-3.8c0.4-0.4,0.9-0.9,0.5-1.5c-0.7-1.1,0-1.5,0.8-1.9c0.6-0.3,1.5-0.6,1.5-1.4c0-1.2,0.5-1.9,1.6-2.4
		c0.5-0.3,0.8-0.7,0.9-1.3c0.3-1.6,2.9-0.1,2.9-2.1c0,0,0.4,0,0.7,0c0,0,0.1,0,0.1,0.1c1,0.4,1-0.1,0.7-0.8
		c-0.3-0.6-0.3-1.5,0.4-1.5c1.7,0,2.7-1.4,4.2-1.9c1.3-0.4,2-1,1.4-2.4c-0.2-0.5-0.1-1,0.6-0.8c1.5,0.5,2-0.5,2.5-1.6
		c0.6-1.5,1.5-2.6,3.2-3.2c1.1-0.3,1.9-1.1,2.6-2c0.6-0.8,1.5-1.4,2.5-1.1c1.6,0.4,1.9-0.3,1.8-1.7c-0.1-1.5,0.9-3,1.9-3
		c2.3-0.1,3.6-1.5,4.6-3.4c1.1-2.1,3.1-3,5.2-3.8c1-0.4,2.5-0.6,2.7-1.7c0.4-1.6,1.5-2.8,1.9-4.3c0.2-0.7,0.6-1.2,1.2-0.3
		c0.5,0.7,1.2,0.7,1.9,0.8c1.3,0.1,2.1-0.9,3.2-1.3c1.9-0.8,2.4-2.1,1.5-4.2c-0.3,0.2-0.5,0.5-0.8,0.6c-0.4,0.2-0.9,0.3-1.1-0.2
		c-0.2-0.6,0.2-0.8,0.7-0.9c0.5-0.1,1-0.2,1.5-0.5c1-0.6,1.9-0.6,2.8,0.2c0.7,0.6,1.7,0.9,2.6,0.7c1.4-0.4,2.7-0.1,4,0.1
		c0.9,0.2,1.4,0.6,1.3,1.6c-0.1,1.1,0.3,1.5,1.4,1.4c0.4-0.1,0.9-0.1,1.1,0.5c0.3,0.9-0.7,2.5-1.7,2.7c-0.7,0.1-1.5,0.2-1.7,0.9
		c-0.2,0.8,0.6,1,1,1.4c0.7,0.7,2,1,2,2.1c0.1,1.2,0.7,2,1.6,2.5c0.4,0.2,0.7,0.6,0.6,1.1c-0.1,0.6-0.6,0.6-1,0.6
		c-1,0-1.4,0.6-1.7,1.5c-0.2,0.8-0.6,1.6-1.5,2c-0.8,0.3-0.5,0.8,0,1.1c0.3,0.2,0.9,0.2,0.8,0.7c-0.1,0.6-0.7,0.4-1.1,0.4
		c-0.2,0-0.5,0-0.5,0.3c0.3,0.6,1.7,0.6,1.1,1.7c-0.5,0.9-1.5,1-2.5,0.7c-0.1,0-0.2-0.1-0.3-0.1c-0.3-0.1-0.7-0.5-1,0
		c-0.2,0.3,0.1,0.7,0.3,0.9c0.6,0.8,0.5,1.4-0.3,2.1c-0.6,0.5-1.1,1.3-1.1,2.3c0.2-0.2,0.4-0.2,0.5-0.3c0.3-0.6,0.9-0.8,1.5-0.5
		c0.6,0.4,0.1,0.9,0,1.3c-0.2,0.7-0.6,1.4-0.7,2.2c-0.4,2.6-1.4,5-2.6,7.2c-0.2,0.4-0.5,0.7-0.9,0.8c-1.1,0.4-1.4,1.2-0.8,2.1
		c0.6,0.9,0.2,1.1-0.6,1.2c-0.6,0.1-0.9,0.4-0.7,1.1c0.4,1.3-0.1,2.5-1.1,3.3c-0.4,0.4-0.8,0.7-0.3,1.2c0.9,1,0.6,1.9-0.1,2.9
		c-0.2,0.4-0.7,1,0,1.2c1.4,0.6,0.7,1.4,0.3,2.1c-0.3,0.5-0.6,0.9-0.5,1.5c0.1,1.2-0.4,2.2-1.4,2.9c-0.4,0.4-0.6,0.7-0.4,1.2
		c0.5,1.3,0.2,2.5-1,3.3c-0.4,0.3-0.8,0.6-0.4,1.1c0.8,1.2,0.5,2.2-0.3,3.2c-0.4,0.6-0.4,1.1,0.3,1.4c0.4,0.2,1.1,0.2,1,0.8
		c-0.1,0.7-0.8,0.5-1.3,0.5c-0.3,0-0.6,0-0.9,0.1c-0.4,0.1-0.7,0.3-0.4,0.7c0.5,0.7,0.9,1.3,0.4,2.2c-0.2,0.3,0.3,0.6,0.7,0.6
		c1.1,0.1,0.7,0.6,0.3,1.1c-0.5,0.6-1.1,1-1.4,1.7c-0.5,1.2-1.2,2-2.6,1.4c-0.3-0.1-0.7-0.1-0.9,0.3c-0.2,0.4,0.1,0.7,0.3,0.9
		c0.6,0.6,1.2,1.3,1.8,1.9c0.3,0.3,0.7,0.9,0.1,1c-1.8,0.5-2,1.1-1.4,2.9c0.4,1.1,0.3,2.7,0.2,4.1c-0.1,1.5-0.4,2.3-2.1,2.1
		c-0.3,0-0.8-0.1-0.9,0.3c-0.1,0.4,0.3,0.6,0.6,0.7c1,0.4,2.3,1.4,2.2,2.1c-0.3,1.6,0.6,2.1,1.6,2.7c-0.1,0.4-0.4,0.5-0.6,0.5
		c-1.5-0.4-2.3,0.6-3.3,1.4c-0.7,0.6-0.9,1.1-0.2,1.8c0.4,0.4,0.5,0.7,0,1.2c-1.3,1.2-1.1,1.6,0.5,2.1c1.2,0.4,1.4,1.1,0.5,2
		c-0.4,0.4-1,0.6-1.3,1.2c-0.1,0.2-0.2,0.5,0,0.7c0.2,0.1,0.4,0,0.5-0.1c0.2-0.1,0.4-0.3,0.6-0.5c0.5-0.3,1-0.6,1.5-0.1
		c0.5,0.5,0.1,1-0.3,1.4c-0.9,0.9-1.3,2-1.2,3.2c0.1,1.4-0.8,1.9-1.7,2.4c-0.3,0.2-0.6,0.2-1,0.2c-0.4,0.1-0.8,0.1-0.8,0.6
		c0,0.4,0.4,0.5,0.7,0.5c0.8,0.1,1.3,0.6,1.9,1.1c0.3,0.2,0.7,0.7,0.3,1c-1.6,1.2-0.2,1.3,0.5,1.7c0.5,0.3,1.1,0.7,1,1.3
		c-0.1,0.6-0.8,0.6-1.3,0.8c-0.6,0.2-1.3,0.5-1.2,1.3c0.1,0.8,0.7,1.4,1.5,1.6c0.3,0.1,0.7,0,1,0c0.7,0,1.1,0.3,1.2,1
		c0.1,0.7-0.4,0.9-0.9,1.1c-0.3,0.1-0.6,0.1-0.8,0.2c-1.2,0.4-1.3,1-0.4,1.9c0.8,0.8,1.8,1.3,2.8,1.8c1.2,0.5,1.9,1.4,1.8,2.7
		c-0.1,0.8,0.2,1.3,1.1,1.3c0.9,0,1.2,0.4,0.9,1.3c-0.1,0.3-0.2,0.6,0.3,0.8c0.1-0.1,0.3-0.2,0.4-0.3c1.2-1.3,1.6-1.2,2.4,0.3
		c0.2,0.4,0.3,1.1,0.9,1.1c0.3-0.3,0.1-0.6,0.1-1c-0.4-1.8,0.5-2.8,2.2-2.1c1.1,0.5,1.5,0.7,1.1-0.8c-0.1-0.4,0.4-0.6,0.8-0.7
		c0.7-0.2,1.3-0.1,2,0c0.3,0.1,0.7,0.1,0.8-0.4c0.1-0.4-0.2-0.5-0.5-0.6c-0.5-0.1-0.9-0.3-0.7-0.8c0.3-1,0.5-2.1,0.5-3.1
		c0-0.4,0.4-0.6,0.8-0.7c1.4-0.4,1.6-0.9,0.8-2.1c-0.5-0.7-1-1.3-1.8-1.7c-0.8-0.4-1.1-1-0.9-1.9c0.1-0.4,0.2-0.8,0-1.3
		c-0.4-1,0.4-1.3,1-1.6c0.8-0.5,1,0.2,1.3,0.7c0.3,0.5,0.6,0.9,1.2,0.9c0.6,0.1,1-0.2,0.5-0.7c-0.7-0.9-1-2-2-2.6
		c-0.8-0.5-0.7-0.8,0-1.4c0.9-0.8,1.4-1.9,1.3-3.2c0-0.5-0.1-1,0.3-1.4c0.4-0.5,0.3-0.9-0.2-1.4c-0.7-0.7-0.7-1.4,0.4-2
		c0.7-0.3,1-3.1,0.4-3.2c-2-0.4-1.5-1.6-1-2.8c0.1-0.2,0-0.4-0.1-0.6c-0.3-1.4-0.1-1.6,1.2-1.2c1,0.3,1.4,0,1.3-1
		c-0.1-1.4,0.1-2.9-1-4.1c-0.4-0.4-0.4-1,0.1-1.3c0.6-0.4,0.7,0.2,0.9,0.6c0.1,0.4,0.3,0.8,0.8,0.6c0.5-0.2,0.4-0.7,0.5-1.1
		c0.1-1.4,0.2-2.9,0.7-4.3c0.4-1.2,0.5-2-0.8-2.6c-0.4-0.2-0.8-0.5-0.5-1c0.2-0.4,0.6-0.4,1-0.3c1,0.2,1.9,0.4,1-1.1
		c-0.4-0.6,0.1-1.2,0.4-1.7c0.3-0.4,0.6-0.8,0.1-1.1c-1.7-1-0.5-2.3-0.4-3.5c0-0.5,0.4-0.9,1-0.9c0.5,0,1,0.2,1.3,0.6
		c0.3,0.5-0.3,0.7-0.5,1c-0.2,0.3-0.5,0.5-0.3,0.9c0.2,0.3,0.5,0.3,0.8,0.2c0.3-0.1,0.7-0.2,0.9-0.4c0.8-0.7,2.4-1.3,2-2.4
		c-0.3-1-1.9-0.8-3-0.9c-0.5,0-1,0.2-1.3-0.3c-0.3-0.6,0.1-1.1,0.6-1.5c0.4-0.3,0.7-0.6,0.4-1.2c-0.8-1.4-0.8-1.4,0.9-1.4
		c1.3,0,1.8-0.5,1.7-1.7c0-0.5,0-1,0-1.5c-0.1-1.5,0.2-2.8,1.5-3.7c0.4-0.2,0.6-0.6,0.3-1c-0.5-0.8-0.8-1.9-1.9-2.3
		c-1-0.4-0.8-0.9,0-1.4c0.4-0.3,1.3-0.6,0.7-1.1c-1-1-0.6-2.4-1.8-3.7c1.2,0.3,2.3,0.7,2.7,0c0.7-1.2,1.4-1.4,2.5-0.5
		c-0.1-0.4-0.3-0.6-0.4-0.8c-0.2-0.6-1.3-1.3-0.1-1.8c1.4-0.5,1.2-1.4,0.9-2.5c-0.1-0.3-0.1-0.9-0.6-0.9c-0.4,0-0.5,0.4-0.6,0.7
		c-0.1,0.3-0.3,0.6-0.7,0.6c-0.4-0.1-0.5-0.4-0.6-0.8c-0.1-1.1-0.2-2.1,1.3-2.3c0.4-0.1,0.9-0.2,0.8-0.7c-0.5-1.2,0.3-2.1,0.9-2.9
		c1.1-1.6,0.2-3.6,1.5-5.1c0.2-0.2-0.1-0.5-0.4-0.6c-1.3-0.5-0.9-1.2-0.2-1.9c0.5-0.5,1-1,1.6-1.5c0.5-0.4,0.5-0.7,0.2-1.1
		c-1.5-2.1-1.5-4.1-0.1-6.3c0.3-0.4,0.4-1,0.5-1.5c0.4-2.5,1.5-4.6,3.2-6.4c0.4-0.4,0.4-0.8,0.3-1.2c-0.8-2,0-3.3,1.8-4.3
		c0.3-0.2,0.6-0.4,0.5-0.8c-0.1-0.3-0.4-0.4-0.7-0.4c-0.5,0-1.2-0.1-1-0.7c0.6-1.5,0.1-3.1,1-4.5c0.6-0.8,0.8-1.6,0.5-2.6
		c-0.2-0.6-0.1-1.1,0.5-1.5c2.2-1.2,3-3.1,2.5-5.5c-0.2-1.2-0.9-2.4,0.5-3.4c0.2-0.1,0.1-0.7,0.1-1.1
		C262.6,205.3,262.1,203.9,261.3,202.7z M70.2,257.6c-0.5,0.1-1.7-1.6-1.8-2.2c0-0.5,0.2-0.8,0.9-0.8c0.7,0.4,2.2-0.1,2.3,1.3
		C71.8,256.6,71.1,257.4,70.2,257.6z M105.5,250.8c-0.3-0.5-1.2-1-0.5-1.6c0.7-0.7,0.7-1.4,0.8-2.2c0.1-1,0.8-1.3,1.7-1.1
		c0.7,0.1,1.6,0,1.7,1.1c0,0.6-0.3,1.1-0.8,1.2c-1,0.3-1.3,0.9-1,1.9c0.1,0.5-0.1,1-0.6,1.2C106.1,251.6,105.7,251.2,105.5,250.8z
		 M109.6,252.8c0.2,0.3,0.5,0.7,0.2,1.1c-0.3,0.3-0.6,0.1-0.9,0c-0.7-0.3-1.8,0-1.9-1c-0.1-1.1,0.9-1.6,1.6-2.2
		c0.3-0.3,0.8-0.4,1.7-0.3C109.1,251.1,109,251.9,109.6,252.8z M109.4,244c-0.1,0.3-0.1,0.9-0.6,0.8c-0.4,0-0.5-0.5-0.6-0.9
		c-0.4-1.5-0.4-1.5-1.5-0.5c-0.4,0.4-0.9,0.8-1.5,0.7c-0.3-0.1-0.5-0.3-0.4-0.6c0.1-0.7,0.5-1.2,1.2-1.5c0.7-0.4,1.4,0.1,2.1,0.1
		c0.4,0,0.8,0.1,1.1-0.3c0.2-0.4-0.1-0.7-0.4-1c-0.6-0.5-0.5-1,0-1.5c0.6-0.6,1.1-1.2,2-1.5C110.3,240,110.1,242.1,109.4,244z
		 M132.4,244.7c0,0.3,0,0.4,0,0.6c0.1,0.9-0.3,1.5-1.2,1.7c-0.5,0.1-0.9,0.2-1.1-0.4c-0.3-0.8-0.4-1.6,0.4-2.2
		c0.1-0.1,0.2-0.2,0.3-0.3c0.4-0.3,0.7-1,1.3-0.7C132.7,243.7,132.3,244.4,132.4,244.7z M171.2,224.5c-1.1,0-1.9,0.8-2.8,1.1
		c-0.4,0-0.6-0.1-0.7-0.3c-0.2-0.4,0-0.7,0.2-0.9c1-0.8,2.2-1.4,2.6-2.8c0-0.1,0.3-0.2,0.3-0.2c0.7,0.6,0.8,1.6,1.2,2.4
		C172.2,224.2,171.7,224.5,171.2,224.5z M212.8,196.6c-1.7,0-2.6,1.2-3.9,2.5c0-0.7,0-1.1,0-1.5c0-0.9,0-1.8-1-2.3
		c-0.5-0.2-0.6-0.8-0.4-1.3c0.2-0.4,0.5-0.7,1-0.7c0.5,0,0.8,0.2,1,0.6c0.8,1.7,0.9,1.7,2.4,0.7c0.2-0.1,0.5-0.2,0.7-0.1
		c0.4,0.3,0.6,0.9,0.7,1.4C213.3,196.3,213.1,196.6,212.8,196.6z M216.3,190.8c-0.2,0.3-0.6,0.3-0.8,0.1c-0.9-1-1.2-0.4-1.5,0.4
		c-0.1,0.4-0.4,0.7-0.8,0.6c-0.4-0.1-0.3-0.5-0.4-1c0.4-1.1,0.8-2.2,1.4-3.4c0.2-0.3,0.6-0.4,1-0.3
		C216,187.4,216.8,190.3,216.3,190.8z M220.5,188.4c-0.4,0.1-0.8,0.1-1.1,0.1c-1,0-1.8-0.1-2.4-0.9c-0.3-0.4-0.5-0.7-0.2-1.2
		c0.4-0.4,0.9-0.5,1.3-0.2c0.8,0.5,1.4,1.3,2.5,1.1c0.2,0,0.4,0.2,0.4,0.5C220.9,188.2,220.8,188.4,220.5,188.4z"/>
	<path d="M594.7,348.6c1.1-0.3,2.1,0.4,3.3,0.4c-0.4-0.7-1-0.9-1.6-1.1c-1.2-0.4-1.6-1.6-0.7-2.5c2.1-2.2,1.9-4.2-0.3-6.1
		c-1-0.8-2.5-1.3-2.4-2.9c0.1-1.8-0.7-3.7,0.6-5.3c0.1-0.1,0-0.5-0.1-0.7c-0.4-0.8-0.4-1.7-0.6-2.5c-0.3-1.3-0.2-2.6-1.1-3.7
		c-0.1-0.2-0.3-0.4-0.6-0.3c-0.3,0.1-0.3,0.4-0.2,0.6c0,0.2,0.1,0.5,0.1,0.7c0,0.5,0.1,1.1-0.5,1.4c-0.6,0.3-1.1,0.1-1.6-0.4
		c-0.4-0.5-0.4-0.9,0-1.4c0.3-0.4,0.6-0.9,0-1.4c-0.6-0.6-1-3.7-0.4-4.2c0.9-0.8,0.9-1.6,0.8-2.6c0-0.5,0.1-0.9,0.5-1.3
		c0.7-0.6,0.8-1.3,0-1.9c-0.3-0.3-0.9-0.6-0.5-1c0.4-0.5,0.8,0,1.1,0.3c0.3,0.2,0.5,0.3,0.8,0c0.2-0.2,0.1-0.5-0.1-0.6
		c-0.8-0.6-1.4-1.6-2.7-1.5c-0.4,0.1-1.1,0.2-1.2-0.5c-0.1-0.7,0.6-0.7,1.1-0.9c1.2-0.3,1.4-0.8,0.6-1.7c-0.6-0.8-1.2-1.5-1.6-2.4
		c-0.3-0.8-0.6-1.7,0.2-2.3c1-0.7,0.8-1.6,0.6-2.4c-0.1-0.6-0.3-1.3,0-1.8c0.5-1,0.5-2.1,0.4-3.1c-0.1-1.1-0.3-2.2,1.2-2.6
		c0.3-0.1,0.3-0.6,0.4-0.9c0.6-1.9-0.6-3.2-1.4-4.7c-0.3-0.6-0.6-1,0.4-1.2c1.6-0.3,1.6-0.4,0.8-1.8c-1-1.7,1.2-3.1,0.4-4.8
		c0,0,0.1-0.1,0.2-0.2c1.2-0.7,0.9-1.7,0.7-2.8c-0.2,0.1-0.4,0.1-0.5,0.2c-0.4,0.4-0.8,0.8-1.4,0.4c-0.5-0.5-0.1-1,0.1-1.4
		c0.3-0.7,0.6-1.3,0.9-2c0.1-0.4,0.1-1-0.4-0.7c-2,1.2-1.6-0.5-1.8-1.4c-0.1-0.3-0.2-0.7,0.2-0.9c0.4-0.2,0.6,0.1,0.9,0.3
		c1.5,0.8,2.5,0.1,2.4-1.5c0-0.7,0-1.5-0.1-2.2c-0.1-1.2-0.1-2.5-0.8-3.6c-0.7-1.1-1.8-2.4-0.6-3.9c0.1-0.2,0-0.5,0.1-0.7
		c0.1-0.7,0.4-1.3,1-1.8c1.5-1.4,2.6-3.1,1.5-5.3c-0.2-0.4-0.1-0.8-0.2-1.3c-0.1-0.4,0.4-0.9-0.1-1.2c-0.5-0.2-0.7,0.4-1,0.6
		c-0.2,0.2-0.4,0.4-0.6,0.6c-0.3,0.3-0.6,0.9-1.2,0.4c-0.4-0.4-0.4-1-0.1-1.5c0.1-0.3,0.4-0.5,0.7-0.8c0.8-0.7,1-1.4,0.6-2.4
		c-0.7-1.9-0.4-2.9,1.4-4.1c0.6-0.4,0.7-0.8,0.8-1.4c0.1-1.6-0.9-2.6-2.1-3.4c-0.9-0.6-0.7-1.1-0.3-1.8c0.5-0.8,1.2-0.7,1.9-0.6
		c0.6,0.1,1.2,0.3,1.5-0.4c0.3-0.8-0.2-1.1-0.9-1.4c-0.9-0.4-1-0.9-0.1-1.4c0.6-0.3,0.8-0.7,0.3-1.2c-0.5-0.5-0.4-1.2-0.6-1.8
		c-0.1-0.6-0.2-1.2-0.9-1.4c-1.7-0.5-1.4-1.7-1-2.9c0.2-0.6,0.4-1.2,0.5-1.8c0.1-1.5,0.6-2.7,1.9-3.5c1-0.7,0.9-1.1-0.2-1.5
		c-1.3-0.5-1.8-1.3-1.3-2.5c0.3-0.7,0-1.1-0.5-1.5c-0.8-0.7-0.6-1.3-0.2-2.1c0.8-1.6,1.5-3.4,0.4-5.2c-0.4-0.7-0.3-1.2,0.3-1.8
		c1-1,1.2-2.1,0.2-3.3c-0.5-0.6-0.7-1.4-1.1-2c-0.5-0.8-0.2-1.1,0.6-1.3c0.6-0.2,1.4,0,1.9-0.6c1-1.3,0.8-4.6-0.5-5.7
		c-0.3-0.3-0.8-0.7-1.1-0.3c-1.3,1.7-2.2,0-3.2-0.4c-0.7-0.2-0.6-0.8-0.2-1.3c0.5-0.8,1.5-1.6,0.1-2.5c-0.1,0-0.1-0.3,0-0.4
		c1.2-1.2,0.1-1.8-0.7-2.3c-0.6-0.5-1.1-0.8-0.1-1.4c0.8-0.5,0.8-1.4,0.2-1.9c-1.2-1.1-2.1-2.5-3.5-3.4c-0.7-0.5-1.3-0.7-1.9,0.1
		c-0.4,0.6-0.9,0.5-1.4,0c-0.6-0.5-1.2-1-1.3-1.9c-0.1-0.8-0.6-0.9-1.2-0.6c-1,0.5-2,1-2.6,2c-0.3,0.4-0.7,0.9-1.3,0.6
		c-0.6-0.3-0.4-0.9-0.2-1.4c0.3-0.9,0.7-1.8,0.7-2.8c0-0.7-0.3-1.1-0.9-1.4c-0.5-0.3-0.8,0-1.3,0.3c-1,0.7-2.3,0.3-2.5-0.9
		c-0.1-0.8-0.4-0.9-1.2-1.1c-1.4-0.3-2.6,0.7-4,0.3c-2-0.5-2-0.5-2.8,1.4c-0.6,1.3-1.9,1.2-2.9,1.1c-0.9,0-1.2-1-0.9-1.9
		c0.3-0.7-0.1-1-0.7-1.1c-0.6-0.1-1.1-0.2-1.7-0.3c-2.2-0.3-4.4,1-5.4,3.1c-0.3,0.6-0.6,0.6-1.2,0.6c-0.4-0.1-1-0.1-1,0.5
		c-0.1,0.6,0.5,0.8,1,0.8c0.5,0.1,1.1,0,1.6,0.2c0.7,0.2,1.1,1.3,0.7,1.4c-1.3,0.2-2.1,1-3,1.8c-0.3,0.3-1.2-0.2-1.8-0.1
		c-1.2,0.1-2-0.2-2.6-1.3c-0.7-1.3-1.7-1.2-3-0.5c-1.1,0.6-2.1,1.4-3.4,1.8c-0.5,0.1-1.1,0.3-1.1,0.9c0,0.7,0.6,0.8,1.1,0.8
		c0.7,0.1,1.1,0.3,1.1,1.1c0,0.7-0.3,1.1-0.9,1.3c-0.6,0.2-1.1,0-1.4-0.6c-0.1-0.3-0.2-0.7-0.6-0.7c-0.5,0-0.7,0.5-0.9,0.9
		c-0.4,0.6,0,1.1,0.2,1.7c0.2,0.8,0.8,1.8,0.1,2.3c-1,0.7-1.9,1.3-2.8,2.3c0.4-1.4,0.7-2.8,0.6-4.2c0-0.3,0.1-0.8-0.3-0.9
		c-0.4-0.1-0.6,0.3-0.8,0.5c-0.4,0.7-0.9,1.3-1.8,1.4c-1.3,0.1-2,1-2.9,1.8c-1.6,1.6-2.9,3.5-5.1,4.4c-0.9,0.4-0.6,1.1-0.1,1.7
		c0.4,0.5,1,0.2,1.5,0.2c0.5-0.1,1.2-0.2,1.3,0.4c0.2,1-0.7,1.4-1.4,1.9c-0.6,0.4-1,0-1.2-0.6c-0.4-1.2-1.3-1-1.7-0.2
		c-0.6,1-1.5,1.1-2.5,1c-0.6-0.1-1.2,0.1-1.3,0.8c-0.5,2.1-2,3.2-3.7,4.2c-0.4,0.2-0.7,0.5-0.8,1c-0.1,1-0.8,1.7-1.6,2.2
		c-2.3,1.3-3.3,3.9-5.6,5.2c-1.4,0.8-2.3,2.6-3.6,3.8c-1.3,1.2-2.2,2.8-3,4.4c-0.6,1.2-2.1,0.1-2.6,1.2c-0.4,1-0.5,2.1-1.6,2.6
		c-0.7,0.4-1,0.9-1.1,1.7c-0.1,1.1-0.7,2.1-1.4,3c-0.6,0.7-1.5,0.2-2.2,0.2c-0.5,0-1,0.2-0.7,0.7c0.6,1.1,0,1.5-0.9,1.9
		c-0.5,0.2-0.7,0.7-0.5,1.2c0.3,0.6,0.7,0.3,1.1,0.1c0.4-0.2,0.8-0.3,1.2,0.1c0.3,0.3,0.6,0.4,1,0.1c0.4-0.3,0.8-0.8,1.4-0.3
		c0.3,0.3,0.3,0.7,0.2,1.1c-0.2,0.7-0.7,0.8-1.4,0.8c-0.6,0-1.3-0.1-1.9,0.2c-1.4,0.9-2.9,1.2-4.5,1.3c-0.8,0-1.4,0.5-1.5,1.4
		c0.7,0.3,1.3-1,1.9-0.2c0.5,0.6,0.5,1.6,0.2,2.2c-0.2,0.5-0.9-0.1-1.4-0.4c-1.8-0.9-2.2-0.8-3,1.1c-0.3,0.7-0.3,1.4-1.1,1.8
		c-1.1,0.6-1.6,1.6-1.3,2.9c0.1,0.6,0.1,1.2-0.7,1.1c-1.6-0.2-2.3,0.9-3.1,2c-0.3,0.4-0.7,0.9-1.1,1.2c-1.2,0.7-2.5,1.3-3.8,0.7
		c-1.3-0.5-0.7-1.8-0.7-2.7c0.1-1.5-0.2-2.5-2.3-2.5c2-1,1.8-1.1,2.3-3.2c0.3-1.4,1.2-2.7,1.2-4.2c0-0.1,0.2-0.2,0.3-0.3
		c1-1,1.1-2.6,2.6-3.2c0.2-0.1,0.2-0.5,0.3-0.8c0.1-1,0.2-2,0.2-3c0-0.3,0.1-0.8-0.3-0.9c-0.5-0.1-0.6,0.3-0.8,0.6
		c-0.2,0.4,0,1.1-0.6,1c-0.6-0.1-0.6-0.8-0.8-1.3c-0.2-0.8,0-1.5,0.6-2.1c0.7-0.6,1.5-1.3,2.2-1.9c0.8-0.6,1.1-1.4,0.5-2.3
		c-0.4-0.5-0.2-1,0-1.5c0.6-1,0.3-1.7-0.8-2.1c-0.5-0.2-1-0.4-1.4-0.7c-0.6-0.3-0.9-0.1-0.9,0.5c0,0.9,0,1.7,0,2.6
		c0,0.9-0.5,1.4-1.3,1.4c-0.9,0-1-0.7-0.9-1.4c0.2-1.2-0.3-3,0.2-3.6c1.1-1.5,0.2-2.7,0.3-4c0-1.2,0.9-2.3,0.3-3.5
		c-1.2-2.4,0.1-4.4,1.4-6c1-1.1,1.4-2.5,2.2-3.6c0.3-0.4,0.4-0.9-0.2-1.2c-0.4-0.2-2.9,1-3,1.4c-0.8,1.7-0.8,1.7-2.1,0.4
		c-0.6-0.6-1.1-1.2-1.4-2c-0.6-1.6-1.3-1.6-2.5-0.3c-0.4,0.4-0.8,1-1.2,0.1c-0.4-1-1.1-1.5-1.9-1.9c-0.4-0.2-0.8-0.4-0.7-0.8
		c0.5-1.9-1-2.5-2.2-3.3c-0.6-0.4-1.2-0.8-1.1-1.7c0.2-1.1-0.4-1.1-1.2-0.8c-0.8,0.4-1,0-1.2-0.7c-0.2-0.6,0.3-1.6-0.5-1.6
		c-0.7-0.1-0.7,1-1.1,1.5c-0.1,0.2-0.2,0.4-0.3,0.6c-0.8,1.5-1.5,1.8-3,0.9c-0.3-0.2-0.6-0.4-0.8-0.6c-0.2-0.1-0.5-0.3-0.8,0
		c-0.2,0.2-0.2,0.5,0,0.8c0.2,0.4,0.5,0.6,0.8,0.7c1.3,0.4,0.9,1.1,0.3,1.8c-0.4,0.5-1,0.7-1.6,0.9c-1.2,0.6-1.4,1.2-0.5,2.3
		c0.2,0.2,0.3,0.3,0.5,0.5c0.5,0.7,0.5,1.3-0.5,1.3c-1.3,0-1.5,0.6-1.4,1.7c0,1.2,0.5,1.9,1.5,2.4c0.5,0.2,0.8,0.6,0.7,1.1
		c0,0.4-0.3,0.8-0.7,0.8c-1.4,0-1.5,1-1.8,2c-0.3,1-0.9,1.9-0.2,3c0.6,1,0.7,2,0,3c-0.2,0.3-0.3,0.6,0.1,0.9
		c0.3,0.2,0.7,0.1,0.9-0.1c0.5-0.4,1-0.8,1.4-1.2c0.4-0.5,0.8-0.8,1.4-0.2c0.5,0.6,0.2,1-0.1,1.5c-1.1,1.9-2.9,3.4-2.8,5.9
		c0,0.4-0.3,0.8-0.6,1.1c-0.4,0.5-2,0.4-2.4-0.1c-0.5-0.7,0.1-1.2,0.5-1.6c0.3-0.3,0.7-0.4,0.9-0.7c0.4-0.5,0.5-1.2,0-1.6
		c-0.5-0.5-1,0.1-1.3,0.4c-0.6,0.6-0.9,1.3-1.1,2.2c-0.2,0.9-0.7,1.4-1.7,1.6c-1.7,0.3-1.9,0.6-1.8,2.2c0.1,0.9,0.2,2.1,1.4,2.1
		c1.1,0,0.7-1.2,0.7-1.9c0.1-1.4,0.7-1.7,1.9-1.1c0.3,0.1,0.5,0.3,0.7,0.5c0.8,0.8,1.5,0.7,2.2-0.1c0.2-0.2,0.4-0.3,0.6-0.4
		c0.5-0.2,1.2-0.5,1.6,0.1c0.3,0.5,0,1-0.4,1.4c-1.9,1.5-2,3.8-2.5,5.9c-0.2,0.7-0.2,0.9-0.9,0.8c-0.5-0.1-1.3-0.4-1.6,0.3
		c-0.3,0.7,0.4,1.2,0.9,1.7c0.1,0.1,0.3,0.2,0.5,0.3c0.5,0.3,0.9,0.8,0.6,1.3c-0.4,0.6-0.9,0-1.2-0.3c-0.9-0.7-1.8-1.1-3-1
		c-0.7,0-1,0.3-0.7,1c0.5,1,0.4,2.3,1.1,3.2c-0.2,0.3-0.4,0.2-0.6,0.1c-0.4-0.2-0.8-0.1-0.9,0.4c-0.1,0.5,0.2,0.7,0.6,0.8
		c0.3,0.1,0.6,0.1,0.9,0.1c1,0.3,1.1,0.9,0.4,1.5c-0.3,0.3-0.7,0.4-1,0.6c-0.4,0.3-1.3,0.5-1.1,1.2c0.2,0.6,0.9,0.3,1.4,0.3
		c2.1,0,2.7,0.5,3.3,2.3c-0.9,0.3-1.4-0.7-2.1-0.8c-0.3,0.4,0,0.7-0.1,1.1c-0.3,2.2-0.2,2.4,1.9,3.2c0.6,0.2,0.8,0.6,0.8,1.2
		c0.1,1,0.2,2.1,0.8,2.9c1,1.1,0.7,2-0.1,3.1c-0.7,1-1.7,1-2.7,0.9c-0.7,0-1.6,0.7-2,0.2c-0.6-0.7,0.5-1.2,0.7-1.9
		c0.3-0.7,0.2-1.3-0.5-1.6c-0.7-0.3-1.3-0.4-1.7,0.4c-0.3,0.7-0.8,1.3-1.4,1.8c-0.7,0.7-1.2,1.4-0.6,2.4c0.6,1.2,1.2,2.7,2.7,2.4
		c1.3-0.2,2.8,0.4,4-0.9c0.4-0.4,1-0.4,1,0.4c0,0.9-0.6,1.7-1.3,2.2c-0.6,0.4-1.3,0.4-1.9-0.1c-0.2-0.2-0.4-0.4-0.7-0.1
		c0.7,1.9,0.7,1.9-1.5,2.1c-0.1,0-0.3,0-0.4,0c-1.1,0.4-2.1,0.9-2.1,2.3c0,1.1-0.3,1.8-1.5,1.9c-0.4,0-0.8,0.3-0.6,0.8
		c0.1,0.4,0.6,0.5,1,0.4c0.5-0.1,0.9-0.3,1.4-0.6c0.2,0.6-0.1,1-0.2,1.4c-0.1,0.9,0,1.5,1.1,1.6c0.3,0,0.7,0,0.8,0.4
		c0.1,0.4-0.2,0.6-0.5,0.8c-0.9,0.6-1.1,1.5-1.7,2.3c-0.5,0.7,0,1.2,0.3,1.7c0.2,0.4,0.5,0.6,1,0.4c0.6-0.2,0.9-0.7,1-1.3
		c0-0.3,0-0.6,0-0.9c0.1-1.2,0.6-1.4,1.7-0.8c0.9,0.5,1.7,1.2,2.5,1.7c0.5,0.3,0.9,0.6,0.4,1.1c-0.5,0.5-0.8,1.7-1.9,1.2
		c-0.6-0.2-1-1.1-1.7-0.8c-0.8,0.3-0.4,1.2-0.7,1.8c0,0.1-0.1,0.2-0.1,0.3c-1.4,1.9-1.8,4.5-4.1,5.9c-0.1,0.1-0.2,0.2-0.3,0.3
		c-0.4,0.6-0.5,1.3-0.2,1.9c0.3,0.8,1,0.3,1.5,0.3c0.3,0,0.6-0.1,0.9-0.1c0.5-0.1,0.9-0.1,0.9,0.5c0,0.6-0.4,0.9-1,0.8
		c-0.6-0.1-1.2-0.2-1.7-0.2c-1.3-0.1-2.6,0.8-2.5,2c0,1.6-0.1,3.2-0.5,4.7c-0.1,0.3-0.2,0.7,0.3,0.9c0.3,0.1,0.5-0.3,0.6-0.5
		c0.4-1.3,1-1.2,1.8-0.2c0.2,0.3,0.5,0.4,0.8,0.7c0.6,0.6,1.2,1.2,1.9,0.4c0.7-0.7,0.8-1.5-0.3-2.2c-0.6-0.4-0.7-1.2-0.3-1.8
		c0.4-0.5,1.1-0.4,1.6-0.2c1.1,0.4,1.5,3.6,0.5,4.2c-1.2,0.8-1.3,1.5-0.6,2.6c0.3,0.4,0.4,0.8-0.2,1c-0.7,0.2-2-0.4-2.2,0.5
		c-0.1,1,1.4,0.5,2,1.1c0.2,0.2,0.5,0.4,0.3,0.7c-0.1,0.3-0.4,0.2-0.6,0.2c-2,0.1-3.2,1.2-3.3,3.2c0,0.6,0.3,1.4-0.2,1.7
		c-1.2,0.9-0.7,2.1-0.7,3.2c0,0.8,0.3,1.1,1.1,1.2c1.4,0.1,3.8-1.2,4.4-2.5c0.2-0.4,0.4-0.8,0.9-0.6c1,0.4,1.8,2.9,1.1,3.7
		c-1.2,1.3-0.8,2.7-0.8,4.1c0,1.1,0.7,1.2,1.5,0.7c0.3-0.2,0.5-0.4,0.7-0.7c0.6-0.8,1.3-0.4,2,0c0.7,0.4,1.3,0.8,1.2,1.6
		c-0.1,0.8-0.9,1.4-1.6,1.2c-1.5-0.3-1.4,0.9-1.8,1.7c-0.2,0.5-0.1,0.9,0.3,1.1c0.5,0.2,0.7-0.3,0.8-0.6c0.4-0.9,1-1.4,1.9-1.1
		c1,0.2,0.6,1.1,0.7,1.7c0,0.1,0,0.2,0,0.3c0,0.3,0.1,0.6,0.4,0.7c0.3,0.1,0.6-0.1,0.7-0.4c0.3-0.7,1-0.7,1.5-0.9
		c1.1-0.5,2.2,0.3,3.3-0.4c0.4-0.3,0.9-0.6,1.3-0.3c0.5,0.4,0.1,0.9,0,1.3c0,0.2-0.1,0.4-0.1,0.6c-0.2,0.8,0,1.4,0.9,1.4
		c0.8,0,2.1,0.5,2.1-1c0-1.6,1.1-2,2.1-2.4c0.9-0.3,1.7-0.1,1.7,1.1c0,1,0.3,1.8,1.1,2.4c0.3,0.2,0.6,0.7,1,0.3c0.4-0.4,0-0.8-0.3-1
		c-1-0.9-0.8-2.2-1.5-3.2c-0.2-0.3-0.1-0.8,0.3-0.8c1.4,0.1,2.4-0.9,3.6-1.2c2.5-0.6,5.1-3.3,5.2-5.8c0.1-1,0.5-1.3,1.4-1.2
		c1.2,0.1,1.7-0.4,1.8-1.5c0.2-1.5,0.5-3,2.3-3.6c0.8-0.3,1.3-1.1,1.9-1.7c0.3-0.3,0.5-0.8,0.2-1.2c-0.9-1.1-0.2-1.3,0.7-1.3
		c1.1,0.1,1.6-0.5,1.9-1.5c0.7-2,1.2-4.2,3.3-5.4c0.7-0.4,1.1-1.1,0.9-1.9c-0.5-2.2,1.4-3.4,2.3-5c0.6-1,2.2-1.5,1.9-3.1
		c0-0.2,0.3-0.4,0.6-0.6c0.7-0.5,1.1-1.1,1.4-1.8c0.7-1.9,1.3-4,3.2-5.1c0.1,0,0.1-0.1,0.2-0.2c0.8-2.1,2.2-3.8,2.8-6
		c0.3-1.1,0.9-2.5,2.8-1.8c1,0.3,1.3-0.3,0.8-1.2c-0.3-0.5-0.1-0.9,0-1.4c0.6-2.3,2.7-3.6,3.5-5.8c0.1-0.4,0.6-0.3,0.9-0.2
		c0.8,0.3,1.2-0.1,1-0.8c-0.4-1.5,0.3-2.4,1.4-3.2c3.2-2.3,5-5.8,7.6-8.6c0.2-0.2,0.3-0.5,0.3-0.8c0.1-0.8,0.5-1.3,1.2-1.6
		c0.7-0.3,1.1-0.9,1.4-1.6c0.3-0.7,0.8-1.3,1.5-1.7c0.9-0.7,1.5-1.8,2.6-2.2c1-0.4,0.9-2.1,2.4-1.8c0,0,0.3-0.4,0.2-0.6
		c0-0.9,0.5-1.5,1.3-2c0.5-0.3,0.9-0.7,0.9-1.2c-0.1-2.1,1.4-2.2,2.9-2.4c0.5-0.1,1.2,0,1.5-0.5c1-1.6,2.3-3.2,1.3-5.3
		c-0.4-0.8-0.3-1.2,0.7-1.1c1.2,0.1,2-0.5,2.5-1.4c0.5-0.8,1.1-1,2-0.8c1.4,0.3,2-0.2,2-1.7c0-1,0.3-1.8,1.4-2.1
		c0.6-0.1,0.9-0.6,1-1.1c0.2-0.9,0.9-1.6,1.4-2.3c0.3-0.4,0.7-0.8,1.2-0.5c0.6,0.3,0.2,0.7,0,1.1c-0.2,0.4-0.4,0.9,0.1,1.1
		c0.6,0.2,0.6-0.4,0.8-0.8c0.5-0.9,1-1.8,1.1-3c0.1-1.1,1.8-1.5,1.4-3c0.9,0.3,1.4,0.7,2,1.2c0.6,0.5,1,0.4,1.4-0.3
		c1.1-1.9,1.8-3.9,3.9-5.1c0.5-0.3,0.7-0.9,0.8-1.5c0.1-0.7,0.5-0.9,1.2-0.8c0.9,0.1,2.6,1.7,2.5,2.5c-0.1,1.8,0.4,3.7-0.1,5.5
		c-0.1,0.3-0.2,0.7,0.1,0.9c0.4,0.3,0.7-0.2,0.9-0.5c0.8-0.8,1.3-2.3,2.8-0.9c0.2,0.2,0.6-0.3,0.9-0.4c1.1-0.6,1.5,0.4,1.8,1.1
		c0.5,0.8-0.2,1-0.8,1.2c-0.6,0.1-1.1,0.3-1.6,0.7c-0.3,0.2-0.7,0.4-0.7,0.9c0,0.5,0.5,0.5,0.9,0.6c0.6,0.1,1.1,0.3,1.2,1
		c0.1,0.7-0.2,1.1-0.8,1.4c-0.5,0.3-1.5,0.5-1.1,1.2c0.3,0.7,1-0.1,1.5-0.2c0.9-0.2,1.4,0.2,1.5,1.1c0.1,1-0.5,1.1-1.2,1.1
		c-1,0-2,0-3.1,0c-0.9,0-1.3,0.6-1.4,1.4c-0.1,0.9,0.6,1,1.2,1.1c0.5,0.1,1,0.2,1.5,0.4c0.6,0.2,1,0.8,0.5,1.3c-0.8,0.8-1,1.7-1,2.7
		c0,0.2-0.1,0.5-0.3,0.6c-0.3,0.1-0.5-0.1-0.6-0.4c-0.5-1.3-0.9-0.5-1.2,0.1c-0.2,0.4-0.5,0.7-0.8,1.1c-0.8,0.9-0.8,1.8,0.1,2.4
		c1.7,1.1,3.1,2.6,5.1,3.3c1.1,0.4,1.7,1.9,1.1,2.8c-0.6,0.9-1.5,0.6-2.3,0.1c-0.2-0.1-0.3-0.2-0.6,0.1c0.7,0.7,1.3,1.5,2,2.2
		c0.8,0.9,0,1.4-0.5,1.9c-0.4,0.4-1.2,0.9-1.4,0.2c-0.4-1.7-1.3-2.6-2.8-3.2c-0.3-0.1-0.5-0.7-0.9-0.4c-0.4,0.3-0.2,0.7-0.1,1.1
		c0.1,0.4,0.3,0.9-0.3,0.9c-1.4,0.2-0.9,0.9-0.5,1.6c1.1,2,0.8,3.2-1.1,4.3c-0.9,0.5-0.8,1.4-0.4,2c0.4,0.7,1.2,0.6,1.8,0
		c0.5-0.5,1-0.9,1.6-1.2c0.7-0.4,1.2-0.5,1.1,0.6c-0.1,0.5-0.3,1.2,0.3,1.4c0.7,0.2,0.7-0.5,0.9-1c0.3-0.8,0.9-0.5,1.5-0.6
		c0.5,0,1,0.1,1.2,0.6c0.2,0.6,0,1.1-0.5,1.4c-0.6,0.4-1,1-1.2,1.8c-0.1,0.5-0.4,0.9-0.9,0.4c-1.2-1.1-1.6-0.1-2,0.7
		c-0.8,1.7-2,3-3.1,4.6c-0.3,0.5-0.9,0.9-0.4,1.5c0.5,0.6,1,0.3,1.6,0c0.2-0.1,0.4-0.3,0.6-0.4c0.4-0.2,0.8-0.1,1,0.3
		c0.2,0.4,0.1,0.6-0.2,0.9c-0.2,0.2-0.4,0.3-0.6,0.5c-0.4,0.3-0.9,0.6-0.7,1.3c0.2,0.5,0.7,0.3,1.2,0.4c0.6,0,1.2,0.1,1.2,0.9
		c0,0.8-0.2,1.2-1.1,1.3c-1.1,0.1-1.5,1-1.2,2.7c0.3,1.3,1.1,0.5,1.7,0.4c0.5-0.2,1-0.3,1.4,0.2c0.3,0.4,0.5,0.8,0.3,1.2
		c-0.3,0.7-0.9,0.3-1.4,0.2c-1.4-0.3-2.1,0.2-2.5,1.5c-0.2,0.8-0.2,1.8-0.9,2.4c-1.2,1.1-0.5,1.5,0.6,1.9c0.7,0.2,1,0.4,0.5,1.2
		c-1.1,1.8-0.9,2.2,1.2,2.3c0.2,0,0.5,0,0.7,0.1c0.9,0.4,0.5,1.2,0.5,1.9c0,0.4-0.2,0.7-0.7,0.7c-1.8,0-1.9,0.1-1,1.7
		c0.3,0.6,0.5,1-0.4,1.3c-0.7,0.2-0.9,0.7-1,1.3c-0.1,1-0.5,1.9-1.1,2.8c-0.7,0.9-0.4,1.7,0.7,2c1.2,0.3,2.2,0.3,2.7-1.2
		c0.1-0.4,0.3-0.8,0.8-0.7c0.5,0.2,0.4,0.7,0.4,1.1c0,0.2-0.2,0.4-0.3,0.6c-0.8,1.9-2.8,1-4.1,1.6c-1.3,0.5-2,1-1.5,2.4
		c0.2,0.7,0.7,0.8,1,0.2c0.7-1.3,1.4-0.9,2.2-0.2c0.5,0.5,0.8,0.5,1.4,0c0.6-0.5,1.7-1.1,2.1-0.2c0.5,1,0.7,2.3-0.2,3.3
		c-0.7,0.8-1.1,1.8-2.1,2.4c-0.3,0.2-0.7,0.5-0.3,0.9c0.3,0.3,0.7,0.2,1.1,0c0.2-0.1,0.4-0.3,0.5-0.5c0.2-0.2,0.5-0.5,0.9-0.4
		c0.4,0.2,0.4,0.5,0.4,0.9c0,0.9,0,1.8,0,2.8c0,0.4,0,0.9-0.5,0.8c-0.5,0-0.5-0.5-0.5-0.9c0-0.4,0.5-0.9-0.1-1.2
		c-0.4-0.2-0.8,0.3-1.2,0.5c-0.4,0.3-0.8,0.6-1.1,0.9c-0.3,0.3-0.5,0.6-1,0.4c-0.5-0.2-0.4-0.6-0.3-1c0.1-0.4,0.1-0.9,0.1-1.3
		c0-0.4-0.1-0.8-0.6-0.8c-0.5,0-0.6,0.4-0.6,0.8c-0.1,0.8,0.2,1.8-0.2,2.3c-1.3,1.8-0.9,3.8-1,5.7c0,1,0,1.7,1.5,1.3
		c0.8-0.3,1.9,0,2.1,1.3c0.4,2.7,0.4,2.7,3.4,3.4c0.7,0.1,1.2,0.4,0.6,1.2c-0.2,0.3-0.4,0.6-0.6,1c-0.4,0.6-0.8,0.9-1.3,0
		c-0.2-0.4-0.6-0.8-1-0.4c-0.7,0.6-1.6,0.9-2.5,1.1c-0.5,0.1-0.8,0.5-0.8,1.1c0,0.3,0,0.7,0.3,0.7c0.5,0.1,0.7-0.4,1-0.7
		c0.2-0.3,0.4-0.6,0.8-0.5c0.5,0.1,0.5,0.5,0.5,0.9c0.1,1-0.3,1.7-1.4,1.6c-0.7,0-1.3,0.1-1.1,1c0.3,0.9,0.4,1.8,0,2.7
		c-0.1,0.3-0.1,0.6,0.2,0.8c0.3,0.1,0.5-0.1,0.6-0.3c0.4-0.6,0.9-0.8,1.5-0.5c1.1,0.5,2.1,0.3,3.2,0c0.6-0.2,1.3-0.3,2-0.3
		c0.3,0,0.6,0,0.7,0.3c0.1,0.3-0.1,0.5-0.3,0.6c-0.9,0.6-1.6,1.9-3.1,1.4c-0.5-0.2-1.1,0.2-1.7,0.3c-0.3,0.1-0.7,0.2-0.7,0.6
		c0,0.5,0.5,0.4,0.8,0.4c2-0.4,2.9,1.6,4.4,2.1c0.4,0.2,0.5,0.9,0.2,1.3c-0.4,0.5-0.8,0.1-1-0.3c-0.6-1-0.8-0.7-1.3,0.2
		c-0.6,1.1-0.1,1.3,0.8,1.3c1.3,0,2.5,0.4,3.5,1.2c0.3,0.2,0.5,0.6,0.4,1c-0.2,0.5-0.7,0.3-1,0.1c-0.5-0.3-0.9-0.1-1.4-0.1
		c-0.7,0.1-1.4,0.2-1.9-0.3c-1.5-1.5-2.6,0.1-3.8,0.4c-1.2,0.3-1.1,1.5-1,2.5c0,0.3-0.1,0.7,0.3,0.9c0.4,0.2,0.6-0.2,0.8-0.4
		c0.6-0.6,1.1-0.8,1.7-0.1c0.4,0.5,0.8,0.9,0.6,1.6c-0.2,0.7-0.8,0.6-1.3,0.6c-0.3,0-0.7,0-0.7,0.4c0,0.4,0.4,0.4,0.7,0.4
		c0.8,0,1.6-0.1,2.3-0.3c0.5-0.2,1.1-0.3,1.4,0.3c0.3,0.6,0,0.9-0.5,1.2c-1,0.7-1,1.8-1,2.9c0.1,0.8,0.6,0.7,1,0.3
		c0.4-0.5,0.7-1.1,1.1-1.7c0.2-0.3,0.4-0.5,0.7-0.4c0.4,0.1,0.6,0.5,0.5,0.8c-0.5,0.9-0.3,2.2-0.9,2.7c-1.6,1.3-1.3,2,0.4,2.7
		c0.3,0.1,0.4,0.7,0.8,0.5c0.4-0.2,0.2-0.6,0.2-0.9c-0.2-0.7,0.2-1,0.8-1.1c0.4-0.1,1-0.7,1.3,0c0.4,1.1,1.3,1.1,2.2,1.3
		c0.7,0.1,1.8,0.8,1.1,1.4c-1.2,1-0.7,2.1-0.7,3.2c0,0.5,0.2,1-0.4,1.3c-0.4,0.2-0.6-0.1-0.9-0.4c-0.4-0.4-0.7-0.8-0.3-1.4
		c0.2-0.4,0.6-0.8,0.3-1.5c-0.7,1.7-2.3,2.5-3.3,4c-0.1,0.2-0.1,0.6-0.1,0.9c0.2,1.3,0.4,2.7,0.9,3.9c0.3,0.8,0.9,1.6,1.9,1.1
		c0.9-0.4,1.1-1.4,0.6-2.1c-1.1-1.6-0.3-2.5,0.8-3.5c0.5,0.2,0.5,1.3,1.3,1c0.8-0.4,0.4-1.1,0.1-1.6c-0.3-0.7,0-1.2,0.6-1.6
		c0.4-0.3,0.9-0.6,1.5-0.3c0.6,0.3,0.5,1,0.5,1.6c0.1,0.8-0.4,1.4-0.3,2.2c0.4,2.1,1.1,3.6,3.4,3.8c0,0,0,0.1,0.1,0.2
		c-0.2,0.3-0.6,0.4-1,0.5c-1.2,0.1-1.1,1-1,1.8c0.1,0.9,0.5,2.1,1.5,1.7c2-0.8,4.9-0.5,5.4-3.6c0.1-0.4,0.3-0.7,0.8-0.7
		c0.3,0,0.6,0.2,0.6,0.5c0.3,1.8,1.6,1.7,2.9,1.5c1.5-0.2,2.8-1.2,4.4-0.4c0.5,0.3,1.3-0.5,1.7-1.1c0.2-0.3,0-0.7-0.4-0.8
		c-0.6-0.2-1.2-0.4-1-1.2c0.2-0.8,0.9-1.1,1.7-1.1c1,0,2-0.2,2.8-0.1c1.7,0.2,1.9-0.7,2.1-1.9c0.2-1.2-0.1-1.5-1.3-1.1
		c-0.4,0.1-0.7,0.3-1-0.1c-0.3-0.3-0.3-0.7-0.1-1.1c0.8-1.1,0.6-1.5-0.8-1.5c-1.1,0-1.4-0.9-1.5-1.7
		C593.1,348.6,594.1,348.7,594.7,348.6z M444.5,238.7c-0.2,0.4-0.5,0.5-0.7,0.1c-0.6-1.5-1.6-2.9-1.7-4.5c-0.1-0.7,0.2-1,0.9-0.8
		c1.3,0.2,2.3,1.3,2.3,2.7C445.1,236.9,444.8,237.8,444.5,238.7z M440.6,280.3c-0.6-0.3-1.8,0.4-1.7-0.9c0-0.8,0.4-1.6,1.4-1.5
		c0.9,0.1,2.3-0.1,2.3,1.4C442.7,280.7,441.4,280.1,440.6,280.3z M444.9,263.1c-0.1,0.7-0.8,0.9-1.5,0.7c-1.1-0.2-1.8,0.7-2.7,1.1
		c-0.5,0.2-1,0.7-1.6,0.2c-0.6-0.6-0.2-1.2,0-1.7c0.9-1.8,2.3-2.2,4-1.1c0.2,0.1,0.4,0.2,0.6,0.3
		C444.2,262.8,445.1,262.2,444.9,263.1z M470.8,251.2c-0.6,0.5-1.2,0-1.6-0.5c-0.3-0.4-1.1-0.7-0.6-1.4c0.5-0.8,1.1-1.7,2.3-1.6
		c0.5,0.1,0.9,0.2,1.4,0.3c0.2,0.1,0.5,0.3,0.5,0.4C472.4,249.6,471.7,250.5,470.8,251.2z M504,221.1c-0.3,0.3-0.7,0.2-0.9,0
		c-1-0.9-1.8-1.1-2.8,0.1c-0.4,0.5-1.2,0.2-1.8-0.1c-0.6-0.3-0.9-0.9-0.9-1.5c0,0,0-0.1,0-0.1c0.5-1.9,2.2-1.3,3.4-1.7
		c0.8-0.2,1.9-0.3,2,1.1c0,0.6,0.4,1,0.7,1.4C504.1,220.4,504.3,220.7,504,221.1z M510.6,214.4c-1.3,1.1-2.6,2.1-3.5,3.6
		c-0.3,0.6-0.9,1-1.5,0.3c-0.7-0.7-1.8-1.4-1.1-2.7c0.3-0.6,1-0.2,1.4,0.1c1.1,1.1,1.7,0.4,2.4-0.5c0.4-0.5,0.6-0.9-0.1-1.3
		c-0.4-0.2-0.7-0.6-0.4-1.1c0.3-0.4,0.7-0.2,1,0c0.9,0.8,1.6-0.1,2.6-0.1C511.5,213.6,511,214,510.6,214.4z M510.8,209.4
		c-0.7,0.1-0.7,0.8-1,1.3c-0.2,0.3-0.3,0.8-0.7,0.7c-0.4-0.1-0.5-0.6-0.6-0.9c-0.5-1.9-0.1-2.4,1.9-2.4c0.1,0,0.2,0,0.3,0
		c0.6,0.4,1.9-0.2,2,0.6C512.6,209.7,511.4,209.3,510.8,209.4z M542.3,183.1c-0.3-1.5-0.7-2.9-0.9-4.3c-0.1-0.3-0.4-0.8,0.1-1
		c0.4-0.1,1-0.2,1.4,0c0.5,0.2,0.2,0.7,0.1,1c-0.5,1.6,0.2,2.7,2,3.5C543.8,182.7,543,182.9,542.3,183.1z M558.7,272
		c-0.2-0.1-0.3-0.4-0.2-0.6c0.3-0.5,0.4-1.2,1.1-1.4c0.3-0.1,0.7,0,0.8-0.1c0.9,0,1.6,0.2,2.3,0.5c0.4,0.2,0.7,0.6,0.8,1.1
		c0,0.4-0.3,0.7-0.7,0.8c-0.5,0.1-1.1,0.2-1.4-0.4c-0.4-0.6-0.8-0.6-1.3-0.2C559.7,272.1,559.2,272.2,558.7,272z M565.1,275.8
		c-0.8,0.2-1.6,0.4-2.3,0.6c-0.2-0.1-0.4-0.1-0.6-0.1c-0.7-0.3-1.7-0.5-1.4-1.4c0.2-0.8,1.1-0.9,2-0.5c0.7,0.3,1.5,0.1,2.3,0.2
		c0.4,0,0.8,0,0.9,0.5C565.9,275.6,565.5,275.7,565.1,275.8z M565,232.3c-0.6-0.5-1.2-0.8-2-0.8c-0.2,0-0.5-0.1-0.6-0.3
		c-0.1-0.3,0.1-0.6,0.4-0.7c0.7-0.3,1.2-1.3,2.2-0.7c0.7,0.4,1.3,0.9,1.3,2C566.2,232.4,565.9,233,565,232.3z M584.7,181.1
		c-1.1,0.6-1.4,1.6-1.3,2.8c-0.7-0.7-1.3-1.2-2.3-1.3c-0.8-0.1-0.7-0.6-0.3-1.1c0.8-0.9,2.1-1.4,2.4-2.8c0-0.1,0.3-0.2,0.3-0.2
		c0.6,0.3,1,0.8,1.3,1.3C585.2,180.3,585.2,180.8,584.7,181.1z"/>
	<path d="M808.3,160c-0.2-1.1-0.7-2.2-0.2-3.3c0.6-1.3,0.2-2-0.9-2.8c-1.1-0.7-1.5-2.6-0.7-3.6c0.4-0.5,0.6-0.9,0.2-1.5
		c-0.7-1-1.8-1.1-2.9-0.9c-0.7,0.1-0.7,0.5-0.8,1.1c-0.1,1.2-1.4,1.8-2.3,1c-0.6-0.5-1.4-0.8-1.9-1.2c-0.8-0.6-2.6-0.9-1.3-2.6
		c0.1-0.1,0-0.4-0.1-0.5c-0.3-0.2-0.7-0.1-0.9,0.1c-0.6,0.5-1.1,1.1-1.7,1.6c-1.7,1.3-1.9,2.2-0.8,3.9c0.2,0.3,0.6,0.5,0.2,0.9
		c-0.3,0.3-0.7,0.1-1.1,0c-1.3-0.7-2-1.8-2.5-3.1c-0.4-1,0.7-1.2,1.1-1.8c0.2-0.4,0.7-0.8,0.2-1.1c-0.5-0.4-0.9,0.1-1,0.5
		c-0.7,1.7-1.3,0.8-1.9,0c-0.4-0.5-0.8-1.1-1.3-1.6c-0.3-0.3-0.7-0.7-1.1-0.5c-0.7,0.3-1.2,0.2-1.9,0c-0.8-0.2-1.3,0.4-1.6,0.9
		c-0.2,0.2-0.3,0.6,0,0.8c0.6,0.4,1.1,0,1.6-0.2c0,0,0.1,0,0.1-0.1c1.4-0.6,3.2,0,3.8,1.4c0.4,0.8,0.2,1.4-0.8,1.4
		c-1,0-2.1,0.1-2.9-0.7c-0.8-0.8-2.4,0.9-2.8-1c-0.6,0.3-1.1,0.6-1.5,1.1c-0.3,0.5,0,0.8,0.3,1.1c0.5,0.4,0.8,1,0.4,1.5
		c-0.4,0.6-1,0.9-1.8,0.7c-0.5-0.1-1.1-0.8-1.3,0c-0.3,0.8,0.6,0.8,1.1,1.1c0.2,0.1,0.4,0.2,0.5,0.3c0.3,0.3,0.6,0.7,0.5,1.2
		c-0.1,0.6-0.6,0.5-1.1,0.6c-1.1,0.1-2.1-0.2-3-0.9c-0.8-0.7-1.5-0.6-2,0.4c-0.8,1.6-1.8,3.1-2.5,4.8c-0.9,2.2-0.6,2.6,1.6,3.7
		c0.5,0.2,1.5,0.4,0.9,1.2c-0.4,0.7-1.2,0.4-1.8,0.1c-0.6-0.3-0.9-0.8-1.2-1.4c-0.5-0.9-1.2-1.2-2.1-0.8c-0.8,0.4-0.3,1.1-0.2,1.7
		c0.1,0.4,0.2,0.8,0.3,1.3c0.1,0.6-0.1,0.8-0.7,0.6c-1.7-0.6-2.2,0.7-2.9,1.7c-0.7,1-0.1,1.8,0.6,2.5c0.3,0.3,0.7,0.5,0.5,0.9
		c-0.2,0.5-2.6,1.9-3.2,1.9c-0.4,0-1.1-0.6-1.1,0.3c0,0.6,0.6,1.3,1.3,1.1c1.2-0.4,1.6-0.2,1.2,1c-0.1,0.2,0.1,0.5,0.2,0.8
		c0.3,0.7,0,1.2-0.8,1.2c-0.7,0-1.3,0.2-1.7,0.8c-0.3,0.5-0.8,0.5-1.3,0.2c-0.4-0.3-0.5-0.7-0.3-1.2c0.1-0.3,0.3-0.5,0.4-0.7
		c0.2-0.3,0.4-0.8-0.1-1c-0.4-0.2-0.7,0.2-0.9,0.5c-0.3,0.5-0.7,1.1-0.8,1.7c-0.3,1.1-0.5,2.2-1.9,2.4c-0.2,0-0.5,0.4-0.5,0.6
		c-0.2,1-0.4,1.9-1.1,2.7c-0.2,0.2-0.2,0.6,0.1,0.8c0.4,0.3,0.6-0.1,0.8-0.4c0.2-0.3,0.5-0.8,0.9-0.7c1.4,0.3,2.6-0.2,3.9-0.4
		c0.3-0.1,0.9-0.1,0.6,0.4c-0.3,0.7-0.8,1.8-1.5,1.5c-2.4-0.9-4,1.8-6.3,1.1c-0.3-0.1-0.7,0.4-1,0.7c-1.1,0.9-1.2,2.5-2.2,3.5
		c-0.2,0.2-0.2,0.8,0,1.1c1.1,1.6,0.1,1.9-1.2,2.2c-0.4,0.1-0.9,0.2-1.3,0.3c-1.6,0.5-2.3,2-2.4,4.2c-0.1,1.8,1.1,1.8,2.2,2.2
		c0.9,0.3,1.6,0.2,2.2-0.4c0.6-0.6,1.1-1.3,0.6-2.2c-0.2-0.4-0.2-0.7,0.1-1.1c1.7-1.7,3.4-3.5,5.1-5.2c0.3-0.3,0.5-0.7,1-0.4
		c0.3,0.2,0.2,0.6,0.1,0.9c-0.6,2.4-1.6,4.6-2.8,6.8c-0.3-0.3-0.5-0.7-0.8-1c-0.7-0.5-2.1-0.1-1.8,0.5c0.6,1.4-0.1,2.8,0.5,4.1
		c0.2,0.5,0.5,1.2-0.4,1.4c-0.7,0.2-1.2,0-1.4-0.8c-0.2-0.6-0.7-1-1.2-0.6c-1,1-2.9,1.1-3.3,2.9c-0.1,0.4-0.3,0.5-0.7,0.5
		c-2.3,0-2.3,0-2.9,2.1c-0.1,0.3-0.1,0.7-0.5,0.9c-0.9-1.2-1.6-2.4-0.4-4c0.4-0.6,1.5-1.6,0.8-2c-0.8-0.4-1.2,1.1-1.8,1.8
		c-0.1,0.2-0.2,0.5-0.2,0.7c0.1,1.2-0.7,1.9-1.5,2.5c-1,0.7-1.8,1.6-2.2,2.8c-0.2,0.5-0.5,0.8-1,0.9c-0.9,0-1,0.4-0.7,1.3
		c0.4,1.1,1.1,2.4-1,2.6c-0.1,0-0.2,0.2-0.4,0.2c-2.9,1.5-3.4,4.9-5.6,7c-0.1,0.1-0.1,0.2-0.1,0.3c-0.3,1.6-1.3,2.5-3,2.6
		c-0.5,0-0.7,0.3-0.8,0.8c-0.4,1.8,0.1,2.9,1.6,4c0.4,0.3,0.9,0.4,1.1,1c-1.3-0.1-2-1.4-3.3-1.8c0,0.3,0,0.4,0.1,0.5
		c0.2,0.5,1.1,0.9,0.6,1.4c-0.6,0.5-1.2-0.2-1.8-0.5c-0.2-0.2-0.4-0.4-0.6-0.6c-0.3-0.3-0.7-0.4-0.9-0.2c-0.9,1.1-2.4,1.8-2.8,3.3
		c-0.5,1.7-1.7,2.8-3.1,3.4c-1.7,0.7-2.6,1.9-3.3,3.5c-0.4,0.9-0.7,1.5-1.9,1.7c-1.3,0.2-1.5,1.1-0.6,2.1c0.3,0.4,0.6,0.8,0.9,1.1
		c0.8,0.8,0.4,1.7-0.3,2.1c-0.9,0.4-0.7-0.7-0.9-1.1c-0.6-1.1-1.4-1.5-2.1-0.7c-0.7,0.9-1.4,1.3-2.6,1.1c-1.1-0.2-1.7,0.8-2,1.6
		c-0.3,0.9,0.8,0.8,1.3,1.1c0,0,0.1,0,0.1,0.1c0.8,0.4,0.9,1.1,0.1,1.6c-0.6,0.4-1.2,0.5-1.8-0.1c-1-1-2.3-0.7-3.5-0.4
		c-2,0.6-2.6,3.4-5,3.5c-0.1,0-0.3,0.3-0.4,0.4c-0.4,0.7-1,1.3-1.5,1.9c-0.6,0.7-2.1,1.6,0.1,2.4c0.5,0.2,0.8,0.9,0.6,1.5
		c-0.2,0.4-0.6,0.5-1,0.5c-0.6,0-0.9-0.4-1-1c0-0.2-0.1-0.5-0.2-0.7c-0.4-0.6-0.7-1.3-1.3-1.7c-0.6-0.4-0.7,0.6-1.2,0.8
		c-0.2,0.1-0.5,0-0.7,0.2c-1.8,1-4,1.4-4.6,3.8c-0.3,1.1-1.2,0.9-1.8,0.4c-1.5-1.1-3-0.8-4.5-0.1c-1.1,0.5-2,1.3-2.8,2.1
		c-0.6,0.6-1.2,0.8-1.9,0.1c-0.6-0.7-1.5-0.9-2.3-0.6c-1.7,0.6-2.6-0.3-3.5-1.6c-1.3-1.9-0.6-4.5-1.9-6.5c-0.6-0.9-0.8-2.1-1.7-3
		c-0.6-0.6-0.9-1.2-1.2-2c-0.5-1.4-0.4-1.8,1.2-2c0.4-0.1,1,0.1,1-0.5c0-0.5-0.4-0.6-0.8-0.7c-0.8-0.2-0.6-0.5-0.4-1.1
		c0.4-1.5,1.2-2.9,1.4-4.4c0.3-1.8,0.2-3.6-0.1-5.5c-0.3-1.7-1.1-3.3-0.9-5.1c0.2-2.2,1.1-4.1,1.9-6c0.5-1.1,0.3-2.4,0.9-3.3
		c0.7-0.9,0.7-1.3-0.4-1.6c-0.3-0.1-0.6-0.2-0.7-0.7c2.3-0.4,2.6-0.7,3.2-3c0.2-0.8,0.7-1.4,1.3-1.8c2.1-1.6,2.4-3.9,0.7-5.7
		c-0.2-0.2-0.5-0.3-0.4-0.7c0.8-0.1,1.3,0.5,2.1,0.6c1.7,0.3,2.1,0,2.1-1.8c0-0.9-0.2-1.8,0.4-2.5c1-1.2,1-3,2.2-4.2
		c0.3-0.2,0.1-0.7-0.1-1c-0.7-1.2-0.4-2.1,0.9-2.6c0.6-0.2,1-0.7,1.6-1c0.9-0.5,1.7-1.3,2.4-2.1c0.3-0.3,0.6-0.6,0.1-1
		c-0.4-0.3-0.7-0.1-1,0.2c-0.3,0.3-0.5,0.6-0.8,0.9c-0.3,0.3-0.7,0.4-1,0c-0.5-0.8-1.2-0.8-2-0.8c-0.6,0-1.5-0.2-1-0.9
		c0.8-1.2,0.2-2.4,0.4-3.5c0.2-1.1-0.6-1.6-1.4-2c-0.9-0.4-1.2,0.5-1.6,1.1c-0.2,0.2-0.2,0.5-0.4,0.8c-0.1,0.2-0.2,0.3-0.5,0.3
		c-0.2-0.1-0.3-0.4-0.2-0.5c0.8-0.9,0-1.6-0.2-2.4c-0.2-0.9-0.5-1.7-1.6-0.6c-0.2,0.3-0.6,0.3-0.9,0c-0.3-0.2-0.2-0.5,0-0.8
		c0.2-0.3,0.9-0.3,0.5-0.8c-0.3-0.4-0.8-0.3-1.2-0.3c-0.9,0-1.7,0.3-2.3,1.1c-0.4,0.6-0.7,1.7-1.4,1.5c-0.8-0.3-0.6-1.5-0.8-2.3
		c0-0.1,0-0.3,0.1-0.4c0.1-0.4,0.2-0.9-0.4-1.1c-0.5-0.1-0.7,0.3-1,0.7c-0.4,0.5-0.4,1.3-1.2,1.4c-1.3,0.1-2.3,0.9-3.5,1.3
		c-1.1,0.4-1.7,1.1-1.5,2.4c0.2,1.4-0.1,1.6-1.4,1.2c-0.3-0.1-0.6-0.3-0.8,0c-0.2,0.3,0.1,0.5,0.3,0.7c0.8,0.8,0.7,1.8,0.8,2.7
		c0.1,0.7-0.3,1.4-1.1,0.8c-0.8-0.5-1.2-0.2-1.7,0.4c-0.6,0.8-0.9,1.6-0.9,2.5c0,0.8,0,1.5-0.1,2.3c0,0.6-0.4,0.9-1,1.1
		c-0.4,0.1-0.9,0.1-1-0.4c-0.2-1.5-1.8-1.8-2.5-2.9c-0.5-0.7-1.5-1.2-2.3-0.4c-0.6,0.7-1.2,1.4-1.8,2.1c-0.5,0.6-0.4,1.1,0.5,1.1
		c1,0.1,1.9-0.1,2.7-0.7c0.5-0.4,1.2-0.8,1.6-0.1c0.5,0.7,1.5,1.1,1.4,2.2c0,0.4,0.3,0.7,0.7,0.8c0.6,0.2,1.7-0.1,1.5,0.9
		c-0.1,0.9-1.1,0.3-1.8,0.5c-0.1,0-0.1,0.1-0.2,0.2c0.1,0.2,0.2,0.3,0.3,0.5c0.8,1.4,0.7,1.5-0.9,1.6c-0.5,0-0.7,0.1-0.8,0.6
		c-0.2,1.7-1.2,2.6-2.8,2.8c-0.3,0-0.6,0.1-0.7,0.4c-0.8,1.5-2,1.1-3.2,0.6c-0.5-0.2-0.9-0.9-1.4-0.2c-0.4,0.6-0.1,1.2,0.5,1.6
		c0.7,0.6,1.5,1.3,2,2.1c0.3,0.5,1,1.2,0.1,1.7c-0.8,0.4-1.3,0-1.5-0.8c-0.3-0.8-0.8-0.9-1.5-0.3c-0.9,0.8-2,1.4-2.8,2.3
		c-0.7,0.9-2.1,1.2-2.3,2.5c-0.1,0.6-0.9,1.3-0.2,1.7c0.7,0.4,0.9-0.6,1.3-1.1c0.4-0.5,0.8-1.5,1.3-1c1.1,1,3,0.9,3.7,2.7
		c0.4,1,0.2,1.5-0.4,2.2c-0.6,0.7-1.2,0.8-2,0.2c-0.8-0.7-1.5-0.8-2,0.4c-0.1,0.4-0.4,0.7-0.8,0.3c-0.4-0.4-0.4-1.3-1.2-0.7
		c-0.5,0.3-0.9,0.8-1.1,1.3c-0.2,0.6-0.4,1.3,0,1.8c0.5,0.6,1-0.1,1.4-0.3c1.6-0.9,3.1-1.1,4.6,0.2c0.2,0.2,0.6,0.3,0.5,0.8
		c-0.3,1.1-0.7,2.1-1,3.2c-0.1,0.3-0.3,0.5-0.7,0.4c-0.3,0-0.5-0.3-0.5-0.6c0-0.3,0-0.6-0.1-0.9c-0.1-0.4-0.2-0.9-0.7-1
		c-0.5-0.1-0.7,0.3-0.9,0.6c-0.5,0.8-1.3,1.4-2,1.9c-0.9,0.6-1.3,1.2-0.9,2.3c0.3,0.8,0.6,1.7,0.5,2.5c-0.2,1.1-1.4,0.9-2.2,1.3
		c-0.7,0.4-0.6,1-0.4,1.6c0.2,0.5,0.6,0.5,1.1,0.2c1.5-1.1,3.1-0.9,4.2,0.4c0.5,0.5,1,1.3,0.5,2c-0.5,0.8-1.4,1-2.3,0.8
		c-0.7-0.2-1.1-0.6-1.3-1.3c-0.1-0.4-0.5-1-0.9-0.7c-0.6,0.3-0.2,0.9,0.1,1.2c0.8,0.8,0.7,1.4-0.1,2c-0.3,0.3-0.6,0.6-0.8,1
		c-0.3,0.4-0.6,0.9-0.2,1.5c0.3,0.4,0.7,0.6,1.1,0.5c0.6-0.1,0.6-0.7,0.8-1.1c0.4-1.2,1.1-1.5,2.1-0.8c1.7,1,2.2,3.8,0.8,5.3
		c-0.8,1-1.9,1.8-0.2,3c0.2,0.1,0.4,0.4,0.2,0.6c-0.2,0.2-0.4,0.2-0.7,0.1c-1.3-0.3-1.5,0.3-1.2,1.4c0.1,0.3,0.1,0.6,0.1,0.9
		c0,1.1,0.5,1,1.2,0.4c0.4-0.3,0.8-0.9,1.2-1c1.5-0.2,1.6,2,3.1,2c0.3,0,0.3,0.5,0.2,0.9c-0.3,1.1-1.4,1.4-2.2,0.6
		c-0.5-0.5-1-0.7-1.7-0.5c-0.7,0.2-0.9,0.8-0.9,1.5c-0.1,0.7-0.1,1.3-0.2,2c-0.1,0.8-0.4,1-1.2,0.5c-1.1-0.7-2.5-0.9-3.4-2
		c0.6,1.4,1.6,2.5,1.7,4.1c0,0.8,0.7,0.6,1.1,0c0.2-0.4,0.4-1,1-0.8c0.6,0.2,0.7,0.8,0.6,1.3c0,1,0.2,2,0.6,2.9
		c0.2,0.5,0.6,1.3,0,1.6c-1.3,0.7-0.5,1.3,0,1.9c0.6,0.7,1.2,1.2,1.8,1.9c0.3,0.3,0.7,0.5,0.5,1c-0.1,0.5-0.6,0.4-1,0.4
		c-2.6,0.3-2.6,0.3-2.6,2.9c0,0.5-0.4,1.2,0.5,1.5c0.7,0.2,1.3,0,1.8-0.6c0.2-0.3,0.5-0.9,0.9-0.8c0.6,0.2,0.3,0.8,0.3,1.3
		c0,0.1,0,0.3,0,0.4c0.1,0.7,0.4,0.9,1.1,0.9c0.7,0,1-0.3,1-1c0-0.5,0-1,0-1.5c0-0.6,0-1.4,0.9-1.3c0.8,0.1,0.8,0.8,0.6,1.4
		c-0.2,0.9,0,1.6,1,2c1.5,0.5,2,1.5,1.4,3c-0.1,0.4-0.2,0.8-0.2,1.1c0,0.4,0.2,0.9,0.7,0.7c1.3-0.5,2.8-0.4,3.9-1.5
		c0.3-0.3,0.6-0.7,1.1-0.5c0.6,0.3,0.8,0.8,0.7,1.3c-0.3,1.2-0.5,2.5-1.8,3.1c-0.7,0.3-1.3,0.8-1.3,1.8c0.3-0.1,0.5-0.2,0.6-0.3
		c1-1,1.9-1,2.6,0.3c0.4,0.6,1,0.9,1.5,0c0.5-0.8,0.9-0.6,1.5,0c0.3,0.4,0.7,0.6,1.1,1c0.9,0.7,1.7,1.2,2.5,0
		c0.2-0.2,0.4-0.4,0.7-0.2c0.2,0.2,0.1,0.5-0.1,0.8c-0.4,0.6-1.3,1.2-0.6,1.8c0.7,0.5,1.1-0.6,1.7-0.9c0,0,0.1-0.1,0.1-0.1
		c0.3-0.3,0.7-0.7,1.1-0.4c0.4,0.3-0.1,0.7-0.2,1c-0.7,1.5-0.1,3.6,1.4,4.3c0.3,0.2,0.7,0.3,0.9,0c0.3-0.3,0.1-0.6-0.1-0.7
		c-0.5-0.4-1-0.8-0.3-1.3c0.6-0.4,1.1-1.6,2.2-0.8c0.7,0.6,1,0,1.4-0.5c0.5-0.7,1-0.9,1.9-0.6c0.9,0.3,1.4,0.8,1.3,1.8
		c0,0.5,0,1,0,1.5c0,0.2,0,0.5,0.3,0.6c0.3,0,0.4-0.2,0.5-0.4c0.3-0.7,0.6-1.5,1.2-1.9c0.6-0.4,1.1-0.6,1.1,0.4c0,0.4,0,1,0.6,1
		c0.6,0,0.6-0.5,0.8-0.9c0.2-0.4,0-1.1,0.6-1.1c0.7,0,0.9,0.6,1.1,1.1c0.1,0.4,0.2,0.8,0.7,0.9c0.6,0.1,0.7-0.5,0.9-0.8
		c0.9-1.5,2.7-1.9,4.3-1c1.8,1,2.8,0.8,4-1c0.3-0.4,0.5-0.9,1.1-0.7c0.9,0.2,1.3-0.3,1.6-1c0.2-0.5,0.6-1,1-1.4c1-1.1,1.5-1.1,2,0.3
		c0.3,0.9,0.8,1.2,1.7,1.2c2,0,3.9-1.6,4.2-3.8c0.1-1.1,0.5-1.7,1.7-1c0.8,0.5,1.4,0.1,2-0.4c0.3-0.3,0.7-0.6,1.2-0.4
		c0.4,0.2,0.3,0.7,0.2,1c-0.1,0.3-0.2,0.6,0.1,0.8c0.3,0.2,0.5-0.1,0.8-0.3c0.9-0.8,1.7-1.7,3-1.9c0.2,0,0.5-0.3,0.6-0.5
		c1-1.5,2.5-2.4,4-3.3c0.9-0.6,1.6-0.5,1.8,0.7c0.1,0.4,0.2,0.8,0.7,0.8c0.6,0,0.5-0.6,0.6-1c0.1-0.6-0.1-1.3,0.8-1.4
		c0.4,0,0.9,0.2,1-0.3c0.1-0.6-0.5-0.6-0.9-0.7c-0.2,0-0.4,0-0.6-0.1c-0.8-0.3-0.8-1-0.6-1.6c0.3-0.8,0.8-0.1,1.1,0.1
		c0.3,0.1,0.6,0.5,0.9,0.1c0.3-0.3-0.1-0.6-0.2-0.9c-0.5-0.7-0.3-1.3,0.5-1.7c0.8-0.4,1,0.3,1.2,0.8c0.5,1.2,1.2,1.1,2.2,0.6
		c1.2-0.7,2.1-1.7,2.6-3c0.2-0.6,0.6-1,1.2-1.3c0.7-0.4,1.3-1,2-1.5c0.4-0.3,0.6-1,1.3-0.8c0.5,0.2,0.2,0.9,0.3,1.3
		c0.1,0.3,0,0.7,0.5,0.8c0.4,0,0.5-0.3,0.5-0.6c0.1-1.3,0.9-1.5,2-1.5c1.7,0.1,1.7,0,2.2-1.6c0.2-0.6,0.6-1.2,0.1-1.7
		c-0.6-0.5-0.5-1,0.1-1.4c0.3-0.3,0.5-0.6,0.4-1c-0.2-0.9,0.3-1,1-1.2c1.7-0.4,3.5-0.8,4.5-2.5c0.3-0.5,0.9-0.7,1.5-0.9
		c0.4-0.1,0.8-0.2,0.9-0.6c0.4-1.1,1.3-1.8,1.9-2.7c1.1-1.7,1.9-1.8,3.7-0.7c0.8,0.5,1.3,0.3,1.4-0.6c0.1-0.5,0.3-1.1-0.1-1.7
		c-0.4,0-0.5,0.2-0.7,0.5c-0.2,0.3-0.5,0.7-0.9,0.5c-0.4-0.2-0.6-0.7-0.5-1.1c0-0.3,0.1-0.6,0.3-0.8c1.1-1.1,1.2-2.5,1.1-3.9
		c0-0.3-0.1-0.8,0.5-1c0.5,1,1.3,0.9,2.3,0.6c1.8-0.6,2.4-2.2,3.5-3.4c1.3-1.5,1.3-1.7-0.3-2.9c-0.3-0.2-0.7-0.4-0.6-0.8
		c0.1-0.4,0.6-0.3,0.9-0.2c2.4,0.7,4.4-0.1,6.1-1.9c0.5-0.5,0.9-0.7,1.4-0.1c0.5,0.6-0.1,0.9-0.5,1.2c-0.7,0.4-1.1,1.1-0.7,1.9
		c0.3,0.8,1,1.6,1.8,1.7c0.9,0.2,1.4-0.6,1.7-1.3c0.1-0.2,0.1-0.4,0.2-0.5c0.1-0.2,0.3-0.4,0.6-0.3c0.3,0.1,0.5,0.3,0.5,0.6
		c0,1.5-1.7,3.3-3.2,3.5c-1.9,0.2-2.7,1.1-2.7,2.9c0,1.2,0,2.3-0.5,3.5c-0.4,1-0.5,2.3,1.1,3c0.9,0.4,2,0.7,2.7,1.4
		c0.9,0.8,1.2,0.8,1.6-0.3c0.3-0.8,1-0.6,1.6-0.3c0.6,0.4,0.6,0.9,0.1,1.4c-0.4,0.4-0.8,0.8-1.3,1c-2.8,1.2-3,1.5-2.1,4.4
		c-0.6,0.1-0.7-0.7-1.2-0.5c-0.5,0.3-0.2,0.8-0.2,1.2c0,1-0.4,1.7-1.4,1.9c-0.5,0.1-1.2,0.3-1,1c0.7,1.8-0.3,3.3-0.8,4.9
		c-0.2,0.7,1.4,3.2,2.1,3.2c0.3,0,0.4-0.2,0.6-0.4c0.9-1,2-1,2.6,0c0.7,1.3,2.2,1.9,2.3,3.6c0,0.3,0.4,0.6,0.7,0.7
		c1.5,0.8,1.6,2.1,1.4,3.5c0,0.4,0,0.9-0.5,0.9c-0.6,0-0.5-0.5-0.5-0.8c-0.1-0.5,0.1-1.4-0.7-1.3c-0.8,0.1-0.5,1-0.5,1.6
		c0,0.2,0,0.5,0.2,0.7c0.9,1,0.4,1.9-0.1,2.9c-0.8,1.6-0.2,2.9,1.5,2.8c1.7-0.1,2.3,0.8,2.7,2.1c0.1,0.4,0.4,0.7,0.1,1.1
		c-0.4,0.4-0.7,0.1-1-0.1c-0.4-0.3-0.8-0.4-1.2,0c-0.3,0.4-0.6,0.8-0.4,1.3c0.2,0.4,0.4,0.9,0.6,1.3c0.7,1.2,0.5,1.4-0.9,1.5
		c-0.3,0-0.6,0-0.9,0c-1.5,0.1-1.9,0.9-1.1,2.2c0.5,0.8,0.7,1.6-0.1,2.4c-0.3,0.3-0.3,0.8,0.2,0.7c1.8-0.2,3,1.8,4.9,1.2
		c0.7-0.2,1.2,0.7,1.5,1.4c0.3,0.8-0.5,0.7-0.9,1c-0.4,0.2-0.6,0.5-0.5,1c0.1,0.5,0.4,0.7,0.9,0.9c0.7,0.2,1.3,0.2,2,0.5
		c0.7,0.4,0.9,1.1,0.8,1.9c-0.1,0.6-0.4,0.9-1.1,0.8c-0.3,0-0.6-0.2-0.8,0.2c-0.2,0.3,0.1,0.5,0.3,0.7c0.3,0.3,0.6,0.5,1,0.3
		c0.3-0.2,0.6-0.6,0.9-0.7c0.6-0.2,1.4-0.4,1.9,0c0.5,0.5-0.1,1-0.4,1.4c-0.4,0.8-0.4,1.3,0.7,1.3c0.6,0,1.1,0.2,1.1,0.9
		c0,0.3-0.2,0.8,0.3,0.8c0.4,0,0.5-0.4,0.6-0.7c0.1-0.4,0.3-0.9,0.3-1.3c-0.1-1.2,0.5-2.3,0.7-3.4c0.1-0.4,0.3-0.7,0.7-0.8
		c0.4-0.1,0.7,0.2,0.8,0.5c0.3,0.6,0.9,0.8,1.3,1.3c0.8,1,1.1,0.4,1.6-0.3c0.6-1,0.8-2.2,1.6-3.1c0.6-0.6-0.1-0.9-0.7-0.9
		c-0.5-0.1-1.2,0-1.2-0.8c0-0.7,0-1.5,1-1.7c1-0.2,0.9-0.6,0.5-1.3c-0.3-0.6-0.1-1.2,0.3-1.6c0.4-0.4,0.8,0,1.2,0.2
		c0.3,0.2,0.7,0.3,0.9-0.1c0.2-0.3,0.1-0.7-0.1-1c-0.3-0.4-0.7-0.5-1.1-0.6c-0.9,0-1.2-0.5-1.2-1.4c0-0.5-0.1-1.1-0.3-1.6
		c-0.3-0.9,0-1.4,0.9-1.6c0.8-0.1,1.7-0.5,1.9,0.8c0.2,1.1,1,1.4,2,1.4c0.6,0,1-0.3,0.8-0.9c-0.4-1.1-0.4-2.2-0.8-3.2
		c-0.3-0.8-1.3-1.7-0.6-2.3c0.6-0.4,1.5,0.6,2.1,1.2c1.3,1.3,1.4-1.2,2.5-0.7c0.2,0.1,0.5,0,0.6-0.3c0-0.1,0-0.2,0-0.3
		c-0.6-0.7-0.8-1.5-1-2.3c-0.2-0.7-0.8-0.6-1.3-0.3c-0.4,0.2-0.7,0.6-1,0.8c-0.6,0.4-1.3,0.6-1.9,0.1c-0.6-0.5-0.3-1.1,0-1.6
		c1-1.4,1.1-3.1,1.1-4.7c0-0.5-0.2-1.1,0.3-1.4c1-0.6,0.8-1.3,0.4-2.1c-0.3-0.7-0.4-1.4-0.6-2.1c-0.3-0.9,0.1-1.8,0.9-1.8
		c1.7-0.1,2.3-1.3,3-2.6c0.4-0.8,0.6-1.4-0.1-2c-0.5-0.4-0.8-0.9-0.3-1.5c1.2-1.4,0.7-3,1-4.6c0.2-0.9-0.3-1-1-0.5
		c-0.5,0.4-1.2,0.7-1.8,0.9c-0.6,0.2-1.3,0.6-1.7-0.2c-0.4-0.8,0.2-1.2,0.7-1.7c0.8-0.6,1.7-1.2,0.4-2.2c-0.3-0.2-0.2-0.5-0.2-0.8
		c0.1-1,0.3-1.9,0.4-2.9c0.1-0.4,0.3-0.7,0.7-0.8c1.6-0.2,1.1-0.8,0.3-1.5c-0.3-0.3-0.6-0.5-0.9-0.7c-0.3-0.3-0.9-0.4-0.7-1
		c0.1-0.5,0.7-0.3,1-0.3c0.3-0.1,0.7-0.1,0.8-0.5c0.1-0.4-0.3-0.6-0.6-0.7c-0.4-0.1-1,0.1-1-0.6c0-0.5,0.5-0.6,0.9-0.9
		c0.9-0.7,1.9-1.4,1.4-2.9c-0.5-1.6-0.3-1.9,1.4-2.6c1-0.4,1.3-1,0.6-1.9c-0.4-0.4-0.7-0.8-0.6-1.4c0.1-1.1-0.1-1.8-1.5-1.7
		c-0.5,0-1-0.5-0.7-0.8c0.9-1,1.4-2.3,2.3-3.1c0.9-0.9,0.8-1,0.1-1.7c-0.8-0.8-1.4-1.7-1.7-2.7c-0.2-0.9,1.2-0.3,1.5-1
		c0.1-0.3,0.4-0.6,0.6-0.9c0.2-0.4,0.4-0.8,0.9-1c0.8-0.4,0.9-1,0.3-1.6c-0.6-0.7-0.7-1.3,0.1-1.8c0.6-0.4,0.7-1.1,0.2-1.5
		c-1.2-1.2-0.9-2.4-0.2-3.7c0.2-0.4,0.3-1,0.2-1.4c-0.4-1.9,1-3.3,1.6-4.9c0.4-1,0.7-1.7-0.1-2.5c-0.5-0.5-0.5-1,0.4-1
		c1.3-0.1,2.3-1,3.4-1.5c0.9-0.4,1.2-1.3,0.3-2c-1-0.8-0.6-1.4-0.2-2.2c0.7-1.9,1.7-3.8,0.7-5.9c-0.3-0.7-0.1-1.7,0.6-2.1
		c1.4-0.8,1.8-2.2,1.7-3.6c0-1.5,0.4-2.7,1.5-3.8c0.3-0.3,0.5-0.6,0.7-1c0.4-0.7,0.4-1.3-0.7-1.1c-0.4,0.1-0.9,0.2-1.1-0.3
		c-0.2-0.5,0.2-0.8,0.5-1.1c0.4-0.3,0.6-0.7,1.3-0.3c1.3,0.8,2,0.4,1.7-1.1c-0.3-1.5,0.2-2.4,1.3-3.3c1.1-1,0.5-2.7-1-3
		c-0.4-0.1-1,0.3-1.1-0.4c-0.1-0.6,0.3-0.8,0.8-1.1c0.4-0.2,0.8-0.7,0.2-1c-1.2-0.6-0.4-0.8,0.1-1.3c0.9-0.9,2.2-2,1.5-3.3
		c-0.5-1-0.4-1.7,0.1-2.5C808.4,164.5,808.6,162.3,808.3,160z M638.8,233.9c-0.5,1.3-0.9,2.6-2.6,2.9c-0.5,0.1-1,0.4-1.4-0.2
		c-0.3-0.5-0.3-1,0-1.5c0.4-0.6,0.9-0.2,1.3,0.1c0.6,0.4,1.1-0.2,1.1-1.5c0.1-0.7-0.3-1.1-1.1-1.3c-0.5-0.1-1.2-0.2-1-0.9
		c0.2-0.6,0.8-0.2,1.3-0.2c0.5,0,1,0.1,1.4,0.2C639,232,639.3,232.7,638.8,233.9z M759.6,252.7c-0.5,0.1-1,0.3-1.5,0.4
		c-0.8,0.2-1.2-0.2-1.5-0.8c-0.3-0.5-0.1-0.9,0.2-1.3c0.5-0.6,0.9-0.3,1.4-0.1c1.6,0.7,2.1,0.5,2.6-1.2c0.1-0.4,0.2-0.7,0.6-0.6
		c0.5,0.1,0.4,0.6,0.4,1C761.8,251.5,761,252.4,759.6,252.7z"/>
	<path d="M403.7,186c-0.6,0.2-0.7,1.2-1.4,0.9c-0.7-0.3-0.8-1.1-0.8-1.7c0-0.8,0-1.5,0-2.3c0-0.7,0.1-1.4,1-1.2
		c0.8,0.1,0.5,0.8,0.3,1.3c-0.1,0.4-0.2,0.8,0.3,0.9c0.4,0.1,0.6-0.2,0.7-0.6c0.2-0.8,0.5-1.5,1.2-2.1c0.5-0.5,0.4-1.4-0.1-2
		c-0.5-0.7-1-0.1-1.5,0.1c-1.4,0.6-3,0.8-4.5,1.1c-0.7,0.1-0.9-0.3-0.5-0.9c0.5-0.8,0.7-1.7,1.3-2.4c0.8-1.1,0.9-2.7,2.2-3.5
		c0.8-0.6,0.8-0.9-0.2-1.3c-1.2-0.4-1.3-1-0.4-2c0.7-0.8,1.4-1.6,2-2.5c0.3-0.3,0.4-0.9-0.1-0.9c-1,0-1.5-0.9-2.4-1.2
		c0.5,1.8,0.2,2.4-1.3,2.1c-0.6-0.1-0.7-0.6-0.9-1c-0.8-1.7-2-2.9-4-2.7c-0.8,0.1-1.2-0.3-1.2-1.1c0-0.4-0.1-0.9-0.2-1.3
		c-0.1-0.5-0.4-1.1-1-1c-0.7,0-0.8,0.6-0.8,1.1c0,0.6,0.1,1.3-0.7,1.4c-0.7,0.1-1.2,0.5-1.8,0.8c-1.2,0.7-2-0.2-2.8-0.9
		c-0.8-0.6-0.2-1.2,0.3-1.7c0.5-0.5,0.5-1.1-0.1-1.6c-0.7-0.5-1.3-0.3-1.7,0.4c-0.1,0.3-0.2,0.5-0.4,0.8c-0.3,0.4-0.8,0.4-0.8-0.1
		c-0.2-2.1-0.9-0.9-1.7-0.4c-1.3,0.8-1.6,0.7-1.8-0.8c-0.1-0.4,0-0.8-0.5-1c-0.4-0.1-0.8,0.1-1.1,0.4c-0.9,0.8-1.1,1.7-0.2,2.6
		c0.3,0.3,0.7,0.8,0.2,1.3c-0.5,0.5-1.2,0.3-1.5-0.2c-0.8-1.3-1.5-0.8-2.2,0c-0.2,0.3-0.5,0.6-0.8,0.9c-0.5,0.6-0.9,0.6-1.2-0.1
		c-0.2-0.4-0.3-0.7-0.4-1.1c0.5-0.2,1,0.4,1.3-0.2c0.3-0.6-0.1-1-0.5-1.4c-0.3-0.3-0.6-0.6-1-0.9c-0.8-0.6-1.3-0.5-1.7,0.6
		c-0.3,1-0.3,2.3-1.8,2.4c-0.3,0-0.2,0.4-0.1,0.6c0.3,1.9-0.3,2.7-2.3,2.9c-0.6,0.1-1.4,0.2-1.6-0.6c-0.2-0.8,0.5-0.9,1.1-1
		c0.5-0.1,0.7-0.4,0.5-0.9c-0.2-0.5-0.6-0.9-1.1-0.5c-1.5,1-2.6,2.3-3.7,3.6c-0.4,0.5,0.1,1.6-1,1.4c-1-0.2-0.3-1.2-0.5-1.7
		c0-0.1-0.2-0.1-0.3-0.2c-1.4,2-3.1,1-4.9,0.1c0.2,0.5,0.2,0.7,0.3,0.8c2.3,2.3,1.7,5.1,1.4,7.9c0,0.4,0,0.8-0.6,0.9
		c-0.7,0.1-2.5-1.1-2.6-1.8c0-0.5-0.2-1.2,0.7-1.3c1.8-0.3,2.2-1.4,1.2-3c-0.5,0.2-0.3,0.7-0.4,1.1c-0.2,0.9-1,1.2-1.7,0.6
		c-0.5-0.4-0.8-1.1-1.6-0.7c-0.8,0.3-0.7,1.1-0.7,1.8c-0.3,2.9-1.1,3.8-4,4.2c-0.4,0.1-0.8,0.1-1.1,0.2c-1.7,0.4-2.7,2.1-2.2,3.7
		c0.3,1-0.5,1.4-0.9,2c-0.4,0.5-0.8,0.1-1.1-0.3c-1-1.6-1.9-1-3.1-0.2c-0.9,0.6-0.5,1.4-0.4,2.1c0,0.8,0.5,0.9,1.2,0.9
		c0.6,0,1.2,0.2,1.3,0.9c0.1,0.6-1.6,2.9-2.2,3.2c-1.8,0.8-2.6-0.8-3.9-1.4c-0.8-0.4-0.1-1.1-0.1-1.7c0-0.4,0-0.8,0-1.2
		c0-0.3-0.1-0.7-0.5-0.8c-0.4-0.1-0.6,0.3-0.7,0.6c-0.2,1.4-1.1,2-2.4,2.4c-1,0.3-1.1,1.3-0.3,1.9c0.7,0.5,1.3,0.7,0.8,1.8
		c-0.6,1.1-1.4,1.1-2.3,0.8c-0.7-0.2-1.3-0.5-2.3-1c1,1.3,0.7,2-0.1,2.7c-0.7,0.6-0.9,1.2,0.3,1.5c0.6,0.1,0.7,0.6,0.7,1.1
		c0,0.7-0.3,1.2-0.6,1.7c-0.4,0.6-0.8,1.3-0.1,1.8c1.3,0.8,1.4,1.4-0.1,2c-0.1,0.1-0.3,0.3-0.3,0.5c-0.1,1.1-0.6,1.2-1.5,0.8
		c-2-0.9-3.6,0.6-5.3,1c-0.6,0.1-0.7,1-0.4,1.5c0.9,1.4,0.1,1.7-1.1,1.9c-2.3,0.5-2.3,0.6-2.3,2.9c0,0.5-0.1,1.1,0,1.6
		c0.2,1.2-0.3,1.8-1.5,1.9c-1.1,0.1-1.5,0.7-1.7,1.7c-0.1,0.6-0.2,1.2-0.2,1.9c0.1,1.2-0.1,2.3-1.1,3.1c-0.3,0.3-0.7,0.7-0.5,1.1
		c0.7,1.6-0.5,2.1-1.5,2.7c-0.5,0.3-0.7,0.7-0.6,1.2c0.2,0.9,0.1,1.8,0.7,2.6c0.5,0.7,0.2,1-0.5,1.2c-1.1,0.3-1.8,1-2.5,1.9
		c-1.2,1.7-1.4,3.8-2.7,5.4c-0.3,0.4,0,0.6,0.5,0.6c0.5-0.1,1-0.2,1.4-0.3c0.6-0.1,1,0.2,0.9,0.8c-0.2,0.8-0.8,1.8-1.5,1.7
		c-2.2-0.3-2.6,1.3-2.7,2.6c-0.2,2.1-1.5,4.2-0.4,6.4c0.2,0.4,0,1.1-0.1,1.6c-0.6,1.5-0.1,2.5,1.1,3.4c0.5,0.4,0.7,0.8,0.5,1.4
		c-0.3,0.6-0.7,1.1-1.4,1c-0.4,0-0.8-0.2-1.1-0.3c-0.3-0.1-0.7-0.2-0.9,0.1c-0.2,0.4,0,0.7,0.3,0.9c0.8,0.6,0.6,1.2,0.3,2
		c-0.4,0.9-0.8,2-0.3,3c0.2,0.4,0,0.9-0.4,0.9c-1.2,0-2,0.7-2.9,1.3c-0.3,0.2-1,0.1-1,0.7c0,0.6,0.6,0.5,1.1,0.5
		c0.6,0.1,1.1,0.5,1.3,1.1c0.2,0.8-0.5,0.8-1,1c-0.3,0.1-0.5,0.3-0.7,0.5c-0.8,1-1.6,1.1-2.6,0.3c-0.8-0.7-1.1-0.2-1.1,0.6
		c0,0.7,0.3,1.5-0.3,1.9c-1.1,0.8-0.9,1.9-0.8,2.9c0.1,0.8,0.3,1.5-0.7,1.9c-0.6,0.3-0.7,1-0.4,1.4c1.3,1.4,1,3.5,2.1,5
		c0.5,0.8,0.7,1.7,0.3,2.6c-0.3,0.8-0.3,1.6,0.7,2.1c0.9,0.5,0.6,1.6,1,2.3c0.3,0.6-0.4,0.6-0.8,0.8c-0.4,0.2-0.2,0.5,0.1,0.7
		c0.3,0.1,0.5,0.2,0.8,0.3c1.2,0.2,2.4,0.3,3.4-0.6c0.4-0.4,1-0.6,1.4-0.1c0.4,0.4-0.2,0.7-0.4,1.1c-0.4,0.8-0.9,1.5-1.4,2.2
		c-0.4,0.8-0.1,1.1,0.7,1.1c0.9,0,1.5-0.5,2.2-1c0.4-0.3,0.5-0.9,1.2-1c0.2,1.4,0.1,1.7-1,2.2c-1.3,0.6-1.4,1.1-0.4,2
		c0.4,0.4,0.9,0.8,1.4,1.1c1.4,0.8,1.6,1.7,0.6,3c-0.5,0.7-1,0.7-1.5,0.1c-0.2-0.2-0.3-0.6-0.7-0.7c0,1.9,1.8,3.3,3.6,2.7
		c0.7-0.2,1.6-0.5,1.6,0.5c0,1.8,1.2,1.6,2.4,1.6c2.7,0,2.7,0,2.8,2.8c-0.6-0.2-1.3-0.3-1.5,0.5c-0.2,0.8-0.1,1.7,0.6,2.2
		c0.6,0.5,1.2,0.2,1.6-0.4c0.6-0.8,1.4-0.4,2.1-0.3c0.8,0.2,1.2,0.8,1.3,1.6c0,0.6,0,1.2,0.1,1.7c0,0.5,0.2,1.1,0.8,0.9
		c1.1-0.3,1.5,0.4,2,1.1c0.5,0.6,1,1.2,1.7,1.5c1.2,0.5,1.6,1.2,0.5,2.2c-0.2,0.2-0.4,0.5-0.1,0.8c0.2,0.3,0.5,0.3,0.8,0.2
		c0.3-0.1,0.6-0.2,1-0.3c0.4-0.1,1-0.5,1.3,0c0.3,0.5,0.2,1.1-0.2,1.6c-0.4,0.4-0.9,0.8-1.4,1.2c-0.2,0.2-0.5,0.4-0.3,0.7
		c0.3,0.4,0.6,0.1,0.8-0.2c0.3-0.3,0.5-0.6,0.8-0.9c0.3-0.2,0.7-0.5,0.9-0.2c0.7,1.3,2,1.3,3,1.9c0.7,0.4,1.2,0.5,1.8,0.1
		c1.2-0.9,2.5,0.3,3.8-0.2c0.3-0.1,0.5,0.4,0.5,0.8c0.1,1.4,1,1.5,2.1,1.2c1.4-0.3,2.6,0,3.6,1c0.7,0.8,1.4,0.6,1.9-0.1
		c0.6-0.8,1.1-0.7,1.9-0.3c0.7,0.4,1.4,0.7,1,1.8c-0.2,0.4-0.4,0.9,0.1,1.2c0.4,0.3,0.9,0.1,1.2-0.2c0.8-0.6,1.7-0.9,2.8-1
		c-1.1-1.6-0.5-3.3,1.2-4.1c0.6-0.3,1.5-0.7,1.9-0.1c0.4,0.7-0.6,0.8-1,1.1c-0.6,0.5-0.7,1-0.4,1.7c0.3,0.8,0.9,1.4,1.8,1.5
		c0.6,0.1,1.3,0.1,1.5-0.6c0.4-1.3,0.8-0.7,1.4-0.2c1.4,1.3,2.9,1,3.9-0.7c0.3-0.5,0.5-1.1,0.9-1.5c0.9-1,2.7-0.7,2.9,0.5
		c0.2,1.5,0.9,1.4,2,0.8c0.7-0.4,1.5-0.8,2-1.4c0.3-0.4,0.7-0.7,1.1-0.6c1.6,0.4,2.3-0.2,2.4-1.8c0-0.4,0.4-0.5,0.8-0.5
		c0.2,0,0.4,0.2,0.4,0.4c-0.7,2.9,1,1.3,1.9,1c0.4-0.1,0.8-0.2,1.1-0.2c1.2-0.1,1.9-0.8,2.7-1.7c1.1-1.2,0-1.9-0.2-2.8
		c-0.2-1-0.9-0.7-1.6-0.7c-0.6,0.1-1.1-0.2-1.5-0.7c-0.2-0.2-0.2-0.5,0-0.7c0.2-0.2,0.5-0.3,0.7-0.1c1,1.1,1.2,0.5,1.6-0.5
		c0.2-0.5,1.2-0.8,1.8-0.5c0.7,0.4-0.2,0.7-0.3,1.1c-0.2,0.5-0.1,0.8,0.3,1.2c1.3,1.2,2.8,1.3,4.3,0.8c0.3-0.1,0.5-0.2,0.5-0.5
		c-0.2-1.2,0.7-1.4,1.5-1.7c0.6-0.2,0.8-0.7,1-1.2c0.4-1.2,1.2-1.9,2.4-2.3c0.4-0.1,0.8-0.3,1-0.7c0.5-1.1-1.6-6.2-2.7-6.6
		c-1.5-0.6-1.5-0.7-0.4-1.9c0.3-0.4,0.9-0.8,0.6-1.3c-0.2-0.5-0.8-0.1-1.2-0.1c-0.1,0-0.3,0.1-0.4,0c-1-0.8-1.5-0.7-1.7,0.7
		c-0.2,0.9-1.2,0.8-2,0.8c-0.7,0-0.6-0.6-0.5-1.1c0.1-0.4,0.5-1-0.2-1.2c-0.6-0.1-0.7,0.5-1,0.9c-0.2,0.3-0.3,0.6-0.4,0.9
		c-0.2,0.3-0.4,0.3-0.7,0.2c-1.3-0.4-2.7-2.7-2.3-4c0.1-0.5,0-0.8-0.4-1.1c-0.4-0.3-0.8-0.5-1.2-0.9c-0.8-0.9-1.6-1.1-2.7-0.5
		c-0.4,0.3-0.9,0.6-1.4,0.1c0.1-0.6,1.5-0.5,0.8-1.4c-0.6-0.8-1.1,0.1-1.5,0.5c-0.5,0.4-1.1,0.3-1.7,0.3c-0.4,0-0.8,0-1-0.4
		c-0.1-0.4,0.3-0.5,0.6-0.7c0.3-0.2,0.6-0.4,0.4-0.8c-0.2-0.4-0.6-0.3-0.9-0.2c-0.3,0.1-0.7,0.1-1,0.2c-0.5,0.1-1.1,0.1-1.4,0.7
		c-0.3,0.7,0.5,0.7,0.7,1c0.6,0.8,0.8,1.8,0.4,2.6c-0.4,0.7-1.2,0.2-1.8-0.1c-0.5-0.2-0.5-0.8-0.6-1.3c-0.5-2.1-0.5-2.1-2.7-2.1
		c-1.2,0-2.6,0.6-3.4,0c-1.8-1.1-2.8,0.1-4.2,0.7c-0.5,0.2-0.9,0.6-1.4,0.8c-0.3,0.2-0.7,0.4-1.1,0.2c-1-0.7-2.1-0.5-3.2-0.5
		c-0.6,0-1.4,0.1-1.7-0.2c-1.1-1.3-2.5-0.9-3.9-1c-3.2-0.2-4.4-1.3-5.1-4.5c-0.3-1.3-1-2.3-2.3-2.6c-0.9-0.2-1.3-0.7-1.2-1.6
		c0.1-1-0.2-1.6-1-2.2c-0.4-0.3-1.2-0.7-0.8-1.5c0.4-0.8,0.3-1.3-0.2-2c-0.4-0.6-0.5-1.3-0.1-1.9c0.4-0.6,1.1-0.4,1.7-0.2
		c0.9,0.3,3.1-0.5,3.6-1.4c0.7-1.3,1.5-2.6,1.5-4.2c0-1.2,0.8-1.3,1.7-1.3c0.8,0,1.3,0.4,1.1,1.3c-0.1,0.3-0.2,0.7,0.3,0.6
		c0.4,0,0.3-0.4,0.3-0.7c0-0.8-0.1-1.5-0.1-2.3c0-0.8,0.7-1.3,1.4-1.5c0.8-0.2,0.9,0.5,1.1,1c0.5,1.1,1.4,0.9,2.2,0.3
		c1.5-1.1,1.9-2.4,0.3-4.1c0.8,0.2,1.2,0.3,1.6,0.2c2.7-1,5.5-1.6,6.8-4.6c0.1-0.2,0.3-0.3,0.4-0.4c0.9-1.6,2.8-1.8,4-3
		c1.2-1.2,1.3-1.1-0.2-2c-0.5-0.3-1.1-0.6-0.9-1.3c0.2-0.8,0.9-0.6,1.5-0.6c0.9,0,2,0.2,2.3-1c0.5-1.5,1.6-1.7,2.9-1.7
		c0.8,0,2.1,0.1,2.3-0.7c0.5-1.7,1.7-3.3,1.3-5.2c-0.3-1.6,1-3,2.7-3c0.7,0,1.4,0,2,0c0.5,0,0.9-0.1,1-0.6c0.1-0.8,0.6-1.4,1-2.1
		c0.4-0.6,0.4-1.3-0.2-1.9c-0.8-0.7-0.3-0.9,0.3-1.1c1.2-0.4,2.4-1,3.7-1.2c1.8-0.3,2.4-1.9,1.4-3.2c0.5-0.2,0.9-0.3,1.3-0.5
		c0.3-0.1,0.5-0.4,0.4-0.7c-0.1-0.4-0.4-0.4-0.7-0.4c-0.5,0-1.2,0.3-1.3-0.5c-0.1-0.7,0.6-0.9,1.1-1.2c0.9-0.6,1.4-0.1,1.7,0.8
		c0.2,0.7,1.1,1.3,1.2,0.5c0.3-1.2,0.9-2.1,1.6-3.1c0.1-0.2,0.1-0.7-0.1-0.8c-1.4-1.3-0.2-2,0.7-2.3c1.3-0.4,2-1,1.7-2.4
		c0.5-0.1,0.7,0.3,1,0.5c0.4,0.2,0.9,0.5,1.4,0.2c0.5-0.3,0.2-0.8,0.2-1.2c-0.2-1.1-0.1-2.2-0.4-3.3c-0.1-0.2-0.1-0.5,0.1-0.6
		c0.3-0.2,0.5,0,0.7,0.2c1,0.9,1.6,0.4,2.1-0.6c0.7-1.4,1.7-2.7,3.1-3.6c0.7-0.5,0.8-0.8,0.2-1.4c-1-1.1-0.9-1.7,0.3-2.6
		c0.5-0.4,1-0.5,1.6-0.5c0.8,0,1.4-0.3,1.5-1.1c0.2-0.8,0.5-1.8-0.3-2.4c-0.7-0.5-1-1.2-0.8-1.9c0.2-0.7,1-0.5,1.6-0.4
		c1.7,0.2,2.4-0.6,2.7-2.1c0.1-0.5,0.2-1,0.3-1.6c0.3-1.2,0-2-1.3-2.2c-0.3,0-0.9,0-0.9-0.6c0-0.6,0.6-0.7,1-0.6
		c1.8,0.5,2.7-0.2,2.8-2c0,0,0-0.1,0.1-0.1c0.9-1.9,0.9-1.8-1.1-2.4c-0.5-0.2-1.7-0.2-1.3-0.9c0.4-0.7,0.5-2.2,1.9-1.9
		c0.9,0.2,1.7,0.2,2.2-0.6C404.3,187.9,404.3,186.9,403.7,186z M334.8,255.9c-0.7,0.3-1.3,0.3-1.1-0.8c0.1-0.6,0.2-1.2-0.3-1.6
		c-0.4-0.3-0.4-1.1-1.1-1c-0.6,0.1-0.6,0.7-0.7,1.2c-0.2,0.7-0.5,0.9-1.1,0.2c-0.4-0.4-0.8-0.9-1.1-1.3c0.7-0.2,1.1-0.9,1.6-1.4
		c0.7-0.7,1.3-1,2,0.1c0.5,0.8,1.1,0.9,1.8,0.1c0.7-0.7,1.4-0.3,1.7,0.5C337.1,253.3,336.2,255.4,334.8,255.9z M376,198.4
		c-1,0.9-1.8,0.8-2.3-0.5c-0.1-0.4-0.4-0.7-0.8-0.7c-0.3,0-0.4,0.2-0.5,0.4c-0.2,0.5,0,0.9,0.4,1.1c0.7,0.4,1.1,0.9,0.6,1.8
		c-0.2,0.4,0,0.6,0.3,0.8c1.8,1.4,1.9,3.1,0.1,4.6c-0.8,0.6-1.3,1.3-1.3,2.3c0,0.6-0.3,1.3-1,1.1c-0.7-0.2-1.2-0.9-0.9-1.7
		c0.1-0.4,0.7-0.8,0.1-1.3c-0.5-0.4-0.9,0.1-1.3,0.4c-0.6,0.4-1.1,0.8-1.6,1.2c-1.4,1.2-2,1.2-3.3,0c-0.3-0.3-0.5-0.7-0.9-0.5
		c-0.4,0.2-0.2,0.7-0.1,1c0.5,1-0.1,1.7-0.6,2.4c-0.3,0.4-0.7,0.9-0.3,1.4c0.2,0.3,0.6,0.5,1,0.4c0.7-0.2,0.7-0.7,0.6-1.3
		c0-0.5-0.1-1.1,0.4-1.3c0.8-0.2,0.6,0.6,0.7,1c0.1,0.4,0.3,0.8,0.8,0.6c0.5-0.1,0.5-0.5,0.5-0.9c0-0.4-0.6-1-0.1-1.3
		c0.6-0.4,1.3-0.8,2.1-1c0.6-0.2,0.9,0.2,1.1,0.9c0.3,1.5-0.4,2.8-0.7,4.2c-0.1,0.6-0.7,0.6-1.2,0.2c-0.5-0.4-1-0.5-1.6-0.2
		c-1,0.5-2,1-3.2,0.7c-0.4-0.1-0.7,0-0.7,0.5c0,0.4,0.3,0.6,0.7,0.6c0.9,0,1.8,0.1,2.6-0.1c1.2-0.2,1.6,0.1,1.4,1.4
		c-0.4,2.5-0.9,2.7-3.2,1.5c-0.9-0.5-1.7-0.6-2.6,0.1c-0.7,0.6-1.2,1.1-0.4,2c0.6,0.7,0.3,2.2,1.9,1.8c0.2,0,0.3,0.3,0.2,0.4
		c-0.3,0.5-0.8,1.1-1.2,0.8c-1.3-1-1.9,0.2-2.7,0.7c-0.9,0.6-1.1,1.6-1.1,2.6c0,1.5-0.7,1.8-2,1.9c-1.9,0.1-1.9,0.3-1,1.9
		c0.1,0.2,0.3,0.6,0.2,0.6c-1,0.5-1.3,1.8-2.3,2.3c-0.5,0.3-0.8,0.1-1-0.4c-0.1-0.3-0.1-0.7-0.5-0.6c-0.4,0-0.5,0.4-0.6,0.8
		c-0.1,0.2-0.1,0.4-0.1,0.6c0.1,1.3-0.7,1.7-1.8,1.6c-0.3,0-0.6,0-0.9,0.1c-1.8,1-2.8,3.2-5.3,3.5c1,0.8,2.2-0.3,2.2,0.9
		c0,1,0.3,2.3-1,3c-0.8,0.4-1.7,0.8-2.6,0.4c-0.1,0-0.2-0.1-0.3-0.1c-1.8,0.8-2.6-0.5-3.6-1.5c-0.3-0.3-0.7-0.6-1-0.2
		c-0.4,0.4,0,0.8,0.3,1.1c0.1,0.1,0.3,0.2,0.4,0.4c0.5,0.5,1.5,0.8,1.3,1.6c-0.3,0.8-1.1,1.3-2.1,1.3c-0.1,0-0.3,0.1-0.5,0.2
		c0.4,0.7,1.1,0.8,1.7,0.9c1.2,0.2,1.4,0.9,0.9,1.8c-0.4,0.7-0.6,1.3,0.4,1.8c0.3,0.2,0.6,0.4,0.2,0.8c-0.3,0.3-0.7,0.1-0.9-0.1
		c-1.1-1.4-2.7-1.6-4.3-1.7c-1.1-0.1-1.5-0.7-1.7-1.7c-0.1-0.3-0.2-0.7-0.6-0.7c-0.2,0-0.4,0-0.5,0.3c-0.1,0.4,0,0.7,0.3,0.9
		c1.1,0.9,0.7,1.6-0.3,2.3c-0.8,0.6-1.3,1.4-1.2,2.5c-1.6,0-2.9-1-3.4-2.5c-0.5-1.6-1-2-2.6-1.6c-1,0.3-1.3-0.5-1.7-1
		c-0.3-0.5,0.1-0.5,0.5-0.5c3-0.5,5-2.8,5-5.8c0-0.2,0-0.5,0-0.7c0-1.6-0.4-3.3,2-3.8c0.8-0.2,1.5-1,1.6-2.1c0.1-0.9,0.9-1.3,1.3-2
		c0.2-0.3,0.4-0.6,0.1-0.9c-0.3-0.2-0.5,0.1-0.8,0.2c-0.5,0.3-1.1,1.3-1.7,0.5c-0.6-0.9,0.6-1.1,1.1-1.5c1.7-1.3,2.2-3,2.2-5
		c0-0.7-0.5-1.1-1.1-1.4c-1.2-0.5-1-1.1-0.3-1.8c0.4-0.4,0.9-0.8,1.1-1.4c0.1-0.3,0.3-0.6,0.7-0.6c0.5,0.1,0.6,0.4,0.7,0.8
		c0.1,0.8-0.2,1.5-0.8,2.3c1-0.1,1.3-0.6,1.6-1.1c0.5-0.9,0.8-1.9,1.4-2.7c0.4-0.5,0.2-1-0.3-1.4c-0.4-0.3-0.8-0.5-1.1-0.9
		c-0.1-0.2-0.3-0.4-0.1-0.7c0.1-0.2,0.4-0.2,0.6-0.2c0.5,0.1,0.9,0.2,1.4,0.3c1.7,0.4,2.7-0.2,3.2-1.8c0.4-1.5,1.2-2.9,2.3-4
		c2-2.1,3.3-4.7,4.6-7.3c0.5-1,1.7-1.7,2.7-2.3c1.1-0.7,2.2-1.5,3.5-1.8c0.7-0.2,1.1-0.7,1.6-1.2c0.6-0.7-0.2-1-0.5-1.5
		c-0.8-1.3-0.1-3.3,1.1-3.7c0.9-0.3,1.2,0,1.1,0.9c0,0.3-0.1,0.7,0,1c0.1,0.5,0.3,0.8,0.8,0.9c0.6,0.1,1-0.2,1.1-0.7
		c0.6-1.5,1.5-2,3.1-1.6c0.6,0.2,1-0.2,1.2-0.8c0.2-0.5,0.3-1,0.5-1.5c0.3-0.8,0.8-1.2,1.6-0.5c0.5,0.5,1,0.6,1.6,0.1
		c1-0.8,2.2-1.3,2.9-2.6c0.5-0.9,1.4-1.6,2.6-1.7c0.3,0,0.7-0.1,0.7-0.4c0.4-1.7,1.1-0.7,1.8-0.3c0.8,0.4,1.9,0.4,1.8,1.8
		c-0.1,1.1-0.5,1.8-1.3,2.4c-0.3,0.2-0.8,0.5-0.5,0.9c0.4,0.5,0.8,0,1.1-0.2c1.9-1.1,1.7-3.2,2.2-5c0.1-0.4-0.4-0.4-0.7-0.6
		c-1.6-0.7-2-2.8-0.8-4c0.2-0.2,0.4-0.5,0.7-0.4c0.3,0.1,0.3,0.5,0.3,0.7c0,0.3,0,0.6,0,0.9c-0.1,1.1,0.4,1.4,1.4,1
		c0.8-0.3,1.2-0.1,1,0.8c-0.2,1.2-0.2,2.4,0.6,3.5c0.4,0.6,0.2,1.3-0.3,1.7c-2.4,1.6-2.1,4-1.9,6.3c0.1,0.8,0.1,1.4-0.9,1.3
		C376.6,198.1,376.3,198.2,376,198.4z M380.6,202.3c-0.1,0.4-0.5,0.4-0.8,0.5c-2.2,0.1-2.2,0.1-1.9,2.3c0,0.1,0,0.2-0.1,0.5
		c-1-1-1.9-1.9-1.4-3.3c0-0.1,0.1-0.3,0.1-0.4c0-1.4,0.3-1.5,1.7-1.1c0.7,0.2,1.4,0.2,2.1,0.6C380.5,201.5,380.7,201.9,380.6,202.3z
		"/>
	<path d="M759,274.6c-1.2,1.6-3,2.6-4.2,4.1c-0.4,0.6-0.5,1.2,0.2,1.4c1.4,0.3,1.3,1.2,1.3,2.2c0,0.7,0.2,1.3,1.1,1.3
		c0.7-0.2,1.6-0.3,1.8-1.2c0.1-0.6-0.4-0.9-0.9-0.9c-1.2-0.2-1.5-1-1.2-1.9c0.5-1.2,1.1-0.2,1.7,0c0.3,0.1,0.5,0.3,0.8,0.1
		c0.3-0.3,0.1-0.6-0.2-0.9c-0.2-0.2-0.4-0.4-0.7-0.6c-1-0.8-0.7-1.2,0.3-1.6c0.3-0.1,0.7-0.2,0.9-0.4c0.5-0.5,0.5-1,0.1-1.6
		C759.8,274.2,759.2,274.3,759,274.6z"/>
	<path d="M99.9,317.5c-0.1,0-0.3,0-0.4,0c-0.8-0.1-1.3-0.3-0.6-1.1c0.2-0.2,0.3-0.5,0.1-0.8c-0.3-0.4-0.6-0.2-0.9,0
		c-0.5,0.4-1,1-1.8,0.9c-1.2-0.2-2.2-0.4-1.9,1.3c0.1,0.4-0.5,0.6-0.7,0.8c-0.3,0.2-0.7,0.5-0.3,1c0.3,0.3,0.7,0.2,0.9,0
		c1.6-1.4,3.5-1.5,5.5-1c0.4,0,1,0.1,1.1-0.4C101,317.6,100.3,317.6,99.9,317.5z"/>
	<path d="M631.3,255.3c0.6-0.2,0.8-0.8,0.6-1.4c0-0.1-0.1-0.2-0.1-0.3c-0.6-1-0.6-1.8,0.4-2.6c0.6-0.4,1.1-1,0.9-1.8
		c-0.2-0.5-0.8-0.3-1.1-0.3c-2,0-3.1,1.6-2.3,3.3c0.4,0.8,0.5,1.5,0.7,2.3C630.5,255,630.7,255.6,631.3,255.3z"/>
	<path d="M313.4,315.8c-0.8,0.5-1.7,0.5-2.5,0.4c-0.2,0-0.4,0-0.6,0c-0.4,0-1.1-0.2-1.2,0.4c-0.1,0.6,0.5,0.7,1,0.8
		c0.8,0.3,1.3,0.9,1.8,1.6c0.2,0.3,0.4,0.7,0.9,0.6c0.4-0.2,0.4-0.6,0.4-1c0-1,0.2-1.6,1.4-1.3c0.8,0.2,1-0.3,0.6-0.9
		C314.8,315.8,314.2,315.2,313.4,315.8z"/>
	<path d="M228.7,219.5c0.6-0.6,1.2-1.1,2.2-1.1c0.7,0,1.3-0.8,1.5-1.5c-0.2-0.6-0.6-1-1.1-1.2c-0.6-0.1-0.8,0.3-0.8,0.7
		c-0.1,0.7-0.7,0.9-1.2,1.1c-0.5,0.2-1.1,0.5-1.5,0.8c-0.4,0.3-0.8,0.9-0.4,1.4C227.7,220.2,228.3,219.9,228.7,219.5z"/>
	<path d="M133.6,213c0.1,0.7,0.3,1.2,1.1,1.2c0.8,0,1-0.6,1.1-1.3c0.2-1.8-0.6-3-2.3-4.2C133.5,210.3,133.3,211.6,133.6,213z"/>
	<path d="M225.5,181.6c0.5,0.5,0.2,1-0.2,1.4c-0.2,0.2-0.4,0.5-0.1,0.8c0.2,0.2,0.5,0.2,0.8,0.2c0.6-0.1,0.9-0.5,1.2-1
		c0.3-0.5,0.5-1,1-1.2c0.4-0.2,1-0.3,0.8-1c-0.2-0.5-0.7-0.4-1.1-0.4c-0.3,0-0.6,0-0.9,0c-0.2,0-0.5,0-0.7,0c-0.4,0-1-0.2-1.2,0.2
		C224.7,181,225.2,181.3,225.5,181.6z"/>
	<path d="M467.8,194.6c0.2,0.3,0.3,0.6,0.5,0.9c0.3,0.6,0.4,1.4,1.2,1.2c0.8-0.2,0.7-1,0.8-1.6c0-0.7-0.1-1.2-0.4-1.7
		c-0.5-0.8-1.6-1-2.6-0.2C466.3,194.1,467.5,194.2,467.8,194.6z"/>
	<path d="M76.5,240.2c0.7,0,1.5-0.3,1.9-0.8c0.3-0.4-0.1-0.7-0.4-0.9c-0.6-0.6-0.6-1.3-0.5-2.1c-0.1-0.4,0.5-1.1-0.3-1.2
		c-0.7-0.1-0.6,0.7-0.7,1.2c0,0.5-0.3,0.9-0.5,1.3c-0.3,0.5-0.4,1.1-0.3,1.7C75.7,239.8,76,240.2,76.5,240.2z"/>
	<path d="M98,210.7c0.3,0.6,0.8,0.4,1.2,0.2c0.5-0.2,1.1-0.1,1.2-0.7c0-0.9-2-3.1-2.8-3.1c-0.7,0-0.8,0.5-0.7,1
		C97.2,209,97.6,209.8,98,210.7z"/>
	<path d="M296.4,246.9c0.7,0,1.7-0.1,2.9-0.8c-2.9-0.3-2.3-2.3-2.6-4.2c-1,1-1.4,2.1-1.5,3C295.1,245.7,295.3,247,296.4,246.9z"/>
	<path d="M642.5,284.9c-0.7-0.4-0.9,0.8-1.1,1.4c-0.3,0.9,0.4,1.5,1,2.1c0.3,0.3,0.7,0.7,1.1,0.4c0.6-0.3,0.3-0.9,0.5-1.4
		C644.1,286.2,643.3,285.3,642.5,284.9z"/>
	<path d="M442.3,207.2c0.9,0,1.4-0.3,1.4-1.2c0-1.6-1.2-0.7-2.1-1c-0.4,0.6-1.8-0.7-1.8,0.7C439.9,207.2,441.2,207.2,442.3,207.2z"
		/>
	<path d="M405.7,189.7c-0.6-0.1-1,0.3-1.1,0.9c0,0.8-0.1,1.6-0.4,2.4c-0.2,0.5-0.3,1.1,0.4,1.3c0.6,0.2,1-0.2,1.3-0.7
		c0.5-0.9,0.2-2,0.5-2.9C406.3,190.2,406.2,189.8,405.7,189.7z"/>
	<path d="M561.2,330.1c-0.1-0.5,0-1.2-0.8-1.3c-0.7-0.1-1.3,0.2-1.5,1.1c-0.1,0.7-0.4,1.3-0.6,1.9c-0.2,0.6,0,0.9,0.7,0.9
		C559.7,332.6,561.2,330.8,561.2,330.1z"/>
</g>
</svg>
