<?xml version="1.0" encoding="utf-8"?>
<!-- Generator: Adobe Illustrator 27.4.1, SVG Export Plug-In . SVG Version: 6.00 Build 0)  -->
<svg version="1.1" id="Layer_1" xmlns="http://www.w3.org/2000/svg" xmlns:xlink="http://www.w3.org/1999/xlink" x="0px" y="0px"
	 viewBox="0 0 319.3 385.4" style="enable-background:new 0 0 319.3 385.4;" xml:space="preserve">
<style type="text/css">
	.st0{fill:url(#SVGID_1_);}
	.st1{fill:#1C1714;}
	.st2{fill:#FBB946;}
	.st3{fill:#77609F;}
</style>
<path d="M-1335.8,77.5"/>
<g>
	<g>
		
			<linearGradient id="SVGID_1_" gradientUnits="userSpaceOnUse" x1="339.0471" y1="283.2964" x2="412.2426" y2="283.2964" gradientTransform="matrix(1 0 0 1 -222.28 -78.4924)">
			<stop  offset="0" style="stop-color:#1C1714"/>
			<stop  offset="3.208006e-03" style="stop-color:#211C1A"/>
			<stop  offset="2.701520e-02" style="stop-color:#413B38"/>
			<stop  offset="5.370893e-02" style="stop-color:#5F5855"/>
			<stop  offset="8.276782e-02" style="stop-color:#7F7773"/>
			<stop  offset="0.1149" style="stop-color:#9C9591"/>
			<stop  offset="0.1512" style="stop-color:#B7B0AB"/>
			<stop  offset="0.1936" style="stop-color:#CDC7C1"/>
			<stop  offset="0.246" style="stop-color:#DDD8D2"/>
			<stop  offset="0.3195" style="stop-color:#E8E3DD"/>
			<stop  offset="0.5235" style="stop-color:#EDE7E1"/>
			<stop  offset="0.6631" style="stop-color:#E8E2DD"/>
			<stop  offset="0.7328" style="stop-color:#DBD6D0"/>
			<stop  offset="0.787" style="stop-color:#C9C3BE"/>
			<stop  offset="0.8333" style="stop-color:#B1AAA6"/>
			<stop  offset="0.8744" style="stop-color:#958D89"/>
			<stop  offset="0.9119" style="stop-color:#756D6A"/>
			<stop  offset="0.9468" style="stop-color:#544E4A"/>
			<stop  offset="0.9785" style="stop-color:#352F2D"/>
			<stop  offset="1" style="stop-color:#1C1714"/>
		</linearGradient>
		<rect x="137.3" y="42.7" class="st0" width="34" height="324.2"/>
		<g>
			<path class="st1" d="M156.2,331.5h-3.9c-2.6,0-4.8-2.1-4.8-4.8V114.3c0-2.6,2.1-4.8,4.8-4.8h3.9c2.6,0,4.8,2.1,4.8,4.8v212.4
				C161,329.3,158.9,331.5,156.2,331.5z M152.3,110.9c-1.9,0-3.4,1.5-3.4,3.4v212.4c0,1.9,1.5,3.4,3.4,3.4h3.9
				c1.9,0,3.4-1.5,3.4-3.4V114.3c0-1.9-1.5-3.4-3.4-3.4H152.3z"/>
		</g>
		
			<rect x="147.8" y="344.9" transform="matrix(0.7071 0.7071 -0.7071 0.7071 293.8466 -6.0938)" class="st2" width="12.9" height="13.4"/>
		<rect x="150.5" y="51.2" class="st3" width="7.6" height="40.3"/>
	</g>
	<path d="M130.4,164.7v68.8l-3-2.1l-0.8-8.3l-4.4,7.8l-9.1-1.9l4.7,8.4l-5,7.8l8.9-4l3.5,4.7c-8.5,2.7-25.1,6.9-45,6.8l-1.4-9.8
		l7-5.7l-8.4-0.5l-3.5-8.9l-2.6,9.5l-8.5,0.6l7.2,5.8l-1.2,8l6.3-4.8l3.7,5.7c-14.1-0.2-29.8-2.5-45.4-9c0,0,21.9,19.3,39.9,19.9
		c0,0-2,0.8-10,0.4l0-0.1l0,0.1c-4.4-0.3-10.7-0.9-19.4-2.3c0,0,6.1,4.3,17.6,6.6l-4.2,9.8l-14.4-1.6l8.9,11l-4.8,12.9l10.5-6.6
		l10.3,8.6l-2.5-13l12.2-4.6L65,279.9l-1.2-11.2c14.9,2.5,37.6,1.4,66.7-14.6V360h-9.3c0.4-0.9,0.7-1.7,1.1-2.6
		c1.5-3.8-0.5-6.5-3.6-8c-0.5-0.3-1.4-0.1-2,0.1c-1.9,0.8-3.8,1.8-5.2,3.5c-0.1,0.2-0.4,0.3-0.7,0.6c0.4-1.9,0.8-3.5,0.9-5.1
		c0.3-3.2,0.4-6.4,0.5-9.6c0.1-2.7-0.1-5.3-0.1-8c0-0.2,0.1-0.6,0.3-0.7c0.2-0.1,0.5,0.1,0.8,0.2c0.3,0.2,0.5,0.4,0.7,0.6
		c0.1,0,0.1-0.1,0.2-0.1c-0.3-0.9-0.5-1.8-0.8-2.7c-0.3-1.2-0.7-2.4-1-3.7c-0.2-0.6,0-0.9,0.7-0.8c1.1,0.1,1.4-0.2,1.1-1.3
		c-0.1-0.5-0.4-0.9-0.6-1.4c-0.4-0.9-0.1-1.4,0.8-1.8c1.3-0.5,2.6-0.9,3.8-1.5c0.8-0.4,1.5-1,2-1.7c0.7-0.9,0.4-1.8-0.8-1.9
		c-1.8-0.2-2.6-1.5-3.4-2.8c-0.6-0.9-0.4-1.5,0.6-2c2.3-1.3,3.1-3.3,2.8-5.9c-0.6-5.5-2.6-10.3-7-13.9c-0.7-0.6-1.3-1.2-1.9-1.8
		c-0.6-0.6-1-0.7-1.3,0.1c-0.8,1.8-1.7,3.6-2.4,5.4c-1.1,3-1.4,6.2-1.2,9.4c0,0.8-0.3,1.2-1.1,1.1c-0.9-0.1-1.9-0.4-2.8-0.5
		c-0.9,0-1.8,0.1-2.7,0.3c-0.7,0.1-1.4,0.4-2,0.7c0-0.7-0.1-1.3,0-2c0.1-1.7,0.1-3.5-0.5-5.1c-1.1-3.1-2.1-6.3-3.1-9.5
		c-0.2-0.7-0.7-1.3-1.2-2.2c-0.6,0.5-1.1,0.9-1.5,1.3c-1.7,2.1-3.4,4.3-4.9,6.5c-1.8,2.6-2.4,5.6-2.8,8.6c-0.2,1.8-0.3,3.5,0.1,5.2
		c0.4,1.7,1.1,3.1,2.4,4.3c0.9,0.8,0.9,1.1,0,1.9c-0.5,0.5-1.1,1-1.6,1.5c-0.6,0.5-0.5,0.9,0,1.4c0.9,1,2.1,1.5,3.4,1.8
		c0.8,0.1,1.6,0.3,2.4,0.4c1.5,0.2,1.5,0.2,1.4,1.7c-0.1,1.1-0.2,2.3-1.1,3.1c-0.1,0.1,0,0.6,0.1,0.7c0.4,0.3,0.6,0.5,0.4,1
		c-0.8,2.1-1.3,4.3-1.3,6.6c0,1.7-0.2,3.4-0.2,5.1c-0.1,1.6,0.5,3,1.3,4.3c0.8,1.3,1.1,2.7,1,4.1c-0.1,1.4-0.2,2.8-0.4,4.2
		c-0.1,0.7,0,1.4,0.4,2c0.7,0.9,0.7,1.3,0.3,1.9c-1.4-0.8-2.9-1.5-4.2-2.4c-1.3-0.8-1.5-1.7-0.9-3c0.4-0.7,0.1-1.1-0.5-1.3
		c-1-0.3-1.4-1-1.2-2.1c0.1-0.5-0.2-1.1-0.5-1.6c-1.1-2-2.6-3.5-4.7-4.5c-0.8-0.4-1.2-1.1-1.3-2c0-0.6,0-1.2,0-1.9
		c0.3-3.3-0.7-5.1-3.7-6.5c-2.1-1-4.4-1.7-6.5-2.6c-2.5-1-4.8-2.3-6.9-4.1c-1.3-1.2-2.9-2.1-4.3-3.3c-0.5-0.4-0.9-1-1.3-1.6
		c-0.5-0.9-0.8-1-1.6-0.3c-0.9,0.8-1.5,1.7-1.6,2.9c-0.2,2.3-0.6,4.6,0.5,6.7c0.3,0.5,0,0.8-0.5,0.9c-0.8,0.2-0.9,0.7-0.9,1.4
		c0.1,1,0.1,2,0.3,3c0.3,1.7,0.2,3.4-0.4,5c-0.7,2.3-0.3,4.3,1.1,6.1c1.2,1.6,1.5,3.3,1.1,5.2c-0.5,2.7,0.5,4.5,2.7,5.9
		c2.1,1.3,4,2.9,6,4.3c1.9,1.4,2.2,1.3,3.9-0.2c0.6,0.9,1.2,1.7,1.9,2.5H7.3v6.9h130V164.7H130.4z M127.1,245.2l-0.6-7.2l3.9-1.3
		v7.3C129.7,244.3,128.6,244.7,127.1,245.2z"/>
	<path d="M310,356.5c-4.5-3-6.8-7.3-8.1-12.4c2.7,2,9,1.2,10.2-3.7c-4.9,2-8.6-0.6-9.5-1.6c-1.1-1.3-0.8-4-0.8-5.7
		c0-0.1,0-0.7,0-0.8c0-10.8-5.7-18-14.8-23c-4.2-2.3-8.8-3.2-13.5-3.6c-5-0.4-10,0.3-14.9,1.6c-3.6,0.9-7.1,2.1-10.7,2.8
		c-4.1,0.9-8.3,1.6-12.5,2c-3.7,0.4-7.3-0.3-10.5-2.6c-0.9-0.6-0.9-0.9,0.1-1.3c3.5-1.3,6.1-3.8,8.3-6.8c1.7-2.4,3.8-4.6,5.1-7.4
		c0.2-0.3,0.3-0.7,0.6-1.3c-0.5,0.2-0.7,0.2-0.9,0.3c-0.3,0.1-0.5,0.4-0.8,0.5c-0.4,0.2-0.9,0.2-1.4,0.3c0.1-0.4,0.1-0.9,0.3-1.3
		c0.7-1.3,1.4-2.5,2.1-3.8c0.1-0.2,0.1-0.6-0.1-0.8c-0.8-1-0.7-1.4,0.5-1.9c0.3-0.1,0.7-0.3,1.2-0.6c-0.7-0.5-1.1-1-1.7-1.3
		c-0.9-0.5-1-1.1-0.8-2c0.5-1.9,1.7-3.3,3.2-4.4c1.1-0.8,1-1-0.2-1.4c-1.1-0.4-1.2-1-0.3-1.8c0.8-0.7,1.8-1.3,2.7-2
		c0.8-0.7,0.8-0.9-0.1-1.5c-1.1-0.8-2.3-1.1-3.6-1.1c-0.4,0-0.8,0-1.5-0.1c1.2-1.7,2.7-3,2.9-5.2c-1,0.2-1.9,0.4-2.9,0.6
		c-0.1-0.5-0.1-0.9-0.2-1.5c-0.4,0.2-0.6,0.4-0.9,0.5c-1.1,0.4-2.2,0.8-3.4,1.1c-0.4,0.1-0.8-0.2-1.2-0.2c0.2-0.4,0.3-0.8,0.6-1.1
		c1.2-1.1,2.1-2.4,2.7-4c0.5-1.3,0.2-2.3-0.7-3.6c-0.8,1.7-2.4,1.8-3.8,2.4c-0.6,0.3-1.1,0.9-1.7,1.4c-0.5,0.4-1,0.7-1.6,0.9
		c-1,0.3-1.3,0-1.1-1c0.1-0.6,0.3-1.1,0.5-1.9c-1.5,0.1-2.8,0.2-4.1,0.4c-0.2,0-0.3,0.6-0.5,0.9c-0.2,0.3-0.3,0.8-0.6,0.9
		c-2.4,1.4-4.8,2.7-7.3,4c-0.4,0.2-0.7,0.4-1.1,0.6c-0.7,0.3-1.1,0-1-0.8c0.1-0.4,0.2-0.8,0.4-1.1c0.4-0.8,0.1-1.4-0.7-1.9
		c-0.2,0.2-0.3,0.4-0.4,0.6c-0.7,0.5-1.3,1.2-2,1.3c-2,0.2-3,1.4-4,2.8c-0.1,0.1-0.1,0.4-0.3,0.5c-0.2,0.2-0.4,0.3-0.6,0.4
		c-0.1-0.2-0.4-0.4-0.4-0.7c0-0.4,0.2-0.8,0.2-1.3c0-0.3-0.2-0.5-0.2-0.8c-0.2,0.1-0.6,0.1-0.7,0.3c-0.7,0.8-1.3,1.6-1.9,2.4
		c-0.7,0.9-1.3,1.9-2,2.8c0,0-0.1,0-0.1,0.1c-0.5,2-2.5,3.2-3,5.3c-0.3,1.1-0.4,2,0.1,2.9c0.1,0.1,0.1,0.3,0.2,0.4
		c0.2,0.5,0.8,1.3,0.1,1.6c-0.4,0.2-1.2-0.4-1.8-0.8c-0.2-0.1-0.3-0.5-0.4-0.7c-0.5-0.6-1-1.1-1.7-1.6c-0.5,2.1-1.3,4.2-0.5,6.3
		c1,2.7,2,5.4,3.2,8c0.5,1,0.4,1.7-0.2,2.5c-0.9,1.2-1.2,2.5-0.8,4c0.4,1.6,1.4,2.8,2.9,3.4c1.5,0.5,2.6,1.4,3.6,2.5
		c1.5,1.4,2.9,2.9,5,3.4c0.2,0,0.5,0.4,0.5,0.7c0,0.2-0.3,0.4-0.5,0.5c-0.2,0.1-0.4,0.1-0.6,0.1c-1.8,0.4-2.2,1.1-2.3,2.8
		c0,1.4,0.5,2.9-0.3,4.2c-0.1,0.1,0.1,0.4,0.2,0.6c0.6,1,0.4,1.7-0.7,2.1c-0.9,0.3-1.8,0.5-2.6,1c-1.1,0.6-2,1.4-3,2.2
		c-0.6,0.5-0.6,1.2-0.2,1.9c0.3,0.5,0.3,1,0,1.6c-0.6,1.1-1.1,2.3-1.8,3.5c-1,1.8-1.5,3.7-1.3,5.7c0.2,1.7-0.2,3.3-1.1,4.7
		c-0.9,1.3-1.4,2.6-0.3,4c-1.9,1.4-3.8,2.8-5.6,4.2c-0.1,0.1-0.2,0.2-0.3,0.2c-2.7,2.4-3,3.6-1.2,6.8c1.1,2,1.4,4.3,1.9,6.5h-9V230
		c1.8-1.8,5.5-5,6.2-3.2v4.3c0,0,7-6.8,7.8-4.3v5.7c0,0,14.9-8.4,31.3-15.5l-3.3,8.9l-10.6-1.2l9,7.8l-6.1,11.9l10.4-6.5l7,8
		l-1.6-12.3l9.6-6.5l-11.2-1l-1.7-10c7.1-3,14.3-5.7,20.6-7.3L241,220l11.7-7.8l6.3,6.4l-1.9,3.7l-9.2,1.2l7.6,5.5l-6.1,11.9
		l10.4-6.5l8.6,8l-2-11.3l7-5.8l-9.7-2.6l-1.7-9.8l-1.7,3.2l-0.9-7l9.4-4.9l-11.8-3.7l-1.6-12.1l-5.1,11.4l-10.8-2.2l6,7.9
		c-4.7,0.5-16.9,1.9-30.9,5.1l-3.8-9l9.1-8.2l-12.3,0.3l-5.9-11.7l-3.1,15.6l-10.5,2.8l10.8,4.2l-1.9,10.2l8.3-6.4l5.8,3
		c-11.1,2.8-23,6.7-33.1,12.2v-59.1h-6.9v202.3h130v-6.9h-60.2c0.5-0.5,1-1.1,1.4-1.6c1-1.2,1.4-2.5,0.8-4c-1.1-2.9-2.2-5.7-3.5-8.5
		c-0.5-1.1-1.4-2-2.7-2.3c-0.5-0.1-1.1-0.2-1.8-0.3c1.3-6.4,2-12.9,1.5-19.5c0.5,0,0.9,0,1.2,0c2.3,0.2,4.7,0.4,7,0.5
		c3.4,0.2,6.7,0.1,10.1,0.4c3.1,0.2,6,1.2,8.8,2.4c4,1.7,7.9,3.4,11.8,5.3c7,3.3,12.6,8.4,17.3,14.5c2.5,3.3,5.3,6.2,8.8,8.4
		c2.6,1.7,5.5,2.1,8.8,1.8C310.4,356.9,310.2,356.6,310,356.5z"/>
</g>
</svg>
