<?xml version="1.0" encoding="UTF-8"?>
<svg id="Camada_1" xmlns="http://www.w3.org/2000/svg" version="1.1" xmlns:xlink="http://www.w3.org/1999/xlink" viewBox="0 0 900.9 900.9">
  <!-- Generator: Adobe Illustrator 29.2.1, SVG Export Plug-In . SVG Version: 2.1.0 Build 116)  -->
  <defs>
    <style>
      .st0 {
        fill: #ffbf04;
      }

      .st1 {
        fill: #ff931a;
      }

      .st2 {
        fill: #db313a;
      }

      .st3 {
        fill: #3a9fe5;
      }

      .st4 {
        fill: #01b93f;
      }
    </style>
  </defs>
  <path class="st0" d="M507.2,199.5v-56.2h94.6v56.2h-9v-46.4h-33.7v45.1h-9.2v-45.1h-33.7v46.4h-9ZM507.2,229.4v-9.7h61.2v9.7h-10.6c3.3,1.9,6.1,4.6,8.4,7.9,2.3,3.3,3.4,7.3,3.4,11.8h0c0,4.8-1,8.9-2.9,12.2-1.9,3.3-4.6,5.9-8.2,7.6-3.6,1.8-7.9,2.6-13.1,2.6h-38.2v-9.7h38.2c2.4,0,4.7-.3,7-1,2.2-.7,4-1.9,5.4-3.6,1.4-1.7,2.1-4.1,2.1-7h0c0-5-1.2-9-3.6-12.1-2.4-3.1-5.7-5.3-9.8-6.7-4.1-1.4-8.7-2.1-13.7-2.1h-25.6ZM507.1,312v-4.7l61.3-25.9v10.6l-45.5,17.7,45.5,17.5v10.6l-61.3-25.7ZM506.3,374.6h0c0-5.8,1.4-11.2,4.2-16.1,2.8-4.9,6.7-8.7,11.5-11.6,4.8-2.9,10.2-4.3,16.1-4.3h0c5.9,0,11.3,1.4,16.1,4.3,4.8,2.9,8.7,6.7,11.5,11.5,2.9,4.8,4.3,10.2,4.3,16.1h0c0,5.9-1.4,11.3-4.3,16.1-2.9,4.8-6.7,8.7-11.5,11.6-4.8,2.9-10.2,4.3-16.1,4.3h0c-5.9,0-11.3-1.4-16.1-4.3-4.8-2.9-8.6-6.7-11.5-11.6-2.8-4.9-4.2-10.2-4.2-16.1ZM516,374.6h0c0,4.1,1,7.8,3,11.2,2,3.4,4.7,6.1,8,8.1,3.3,2,7.1,3,11.1,3h0c4.2,0,7.9-1,11.3-3,3.3-2,6-4.7,8-8,2-3.3,3-7.1,3-11.3h0c0-4.1-1-7.8-3-11.2-2-3.4-4.7-6.1-8-8.1-3.3-2-7.1-3-11.3-3h0c-4.1,0-7.8,1-11.1,3-3.3,2-6,4.7-8,8.1-2,3.4-3,7.1-3,11.2ZM507.2,432.4v-9.7h104.3v9.7h-104.3ZM507.1,474.8v-4.7l61.3-25.9v10.6l-45.5,17.7,45.5,17.5v10.6l-61.3-25.7ZM506.3,538.9h0c0-6.1,1.3-11.7,4-16.8s6.3-9.1,11.1-12.2c4.8-3.1,10.4-4.6,16.8-4.6h0c5.9,0,11.3,1.4,16.1,4.3,4.8,2.9,8.7,6.7,11.5,11.5,2.9,4.8,4.3,10.2,4.3,16.1h0c0,5.7-1.4,11-4.3,15.9-2.9,4.8-6.7,8.7-11.4,11.7-4.7,3-10,4.5-15.7,4.5h-3.9v-57.9h9v47.6c4.6-1.1,8.6-3.7,11.8-7.7,3.2-4,4.8-8.7,4.8-14h0c0-4.4-1-8.2-3.1-11.5-2-3.3-4.8-5.9-8.3-7.7-3.5-1.9-7.4-2.8-11.8-2.8h0c-4.3,0-8,1.1-11.2,3.2-3.2,2.1-5.7,4.9-7.5,8.2-1.8,3.3-2.6,6.9-2.6,10.6h0c0,2.9.3,5.5,1,8,.6,2.5,1.6,4.7,2.9,6.8,1.3,2.1,3,4,5,5.6h0l-6.1,7.4c-2.6-2-4.8-4.5-6.7-7.5-1.9-2.9-3.3-6-4.3-9.2-1-3.2-1.5-6.4-1.5-9.6ZM507.2,594.4v-9.7h61.2v9.7h-10.6c3.3,1.9,6.1,4.6,8.4,7.9s3.4,7.3,3.4,11.8h0c0,4.8-1,8.9-2.9,12.2-1.9,3.3-4.6,5.9-8.2,7.7-3.6,1.8-7.9,2.6-13.1,2.6h-38.2v-9.7h38.2c2.4,0,4.7-.3,7-1,2.2-.7,4-1.9,5.4-3.6,1.4-1.7,2.1-4.1,2.1-7h0c0-5-1.2-9-3.6-12.1-2.4-3.1-5.7-5.3-9.8-6.7-4.1-1.4-8.7-2.1-13.7-2.1h-25.6ZM507.2,673.5v-9.7h52.2v-15.3h9v15.3h23.8v9.7h-23.8v15.2h-9v-15.2h-52.2ZM506.3,727.1h0c0-6.1,1.3-11.7,4-16.8s6.3-9.1,11.1-12.2c4.8-3.1,10.4-4.6,16.8-4.6h0c5.9,0,11.3,1.4,16.1,4.3,4.8,2.9,8.7,6.7,11.5,11.5,2.9,4.8,4.3,10.2,4.3,16.1h0c0,5.7-1.4,11-4.3,15.9-2.9,4.8-6.7,8.7-11.4,11.7s-10,4.4-15.7,4.4h-3.9v-57.9h9v47.6c4.6-1.1,8.6-3.7,11.8-7.7,3.2-4,4.8-8.7,4.8-14h0c0-4.4-1-8.2-3.1-11.5-2-3.3-4.8-5.9-8.3-7.7-3.5-1.9-7.4-2.8-11.8-2.8h0c-4.3,0-8,1.1-11.2,3.2-3.2,2.1-5.7,4.9-7.5,8.2-1.8,3.3-2.6,6.9-2.6,10.6h0c0,2.9.3,5.5,1,8,.6,2.5,1.6,4.7,2.9,6.8,1.3,2.1,3,4,5,5.6h0l-6.1,7.4c-2.6-2-4.8-4.5-6.7-7.4-1.9-2.9-3.3-6-4.3-9.2-1-3.2-1.5-6.4-1.5-9.6Z"/>
  <path class="st3" d="M151.2,509.9h0c-2.4,0-4.5-.2-6.3-.7-1.9-.4-3.5-1.1-4.8-2-1.4-.9-2.5-2-3.3-3.4-.9-1.4-1.5-2.9-1.9-4.7h5.2c.3,1.5.9,2.8,1.8,3.8s2.1,1.8,3.7,2.2c1.6.5,3.5.8,5.7.8h0c2,0,3.8-.3,5.5-.8,1.7-.5,3-1.4,4-2.6,1-1.2,1.5-2.8,1.5-4.8h0c0-1.4-.4-2.6-1.3-3.5-.9-1-2-1.8-3.4-2.4-1.4-.6-2.8-1.2-4.3-1.6s-2.9-.8-4.1-1.1h0c-2.2-.5-4.1-1.1-5.7-1.8-1.6-.7-3-1.5-4.1-2.5-1.1-.9-1.9-2-2.5-3.1-.5-1.1-.8-2.4-.8-3.8h0c0-2,.4-3.8,1.1-5.3.7-1.5,1.7-2.8,3-3.8s2.8-1.7,4.5-2.2c1.7-.5,3.5-.7,5.4-.7h0c2.1,0,3.9.2,5.6.6,1.6.4,3.1,1,4.3,1.7,1.2.8,2.3,1.7,3.1,2.9.8,1.2,1.4,2.5,1.8,4.1h-4.8c-.4-1.8-1.4-3.2-3.1-4.1-1.7-.9-3.9-1.4-6.9-1.4h0c-1.8,0-3.4.2-4.8.8-1.5.5-2.6,1.3-3.5,2.3-.9,1-1.3,2.4-1.3,4h0c0,1.5.4,2.7,1.2,3.7.8,1,1.9,1.8,3.2,2.4,1.3.6,2.7,1.2,4.2,1.6,1.5.4,2.9.8,4.2,1.1h0c1.8.5,3.6,1,5.2,1.6,1.6.6,3.1,1.3,4.3,2.2,1.3.9,2.2,2,2.9,3.3s1.1,2.9,1.1,4.8h0c0,2.2-.4,4.1-1.3,5.7-.9,1.6-2,2.9-3.5,3.9-1.5,1-3.2,1.7-5,2.2-1.9.5-3.8.7-5.8.7ZM182.6,509.6h0c-2.2,0-4-.5-5.4-1.5-1.5-1-2.6-2.3-3.3-3.9-.7-1.6-1.1-3.5-1.1-5.5h0v-17.2h4.4v17.2c0,1.1.2,2.1.5,3.1s.9,1.8,1.6,2.4,1.8.9,3.2.9h0c2.5,0,4.4-.5,5.7-1.6,1.4-1.1,2.3-2.6,2.8-4.4.5-1.9.8-3.9.8-6.2h0v-11.5h4.4v27.5h-4.4v-4.7c-1,1.8-2.3,3.1-3.8,4-1.5.9-3.3,1.3-5.4,1.3ZM208.7,509.1h-4.4v-27.5h4.4v5.4c.5-1.5,1.2-2.7,1.8-3.6.7-.9,1.5-1.5,2.4-1.8.9-.4,1.8-.5,2.8-.5h0c.5,0,.9,0,1.4.1s.9.2,1.3.4h0v5.7c-.5-.5-1-.8-1.6-1-.5-.2-1.1-.3-1.7-.3h0c-1.3,0-2.5.5-3.5,1.4-1,.9-1.7,2.1-2.2,3.6-.5,1.4-.8,2.9-.8,4.5h0v13.8ZM229.1,524.7h-4.4v-43.2h4.4v4.7c1.2-1.6,2.7-2.9,4.4-3.8,1.7-1,3.7-1.5,6-1.5h0c2.6,0,4.9.7,6.9,2,2,1.4,3.6,3.1,4.8,5.3,1.2,2.2,1.7,4.5,1.7,7.1h0c0,2.5-.6,4.8-1.7,7-1.1,2.2-2.7,4-4.8,5.3-2,1.4-4.3,2-6.9,2h0c-1.5,0-2.9-.2-4.2-.7-1.3-.4-2.4-1.1-3.4-1.9-1-.8-2-1.7-2.8-2.8h0v20.3ZM238.8,505.3h0c1.9,0,3.6-.5,5-1.4,1.5-.9,2.6-2.2,3.4-3.7.8-1.5,1.3-3.2,1.2-4.9h0c0-1.8-.4-3.4-1.2-5-.8-1.5-2-2.7-3.4-3.7-1.5-.9-3.1-1.4-5-1.4h0c-1.9,0-3.5.5-5,1.4s-2.6,2.2-3.4,3.7c-.8,1.5-1.2,3.2-1.2,5h0c0,1.8.4,3.4,1.2,4.9.8,1.5,2,2.8,3.4,3.7,1.5.9,3.1,1.4,5,1.4ZM264.2,509.1h-4.4v-27.5h4.4v5.4c.5-1.5,1.2-2.7,1.9-3.6.7-.9,1.5-1.5,2.3-1.8.9-.4,1.8-.5,2.8-.5h0c.5,0,.9,0,1.4.1.5,0,.9.2,1.3.4h0v5.7c-.5-.5-1-.8-1.6-1-.5-.2-1.1-.3-1.7-.3h0c-1.3,0-2.5.5-3.5,1.4-1,.9-1.7,2.1-2.3,3.6-.5,1.4-.8,2.9-.8,4.5h0v13.8ZM293.4,509.5h0c-2.8,0-5.3-.6-7.5-1.8-2.3-1.2-4.1-2.9-5.5-5-1.4-2.1-2.1-4.7-2.1-7.5h0c0-2.7.6-5.1,1.9-7.3,1.3-2.2,3-3.9,5.2-5.2,2.2-1.3,4.6-1.9,7.3-1.9h0c2.6,0,5,.6,7.1,1.9,2.2,1.3,3.9,3,5.2,5.1,1.3,2.1,2,4.5,2,7.1h0v1.8h-26v-4.1h21.4c-.5-2.1-1.7-3.8-3.5-5.3-1.8-1.4-3.9-2.2-6.3-2.2h0c-2,0-3.7.5-5.2,1.4-1.5.9-2.6,2.2-3.5,3.7-.8,1.6-1.3,3.3-1.2,5.3h0c0,1.9.5,3.6,1.4,5,1,1.4,2.2,2.6,3.7,3.3,1.5.8,3.1,1.2,4.8,1.2h0c1.3,0,2.5-.1,3.6-.4,1.1-.3,2.1-.7,3.1-1.3.9-.6,1.8-1.3,2.5-2.2h0l3.3,2.8c-.9,1.2-2,2.2-3.3,3-1.3.9-2.7,1.5-4.2,1.9-1.5.4-2.9.7-4.3.7ZM326.2,509.5h0c-2.8,0-5.3-.6-7.5-1.8-2.3-1.2-4.1-2.9-5.5-5-1.4-2.1-2.1-4.7-2.1-7.5h0c0-2.7.6-5.1,2-7.3,1.3-2.2,3-3.9,5.2-5.2s4.6-1.9,7.3-1.9h0c2.6,0,5,.6,7.1,1.9,2.2,1.3,3.9,3,5.2,5.1,1.3,2.1,2,4.5,2,7.1h0v1.8h-26v-4.1h21.4c-.5-2.1-1.7-3.8-3.5-5.3s-3.9-2.2-6.3-2.2h0c-2,0-3.7.5-5.2,1.4-1.5.9-2.6,2.2-3.5,3.7s-1.2,3.3-1.2,5.3h0c0,1.9.5,3.6,1.4,5,1,1.4,2.2,2.6,3.7,3.3,1.5.8,3.1,1.2,4.8,1.2h0c1.3,0,2.5-.1,3.6-.4,1.1-.3,2.1-.7,3.1-1.3.9-.6,1.8-1.3,2.5-2.2h0l3.3,2.8c-.9,1.2-2,2.2-3.4,3-1.3.9-2.7,1.5-4.2,1.9-1.5.4-2.9.7-4.3.7ZM351.2,509.1h-4.4v-27.5h4.4v4.8c.9-1.5,2.1-2.8,3.6-3.8,1.5-1,3.3-1.5,5.3-1.5h0c2.2,0,4,.4,5.5,1.3,1.5.9,2.6,2.1,3.4,3.7.8,1.6,1.2,3.6,1.2,5.9h0v17.2h-4.4v-17.2c0-1.1-.2-2.1-.5-3.1-.3-1-.9-1.8-1.6-2.5-.8-.6-1.8-.9-3.2-.9h0c-2.3,0-4.1.5-5.5,1.6-1.4,1.1-2.4,2.6-3,4.4-.6,1.9-.9,3.9-.9,6.2h0v11.5ZM389.9,509.7h0c-2.6,0-4.9-.7-6.9-2-2-1.4-3.6-3.1-4.8-5.3-1.1-2.2-1.7-4.5-1.7-7h0c0-2.5.6-4.9,1.7-7.1,1.1-2.2,2.7-3.9,4.8-5.3,2-1.4,4.3-2,6.9-2h0c2.3,0,4.3.5,6.1,1.4,1.8.9,3.2,2.2,4.3,3.9h0v-24.1h4.4v46.9h-4.4v-4.7c-.8,1-1.7,2-2.8,2.8-1,.8-2.2,1.4-3.5,1.9-1.3.4-2.7.7-4.2.7ZM390.6,505.3h0c1.9,0,3.6-.5,5-1.4,1.5-.9,2.6-2.2,3.4-3.7.8-1.5,1.2-3.2,1.2-4.9h0c0-1.8-.4-3.4-1.2-5-.8-1.5-2-2.7-3.4-3.7s-3.1-1.4-5-1.4h0c-1.9,0-3.5.5-5,1.4-1.5.9-2.6,2.2-3.4,3.7-.8,1.5-1.2,3.2-1.2,5h0c0,1.8.4,3.4,1.2,4.9.8,1.5,2,2.8,3.4,3.7,1.5.9,3.1,1.4,5,1.4ZM426.6,509.5h0c-2.8,0-5.3-.6-7.5-1.8-2.3-1.2-4.1-2.9-5.5-5-1.4-2.1-2.1-4.7-2.1-7.5h0c0-2.7.6-5.1,1.9-7.3,1.3-2.2,3-3.9,5.2-5.2,2.2-1.3,4.6-1.9,7.3-1.9h0c2.6,0,5,.6,7.1,1.9,2.2,1.3,3.9,3,5.2,5.1,1.3,2.1,2,4.5,2,7.1h0v1.8h-26v-4.1h21.4c-.5-2.1-1.7-3.8-3.5-5.3-1.8-1.4-3.9-2.2-6.3-2.2h0c-2,0-3.7.5-5.2,1.4-1.5.9-2.6,2.2-3.5,3.7-.8,1.6-1.2,3.3-1.2,5.3h0c0,1.9.5,3.6,1.4,5,1,1.4,2.2,2.6,3.7,3.3,1.5.8,3.1,1.2,4.8,1.2h0c1.3,0,2.5-.1,3.6-.4,1.1-.3,2.1-.7,3.1-1.3.9-.6,1.8-1.3,2.5-2.2h0l3.3,2.8c-.9,1.2-2,2.2-3.4,3-1.3.9-2.7,1.5-4.2,1.9-1.5.4-2.9.7-4.3.7ZM451.6,509.1h-4.4v-27.5h4.4v4.8c.9-1.5,2.1-2.8,3.6-3.8,1.5-1,3.3-1.5,5.3-1.5h0c2.2,0,4,.4,5.5,1.3,1.5.9,2.6,2.1,3.4,3.7.8,1.6,1.2,3.6,1.2,5.9h0v17.2h-4.4v-17.2c0-1.1-.2-2.1-.5-3.1-.3-1-.9-1.8-1.6-2.5-.8-.6-1.8-.9-3.2-.9h0c-2.3,0-4.1.5-5.4,1.6-1.4,1.1-2.4,2.6-3,4.4-.6,1.9-.9,3.9-.9,6.2h0v11.5ZM487.2,509.1h-4.4v-23.5h-6.9v-4.1h6.9v-10.7h4.4v10.7h6.8v4.1h-6.8v23.5ZM511.3,509.5h0c-2.8,0-5.3-.6-7.5-1.8-2.3-1.2-4.1-2.9-5.5-5-1.4-2.1-2.1-4.7-2.1-7.5h0c0-2.7.6-5.1,1.9-7.3,1.3-2.2,3-3.9,5.2-5.2,2.2-1.3,4.6-1.9,7.3-1.9h0c2.6,0,5,.6,7.1,1.9,2.2,1.3,3.9,3,5.3,5.1,1.3,2.1,2,4.5,2,7.1h0v1.8h-26v-4.1h21.4c-.5-2.1-1.7-3.8-3.5-5.3-1.8-1.4-3.9-2.2-6.3-2.2h0c-2,0-3.7.5-5.2,1.4-1.5.9-2.6,2.2-3.5,3.7-.8,1.6-1.3,3.3-1.3,5.3h0c0,1.9.5,3.6,1.4,5,1,1.4,2.2,2.6,3.7,3.3,1.5.8,3.1,1.2,4.8,1.2h0c1.3,0,2.5-.1,3.6-.4,1.1-.3,2.1-.7,3.1-1.3.9-.6,1.8-1.3,2.5-2.2h0l3.3,2.8c-.9,1.2-2,2.2-3.3,3-1.3.9-2.7,1.5-4.2,1.9-1.5.4-2.9.7-4.3.7Z"/>
  <path class="st2" d="M615.6,220.4v-26.7h.8v.3c0,2,.6,3.6,1.8,4.8,1.2,1.2,2.8,1.8,4.8,1.8h47.6c2,0,3.6-.6,4.8-1.8,1.2-1.2,1.8-2.8,1.8-4.8h0v-.3h.8v26.7h-.8v-.2c0-2-.6-3.6-1.8-4.8-1.2-1.2-2.8-1.8-4.8-1.8h-19.4v27.5h19.4c2,0,3.6-.6,4.8-1.8,1.2-1.2,1.8-2.8,1.8-4.8h0v-.2h.8v26.7h-.8v-.2c0-2-.6-3.6-1.8-4.8-1.2-1.2-2.8-1.8-4.8-1.8h-47.6c-2,0-3.6.6-4.8,1.8-1.2,1.2-1.8,2.8-1.8,4.8h0v.2h-.8v-26.7h.8v.2c0,2,.6,3.6,1.8,4.8,1.2,1.2,2.8,1.8,4.8,1.8h27v-27.5h-27c-2,0-3.6.6-4.8,1.8-1.2,1.2-1.8,2.8-1.8,4.8h0v.2h-.8ZM615.6,285.9v-25.5h.8c0,2.1.6,3.7,1.8,4.9,1.2,1.2,2.8,1.8,4.8,1.8h27.4c2.1,0,3.8-.4,4.9-1.3,1.2-.9,1.8-2.7,1.8-5.5h.8v8.5c0,2.8.3,5,.9,6.5h0c.6,1.4,1.4,2.4,2.2,2.9h0v.8h-38.1c-2,0-3.6.6-4.8,1.8-1.2,1.2-1.8,2.8-1.8,4.8h0c0,0-.8,0-.8,0ZM666.4,273.1h0c0-2,.7-3.7,2-5,1.3-1.3,3-2,5-2h0c2,0,3.7.7,5,2,1.3,1.3,2,3,2,5h0c0,1.9-.7,3.6-2,4.9-1.3,1.3-3,2-4.9,2h0c-1.9,0-3.6-.7-4.9-2-1.3-1.3-2-2.9-2-4.9ZM614.4,301.6h0c0-1.4,0-2.5.2-3.3.1-.7.3-1.4.4-2s.3-1.5.4-2.5c.1-1.1.2-2.7.2-4.8h0l15.7-2v1.1c-5.2.9-9.2,2.6-11.8,5-2.6,2.4-4,5.1-4,8h0c0,2.8.6,5,1.8,6.5,1.2,1.5,2.8,2.2,4.8,2.2h0c1.3,0,2.4-.3,3.4-1s2-1.7,3-3.3c1-1.6,2.3-3.7,3.7-6.4h0l1.3-2.4c1.7-3.1,3.7-5.3,6-6.8,2.3-1.5,4.8-2.2,7.5-2.2h0c3.8,0,6.8,1.4,8.9,4.1,2.2,2.8,3.3,6.4,3.3,11.1h0c0,1.2,0,2.1-.2,2.8-.1.7-.3,1.4-.4,2.1-.2.7-.3,1.5-.4,2.5-.1,1-.2,2.3-.2,4h0l-13.4,1.2v-1c2.6-.3,4.9-1.1,7-2.2,2-1.1,3.6-2.5,4.8-4s1.7-3.1,1.7-4.8h0c0-2.1-.6-3.8-1.7-5-1.1-1.3-2.7-1.9-4.7-1.9h0c-1.5,0-2.9.5-4.1,1.5-1.3,1-2.6,2.9-4,5.6h0l-1.2,2.5c-2,3.9-4.1,6.7-6.3,8.5-2.2,1.8-5,2.7-8.4,2.7h0c-8.7,0-13.1-5.2-13.2-15.7ZM614.4,334.5h0c0-2.9.9-5.3,2.8-7.1,1.8-1.8,4.2-2.7,7.2-2.8h32.1v-7.1h1.1c.3,3.8,1.5,7.3,3.7,10.3,2.2,3,5.1,5.5,8.8,7.5h0v1.3h-12v11.1l-1.5-.8v-10.3h-30.3c-4.4,0-6.7,1.5-6.7,4.5h0c0,1,.3,2.2.9,3.5.6,1.3,1.4,2.5,2.4,3.7h-.8c-2.3-1.8-4.2-4-5.5-6.5-1.4-2.5-2-4.9-2-7.3ZM614.4,370.4h0c0-4.6.9-8.6,2.8-12,1.8-3.4,4.4-6.1,7.8-8,3.3-1.9,7.3-2.8,11.9-2.8h0c4.6,0,8.5.9,11.8,2.8,3.3,1.9,5.9,4.5,7.8,8,1.8,3.4,2.8,7.4,2.8,12h0c0,4.6-.9,8.5-2.8,11.9-1.8,3.4-4.4,6-7.8,7.9-3.3,1.9-7.3,2.8-11.8,2.8h0c-4.6,0-8.5-.9-11.9-2.8-3.3-1.9-5.9-4.5-7.8-7.9-1.8-3.4-2.8-7.4-2.8-11.9ZM615.5,370.4h0c0,1.9,1,3.6,2.9,5,1.9,1.4,4.6,2.5,7.8,3.2,3.3.8,6.8,1.2,10.6,1.2h0c4.2,0,7.9-.4,11.1-1.2,3.2-.8,5.7-1.9,7.5-3.3,1.8-1.4,2.7-3,2.7-4.8h0c0-1.9-1-3.6-2.9-5-2-1.4-4.5-2.5-7.8-3.3-3.2-.8-6.8-1.2-10.6-1.2h0c-4.2,0-8,.4-11.2,1.2-3.2.8-5.7,2-7.5,3.4-1.8,1.4-2.7,3-2.7,4.7ZM675.8,381.5l-11.7-16.7.8-.6,16.1,11.4v.4l-4.8,5.4h-.4ZM615.6,419.8v-25.5h.8c0,2.1.6,3.7,1.8,4.9s2.8,1.8,4.8,1.8h27.4c2.1,0,3.8-.4,4.9-1.3,1.2-.9,1.8-2.7,1.8-5.5h.8v8.3c0,3,.3,5.2.9,6.7.6,1.5,1.3,2.6,2.3,3.2h0v.4h-13.7c1.7.8,3.4,1.7,5.3,2.9,1.8,1.1,3.4,2.6,4.6,4.3,1.3,1.8,1.9,3.9,1.9,6.3h0c0,.8,0,1.7-.2,2.7-.2.9-.5,1.9-.9,3h0l-9.8-3.2c1.1-2,1.9-3.7,2.3-5.2.4-1.5.7-2.8.7-3.9h0c0-1.9-.6-3.3-1.8-4.2-1.2-.9-2.6-1.7-4.2-2.4h-22.3c-2,0-3.6.6-4.8,1.8-1.2,1.2-1.8,2.8-1.8,4.8h0c0,0-.8,0-.8,0ZM615.6,457.7v-25.5h.8c0,2.1.6,3.7,1.8,4.9,1.2,1.2,2.8,1.8,4.8,1.8h27.4c2.1,0,3.8-.4,4.9-1.3,1.2-.9,1.8-2.7,1.8-5.5h.8v8.5c0,2.8.3,5,.9,6.5h0c.6,1.4,1.4,2.4,2.2,2.9h0v.8h-38.1c-2,0-3.6.6-4.8,1.8s-1.8,2.8-1.8,4.8h0c0,0-.8,0-.8,0ZM666.4,444.9h0c0-2,.7-3.7,2-5,1.3-1.3,3-2,5-2h0c2,0,3.7.7,5,2,1.3,1.3,2,3,2,5h0c0,1.9-.7,3.6-2,4.9-1.3,1.3-3,2-4.9,2h0c-1.9,0-3.6-.7-4.9-2-1.3-1.3-2-2.9-2-4.9ZM614.4,470.2h0c0-3.4.9-6.1,2.8-8.2,1.8-2.1,4.3-3.1,7.3-3.1h0c1.3,0,2.5.2,3.6.7,1.1.4,2.3,1.3,3.4,2.5h0c1.1,1.3,2.3,3,3.5,5.3,1.2,2.2,2.5,5.2,3.8,8.8h0l2.8,7.8h6.3c3.2,0,5.7-.5,7.5-1.5,1.9-1,2.8-2.4,2.8-4.2h0c0-2.1-1.5-3.9-4.2-5.4-2.7-1.5-6.5-2.5-11.4-3h0l5.2-9c2.3.9,4.3,2.4,6,4.3,1.7,1.9,3.1,4.2,4,6.7.9,2.5,1.4,5.2,1.4,8h0c0,4.7-1.3,8.6-4,11.5-2.6,3-6.2,4.5-10.8,4.5h-20.1c-3.2,0-4.8,1.1-4.8,3.2h0c0,1.3.7,2.5,2.1,3.8h0l-.6.7c-1.9-1.4-3.5-3.2-4.8-5.3-1.2-2.1-1.8-4.1-1.8-6h0c0-2.1.7-3.9,2.2-5.5,1.4-1.5,3.4-2.5,5.8-2.9h0c-2.8-2.7-4.8-5.1-6-7.1-1.3-2-1.9-4.3-1.9-6.7ZM619.6,476.5h0c0,1.2.3,2.4.9,3.5s1.6,2.4,3,3.9h16.9c0,0-1.2-3.3-1.2-3.3-1.1-2.8-2.1-5-3.2-6.5-1.1-1.5-2.3-2.5-3.6-3.1-1.3-.6-2.9-.9-4.6-.9h0c-2.4,0-4.4.6-5.9,1.8-1.5,1.2-2.3,2.7-2.3,4.5ZM615.6,545.9v-25.5h.8c0,2,.6,3.6,1.8,4.9,1.2,1.3,2.8,1.9,4.9,1.9h47.6c2,0,3.6-.6,4.8-1.9,1.2-1.2,1.8-2.9,1.8-4.9h.8v8.5c0,2.8.3,5,.9,6.5h0c.6,1.4,1.4,2.4,2.3,2.9h0v.8h-58.3c-2.1,0-3.7.6-4.9,1.9-1.2,1.2-1.8,2.9-1.8,4.9h-.8ZM615.6,570.6v-25.5h.8c0,2.1.6,3.7,1.8,4.9,1.2,1.2,2.8,1.8,4.8,1.8h27.4c2.1,0,3.8-.4,4.9-1.3s1.8-2.7,1.8-5.5h.8v8.5c0,2.8.3,5,.9,6.5h0c.6,1.4,1.4,2.4,2.2,2.9h0v.8h-38.1c-2,0-3.6.6-4.8,1.8-1.2,1.2-1.8,2.8-1.8,4.8h0c0,0-.8,0-.8,0ZM666.4,557.7h0c0-2,.7-3.7,2-5,1.3-1.3,3-2,5-2h0c2,0,3.7.7,5,2,1.3,1.3,2,3,2,5h0c0,1.9-.7,3.6-2,4.9-1.3,1.3-3,2-4.9,2h0c-1.9,0-3.6-.7-4.9-2-1.3-1.3-2-2.9-2-4.9ZM615.6,595.3v-25.5h.8c0,2.1.6,3.7,1.8,4.9,1.2,1.2,2.8,1.8,4.8,1.8h27.4c2.1,0,3.8-.4,4.9-1.3,1.2-.9,1.8-2.7,1.8-5.5h.8v8.3c0,2.8.3,5,.9,6.5h0c.6,1.4,1.4,2.4,2.2,2.9h0v.8h-11.7c2.9,1.5,5.2,3.7,7,6.7,1.8,2.9,2.7,6.1,2.7,9.3h0c0,3.7-1.2,6.7-3.7,9-2.5,2.3-5.7,3.4-9.7,3.4h-22.7c-2,0-3.6.6-4.8,1.8-1.2,1.2-1.8,2.8-1.8,4.8h0c0,0-.8,0-.8,0v-25.5h.8c0,2.1.6,3.7,1.8,4.9,1.2,1.2,2.8,1.8,4.8,1.8h23.5c2.8,0,5-.5,6.7-1.6,1.7-1.1,2.5-2.5,2.5-4.3h0c0-1.7-.7-3.5-2.2-5.4-1.5-1.9-3.5-3.5-6-4.9h-24.5c-2,0-3.6.6-4.8,1.8-1.2,1.2-1.8,2.8-1.8,4.8h0c0,0-.8,0-.8,0ZM612.4,654.5v-.8h11.8c-2.9-1.4-5.3-3.4-7.1-6.1-1.9-2.7-2.8-5.5-2.8-8.6h0c0-3,.9-5.7,2.8-8.1,1.9-2.4,4.5-4.3,7.8-5.7,3.3-1.4,7.1-2.1,11.2-2.1h0c4.7,0,8.7.9,12.2,2.6,3.5,1.8,6.1,4.2,8,7.3,1.9,3.1,2.8,6.7,2.8,10.8h0c0,2.3-.3,4.1-1,5.6-.7,1.4-1.9,2.8-3.5,3.9h16.1c2,0,3.6-.6,4.8-1.9,1.2-1.3,1.8-2.9,1.8-4.9h.8v8.5c0,2.8.3,4.9.8,6.3.6,1.4,1.3,2.5,2.3,3.1h0v.8h-58.3c-2,0-3.6.6-4.8,1.8-1.2,1.2-1.8,2.9-1.8,4.9h-.8v-8.5c0-2.4-.3-4.4-.8-5.8-.5-1.4-1.3-2.5-2.4-3.3h0ZM617.7,643.6h0c0,1.3.4,2.6,1.2,3.9s1.9,2.5,3.2,3.5c1.3,1.1,2.8,1.8,4.2,2.3h20.4c3.3-.3,6-1.1,8-2.5,2-1.4,3-3.1,3-5.3h0c0-2.9-1.8-5.1-5.5-6.8h0c-3.7-1.6-9.1-2.3-16.3-2.3h0c-12.2,0-18.3,2.4-18.3,7.1ZM614.4,683.7h0c0-3.4.9-6.1,2.8-8.2,1.8-2.1,4.3-3.1,7.3-3.1h0c1.3,0,2.5.2,3.6.7s2.3,1.3,3.4,2.5h0c1.1,1.3,2.3,3,3.5,5.2,1.2,2.2,2.5,5.2,3.8,8.8h0l2.8,7.8h6.3c3.2,0,5.7-.5,7.5-1.5,1.9-1,2.8-2.4,2.8-4.2h0c0-2.1-1.5-3.9-4.2-5.4-2.7-1.5-6.5-2.5-11.4-3h0l5.2-9c2.3.9,4.3,2.4,6,4.3,1.7,1.9,3.1,4.2,4,6.7.9,2.5,1.4,5.2,1.4,8h0c0,4.7-1.3,8.6-4,11.6-2.6,3-6.2,4.5-10.8,4.5h-20.1c-3.2,0-4.8,1.1-4.8,3.2h0c0,1.3.7,2.5,2.1,3.8h0l-.6.7c-1.9-1.4-3.5-3.2-4.8-5.2-1.2-2.1-1.8-4.1-1.8-6h0c0-2.1.7-3.9,2.2-5.5,1.4-1.5,3.4-2.5,5.8-2.9h0c-2.8-2.7-4.8-5.1-6-7.1-1.3-2-1.9-4.3-1.9-6.7ZM619.6,690h0c0,1.2.3,2.4.9,3.6.6,1.1,1.6,2.4,3,3.9h16.9c0,0-1.2-3.3-1.2-3.3-1.1-2.8-2.1-5-3.2-6.5-1.1-1.5-2.3-2.5-3.6-3.1-1.3-.6-2.9-.9-4.6-.9h0c-2.4,0-4.4.6-5.9,1.8-1.5,1.2-2.3,2.7-2.3,4.5Z"/>
  <path class="st2" d="M183.9,442.3h-14.9v-56.8h14.9c3.9,0,7.6.7,11.1,2,3.5,1.3,6.6,3.2,9.4,5.7,2.7,2.5,4.9,5.5,6.4,8.9,1.6,3.5,2.3,7.4,2.3,11.7h0c0,4.1-.8,7.8-2.2,11.3-1.5,3.5-3.6,6.5-6.2,9-2.6,2.5-5.7,4.5-9.3,5.9-3.5,1.4-7.4,2.1-11.5,2.1h0ZM174.8,391.4v45.1h9.2c4.4,0,8.3-1,11.9-2.9,3.5-1.9,6.3-4.6,8.4-8,2.1-3.4,3.1-7.3,3.1-11.6h0c0-4.4-1-8.3-3.1-11.6-2.1-3.4-4.9-6-8.4-8-3.5-1.9-7.5-2.9-11.9-2.9h-9.2ZM239,442.9h0c-3.7,0-7-.8-10.1-2.4-3-1.6-5.5-3.8-7.3-6.7-1.8-2.9-2.8-6.2-2.8-10.1h0c0-3.6.9-6.8,2.6-9.7,1.7-2.9,4-5.2,6.9-6.9,2.9-1.7,6.1-2.6,9.7-2.6h0c3.4,0,6.6.9,9.5,2.6,2.9,1.7,5.2,4,7,6.9,1.8,2.8,2.7,6,2.7,9.4h0v2.3h-34.7v-5.4h28.5c-.7-2.8-2.2-5.1-4.6-7-2.4-1.9-5.2-2.9-8.4-2.9h0c-2.6,0-4.9.6-6.9,1.8-2,1.2-3.5,2.9-4.6,5-1.1,2.1-1.7,4.4-1.7,7.1h0c0,2.6.6,4.8,1.9,6.7,1.3,1.9,2.9,3.4,4.9,4.5,2,1.1,4.1,1.6,6.3,1.6h0c1.7,0,3.3-.2,4.8-.6,1.5-.4,2.8-1,4.1-1.8,1.2-.8,2.4-1.8,3.4-3h0l4.4,3.7c-1.2,1.6-2.7,2.9-4.5,4-1.7,1.1-3.6,2-5.6,2.6-1.9.6-3.9.9-5.8.9ZM304.8,443.1h0c-2.2,0-4.4-.5-6.6-1.4-2.2-.9-4.1-2.3-5.9-4-1.8-1.7-3.2-3.7-4.2-6-1.1-2.3-1.6-4.9-1.6-7.8h0c0-3.5.8-6.7,2.5-9.6,1.7-2.9,3.9-5.2,6.8-6.9,2.8-1.7,6-2.6,9.5-2.6h0c2.7,0,5.3.6,7.7,1.7,2.4,1.1,4.5,2.7,6.4,4.8,1.8,2.1,3.1,4.6,3.9,7.5h-6.3c-1-2.4-2.6-4.3-4.7-5.7-2.1-1.4-4.3-2.1-6.4-2.1h0c-2.4,0-4.6.5-6.6,1.6-2,1.1-3.7,2.6-4.9,4.5-1.2,2-1.8,4.2-1.8,6.8h0c0,2.3.6,4.5,1.7,6.5,1.1,2,2.6,3.6,4.6,4.8,1.9,1.2,4.1,1.8,6.5,1.8h0c2.3,0,4.5-.6,6.5-1.8,2-1.2,3.5-2.9,4.6-4.9h6.6c-.9,2.7-2.3,5.1-4.2,7-1.8,1.9-4,3.4-6.4,4.4s-4.9,1.5-7.7,1.5ZM338.3,442.3h-5.8v-62.6h5.8v32.2c1.2-2,2.7-3.7,4.6-5,1.9-1.4,4.2-2,7-2h0c3.1,0,5.6.6,7.6,1.8,2,1.2,3.6,2.9,4.6,5,1,2.2,1.5,4.7,1.5,7.7h0v23h-5.8v-23c0-1.4-.2-2.8-.6-4.2-.4-1.3-1.1-2.4-2.2-3.3-1-.8-2.4-1.2-4.2-1.2h0c-3,0-5.4.6-7.3,1.9-1.8,1.3-3.2,3.1-4,5.5-.8,2.4-1.2,5.4-1.2,8.8h0v15.4ZM391.2,442.9h0c-3.5,0-6.7-.8-9.6-2.5-2.9-1.7-5.2-4-7-6.9-1.7-2.9-2.6-6.1-2.6-9.7h0c0-3.6.9-6.8,2.6-9.7,1.7-2.9,4-5.2,6.9-6.9,2.9-1.7,6.1-2.6,9.7-2.6h0c3.6,0,6.8.9,9.7,2.6,2.9,1.7,5.2,4,6.9,6.9,1.7,2.9,2.6,6.1,2.6,9.7h0c0,3.6-.9,6.8-2.6,9.7-1.7,2.9-4,5.2-7,6.9-2.9,1.7-6.1,2.5-9.6,2.5ZM391.2,437.1h0c2.4,0,4.7-.6,6.7-1.8,2-1.2,3.6-2.8,4.8-4.8,1.2-2,1.8-4.2,1.8-6.7h0c0-2.5-.6-4.8-1.8-6.8-1.2-2-2.8-3.6-4.8-4.8-2-1.2-4.3-1.8-6.8-1.8h0c-2.4,0-4.7.6-6.7,1.8-2,1.2-3.6,2.8-4.8,4.8-1.2,2-1.8,4.3-1.8,6.8h0c0,2.4.6,4.7,1.8,6.7,1.2,2,2.8,3.6,4.8,4.8,2,1.2,4.3,1.8,6.7,1.8ZM425.4,442.3h-5.9v-36.7h5.9v7.2c.7-2.1,1.5-3.7,2.5-4.8.9-1.1,2-1.9,3.1-2.4,1.2-.5,2.4-.7,3.8-.7h0c.6,0,1.2,0,1.9.2.6.1,1.2.3,1.8.6h0v7.6c-.7-.6-1.4-1.1-2.1-1.4-.7-.3-1.5-.5-2.3-.5h0c-1.8,0-3.3.6-4.6,1.9-1.3,1.3-2.3,2.8-3,4.8-.7,1.9-1,3.9-1,6h0v18.4ZM462.6,443.1h0c-3.4,0-6.5-.9-9.2-2.7-2.7-1.8-4.8-4.2-6.3-7.1-1.5-2.9-2.3-6.1-2.3-9.4h0c0-3.4.8-6.5,2.3-9.4,1.5-2.9,3.6-5.2,6.3-7,2.7-1.8,5.8-2.7,9.2-2.7h0c3,0,5.7.7,8,2,2.3,1.3,4.3,3,5.9,5.1h0v-6.3h5.9v36.7h-5.9v-6.3c-1.1,1.4-2.3,2.6-3.7,3.7-1.4,1.1-2.9,1.9-4.6,2.5-1.7.6-3.5.9-5.5.9ZM463.5,437.3h0c2.5,0,4.7-.6,6.7-1.9,1.9-1.3,3.5-2.9,4.6-4.9,1.1-2,1.7-4.2,1.7-6.6h0c0-2.4-.6-4.6-1.7-6.6-1.1-2-2.6-3.6-4.6-4.9-2-1.2-4.2-1.9-6.7-1.9h0c-2.5,0-4.7.6-6.7,1.9-1.9,1.3-3.5,2.9-4.6,4.9-1.1,2-1.7,4.2-1.7,6.6h0c0,2.3.6,4.5,1.7,6.6,1.1,2,2.6,3.7,4.6,4.9s4.2,1.9,6.7,1.9ZM499.8,442.3h-5.8v-36.7h5.8v7.2c.7-2.1,1.5-3.7,2.5-4.8.9-1.1,2-1.9,3.1-2.4,1.2-.5,2.4-.7,3.8-.7h0c.6,0,1.2,0,1.9.2.6.1,1.2.3,1.8.6h0v7.6c-.7-.6-1.4-1.1-2.1-1.4-.7-.3-1.5-.5-2.2-.5h0c-1.8,0-3.3.6-4.6,1.9-1.3,1.3-2.3,2.8-3,4.8-.7,1.9-1,3.9-1,6h0v18.4Z"/>
  <path class="st0" d="M683.6,353v-26.7l.8.2v.2c0,2,.6,3.6,1.8,4.8,1.2,1.2,2.8,1.8,4.8,1.8h47.6c2,0,3.6-.6,4.8-1.8,1.2-1.2,1.8-2.8,1.8-4.8h.8c0,0,0,44.6,0,44.6l-16.9,2.5v-.8c10.5-1.7,15.8-8.3,15.8-19.9h0v-6.9h-25.1v6.5c0,2.8.9,5,2.6,6.7,1.8,1.7,4,2.5,6.8,2.5h0v.8h-20.9v-.8c3,0,5.5-.9,7.4-2.8,1.9-1.8,2.9-4.3,2.9-7.3h0v-5.7h-28.5c-1.8,0-3.3.6-4.4,1.9-1.1,1.3-1.6,2.9-1.6,4.8h-.8ZM682.4,379.4h0c0-3.4.9-6.1,2.8-8.2,1.8-2.1,4.3-3.1,7.3-3.1h0c1.3,0,2.5.2,3.6.7,1.1.4,2.3,1.3,3.4,2.5h0c1.1,1.3,2.3,3,3.5,5.3,1.2,2.2,2.5,5.2,3.8,8.8h0l2.8,7.8h6.3c3.2,0,5.7-.5,7.5-1.5,1.9-1,2.8-2.4,2.8-4.2h0c0-2.1-1.4-3.9-4.2-5.4-2.7-1.5-6.5-2.5-11.4-3h0l5.2-9c2.3.9,4.3,2.4,6,4.3,1.7,1.9,3.1,4.2,4,6.7s1.4,5.2,1.4,8h0c0,4.7-1.3,8.6-4,11.6-2.6,3-6.3,4.5-10.8,4.5h-20.1c-3.2,0-4.8,1.1-4.8,3.3h0c0,1.3.7,2.5,2.1,3.8h0l-.6.7c-1.9-1.4-3.5-3.2-4.8-5.3-1.2-2.1-1.8-4.1-1.8-6h0c0-2.1.7-3.9,2.2-5.5,1.4-1.5,3.4-2.5,5.8-2.9h0c-2.8-2.7-4.8-5.1-6.1-7.1-1.2-2-1.9-4.3-1.9-6.7ZM687.6,385.7h0c0,1.2.3,2.4.9,3.5.6,1.1,1.6,2.4,3,3.9h16.9c0,0-1.2-3.2-1.2-3.2-1.1-2.8-2.1-5-3.2-6.5s-2.3-2.5-3.6-3.1-2.9-.9-4.6-.9h0c-2.4,0-4.4.6-5.9,1.8-1.5,1.2-2.3,2.7-2.3,4.5ZM683.6,436.7v-25.5h.8c0,2.1.6,3.7,1.8,4.9,1.2,1.2,2.8,1.8,4.8,1.8h27.4c2.1,0,3.8-.4,4.9-1.3,1.2-.9,1.8-2.7,1.8-5.5h.8v8.3c0,2.3.1,4,.3,5.3.2,1.3.5,2.2.9,2.8s.7,1.1,1.1,1.3h0v.8h-10.8c2.9,1.5,5.2,3.7,7,6.7,1.8,3,2.7,6.1,2.7,9.3h0c0,3.2-.9,5.8-2.7,7.9-1.8,2.1-4.2,3.5-7.2,4.1h0c3,1.6,5.4,3.8,7.2,6.7,1.8,2.9,2.7,6.1,2.7,9.5h0c0,3.7-1.2,6.7-3.7,9-2.4,2.3-5.7,3.4-9.7,3.4h-22.7c-2,0-3.6.6-4.8,1.8-1.2,1.2-1.8,2.8-1.8,4.8h0c0,0-.8,0-.8,0v-25.5h.8c0,2.1.6,3.7,1.8,4.9,1.2,1.2,2.8,1.8,4.8,1.8h23.5c2.8,0,5-.6,6.7-1.7,1.7-1.1,2.5-2.5,2.5-4.3h0c0-1.7-.8-3.5-2.3-5.4-1.5-1.9-3.5-3.5-6-4.9h0c-.1,0-.3,0-.4,0h-24c-2,0-3.6.6-4.8,1.8-1.2,1.2-1.8,2.8-1.8,4.8h0c0,0-.8,0-.8,0v-25.4h.8c0,2.1.6,3.7,1.8,4.9,1.2,1.2,2.8,1.8,4.8,1.8h23.5c2.8,0,5-.5,6.7-1.6,1.7-1.1,2.5-2.5,2.5-4.3h0c0-1.7-.7-3.5-2.2-5.4-1.5-1.9-3.5-3.5-6-4.9h-24.5c-2,0-3.6.6-4.8,1.8-1.2,1.2-1.8,2.8-1.8,4.8h0c0,0-.8,0-.8,0ZM683.6,517.7v-25.5h.8c0,2.1.6,3.7,1.8,4.9s2.8,1.8,4.8,1.8h27.4c2.1,0,3.8-.4,4.9-1.3,1.2-.9,1.8-2.7,1.8-5.5h.8v8.5c0,2.8.3,5,.9,6.5h0c.6,1.4,1.4,2.4,2.2,2.9h0v.8h-38.1c-2,0-3.6.6-4.8,1.8-1.2,1.2-1.8,2.8-1.8,4.8h0c0,0-.8,0-.8,0ZM743.8,515.9l-11.7-16.7.8-.6,16.1,11.4v.4l-4.8,5.4h-.4ZM683.6,541.9v-25.5h.8c0,2,.6,3.6,1.8,4.9,1.2,1.3,2.8,1.9,4.9,1.9h47.6c2,0,3.6-.6,4.8-1.9,1.2-1.3,1.8-2.9,1.8-4.9h.8v8.5c0,2.8.3,5,.9,6.5h0c.6,1.4,1.4,2.4,2.2,2.9h0v.8h-58.2c-2.1,0-3.7.6-4.9,1.9-1.2,1.3-1.8,2.9-1.8,4.9h-.8ZM683.6,566.6v-25.5h.8c0,2.1.6,3.7,1.8,4.9,1.2,1.2,2.8,1.8,4.8,1.8h27.4c2.1,0,3.8-.4,4.9-1.3,1.2-.9,1.8-2.7,1.8-5.5h.8v8.5c0,2.8.3,5,.9,6.5h0c.6,1.4,1.4,2.4,2.2,2.9h0v.8h-38.1c-2,0-3.6.6-4.8,1.8-1.2,1.2-1.8,2.8-1.8,4.8h0c0,0-.8,0-.8,0ZM734.4,553.7h0c0-2,.7-3.7,2-5,1.3-1.3,3-2,5-2h0c2,0,3.7.7,5,2,1.3,1.3,2,3,2,5h0c0,1.9-.7,3.6-2,4.9-1.3,1.3-3,2-4.9,2h0c-1.9,0-3.6-.7-4.9-2-1.3-1.3-2-2.9-2-4.9ZM682.4,579.1h0c0-3.4.9-6.1,2.8-8.2,1.8-2.1,4.3-3.1,7.3-3.1h0c1.3,0,2.5.2,3.6.7,1.1.4,2.3,1.3,3.4,2.5h0c1.1,1.3,2.3,3,3.5,5.3,1.2,2.2,2.5,5.2,3.8,8.8h0l2.8,7.8h6.3c3.2,0,5.7-.5,7.5-1.5,1.9-1,2.8-2.4,2.8-4.2h0c0-2.1-1.4-3.9-4.2-5.4-2.7-1.5-6.5-2.5-11.4-3h0l5.2-9c2.3.9,4.3,2.4,6,4.3,1.7,1.9,3.1,4.2,4,6.7s1.4,5.2,1.4,8h0c0,4.7-1.3,8.6-4,11.6-2.6,3-6.3,4.5-10.8,4.5h-20.1c-3.2,0-4.8,1.1-4.8,3.3h0c0,1.3.7,2.5,2.1,3.8h0l-.6.7c-1.9-1.4-3.5-3.2-4.8-5.3-1.2-2.1-1.8-4.1-1.8-6h0c0-2.1.7-3.9,2.2-5.5,1.4-1.5,3.4-2.5,5.8-2.9h0c-2.8-2.7-4.8-5.1-6.1-7.1-1.2-2-1.9-4.3-1.9-6.7ZM687.6,585.3h0c0,1.2.3,2.4.9,3.6s1.6,2.4,3,3.9h16.9c0,0-1.2-3.2-1.2-3.2-1.1-2.8-2.1-5-3.2-6.5-1.1-1.5-2.3-2.5-3.6-3.1-1.3-.6-2.9-.9-4.6-.9h0c-2.4,0-4.4.6-5.9,1.8-1.5,1.2-2.3,2.7-2.3,4.5Z"/>
  <path class="st3" d="M232.6,578.1h-22.5v-37.8h22.5v3.6h-18.6v13.5h18v3.7h-18v13.5h18.6v3.6ZM244.6,578h-3.9v-24.5h3.9v3.9c.7-1.3,1.7-2.3,2.9-3.2,1.2-.9,2.6-1.3,4.3-1.3h0c1.9,0,3.4.4,4.7,1.1s2.3,1.9,3,3.5h0c.7-1.3,1.7-2.4,2.9-3.3,1.2-.9,2.7-1.3,4.4-1.3h0c1.9,0,3.5.4,4.8,1.2,1.3.8,2.3,1.9,3,3.3.7,1.4,1,3.2,1,5.2h0v15.3h-3.9v-15.3c0-1.2-.2-2.2-.5-3-.3-.9-.9-1.5-1.6-2-.7-.5-1.7-.8-2.9-.8h0c-1,0-2,.3-2.9.8-.9.5-1.7,1.2-2.4,2.1-.6.9-1,1.8-.9,2.9h0v15.3h-3.9v-15.3c0-1.2-.2-2.2-.5-3-.3-.9-.9-1.5-1.6-2-.7-.5-1.7-.8-2.9-.8h0c-1.4,0-2.6.4-3.6,1.2-1,.8-1.8,1.9-2.4,3.2s-1,2.7-1.1,4.2h0v12.5ZM294,578.5h0c-2.3,0-4.5-.6-6.4-1.7-1.9-1.1-3.5-2.7-4.6-4.6-1.2-1.9-1.7-4.1-1.7-6.5h0c0-2.4.6-4.5,1.7-6.5,1.1-1.9,2.7-3.5,4.6-4.6,1.9-1.2,4.1-1.7,6.5-1.7h0c2.4,0,4.5.6,6.4,1.7,1.9,1.1,3.5,2.7,4.6,4.6,1.2,1.9,1.7,4.1,1.7,6.5h0c0,2.4-.6,4.5-1.7,6.5-1.1,1.9-2.7,3.5-4.6,4.6-1.9,1.1-4.1,1.7-6.4,1.7ZM294,574.6h0c1.6,0,3.1-.4,4.5-1.2,1.4-.8,2.4-1.9,3.2-3.2.8-1.3,1.2-2.8,1.2-4.5h0c0-1.7-.4-3.2-1.2-4.5-.8-1.3-1.9-2.4-3.2-3.2-1.3-.8-2.8-1.2-4.5-1.2h0c-1.6,0-3.1.4-4.5,1.2-1.4.8-2.4,1.9-3.2,3.2-.8,1.3-1.2,2.8-1.2,4.5h0c0,1.6.4,3.1,1.2,4.5.8,1.3,1.9,2.4,3.2,3.2,1.4.8,2.8,1.2,4.5,1.2ZM322.9,578.6h0c-1.5,0-2.9-.3-4.4-.9-1.4-.6-2.8-1.5-3.9-2.6-1.2-1.1-2.1-2.5-2.8-4-.7-1.6-1.1-3.3-1.1-5.2h0c0-2.3.6-4.5,1.7-6.4s2.6-3.5,4.5-4.6c1.9-1.1,4-1.7,6.3-1.7h0c1.8,0,3.5.4,5.1,1.1,1.6.7,3,1.8,4.3,3.2,1.2,1.4,2.1,3.1,2.6,5h-4.2c-.7-1.6-1.7-2.9-3.1-3.8-1.4-.9-2.8-1.4-4.3-1.4h0c-1.6,0-3.1.4-4.4,1.1-1.4.7-2.4,1.7-3.2,3-.8,1.3-1.2,2.8-1.2,4.6h0c0,1.6.4,3,1.1,4.3.7,1.3,1.8,2.4,3.1,3.2,1.3.8,2.7,1.2,4.3,1.2h0c1.6,0,3-.4,4.3-1.2,1.3-.8,2.3-1.9,3.1-3.3h4.4c-.6,1.8-1.6,3.4-2.8,4.6-1.2,1.3-2.6,2.3-4.2,2.9-1.6.7-3.3,1-5.1,1ZM345.2,578.1h-3.9v-24.5h3.9v24.5ZM343.3,549.4h0c-.7,0-1.3-.2-1.8-.7-.5-.5-.7-1.1-.7-1.8h0c0-.7.2-1.2.7-1.7.5-.5,1.1-.7,1.8-.7h0c.7,0,1.2.2,1.7.7.5.5.7,1.1.7,1.7h0c0,.7-.2,1.3-.7,1.8-.5.5-1.1.7-1.7.7ZM364.1,578.5h0c-2.3,0-4.5-.6-6.4-1.7-1.9-1.1-3.5-2.7-4.6-4.6-1.2-1.9-1.7-4.1-1.7-6.5h0c0-2.4.6-4.5,1.7-6.5,1.1-1.9,2.7-3.5,4.6-4.6,1.9-1.2,4.1-1.7,6.5-1.7h0c2.4,0,4.5.6,6.4,1.7,1.9,1.1,3.5,2.7,4.6,4.6,1.1,1.9,1.7,4.1,1.7,6.5h0c0,2.4-.6,4.5-1.7,6.5s-2.7,3.5-4.6,4.6c-1.9,1.1-4.1,1.7-6.4,1.7ZM364.1,574.6h0c1.6,0,3.1-.4,4.5-1.2,1.4-.8,2.4-1.9,3.2-3.2.8-1.3,1.2-2.8,1.2-4.5h0c0-1.7-.4-3.2-1.2-4.5-.8-1.3-1.9-2.4-3.2-3.2-1.3-.8-2.8-1.2-4.5-1.2h0c-1.6,0-3.1.4-4.5,1.2-1.4.8-2.4,1.9-3.2,3.2-.8,1.3-1.2,2.8-1.2,4.5h0c0,1.6.4,3.1,1.2,4.5.8,1.3,1.9,2.4,3.2,3.2,1.4.8,2.8,1.2,4.5,1.2ZM386.9,578.1h-3.9v-24.5h3.9v4.2c.8-1.3,1.8-2.5,3.2-3.4s2.9-1.4,4.7-1.4h0c1.9,0,3.6.4,4.9,1.1,1.3.8,2.4,1.9,3.1,3.3.7,1.4,1.1,3.2,1.1,5.3h0v15.3h-3.9v-15.3c0-1-.1-1.9-.4-2.8-.3-.9-.8-1.6-1.4-2.2-.7-.6-1.6-.8-2.8-.8h0c-2,0-3.6.5-4.8,1.5-1.2,1-2.1,2.3-2.7,3.9-.6,1.7-.8,3.5-.8,5.5h0v10.2ZM421.6,578.6h0c-2.3,0-4.4-.6-6.2-1.8-1.8-1.2-3.2-2.8-4.2-4.7-1-1.9-1.5-4-1.5-6.3h0c0-2.3.5-4.4,1.5-6.3,1-1.9,2.4-3.5,4.2-4.7s3.9-1.8,6.2-1.8h0c2,0,3.8.4,5.3,1.3,1.5.9,2.8,2,3.9,3.4h0v-4.2h3.9v24.5h-3.9v-4.2c-.7.9-1.5,1.8-2.4,2.5-.9.7-2,1.3-3.1,1.7s-2.4.6-3.7.6ZM422.2,574.7h0c1.7,0,3.2-.4,4.5-1.2,1.3-.8,2.3-1.9,3.1-3.3.7-1.4,1.1-2.8,1.1-4.4h0c0-1.6-.4-3.1-1.1-4.4-.7-1.3-1.8-2.4-3.1-3.2s-2.8-1.2-4.5-1.2h0c-1.7,0-3.1.4-4.5,1.2-1.3.8-2.3,1.9-3.1,3.2-.7,1.3-1.1,2.8-1.1,4.4h0c0,1.6.4,3,1.1,4.4.7,1.4,1.8,2.4,3.1,3.3,1.3.8,2.8,1.2,4.5,1.2ZM446.4,578.1h-3.9v-24.5h3.9v4.2c.8-1.3,1.8-2.5,3.2-3.4,1.3-.9,2.9-1.4,4.7-1.4h0c1.9,0,3.6.4,4.9,1.1,1.3.8,2.4,1.9,3.1,3.3.7,1.4,1.1,3.2,1.1,5.3h0v15.3h-3.9v-15.3c0-1-.1-1.9-.4-2.8-.3-.9-.8-1.6-1.4-2.2-.7-.6-1.6-.8-2.8-.8h0c-2,0-3.6.5-4.8,1.5-1.2,1-2.1,2.3-2.7,3.9-.6,1.7-.8,3.5-.8,5.5h0v10.2ZM478,578.1h-3.9v-20.9h-6.1v-3.6h6.1v-9.5h3.9v9.5h6.1v3.6h-6.1v20.9ZM499.5,578.5h0c-2.5,0-4.7-.5-6.7-1.6-2-1.1-3.6-2.5-4.9-4.5-1.2-1.9-1.8-4.1-1.8-6.7h0c0-2.4.6-4.5,1.7-6.5,1.2-1.9,2.7-3.5,4.6-4.6,1.9-1.2,4.1-1.7,6.5-1.7h0c2.3,0,4.4.6,6.4,1.7,1.9,1.1,3.5,2.7,4.7,4.6,1.2,1.9,1.8,4,1.8,6.3h0v1.6h-23.1v-3.6h19c-.4-1.9-1.5-3.4-3.1-4.7-1.6-1.3-3.5-1.9-5.6-1.9h0c-1.7,0-3.3.4-4.6,1.2-1.3.8-2.3,1.9-3.1,3.3-.7,1.4-1.1,3-1.1,4.7h0c0,1.7.4,3.2,1.3,4.5.9,1.3,2,2.3,3.3,3,1.3.7,2.7,1,4.2,1h0c1.2,0,2.2-.1,3.2-.4,1-.3,1.9-.6,2.7-1.2.8-.5,1.6-1.2,2.2-2h0l3,2.5c-.8,1-1.8,1.9-3,2.7-1.2.8-2.4,1.3-3.7,1.7-1.3.4-2.6.6-3.8.6Z"/>
  <path class="st0" d="M455.5,213.1h0c0-1.4.1-2.9.3-4.4.2-1.6.5-2.8.9-3.8h0c.6-1.6,1.7-2.3,3.2-2.3h0c1.1,0,1.9.3,2.6,1,.7.6,1,1.7,1,3.1h0c0,1-.1,2.1-.4,3.5-.3,1.4-.4,2.6-.4,3.6h0c0,2.3.3,4,.9,5s1.8,1.5,3.6,1.5h0c1.1,0,2-.4,2.7-1.1s1.4-2.3,2.1-4.5h0c1.2-4.1,2.8-7.1,4.6-8.9,1.8-1.8,4.2-2.8,7.1-2.8h0c2.5,0,4.7.6,6.4,1.7,1.8,1.1,3.1,2.7,4,4.7s1.4,4.3,1.4,6.8h0c0,3-.4,5.5-1.2,7.5h0c-.6,1.6-1.6,2.3-3.2,2.3h0c-1.1,0-1.9-.3-2.6-1s-1-1.7-1-3.1h0c0-.9,0-1.9.3-3,.2-1.1.3-2.1.3-3.2h0c0-1.6-.3-2.8-.8-3.6-.6-.8-1.5-1.2-2.8-1.2h0c-1.2,0-2.3.6-3.2,1.7-1,1.2-1.9,3.3-2.8,6.4h0c-1,3.5-2.4,5.9-4.2,7.3-1.8,1.3-4,2-6.7,2h0c-3.9,0-6.9-1.3-9-3.9-2.1-2.6-3.1-6.3-3.1-11.1ZM455.5,247.2h0c0-3.7.6-6.6,1.8-8.7,1.2-2.1,2.9-3.6,5.1-4.4,2.2-.9,4.6-1.3,7.4-1.3h0c5.1,0,8.8,1.1,11,3.4,2.2,2.3,3.4,5.3,3.4,9.1h0c0,2.3-.4,4.3-1.2,6.1s-1.9,3.2-3.3,4.2c-1.4,1-3.2,1.5-5.2,1.5h0c-5.9,0-8.9-4.2-8.9-12.7h0v-3.2c-1.2.3-2.1.8-2.7,1.5-.7.7-1,1.9-1,3.6h0c0,1,0,1.7.2,2.3.1.6.2,1.2.3,1.7.1.5.2,1.2.2,1.9h0c0,1-.2,1.8-.5,2.4-.3.6-1.1.9-2.1.9h0c-1.5,0-2.6-.7-3.4-2-.7-1.3-1.1-3.4-1.1-6.3ZM469.7,240.7h0c.4.3.7.6.8,1,.1.4.2.9.2,1.7h0c0,2.2.2,3.7.6,4.5.4.8,1.2,1.2,2.3,1.2h0c1.4,0,2.5-.4,3.3-1.2.8-.8,1.1-1.8,1.1-2.9h0c0-1.4-.6-2.5-1.7-3.2-1.1-.8-3.4-1.2-6.6-1.2ZM455.5,266h0c0-2.7,1.3-4,3.8-4h13.4c3.6,0,6.4,1.1,8.5,3.4,2.1,2.3,3.1,5.3,3.1,9h0c0,3.7-1,6.8-3.1,9-2.1,2.3-4.9,3.4-8.5,3.4h-13.4c-2.5,0-3.8-1.3-3.8-4h0c0-2.7,1.3-4,3.8-4h12.9c1.7,0,3.1-.4,4-1.2.9-.8,1.4-1.9,1.4-3.3h0c0-1.4-.5-2.5-1.4-3.3-.9-.8-2.2-1.2-4-1.2h-12.9c-2.5,0-3.8-1.3-3.8-4ZM455.5,302.9h0c0-7,1.5-10.5,4.6-10.5h0c1,0,1.7.3,2.3.8.6.5.8,1.2.8,2.1h0c0,.4,0,.7-.1,1.1,0,.4-.3,1-.6,2.1h0c-.2.4-.3,1-.5,1.8-.1.7-.2,1.5-.2,2.2h0c0,1.3.2,2.3.5,2.8.3.6.9.8,1.7.8h0c.6,0,1.1-.1,1.5-.4.4-.3.7-.9,1-1.9.3-1,.8-2.5,1.4-4.5h0c.5-1.9,1.5-3.4,2.8-4.5,1.4-1.1,3-1.7,5-1.7h0c2.8,0,5,1,6.5,3.1,1.5,2,2.2,4.8,2.2,8.4h0c0,2.7-.4,4.8-1.1,6.3-.7,1.5-1.8,2.3-3.2,2.3h0c-.9,0-1.6-.3-2.2-.8-.6-.5-.9-1.2-.9-2.1h0c0-.4,0-.8.2-1.3.1-.5.3-1.1.4-1.8h0c.2-.5.3-1.1.5-1.6.1-.6.2-1.2.2-1.8h0c0-1.8-.6-2.7-1.9-2.7h0c-.7,0-1.4.4-1.9,1.1-.5.7-1,2.1-1.6,4.1h0c-.8,2.7-1.9,4.8-3.3,6.1-1.4,1.3-3.1,2-5.4,2h0c-2.6,0-4.7-1-6.2-3-1.6-2-2.4-4.7-2.4-8.2ZM455.5,323.8h0c0-1.4.3-2.5,1-3.1.7-.6,1.6-.9,2.8-.9h21.1c1.2,0,2.1.3,2.8.9.7.6,1,1.6,1,3.1h0c0,1.4-.3,2.5-1,3.1-.7.6-1.6.9-2.8.9h-21.1c-1.1,0-2.1-.3-2.8-.9-.7-.6-1-1.6-1-3.1ZM488,317.3h0c0-.5.2-.9.6-1.4.4-.4.8-.6,1.3-.6h0c.3,0,.6,0,.9.3.3.2.6.5.8,1h0c0,.1.3.6.8,1.2.4.7.9,1.5,1.6,2.4.6.9,1.2,1.9,1.9,3,.7,1,1.3,1.9,1.9,2.8h0c.2.3.3.6.4.8,0,.3.1.5.1.7h0c0,.9-.4,1.6-1.1,2.2-.7.6-1.6.9-2.6.9h0c-.7,0-1.3-.2-1.9-.7-.5-.4-1.1-1.2-1.6-2.2h0c-.3-.6-.7-1.5-1-2.5-.4-1-.7-2.1-1-3.2-.3-1.1-.6-2.1-.8-2.9-.2-.9-.3-1.4-.3-1.8ZM455.5,344.8h0c0-.7.2-1.5.5-2.3.3-.8.9-1.6,1.7-2.3.8-.7,2-1.3,3.6-1.8h0l18.3-5.8c.9-.3,1.6-.2,2.4.1.7.3,1.3.9,1.7,1.6.4.7.6,1.6.6,2.4h0c0,.8-.2,1.6-.6,2.2-.4.7-1,1.2-1.9,1.4h0l-18.4,5.5c2.3,1.4,4.7,2.4,7,2.8,2.3.5,4.6.7,6.7.7h0c.7,0,1.3,0,2,0,.6,0,1.3,0,1.9,0h0c1.1,0,1.9.4,2.5,1.3.6.9.9,1.8.9,2.9h0c0,2.2-1.1,3.5-3.2,3.8h0c-.4,0-.9.1-1.5.2-.6,0-1.3,0-2.1,0h0c-1.3,0-2.7-.1-4.4-.4-1.7-.2-3.5-.7-5.4-1.3-1.9-.6-3.9-1.6-5.9-2.9h0c-1.8-1.2-3.1-2.2-4.1-3.1-.9-.9-1.6-1.8-1.9-2.6-.3-.8-.5-1.6-.5-2.4ZM455.5,375.3h0c0-3.7.6-6.6,1.8-8.7,1.2-2.1,2.9-3.6,5.1-4.4,2.2-.9,4.6-1.3,7.4-1.3h0c5.1,0,8.8,1.1,11,3.4,2.2,2.3,3.4,5.3,3.4,9.1h0c0,2.3-.4,4.3-1.2,6.1-.8,1.8-1.9,3.2-3.3,4.2s-3.2,1.5-5.2,1.5h0c-5.9,0-8.9-4.2-8.9-12.7h0v-3.2c-1.2.3-2.1.8-2.7,1.5-.7.7-1,1.9-1,3.6h0c0,1,0,1.7.2,2.3.1.6.2,1.2.3,1.7.1.5.2,1.2.2,1.9h0c0,1-.2,1.8-.5,2.4-.3.6-1.1.9-2.1.9h0c-1.5,0-2.6-.7-3.4-2-.7-1.3-1.1-3.4-1.1-6.3ZM469.7,368.9h0c.4.3.7.6.8,1,.1.4.2,1,.2,1.7h0c0,2.2.2,3.7.6,4.5.4.8,1.2,1.3,2.3,1.2h0c1.4,0,2.5-.4,3.3-1.2.8-.8,1.1-1.8,1.1-2.9h0c0-1.4-.6-2.4-1.7-3.2-1.1-.8-3.4-1.2-6.6-1.2ZM494,398.4h-34.8c-2.5,0-3.7-1.3-3.7-3.9h0c0-1.3.3-2.3,1-3,.6-.7,1.6-1.1,2.8-1.1h34.8c1.3,0,2.4.3,3.2.9s1.2,1.6,1.2,3.1h0c0,1.4-.4,2.5-1.2,3.1s-1.8.9-3.2.9h0Z"/>
  <path class="st1" d="M582.8,437.9h-2.7c-1.2,0-1.9-.6-1.9-1.9h0c0-.6.2-1.1.5-1.5.3-.4.8-.5,1.4-.5h11.9c2.1,0,3.6.5,4.7,1.6,1,1.1,1.6,2.9,1.6,5.5h0c0,1.9-.5,3.4-1.5,4.5-1,1.1-2.7,1.6-4.9,1.6h0c-2,0-3.5-.5-4.5-1.5-1-1-1.6-2.5-1.6-4.4h0c0-1.1,0-1.8-.2-2.3-.2-.5-.4-.8-.9-.9-.4-.1-1-.2-1.8-.2h0ZM588.1,437.6h0c.2.2.3.4.5.6.1.2.2.5.3.8,0,.3.1.8.1,1.4h0c0,.8,0,1.4.2,1.9.1.5.4.8.8,1s1,.3,1.7.3h0c1,0,1.7-.1,2.1-.4.5-.2.8-.5.9-1,.1-.4.2-.9.2-1.5h0c0-1.1-.2-1.8-.6-2.3-.4-.4-1.1-.7-2-.7h0c-.7,0-1.4,0-2.3,0-.8,0-1.5-.1-2-.2ZM578.2,454.8h0c0-1.9.4-3.3,1.3-4.3.9-1,2-1.5,3.4-1.5h0c1.6,0,2.8.7,3.5,2,.7,1.4,1,3.4.8,6h0c.9-.1,1.4-.4,1.7-.8.3-.4.5-.9.5-1.5h0c0-.5,0-.8,0-1.1,0-.3,0-.6-.2-.9,0-.3,0-.6,0-.9h0c0-.5,0-.9.3-1.2.2-.3.5-.4,1.1-.4h0c.8,0,1.3.3,1.7,1,.4.7.5,1.7.5,3.1h0c0,2.3-.6,3.9-1.9,5-1.3,1.1-3,1.6-5.2,1.6h0c-2.5,0-4.3-.5-5.5-1.4-1.2-.9-1.8-2.5-1.8-4.7ZM582.8,452.9h0c-1.1,0-1.6.7-1.6,2.1h0c0,.5,0,.8.2,1.1s.5.4,1,.6c.5.1,1.3.2,2.3.3h0c0,0-.2-.2-.2-.4,0-.1,0-.3,0-.4h0c0-1.2-.1-2.1-.3-2.6-.2-.5-.7-.7-1.3-.7ZM578.2,465.5h0c0-1.3.6-2,1.9-2h10.5c1.3,0,1.9.7,1.9,2h0c0,.7-.1,1.1-.4,1.4-.3.3-.8.4-1.4.4h0c.6.3,1.1.8,1.4,1.4.3.6.5,1.4.5,2.2h0c0,1.6-.7,2.4-2.1,2.4h0c-.5,0-.9-.2-1.2-.6-.3-.4-.4-1-.4-1.9h0c0-.9,0-1.6-.2-2.1-.2-.5-.4-.8-.9-1-.4-.2-1-.3-1.8-.3h-5.9c-1.3,0-1.9-.7-1.9-2ZM578.2,480.1h0c0-1.9.4-3.3,1.3-4.3.9-1,2-1.6,3.4-1.6h0c1.6,0,2.8.7,3.5,2,.7,1.4,1,3.4.8,6h0c.9-.1,1.4-.4,1.7-.8.3-.4.5-.9.5-1.5h0c0-.5,0-.9,0-1.2,0-.3,0-.6-.2-.9,0-.3,0-.6,0-.9h0c0-.5,0-.9.3-1.2.2-.3.5-.4,1.1-.4h0c.8,0,1.3.3,1.7,1,.4.7.5,1.7.5,3.1h0c0,2.3-.6,3.9-1.9,5-1.3,1.1-3,1.6-5.2,1.6h0c-2.5,0-4.3-.4-5.5-1.3-1.2-.9-1.8-2.5-1.8-4.7ZM582.8,478.2h0c-1.1,0-1.6.7-1.6,2.1h0c0,.5,0,.8.2,1.1s.5.4,1,.6,1.3.2,2.3.3h0c0,0-.2-.2-.2-.4,0-.1,0-.3,0-.4h0c0-1.2-.1-2.1-.3-2.6-.2-.5-.7-.7-1.3-.7ZM597.4,499h-17.4c-1.2,0-1.9-.6-1.9-1.9h0c0-.6.2-1.1.5-1.5.3-.4.8-.6,1.4-.6h17.4c.7,0,1.2.2,1.6.5.4.3.6.8.6,1.5h0c0,.7-.2,1.2-.6,1.5-.4.3-.9.5-1.6.5h0ZM578.2,509h0c0-1.9.3-3.3.9-4.4.6-1,1.5-1.8,2.5-2.2,1.1-.4,2.3-.7,3.7-.7h0c2.6,0,4.4.6,5.5,1.7,1.1,1.1,1.7,2.7,1.7,4.6h0c0,1.2-.2,2.2-.6,3.1-.4.9-.9,1.6-1.7,2.1-.7.5-1.6.8-2.6.8h0c-3,0-4.5-2.1-4.5-6.3h0v-1.6c-.6.2-1,.4-1.3.7-.3.3-.5,1-.5,1.8h0c0,.5,0,.9,0,1.2,0,.3.1.6.2.9,0,.3,0,.6,0,.9h0c0,.5,0,.9-.3,1.2-.2.3-.5.4-1.1.4h0c-.8,0-1.3-.3-1.7-1-.4-.7-.5-1.7-.5-3.1ZM585.3,505.8h0c.2.1.3.3.4.5,0,.2,0,.5,0,.9h0c0,1.1.1,1.9.3,2.3s.6.6,1.2.6h0c.7,0,1.2-.2,1.6-.6.4-.4.6-.9.6-1.5h0c0-.7-.3-1.2-.9-1.6-.6-.4-1.7-.6-3.3-.6ZM578.2,518.4h0c0-1.3.6-2,1.9-2h10.5c1.3,0,1.9.7,1.9,2h0c0,.7-.1,1.1-.4,1.4-.3.3-.8.5-1.4.5h0c.6.3,1.1.8,1.4,1.4.3.6.5,1.3.5,2.2h0c0,1.6-.7,2.4-2.1,2.4h0c-.5,0-.9-.2-1.2-.6-.3-.4-.4-1-.4-1.9h0c0-.9,0-1.6-.2-2.1-.2-.5-.4-.8-.9-1-.4-.2-1-.3-1.8-.3h-5.9c-1.3,0-1.9-.7-1.9-2ZM578.2,540.6h0c0-1.9.3-3.3.9-4.3.6-1.1,1.5-1.8,2.5-2.2,1.1-.4,2.3-.6,3.7-.6h0c2.6,0,4.4.6,5.5,1.7,1.1,1.1,1.7,2.7,1.7,4.6h0c0,1.2-.2,2.2-.6,3.1-.4.9-.9,1.6-1.7,2.1-.7.5-1.6.8-2.6.8h0c-3,0-4.5-2.1-4.5-6.3h0v-1.6c-.6.1-1,.4-1.3.7-.3.3-.5,1-.5,1.8h0c0,.5,0,.9,0,1.2,0,.3.1.6.2.8,0,.3,0,.6,0,.9h0c0,.5,0,.9-.3,1.2-.2.3-.5.5-1.1.5h0c-.8,0-1.3-.3-1.7-1-.4-.7-.5-1.7-.5-3.1ZM585.3,537.4h0c.2.1.3.3.4.5,0,.2,0,.5,0,.9h0c0,1.1.1,1.9.3,2.3.2.4.6.6,1.2.6h0c.7,0,1.2-.2,1.6-.6.4-.4.6-.9.6-1.5h0c0-.7-.3-1.2-.9-1.6-.6-.4-1.7-.6-3.3-.6ZM578.2,556.1h0c0-1.3.6-2,1.9-2h10.5c1.3,0,1.9.7,1.9,2h0c0,.7-.1,1.2-.4,1.5-.3.3-.8.4-1.4.4h0c.6.3,1.1.8,1.4,1.4.3.6.5,1.3.5,2.2h0c0,1.6-.7,2.4-2.1,2.4h0c-.5,0-.9-.2-1.2-.6-.3-.4-.4-1-.4-1.9h0c0-.9,0-1.6-.2-2.1-.2-.5-.4-.8-.9-1-.4-.2-1-.3-1.8-.3h-5.9c-1.3,0-1.9-.7-1.9-2ZM578.2,572.2h0c0-1.9.3-3.3.9-4.3.6-1,1.5-1.8,2.5-2.2,1.1-.4,2.3-.6,3.7-.6h0c2.6,0,4.4.6,5.5,1.7,1.1,1.1,1.7,2.6,1.7,4.6h0c0,1.1-.2,2.2-.6,3.1-.4.9-.9,1.6-1.7,2.1-.7.5-1.6.8-2.6.8h0c-3,0-4.5-2.1-4.5-6.3h0v-1.6c-.6.1-1,.4-1.3.7-.3.3-.5.9-.5,1.8h0c0,.5,0,.9,0,1.2,0,.3.1.6.2.8,0,.3,0,.6,0,.9h0c0,.5,0,.9-.3,1.2-.2.3-.5.5-1.1.5h0c-.8,0-1.3-.3-1.7-1-.4-.7-.5-1.7-.5-3.1ZM585.3,569h0c.2.2.3.3.4.5,0,.2,0,.5,0,.9h0c0,1.1.1,1.8.3,2.3.2.4.6.6,1.2.6h0c.7,0,1.2-.2,1.6-.6.4-.4.6-.9.6-1.5h0c0-.7-.3-1.2-.9-1.6-.6-.4-1.7-.6-3.3-.6ZM597.4,583.7h-17.4c-1.2,0-1.9-.6-1.9-2h0c0-.6.2-1.1.5-1.5.3-.4.8-.6,1.4-.6h17.4c.7,0,1.2.2,1.6.5.4.3.6.8.6,1.5h0c0,.7-.2,1.2-.6,1.5-.4.3-.9.5-1.6.5h0ZM578.2,593.7h0c0-1.9.3-3.3.9-4.4.6-1,1.5-1.8,2.5-2.2,1.1-.4,2.3-.7,3.7-.7h0c2.6,0,4.4.6,5.5,1.7,1.1,1.1,1.7,2.6,1.7,4.6h0c0,1.1-.2,2.2-.6,3.1-.4.9-.9,1.6-1.7,2.1-.7.5-1.6.8-2.6.8h0c-3,0-4.5-2.1-4.5-6.3h0v-1.6c-.6.1-1,.4-1.3.7-.3.3-.5.9-.5,1.8h0c0,.5,0,.9,0,1.2,0,.3.1.6.2.8,0,.3,0,.6,0,.9h0c0,.5,0,.9-.3,1.2-.2.3-.5.5-1.1.5h0c-.8,0-1.3-.3-1.7-1-.4-.7-.5-1.7-.5-3.1ZM585.3,590.5h0c.2.2.3.3.4.5,0,.2,0,.5,0,.9h0c0,1.1.1,1.8.3,2.3.2.4.6.6,1.2.6h0c.7,0,1.2-.2,1.6-.6.4-.4.6-.9.6-1.5h0c0-.7-.3-1.2-.9-1.6-.6-.4-1.7-.6-3.3-.6ZM578.2,603.1h0c0-1.3.6-2,1.9-2h10.5c1.3,0,1.9.7,1.9,2h0c0,.7-.1,1.2-.4,1.5-.3.3-.8.4-1.4.4h0c.6.3,1.1.8,1.4,1.4.3.6.5,1.3.5,2.2h0c0,1.6-.7,2.4-2.1,2.4h0c-.5,0-.9-.2-1.2-.6-.3-.4-.4-1-.4-1.9h0c0-.9,0-1.6-.2-2.1-.2-.5-.4-.8-.9-1-.4-.2-1-.3-1.8-.3h-5.9c-1.3,0-1.9-.7-1.9-2Z"/>
  <path class="st4" d="M373.6,532.9h-15.4v-.3h0c.7,0,1.2-.2,1.6-.5.4-.3.6-.9.6-1.5h0v-16c0-.7-.2-1.2-.6-1.6-.4-.4-.9-.6-1.6-.6h0v-.3s14.9,0,14.9,0l.8,5.6h-.3c-.6-3.5-2.8-5.2-6.6-5.2h-2.3v8h2.5c.9,0,1.7-.3,2.2-.8.6-.6.8-1.3.8-2.2h.3v6.8h-.3c0-1-.3-1.8-.9-2.4-.6-.6-1.4-1-2.4-1h-2.2v9.8c0,1.3.6,2,1.9,2h1.2c1.8,0,3.2-.5,4.3-1.4,1.1-.9,1.7-2.4,2-4.4h.3l-.8,6.1ZM383.3,532.9h-8.5v-.3h0c.7,0,1.2-.2,1.6-.6.4-.4.6-.9.6-1.6h0v-9.1c0-.7-.1-1.2-.4-1.6-.3-.4-.9-.6-1.8-.6h0v-.3h2.8c.9,0,1.7-.1,2.2-.3h0c.5-.2.8-.5,1-.8h.3v3.9c.5-1,1.2-1.7,2.2-2.3,1-.6,2-.9,3.1-.9h0c1.2,0,2.2.4,3,1.2.7.8,1.1,1.9,1.1,3.2h0v7.6c0,.7.2,1.2.6,1.6.4.4.9.6,1.6.6h0v.3h-8.5v-.3h0c.7,0,1.2-.2,1.6-.6.4-.4.6-.9.6-1.6h0v-7.8c0-.9-.2-1.7-.5-2.2-.4-.6-.8-.8-1.4-.8h0c-.6,0-1.2.2-1.8.7-.6.5-1.2,1.2-1.6,2h0v8.2c0,.7.2,1.2.6,1.6.4.4.9.6,1.6.6h0v.3ZM398.9,533.3h0c-1.3,0-2.4-.3-3.4-.9-1-.6-1.7-1.5-2.3-2.6-.5-1.1-.8-2.4-.8-3.8h0c0-1.5.3-2.8.9-3.9.6-1.1,1.4-2,2.5-2.7s2.3-1,3.6-1h0c1.6,0,2.8.4,3.9,1.3,1,.8,1.6,2,1.8,3.4h0l-3.3,1.9c0-1.9-.2-3.4-.7-4.5h0c-.5-1.1-1.2-1.6-2-1.6h0c-.6,0-1.1.2-1.5.7-.4.5-.8,1.1-1,2-.2.8-.4,1.7-.4,2.7h0c0,1.3.2,2.4.6,3.4.4,1,.9,1.7,1.6,2.3.7.5,1.5.8,2.5.8h0c.9,0,1.7-.2,2.5-.7s1.5-1,2-1.8h.3c-.3,1.1-.8,2-1.5,2.7-.7.8-1.5,1.3-2.4,1.8-.9.4-1.9.6-2.9.6ZM410.3,533.3h0c-1.1,0-2-.3-2.7-.9s-1-1.4-1-2.4h0c0-.4,0-.8.2-1.2s.4-.8.8-1.1h0c.4-.4,1-.8,1.8-1.2.7-.4,1.7-.8,3-1.3h0l2.6-.9v-2.1c0-1.1-.2-1.9-.5-2.5-.3-.6-.8-.9-1.4-.9h0c-.7,0-1.3.5-1.8,1.4-.5.9-.8,2.2-1,3.8h0l-3-1.7c.3-.8.8-1.4,1.4-2,.7-.6,1.4-1,2.2-1.3.8-.3,1.7-.5,2.7-.5h0c1.6,0,2.9.4,3.8,1.3,1,.9,1.5,2.1,1.5,3.6h0v6.7c0,1.1.4,1.6,1.1,1.6h0c.4,0,.8-.2,1.2-.7h0l.2.2c-.5.7-1.1,1.2-1.8,1.6-.7.4-1.3.6-2,.6h0c-.7,0-1.3-.2-1.8-.7-.5-.5-.8-1.1-1-1.9h0c-.9.9-1.7,1.6-2.4,2-.7.4-1.4.6-2.2.6ZM412.4,531.5h0c.4,0,.8-.1,1.2-.3.4-.2.8-.5,1.3-1h0v-5.6s-1.1.4-1.1.4c-.9.4-1.7.7-2.2,1.1s-.8.8-1,1.2c-.2.4-.3,1-.3,1.5h0c0,.8.2,1.5.6,2,.4.5.9.8,1.5.8ZM429.4,532.9h-8.5v-.3h0c.7,0,1.2-.2,1.6-.6.4-.4.6-.9.6-1.6h0v-9.1c0-.7-.1-1.2-.4-1.6-.3-.4-.9-.6-1.8-.6h0v-.3h2.8c.9,0,1.7-.1,2.2-.3h0c.5-.2.8-.5,1-.8h.3v3.9c.5-1,1.2-1.7,2.2-2.3,1-.6,2-.9,3.1-.9h0c1.2,0,2.2.4,3,1.2.7.8,1.1,1.9,1.1,3.2h0v7.6c0,.7.2,1.2.6,1.6.4.4.9.6,1.6.6h0v.3h-8.5v-.3h0c.7,0,1.2-.2,1.6-.6.4-.4.6-.9.6-1.6h0v-7.8c0-.9-.2-1.7-.6-2.2-.4-.6-.8-.8-1.4-.8h0c-.6,0-1.2.2-1.8.7s-1.2,1.2-1.6,2h0v8.2c0,.7.2,1.2.6,1.6.4.4.9.6,1.6.6h0v.3ZM443.2,533.3h0c-1,0-1.8-.3-2.4-.9-.6-.6-.9-1.4-.9-2.4h0v-10.7h-2.4v-.4c1.3,0,2.4-.5,3.4-1.2,1-.7,1.8-1.7,2.5-2.9h.4v4h3.7l-.3.5h-3.4v10.1c0,1.5.5,2.2,1.5,2.2h0c.3,0,.7,0,1.2-.3.4-.2.8-.5,1.2-.8h0v.3c-.6.8-1.3,1.4-2.2,1.9-.8.5-1.6.7-2.4.7ZM452.1,533.3h0c-1.1,0-2-.3-2.7-.9-.7-.6-1-1.4-1-2.4h0c0-.4,0-.8.2-1.2s.4-.8.8-1.1h0c.4-.4,1-.8,1.8-1.2.7-.4,1.7-.8,2.9-1.3h0l2.6-.9v-2.1c0-1.1-.2-1.9-.5-2.5-.3-.6-.8-.9-1.4-.9h0c-.7,0-1.3.5-1.8,1.4-.5.9-.8,2.2-1,3.8h0l-3-1.7c.3-.8.8-1.4,1.4-2,.6-.6,1.4-1,2.2-1.3.8-.3,1.7-.5,2.7-.5h0c1.6,0,2.9.4,3.8,1.3,1,.9,1.5,2.1,1.5,3.6h0v6.7c0,1.1.4,1.6,1.1,1.6h0c.4,0,.8-.2,1.2-.7h0l.2.2c-.5.7-1.1,1.2-1.8,1.6-.7.4-1.4.6-2,.6h0c-.7,0-1.3-.2-1.8-.7-.5-.5-.8-1.1-1-1.9h0c-.9.9-1.7,1.6-2.4,2-.7.4-1.4.6-2.2.6ZM454.2,531.5h0c.4,0,.8-.1,1.2-.3.4-.2.8-.5,1.3-1h0v-5.6s-1.1.4-1.1.4c-.9.4-1.7.7-2.2,1.1s-.8.8-1,1.2c-.2.4-.3,1-.3,1.5h0c0,.8.2,1.5.6,2,.4.5.9.8,1.5.8ZM473.6,533.9h-.3v-4c-.5,1-1.1,1.8-2,2.4-.9.6-1.8.9-2.9.9h0c-1,0-1.9-.3-2.7-.9-.8-.6-1.4-1.5-1.9-2.6-.5-1.1-.7-2.3-.7-3.7h0c0-1.6.3-2.9.9-4.1.6-1.2,1.4-2,2.4-2.7,1-.6,2.2-.9,3.6-.9h0c.8,0,1.4.1,1.9.4.5.2.9.6,1.3,1.2h0v-5.4c0-.7-.2-1.2-.6-1.6-.4-.4-1-.6-1.6-.6h0v-.3h2.8c.9,0,1.6,0,2.1-.3.5-.2.8-.4,1-.8h.3v19.4c0,.7.2,1.2.6,1.6.4.4,1,.6,1.6.6h0v.3h-2.8c-.8,0-1.5,0-1.9.2-.5.2-.8.4-1.1.8h0ZM469.9,532.2h0c.4,0,.9-.1,1.3-.4.4-.3.8-.6,1.2-1.1s.6-.9.8-1.4h0v-6.8c0-1.1-.4-2-.8-2.7-.5-.7-1-1-1.8-1h0c-1,0-1.7.6-2.2,1.8h0c-.5,1.2-.8,3-.8,5.4h0c0,4.1.8,6.1,2.4,6.1ZM487.1,533.3h0c-1.5,0-2.9-.3-4-.9-1.1-.6-2-1.5-2.7-2.6-.6-1.1-1-2.4-1-4h0c0-1.5.3-2.8,1-4,.6-1.1,1.5-2,2.7-2.6,1.1-.6,2.5-.9,4-.9h0c1.5,0,2.8.3,4,.9,1.1.6,2,1.5,2.6,2.6.6,1.1.9,2.4.9,4h0c0,1.5-.3,2.8-.9,4-.6,1.1-1.5,2-2.6,2.6-1.1.6-2.5.9-4,.9ZM487.1,532.9h0c.6,0,1.2-.3,1.7-1,.5-.7.8-1.5,1.1-2.6.3-1.1.4-2.3.4-3.5h0c0-1.4-.1-2.6-.4-3.7-.3-1.1-.6-1.9-1.1-2.5-.5-.6-1-.9-1.6-.9h0c-.6,0-1.2.3-1.7,1-.5.6-.8,1.5-1.1,2.6-.3,1.1-.4,2.2-.4,3.5h0c0,1.4.1,2.6.4,3.7.3,1.1.7,1.9,1.1,2.5.5.6,1,.9,1.6.9ZM503.6,532.9h-8.5v-.3h0c.7,0,1.2-.2,1.6-.6.4-.4.6-.9.6-1.6h0v-9.1c0-.7-.1-1.2-.4-1.6-.3-.4-.9-.6-1.8-.6h0v-.3h2.8c1,0,1.7,0,2.2-.3.5-.2.9-.5,1.1-.8h.1v4.6c.3-.6.6-1.1,1-1.8.4-.6.9-1.1,1.4-1.5.6-.4,1.3-.6,2.1-.6h0c.3,0,.6,0,.9,0,.3,0,.7.2,1,.3h0l-1.1,3.3c-.7-.4-1.2-.6-1.7-.8-.5-.1-.9-.2-1.3-.2h0c-.6,0-1.1.2-1.4.6-.3.4-.6.9-.8,1.4h0v7.4c0,.7.2,1.2.6,1.6.4.4,1,.6,1.6.6h0v.3Z"/>
  <path class="st4" d="M578.3,289v-8.8h.3c0,.7.2,1.2.6,1.6.4.4.9.6,1.6.6h15.8c.7,0,1.2-.2,1.6-.6.4-.4.6-1,.6-1.6h.3v9.3c0,1.4-.3,2.7-.7,3.8-.5,1.1-1.1,1.9-2,2.5-.8.6-1.8.9-2.9.9h0c-1.1,0-2.1-.3-3-.9-.8-.6-1.5-1.5-2-2.6-.5-1.1-.7-2.4-.7-3.9h0v-2.6h-7.1c-.7,0-1.2.2-1.6.6-.4.4-.6,1-.6,1.6h0s-.3,0-.3,0ZM598.8,286.7h-10.6v1.6c0,.8.2,1.5.7,2.1.5.6,1.1,1,1.9,1.4.8.3,1.7.5,2.7.5h0c1,0,1.9-.2,2.7-.5.8-.3,1.4-.8,1.9-1.4.5-.6.7-1.3.7-2.1h0v-1.6ZM578.3,305.8v-8.5h.3c0,.7.2,1.2.6,1.6.4.4.9.6,1.6.6h9.1c.7,0,1.3-.1,1.6-.4.4-.3.6-.9.6-1.8h.3v2.8c0,1,0,1.7.3,2.2.2.5.4.9.8,1.1h0c0,.1-4.6.2-4.6.2.6.2,1.1.6,1.8.9.6.4,1.1.9,1.5,1.4.4.6.6,1.3.6,2.1h0c0,.3,0,.6,0,.9,0,.3-.2.7-.3,1h0l-3.2-1.1c.4-.7.6-1.2.8-1.7.1-.5.2-.9.2-1.3h0c0-.6-.2-1.1-.6-1.4-.4-.3-.9-.6-1.4-.8h-7.4c-.7,0-1.2.2-1.6.6-.4.4-.6,1-.6,1.6h0s-.3,0-.3,0ZM578.3,318.4v-8.5h.3c0,.7.2,1.2.6,1.6.4.4.9.6,1.6.6h9.1c.7,0,1.3-.1,1.6-.4.4-.3.6-.9.6-1.8h.3v2.8c0,.9.1,1.7.3,2.2h0c.2.5.5.8.8,1h0v.3h-12.7c-.7,0-1.2.2-1.6.6-.4.4-.6.9-.6,1.6h0s-.3,0-.3,0ZM595.3,314.2h0c0-.7.2-1.2.7-1.7.4-.4,1-.6,1.6-.6h0c.7,0,1.2.2,1.7.6.4.4.6,1,.6,1.7h0c0,.6-.2,1.2-.7,1.6-.4.4-1,.7-1.6.7h0c-.6,0-1.2-.2-1.6-.7-.4-.4-.7-1-.7-1.6ZM578.3,326.7v-8.5h.3c0,.7.2,1.2.6,1.6.4.4.9.6,1.6.6h9.1c.7,0,1.3-.1,1.6-.4.4-.3.6-.9.6-1.8h.3v2.8c0,.8,0,1.4.1,1.8,0,.4.2.7.3.9.1.2.2.3.4.4h0v.3h-3.6c1,.5,1.7,1.2,2.3,2.2.6,1,.9,2,.9,3.1h0c0,1.1-.3,1.9-.9,2.6-.6.7-1.4,1.2-2.4,1.4h0c1,.5,1.8,1.3,2.4,2.2s.9,2,.9,3.2h0c0,1.2-.4,2.2-1.2,3-.8.8-1.9,1.1-3.2,1.1h-7.6c-.7,0-1.2.2-1.6.6-.4.4-.6.9-.6,1.6h0s-.3,0-.3,0v-8.5h.3c0,.7.2,1.2.6,1.6.4.4.9.6,1.6.6h7.8c.9,0,1.7-.2,2.2-.5.6-.4.8-.9.8-1.5h0c0-.6-.3-1.2-.8-1.8-.5-.6-1.2-1.2-2-1.6h0s0,0-.1,0h-8c-.7,0-1.2.2-1.6.6-.4.4-.6.9-.6,1.6h0s-.3,0-.3,0v-8.5h.3c0,.7.2,1.2.6,1.6.4.4.9.6,1.6.6h7.8c.9,0,1.7-.2,2.2-.5.6-.4.8-.8.8-1.4h0c0-.6-.2-1.2-.7-1.8-.5-.6-1.2-1.2-2-1.6h-8.2c-.7,0-1.2.2-1.6.6-.4.4-.6.9-.6,1.6h0s-.3,0-.3,0ZM577.9,353.2h0c0-1.5.3-2.9.9-4,.6-1.1,1.5-2,2.6-2.6,1.1-.6,2.4-1,4-1h0c1.5,0,2.8.3,3.9,1,1.1.6,2,1.5,2.6,2.6s.9,2.5.9,4h0c0,1.5-.3,2.9-.9,4-.6,1.1-1.5,2-2.6,2.6-1.1.6-2.4.9-3.9.9h0c-1.5,0-2.8-.3-4-.9-1.1-.6-2-1.5-2.6-2.6-.6-1.1-.9-2.5-.9-4ZM578.3,353.2h0c0,.6.3,1.2,1,1.7.7.5,1.5.8,2.6,1.1,1.1.3,2.3.4,3.6.4h0c1.4,0,2.6-.1,3.7-.4,1.1-.3,1.9-.6,2.5-1.1.6-.5.9-1,.9-1.6h0c0-.6-.3-1.2-1-1.7s-1.5-.8-2.6-1.1c-1.1-.3-2.2-.4-3.5-.4h0c-1.4,0-2.7.1-3.7.4-1.1.3-1.9.7-2.5,1.1-.6.5-.9,1-.9,1.6ZM578.3,369.7v-8.5h.3c0,.7.2,1.2.6,1.6.4.4.9.6,1.6.6h9.1c.7,0,1.3-.1,1.6-.4.4-.3.6-.9.6-1.8h.3v2.8c0,1,0,1.7.3,2.2.2.5.4.9.8,1.1h0c0,.1-4.6.2-4.6.2.6.2,1.1.6,1.8.9.6.4,1.1.9,1.5,1.4.4.6.6,1.3.6,2.1h0c0,.3,0,.6,0,.9s-.2.6-.3,1h0l-3.2-1.1c.4-.7.6-1.2.8-1.7s.2-.9.2-1.3h0c0-.6-.2-1.1-.6-1.4-.4-.3-.9-.6-1.4-.8h-7.4c-.7,0-1.2.2-1.6.6-.4.4-.6.9-.6,1.6h0s-.3,0-.3,0ZM577.9,381.2h0c0-1.5.3-2.8.9-4,.6-1.1,1.5-2,2.6-2.7,1.1-.6,2.4-.9,4-.9h0c1.5,0,2.8.3,3.9.9,1.1.6,2,1.5,2.6,2.7s.9,2.5.9,4h0c0,1.5-.3,2.8-.9,4-.6,1.1-1.5,2-2.6,2.6-1.1.6-2.4,1-3.9,1h0c-1.5,0-2.8-.3-4-1-1.1-.6-2-1.5-2.6-2.6-.6-1.1-.9-2.5-.9-4ZM578.3,381.1h0c0,.7.3,1.2,1,1.7.7.5,1.5.8,2.6,1.1,1.1.3,2.3.4,3.6.4h0c1.4,0,2.6-.1,3.7-.4,1.1-.3,1.9-.6,2.5-1.1.6-.5.9-1,.9-1.6h0c0-.6-.3-1.2-1-1.6-.6-.5-1.5-.8-2.6-1.1-1.1-.3-2.2-.4-3.5-.4h0c-1.4,0-2.7.1-3.7.4-1.1.3-1.9.7-2.5,1.1s-.9,1-.9,1.6ZM577.9,394.9h0c0-.5,0-.8,0-1.1,0-.2,0-.5.1-.7,0-.2,0-.5.1-.8s0-.9,0-1.6h0l5.2-.7v.4c-1.7.3-3.1.8-3.9,1.7-.9.8-1.3,1.7-1.3,2.7h0c0,.9.2,1.7.6,2.2.4.5.9.7,1.6.7h0c.4,0,.8-.1,1.1-.3.3-.2.7-.6,1-1.1.3-.5.8-1.2,1.2-2.1h0l.4-.8c.6-1,1.2-1.8,2-2.3.8-.5,1.6-.7,2.5-.7h0c1.3,0,2.3.5,3,1.4.7.9,1.1,2.2,1.1,3.7h0c0,.4,0,.7,0,.9,0,.2,0,.5-.1.7,0,.2,0,.5-.1.8,0,.3,0,.8,0,1.3h0l-4.5.4v-.3c.9-.1,1.6-.4,2.3-.7.7-.4,1.2-.8,1.6-1.4.4-.5.6-1,.6-1.6h0c0-.7-.2-1.3-.6-1.7-.4-.4-.9-.6-1.6-.6h0c-.5,0-1,.2-1.4.5-.4.3-.9,1-1.4,1.9h0l-.4.8c-.7,1.3-1.4,2.2-2.1,2.8-.7.6-1.6.9-2.8.9h0c-2.9,0-4.4-1.7-4.4-5.2ZM577.9,409.1h0c0-1.5.3-2.9.9-4,.6-1.1,1.5-2,2.6-2.7,1.1-.6,2.4-.9,4-.9h0c1.5,0,2.8.3,3.9.9,1.1.6,2,1.5,2.6,2.7.6,1.1.9,2.5.9,4h0c0,1.5-.3,2.8-.9,4s-1.5,2-2.6,2.6c-1.1.6-2.4,1-3.9,1h0c-1.5,0-2.8-.3-4-1-1.1-.6-2-1.5-2.6-2.6-.6-1.1-.9-2.5-.9-4ZM578.3,409h0c0,.7.3,1.2,1,1.7.7.5,1.5.8,2.6,1.1,1.1.3,2.3.4,3.6.4h0c1.4,0,2.6-.1,3.7-.4,1.1-.3,1.9-.6,2.5-1.1.6-.5.9-1,.9-1.6h0c0-.6-.3-1.2-1-1.7s-1.5-.8-2.6-1.1c-1.1-.3-2.2-.4-3.5-.4h0c-1.4,0-2.7.1-3.7.4-1.1.3-1.9.7-2.5,1.1-.6.5-.9,1-.9,1.6Z"/>
  <path class="st4" d="M418.4,270.3v-4.7c0-.4.1-.7.4-.9.3-.2.6-.4,1-.4h12.4c1.9,0,3.4.5,4.4,1.6s1.5,2.6,1.5,4.5h0c0,5.2-3.4,7.8-10.1,7.8h0c-3.3,0-5.7-.6-7.3-1.9-1.6-1.3-2.4-3.3-2.4-6h0ZM433.1,268.4h-11.4v2c0,1.4.5,2.4,1.6,3,1.1.6,2.8.9,5.2.9h0c2.3,0,3.9-.3,4.8-.8,1-.6,1.4-1.5,1.4-2.9h0c0-1.4-.5-2.2-1.6-2.2h0ZM418.2,287.8h0c0-1.9.3-3.3.9-4.4.6-1,1.5-1.8,2.5-2.2,1.1-.4,2.3-.6,3.7-.6h0c2.6,0,4.4.6,5.5,1.7,1.1,1.1,1.7,2.7,1.7,4.6h0c0,1.2-.2,2.2-.6,3.1-.4.9-.9,1.6-1.7,2.1-.7.5-1.6.8-2.6.8h0c-3,0-4.4-2.1-4.4-6.3h0v-1.6c-.6.1-1,.4-1.4.7-.3.3-.5,1-.5,1.8h0c0,.5,0,.9,0,1.2,0,.3.1.6.2.9,0,.3,0,.6,0,.9h0c0,.5,0,.9-.3,1.2-.2.3-.5.4-1.1.4h0c-.8,0-1.3-.3-1.7-1-.4-.7-.5-1.7-.5-3.1ZM425.3,284.6h0c.2.1.3.3.4.5,0,.2.1.5.1.9h0c0,1.1.1,1.9.3,2.3.2.4.6.6,1.2.6h0c.7,0,1.2-.2,1.6-.6.4-.4.6-.9.6-1.5h0c0-.7-.3-1.2-.9-1.6-.6-.4-1.7-.6-3.3-.6ZM418.2,301.5h0c0-1.7.4-3,1.2-3.8.8-.8,2.1-1.2,3.8-1.2h5.8v-.7c0-1.3.6-1.9,1.7-1.9h0c1.1,0,1.7.6,1.7,1.9h0v.7h3c.6,0,1.1.2,1.5.6.4.4.6.9.6,1.5h0c0,.6-.2,1.1-.5,1.4-.4.3-.9.5-1.5.5h-1.4c-.7,0-1.3-.1-1.7-.3h0v2.6c0,1.3-.6,1.9-1.7,1.9h0c-1.1,0-1.7-.6-1.7-1.9h0v-2.3h-5.9c-.6,0-1,0-1.2.2-.2.1-.3.3-.3.6h0c0,.4,0,.7,0,.9,0,.2.1.4.1.7h0c0,.5,0,.9-.3,1.2-.2.3-.5.4-1.1.4h0c-.8,0-1.3-.2-1.7-.7-.4-.5-.5-1.2-.5-2.3ZM418.2,311.5h0c0-1.9.4-3.3,1.3-4.3.9-1,2-1.6,3.4-1.6h0c1.6,0,2.8.7,3.5,2.1.7,1.4,1,3.4.8,6h0c.9-.1,1.4-.4,1.7-.8.3-.4.5-.9.5-1.5h0c0-.5,0-.8,0-1.1,0-.3,0-.6-.1-.9,0-.3,0-.6,0-1h0c0-.5,0-.9.3-1.2.2-.3.5-.5,1.1-.4h0c.8,0,1.3.3,1.7,1,.4.7.5,1.7.5,3.1h0c0,2.3-.6,3.9-1.9,5-1.3,1.1-3,1.6-5.2,1.6h0c-2.5,0-4.3-.4-5.5-1.3-1.2-.9-1.8-2.5-1.8-4.7ZM422.8,309.6h0c-1.1,0-1.6.7-1.6,2.1h0c0,.5,0,.8.2,1.1.2.3.5.4,1,.6.5.1,1.3.2,2.3.3h0c0,0-.2-.2-.2-.4,0-.1,0-.3,0-.4h0c0-1.2-.1-2.1-.3-2.5-.2-.5-.7-.7-1.3-.7ZM437.4,324.3h-17.4c-1.2,0-1.9-.6-1.9-1.9h0c0-.6.2-1.1.5-1.5.3-.4.8-.6,1.4-.6h17.4c.7,0,1.2.2,1.6.5.4.3.6.8.6,1.5h0c0,.7-.2,1.2-.6,1.5-.4.3-.9.5-1.6.5h0ZM426.6,331.8h-6.5c-1.2,0-1.9-.6-1.9-1.9h0c0-.6.2-1.1.5-1.5.3-.4.8-.5,1.4-.5h17.4c1.4,0,2.2.7,2.2,2h0c0,1.3-.7,2-2.2,2h-3c-.5,0-1,0-1.5-.2-.5-.1-1-.3-1.5-.5h0c.4.3.7.7.8,1.2s.2,1.1.2,1.8h0c0,1.2-.2,2.3-.7,3.2-.5.9-1.2,1.6-2,2.1-.9.5-1.9.8-3.1.8h-6.7c-1.2,0-1.9-.6-1.9-1.9h0c0-.6.2-1.1.5-1.5.3-.4.8-.6,1.4-.6h6.5c.9,0,1.5-.2,2-.6.4-.4.7-1,.7-1.7h0c0-.7-.2-1.2-.7-1.6-.5-.4-1.1-.6-2-.6h0ZM434.9,345.7h0c0-.7.2-1.3.7-1.7.4-.5,1-.7,1.6-.7h0c.7,0,1.2.2,1.7.7.4.5.7,1,.7,1.7h0c0,.7-.2,1.3-.7,1.7-.4.5-1,.7-1.7.7h0c-.7,0-1.2-.2-1.6-.7-.4-.5-.7-1-.7-1.7ZM430.7,347.7h-10.6c-1.2,0-1.9-.6-1.9-1.9h0c0-.6.2-1.1.5-1.5.3-.4.8-.6,1.4-.6h10.6c.6,0,1.1.2,1.4.5s.5.8.5,1.5h0c0,.7-.2,1.2-.5,1.5-.3.3-.8.5-1.4.5h0ZM418.2,355.8h0c0-3.5.8-5.2,2.3-5.2h0c.5,0,.9.1,1.1.4.3.3.4.6.4,1h0c0,.2,0,.4,0,.6,0,.2-.2.5-.3,1h0c0,.2-.1.5-.2.9,0,.4-.1.7-.1,1.1h0c0,.7,0,1.1.2,1.4.2.3.4.4.8.4h0c.3,0,.6,0,.7-.2.2-.2.3-.5.5-1,.2-.5.4-1.2.7-2.2h0c.3-.9.7-1.7,1.4-2.2.7-.6,1.5-.9,2.5-.9h0c1.4,0,2.5.5,3.2,1.5.7,1,1.1,2.4,1.1,4.2h0c0,1.3-.2,2.4-.6,3.1-.4.8-.9,1.1-1.6,1.1h0c-.4,0-.8-.1-1.1-.4-.3-.3-.5-.6-.5-1.1h0c0-.2,0-.4,0-.7,0-.2.1-.5.2-.9h0c0-.3.2-.5.2-.8,0-.3,0-.6,0-.9h0c0-.9-.3-1.3-.9-1.3h0c-.4,0-.7.2-.9.5-.2.4-.5,1-.8,2h0c-.4,1.4-.9,2.4-1.6,3-.7.7-1.6,1-2.7,1h0c-1.3,0-2.3-.5-3.1-1.5-.8-1-1.2-2.4-1.2-4.1ZM418.2,370.5h0c0-1.7.4-3,1.2-3.8.8-.8,2.1-1.2,3.8-1.2h5.8v-.7c0-1.3.6-1.9,1.7-1.9h0c1.1,0,1.7.6,1.7,1.9h0v.7h3c.6,0,1.1.2,1.5.6.4.4.6.9.6,1.5h0c0,.6-.2,1.1-.5,1.4-.4.4-.9.5-1.5.5h-1.4c-.7,0-1.3-.1-1.7-.3h0v2.6c0,1.3-.6,1.9-1.7,1.9h0c-1.1,0-1.7-.6-1.7-1.9h0v-2.3h-5.9c-.6,0-1,0-1.2.2-.2.1-.3.3-.3.6h0c0,.4,0,.7,0,.9,0,.2.1.4.1.7h0c0,.5,0,.9-.3,1.2-.2.3-.5.4-1.1.4h0c-.8,0-1.3-.2-1.7-.7-.4-.5-.5-1.2-.5-2.3ZM418.2,380.4h0c0-1.9.4-3.3,1.3-4.3.9-1,2-1.6,3.4-1.6h0c1.6,0,2.8.7,3.5,2.1.7,1.4,1,3.4.8,6h0c.9-.1,1.4-.4,1.7-.8.3-.4.5-.9.5-1.5h0c0-.5,0-.9,0-1.2,0-.3,0-.6-.1-.8,0-.3,0-.6,0-.9h0c0-.5,0-.9.3-1.2.2-.3.5-.4,1.1-.4h0c.8,0,1.3.3,1.7,1,.4.7.5,1.7.5,3.1h0c0,2.3-.6,3.9-1.9,5-1.3,1.1-3,1.6-5.2,1.6h0c-2.5,0-4.3-.5-5.5-1.4-1.2-.9-1.8-2.5-1.8-4.7ZM422.8,378.6h0c-1.1,0-1.6.7-1.6,2.1h0c0,.5,0,.8.2,1.1.2.3.5.5,1,.6s1.3.2,2.3.3h0c0,0-.2-.2-.2-.4,0-.2,0-.3,0-.5h0c0-1.2-.1-2.1-.3-2.5-.2-.5-.7-.7-1.3-.7Z"/>
  <path class="st0" d="M388.4,612.1h0c-1.4,0-2.1-.6-2.1-1.9h0v-16.3c0-.7.2-1.1.5-1.4.3-.3.8-.5,1.5-.5h0c1.4,0,2,.6,2,1.9h0v16.3c0,.6-.2,1.1-.5,1.4-.3.3-.8.5-1.5.5ZM396,612.1h0c-1.3,0-2-.6-2-1.9h0v-6.7c0-1.8.6-3.2,1.7-4.2,1.1-1,2.6-1.6,4.5-1.6h0c1.9,0,3.4.5,4.5,1.6,1.1,1,1.7,2.4,1.7,4.2h0v6.7c0,1.3-.7,1.9-2,1.9h0c-1.3,0-2-.6-2-1.9h0v-6.4c0-.9-.2-1.5-.6-2-.4-.5-.9-.7-1.6-.7h0c-.7,0-1.3.2-1.6.7-.4.5-.6,1.1-.6,2h0v6.4c0,1.3-.7,1.9-2,1.9ZM414.5,612.1h0c-3.5,0-5.2-.8-5.2-2.3h0c0-.5.1-.9.4-1.1.3-.3.6-.4,1-.4h0c.2,0,.4,0,.5,0,.2,0,.5.2,1,.3h0c.2,0,.5.2.9.2.4,0,.7.1,1.1.1h0c.7,0,1.1,0,1.4-.2.3-.2.4-.4.4-.8h0c0-.3,0-.6-.2-.7-.2-.2-.5-.4-.9-.5-.5-.2-1.2-.4-2.2-.7h0c-.9-.3-1.7-.7-2.2-1.4-.6-.7-.8-1.5-.8-2.5h0c0-1.4.5-2.5,1.5-3.2,1-.7,2.4-1.1,4.2-1.1h0c1.3,0,2.4.2,3.1.6s1.1.9,1.1,1.6h0c0,.4-.1.8-.4,1.1-.3.3-.6.4-1.1.4h0c-.2,0-.4,0-.7,0-.2,0-.5-.1-.9-.2h0c-.3,0-.5-.2-.8-.2-.3,0-.6,0-.9,0h0c-.9,0-1.3.3-1.3,1h0c0,.4.2.7.5.9.4.2,1,.5,2,.8h0c1.4.4,2.4,1,3,1.6.7.7,1,1.6,1,2.7h0c0,1.3-.5,2.3-1.5,3.1-1,.8-2.4,1.2-4.1,1.2ZM429.2,612.1h0c-1.7,0-3-.4-3.8-1.2-.8-.8-1.2-2.1-1.2-3.8h0v-5.8h-.7c-1.3,0-1.9-.6-1.9-1.7h0c0-1.1.6-1.7,1.9-1.7h.7v-3c0-.6.2-1.1.6-1.5.4-.4.9-.6,1.5-.6h0c.6,0,1.1.2,1.4.5.4.4.5.9.5,1.5h0v1.4c0,.7-.1,1.3-.3,1.7h2.6c1.3,0,1.9.6,1.9,1.7h0c0,1.1-.6,1.7-1.9,1.7h-2.3v5.9c0,.6,0,.9.2,1.2.1.2.3.4.6.4h0c.4,0,.7,0,.9-.1s.4,0,.7,0h0c.5,0,.9,0,1.2.3.3.2.4.5.4,1.1h0c0,.8-.2,1.3-.7,1.7-.5.4-1.3.5-2.3.5ZM436.2,595.3h0c-.7,0-1.3-.2-1.7-.7-.5-.4-.7-1-.7-1.6h0c0-.7.2-1.3.7-1.7.5-.4,1-.7,1.7-.7h0c.7,0,1.3.2,1.7.7.5.4.7,1,.7,1.7h0c0,.6-.2,1.2-.7,1.6-.5.4-1,.7-1.7.7ZM438.2,599.6v10.6c0,1.2-.6,1.9-2,1.9h0c-.6,0-1.1-.2-1.5-.5s-.6-.8-.6-1.4h0v-10.6c0-.6.2-1.1.5-1.4.3-.3.8-.5,1.6-.5h0c.7,0,1.2.2,1.5.5s.5.8.5,1.4h0ZM453.7,613.5h0c0,1.6-.7,2.8-2.2,3.5-1.5.8-3.6,1.2-6.4,1.2h0c-1.4,0-2.5-.2-3.1-.5-.7-.4-1-.9-1-1.7h0c0-.5.1-.9.4-1.1.3-.2.7-.3,1.2-.3h0c.4,0,.7,0,1,0,.3,0,.5,0,.9.1.3,0,.7,0,1.1,0h0c1.5,0,2.5-.1,3.2-.3.6-.2,1-.7,1-1.4h0c0-.6-.2-1-.7-1.4-.5-.4-1-.5-1.8-.5h0c-4.3,0-6.4-2.3-6.4-6.8h0c0-2.3.5-4,1.6-5.1,1.1-1.1,2.7-1.7,4.8-1.7h0c1.4,0,2.6.2,3.5.7h0c.4-1.7,1.4-2.5,2.8-2.5h0c.7,0,1.2.2,1.6.5.4.4.6.9.6,1.6h0c0,.6-.2,1.1-.6,1.4-.4.3-1,.4-1.8.4h0c-.4,0-.7,0-1,0h0c.8,1.1,1.2,2.7,1.2,4.6h0c0,1.2-.2,2.3-.5,3.1-.4.8-1,1.5-2,2h0c.9.3,1.6.8,2,1.5.4.7.6,1.5.6,2.3ZM444.9,604.5h0c0,2.3.8,3.5,2.4,3.5h0c1.6,0,2.4-1.2,2.4-3.5h0c0-1.2-.2-2.1-.6-2.6-.4-.6-1-.8-1.8-.8h0c-.8,0-1.4.3-1.8.8-.4.6-.6,1.4-.6,2.6ZM462.2,612.1h0c-1.9,0-3.3-.4-4.3-1.3-1-.9-1.6-2-1.6-3.4h0c0-1.6.7-2.8,2.1-3.5,1.4-.7,3.4-1,6-.8h0c-.1-.9-.4-1.4-.8-1.7-.4-.3-.9-.5-1.5-.5h0c-.5,0-.8,0-1.1,0-.3,0-.6,0-.9.2-.3,0-.6,0-1,0h0c-.5,0-.9,0-1.2-.3-.3-.2-.4-.5-.4-1.1h0c0-.8.3-1.3,1-1.7.7-.4,1.7-.5,3.1-.5h0c2.3,0,3.9.6,5,1.9,1.1,1.3,1.6,3,1.6,5.2h0c0,2.5-.4,4.3-1.3,5.5-.9,1.2-2.5,1.8-4.7,1.8ZM460.3,607.4h0c0,1.1.7,1.6,2.1,1.6h0c.5,0,.8,0,1.1-.2.3-.2.4-.5.6-1,.1-.5.2-1.2.3-2.2h0c0,0-.2.2-.4.2-.1,0-.3,0-.4,0h0c-1.2,0-2.1.1-2.5.3-.5.2-.7.7-.7,1.3ZM472.9,612.1h0c-1.3,0-2-.6-2-1.9h0v-6.7c0-1.8.6-3.2,1.7-4.2,1.1-1,2.6-1.6,4.5-1.6h0c1.9,0,3.4.5,4.5,1.6,1.1,1,1.7,2.4,1.7,4.2h0v6.7c0,1.3-.7,1.9-2,1.9h0c-1.3,0-2-.6-2-1.9h0v-6.4c0-.9-.2-1.5-.6-2-.4-.5-.9-.7-1.6-.7h0c-.7,0-1.3.2-1.6.7-.4.5-.6,1.1-.6,2h0v6.4c0,1.3-.7,1.9-2,1.9ZM493.1,612.1h0c-1.7,0-3-.4-3.8-1.2-.8-.8-1.2-2.1-1.2-3.8h0v-5.8h-.7c-1.3,0-1.9-.6-1.9-1.7h0c0-1.1.6-1.7,1.9-1.7h.7v-3c0-.6.2-1.1.6-1.5.4-.4.9-.6,1.5-.6h0c.6,0,1.1.2,1.4.5.4.4.5.9.5,1.5h0v1.4c0,.7-.1,1.3-.3,1.7h2.6c1.3,0,1.9.6,1.9,1.7h0c0,1.1-.6,1.7-1.9,1.7h-2.3v5.9c0,.6,0,.9.2,1.2.1.2.3.4.6.4h0c.4,0,.7,0,.9-.1.2,0,.4,0,.7,0h0c.5,0,.9,0,1.2.3.3.2.4.5.4,1.1h0c0,.8-.2,1.3-.7,1.7-.5.4-1.2.5-2.3.5ZM504.6,612.1h0c-1.9,0-3.3-.3-4.4-.9-1-.6-1.8-1.5-2.2-2.5-.4-1.1-.6-2.3-.6-3.7h0c0-2.6.6-4.4,1.7-5.5,1.1-1.1,2.6-1.7,4.6-1.7h0c1.1,0,2.2.2,3.1.6.9.4,1.6.9,2.1,1.7.5.7.8,1.6.8,2.6h0c0,3-2.1,4.5-6.4,4.5h-1.6c.1.6.4,1,.7,1.3.3.3.9.5,1.8.5h0c.5,0,.9,0,1.2,0,.3,0,.6-.1.9-.2.3,0,.6,0,.9,0h0c.5,0,.9,0,1.2.3.3.2.4.5.4,1.1h0c0,.8-.3,1.3-1,1.7-.7.4-1.7.5-3.1.5ZM501.3,604.9h0c.1-.2.3-.3.5-.4.2,0,.5,0,.9,0h0c1.1,0,1.9-.1,2.3-.3.4-.2.6-.6.6-1.1h0c0-.7-.2-1.3-.6-1.6-.4-.4-.9-.6-1.5-.6h0c-.7,0-1.2.3-1.6.9-.4.6-.6,1.7-.6,3.3Z"/>
  <path class="st2" d="M744.2,382.8v-8.8h.3c0,.7.2,1.2.6,1.6.4.4.9.6,1.6.6h15.9c.7,0,1.2-.2,1.6-.6.4-.4.6-.9.6-1.6h.3v9.3c0,1.3-.2,2.5-.7,3.5-.5,1-1.1,1.8-1.9,2.3-.8.5-1.7.8-2.8.8h0c-1.4,0-2.5-.4-3.5-1.2-1-.8-1.5-2-1.8-3.4h0c0,.3-.4.7-.8,1.1-.5.4-1,.9-1.7,1.3h0l-6,3.5c-.4.3-.8.6-1,.9-.3.4-.4.8-.4,1.2h-.3v-5.8c.4-.3.9-.5,1.4-.8.5-.3,1-.5,1.4-.8h0l5-2.7c.6-.3,1.1-.6,1.4-.8.3-.2.6-.5.7-.7.1-.2.2-.5.2-.9h0v-.3h-7.6c-.7,0-1.2.2-1.6.6-.4.4-.6.9-.6,1.6h0c0,0-.3,0-.3,0ZM764.7,380.5h-10v1.4c0,1.2.5,2.2,1.4,2.9.9.7,2.1,1.1,3.6,1.1h0c1.5,0,2.7-.3,3.6-1,.9-.7,1.4-1.6,1.4-2.7h0v-1.6ZM743.8,398.7h0c0-1.3.3-2.4.9-3.4.6-1,1.5-1.8,2.6-2.3,1.1-.6,2.4-.8,3.9-.8h0c1.5,0,2.8.3,3.9.9,1.1.6,2,1.5,2.6,2.5s.9,2.3.9,3.6h0c0,1.1-.2,2.1-.7,3-.4.9-1.1,1.6-1.9,2.1-.8.5-1.7.8-2.8.9h-.4s0-9.3,0-9.3h-.1c-2,0-3.5.4-4.7,1.3-1.2.9-1.8,2-1.8,3.5h0c0,.9.2,1.7.7,2.6.4.8,1,1.5,1.8,2h0v.2c-1-.3-1.9-.8-2.6-1.5-.7-.7-1.3-1.5-1.7-2.4-.4-.9-.6-1.9-.6-3ZM753.3,395.9h0v5.6c1.5,0,2.7-.2,3.6-.7.9-.5,1.4-1.1,1.4-2h0c0-.8-.4-1.5-1.3-2-.9-.5-2.1-.8-3.6-.9ZM744.2,414.7v-9.1h.3c0,.7.2,1.2.6,1.6.4.4.9.6,1.6.6h11.1v-2.4l.5.3v2.1h.6c1.4,0,2.6.2,3.7.7,1,.5,1.8,1.1,2.4,2,.6.9.9,1.9.9,3.1h0c0,.8-.1,1.6-.4,2.3-.2.7-.6,1.4-1,1.9-.4.5-.9.9-1.5,1.1h0l-1.9-3.3c.7,0,1.3,0,1.8-.1.5,0,1-.2,1.4-.4h0c.8-.4,1.2-.8,1.2-1.4h0c0-.6-.5-1-1.4-1.3h0c-.9-.3-2.2-.5-3.7-.5h-2.1v3.8l-.5-.3v-3.5h-11.1c-.7,0-1.2.3-1.6.8-.4.5-.6,1.2-.6,2h0s-.3,0-.3,0ZM744.2,422.8v-8.5h.3c0,.7.2,1.2.6,1.6.4.4.9.6,1.6.6h15.9c.7,0,1.2-.2,1.6-.6.4-.4.6-1,.6-1.6h.3v2.8c0,.9,0,1.7.3,2.2h0c.2.5.5.8.8,1h0v.3h-19.4c-.7,0-1.2.2-1.6.6-.4.4-.6,1-.6,1.6h-.3ZM743.8,429.4h0c0-1.3.3-2.4.9-3.4.6-1,1.5-1.8,2.6-2.3,1.1-.6,2.4-.8,3.9-.8h0c1.5,0,2.8.3,3.9.9,1.1.6,2,1.4,2.6,2.5s.9,2.3.9,3.6h0c0,1.1-.2,2.1-.7,3-.4.9-1.1,1.6-1.9,2.1-.8.5-1.7.8-2.8.9h-.4s0-9.3,0-9.3h-.1c-2,0-3.5.4-4.7,1.3-1.2.9-1.8,2-1.8,3.5h0c0,.9.2,1.7.7,2.6.4.8,1,1.5,1.8,2h0v.2c-1-.3-1.9-.8-2.6-1.5-.7-.7-1.3-1.5-1.7-2.4-.4-.9-.6-1.9-.6-3ZM753.3,426.6h0v5.7c1.5,0,2.7-.2,3.6-.7.9-.5,1.4-1.1,1.4-2h0c0-.8-.4-1.5-1.3-2-.9-.5-2.1-.8-3.6-.9ZM744.2,440.3v-4h.3c0,.3.2.7.6,1.2h0c.3.4.9,1,1.8,1.6h0l3.6,2.6c.5-.3,1-.6,1.5-.9.5-.3,1-.6,1.4-.9h0c.5-.3,1-.6,1.5-.9.5-.3,1-.6,1.6-.9h0c.6-.4,1-.7,1.3-1,.3-.3.4-.6.4-1h.3v7.2h-.3c0-.6-.3-.9-.8-1-.5,0-1,.1-1.6.5h0c-.5.3-.9.5-1.4.8s-.9.5-1.3.8h0l2.6,1.9c.6.5,1.2.7,1.7.6.5,0,.7-.4.8-.9h.3v4h-.3c0-.5-.2-1-.6-1.5-.3-.5-.9-1-1.8-1.6h0l-3.1-2.2c-1.1.6-2.2,1.3-3.3,2-1.1.6-2.2,1.3-3.5,2.1h0c-.5.3-.9.6-1.1.8-.2.2-.3.5-.4.9h-.3v-7.2h.3c0,.6.3.9.7,1,.4,0,1,0,1.7-.5h0c.6-.3,1.1-.6,1.7-1,.5-.3,1.1-.6,1.6-1h0l-3.5-2.4c-.6-.4-1.1-.6-1.5-.4-.4.2-.6.6-.7,1.2h-.3ZM744.2,458.9v-8.5h.3c0,.7.2,1.2.6,1.6.4.4.9.6,1.6.6h9.1c.7,0,1.3-.1,1.6-.4.4-.3.6-.9.6-1.8h.3v2.8c0,.9.1,1.7.3,2.2h0c.2.5.5.8.8,1h0v.3h-12.7c-.7,0-1.2.2-1.6.6-.4.4-.6.9-.6,1.6h0s-.3,0-.3,0ZM761.1,454.7h0c0-.7.2-1.2.7-1.7.4-.4,1-.7,1.7-.7h0c.7,0,1.2.2,1.7.7.4.4.6,1,.6,1.7h0c0,.6-.2,1.2-.7,1.6-.4.4-1,.7-1.6.7h0c-.6,0-1.2-.2-1.6-.7-.4-.4-.7-1-.7-1.6ZM743.7,465.1v-.2l12.8-5.5c.4-.2.8-.4,1.1-.7.3-.3.4-.7.4-1.3h.3v7.8h-.3c0-.7-.4-1.1-.9-1.3s-1.1-.1-1.9.2h0l-6.7,2.9,6.5,2.8c.4.2.8.3,1.3.3h0c.5,0,.8-.1,1.1-.4.3-.3.5-.7.5-1.2h.3v4.4h-.3c-.1-.5-.4-.9-.8-1.4-.4-.4-1.1-.8-1.8-1.2h0l-11.6-5.1ZM743.8,479.3h0c0-1.5.3-2.9.9-4,.6-1.1,1.5-2,2.6-2.6,1.1-.6,2.4-1,3.9-1h0c1.5,0,2.8.3,4,1,1.1.6,2,1.5,2.6,2.6.6,1.1.9,2.5.9,4h0c0,1.5-.3,2.8-.9,4-.6,1.1-1.5,2-2.6,2.6-1.1.6-2.4.9-4,.9h0c-1.5,0-2.8-.3-3.9-.9-1.1-.6-2-1.5-2.6-2.6-.6-1.1-.9-2.5-.9-4ZM744.1,479.3h0c0,.6.3,1.2,1,1.7.6.5,1.5.8,2.6,1.1,1.1.3,2.3.4,3.5.4h0c1.4,0,2.6-.1,3.7-.4,1.1-.3,1.9-.6,2.5-1.1.6-.5.9-1,.9-1.6h0c0-.6-.3-1.2-1-1.7-.7-.5-1.5-.8-2.6-1.1-1.1-.3-2.3-.4-3.5-.4h0c-1.4,0-2.7.1-3.7.4-1.1.3-1.9.7-2.5,1.1-.6.5-.9,1-.9,1.6Z"/>
  <path class="st4" d="M391.9,306.9v-2l19,4.2v.8l-15,5.7,15,5.7v.7l-19,4.1v-2l13.5-2.9-13.4-5.2v-.9l13.4-5.2-13.5-2.9ZM391.6,333.6h0c0-1.1.3-2.2.9-3.1.6-.9,1.4-1.6,2.4-2.1,1-.5,2-.8,3.1-.8h0c1.1,0,2.2.3,3.1.8,1,.5,1.8,1.2,2.4,2.1.6.9.9,1.9.9,3.1h0c0,1-.2,1.9-.7,2.7-.4.8-1,1.4-1.7,2h2.1v1.9h-12.2v-1.9h2.1c-.5-.4-.9-.8-1.2-1.2-.4-.5-.6-1-.8-1.6-.2-.6-.3-1.2-.3-1.8ZM393.6,333.9h0c0,.8.2,1.6.6,2.2.4.7,1,1.2,1.6,1.5.7.4,1.4.6,2.2.6h0c.8,0,1.5-.2,2.2-.6.7-.4,1.2-.9,1.6-1.5.4-.6.6-1.4.6-2.2h0c0-.8-.2-1.6-.6-2.2-.4-.6-1-1.2-1.6-1.5-.7-.4-1.4-.5-2.2-.5h0c-.8,0-1.5.2-2.2.5-.7.4-1.2.9-1.6,1.5-.4.7-.6,1.4-.6,2.2ZM405.7,334.8v-1.6l3.7,2.2v2.1l-3.7-2.8ZM384.9,349.7h0c0-.8.1-1.5.4-2.1.3-.7.7-1.2,1.1-1.8.5-.5,1-.9,1.6-1.2.6-.3,1.3-.5,1.9-.6h0v2c-1,.2-1.7.7-2.3,1.4-.6.7-.9,1.5-.9,2.4h0c0,.8.2,1.6.6,2.2.4.7.9,1.2,1.6,1.5.7.4,1.4.6,2.2.6h2.7c-.4-.3-.7-.6-1.1-1.1-.4-.4-.7-.9-.9-1.5-.2-.6-.4-1.2-.4-2h0c0-1.2.3-2.2.9-3.1.6-.9,1.4-1.6,2.4-2.1,1-.5,2-.8,3.2-.8h0c1.1,0,2.2.3,3.2.8,1,.5,1.8,1.2,2.4,2.1.6.9.9,1.9.9,3.1h0c0,.8-.1,1.4-.4,2-.2.6-.6,1.1-.9,1.5-.4.4-.7.8-1,1h2.1v1.9h-12.9c-1.2,0-2.2-.3-3.2-.8-1-.6-1.7-1.3-2.3-2.2-.6-.9-.9-2-.9-3.2ZM393.6,349.7h0c0,.8.2,1.6.6,2.2.4.6,1,1.2,1.6,1.5.7.4,1.4.6,2.2.6h0c.8,0,1.5-.2,2.2-.6.7-.4,1.2-.9,1.6-1.5.4-.6.6-1.4.6-2.2h0c0-.8-.2-1.5-.6-2.2-.4-.7-.9-1.2-1.6-1.6-.7-.4-1.4-.6-2.2-.6h0c-.8,0-1.5.2-2.2.6-.7.4-1.2.9-1.6,1.6-.4.7-.6,1.4-.6,2.2ZM391.9,362v-1.9h12.2v1.9h-12.2ZM406.3,361.1h0c0-.4.1-.7.4-.9s.5-.4.9-.4h0c.3,0,.6.1.9.4s.4.5.4.9h0c0,.3-.1.6-.4.9s-.5.4-.9.4h0c-.4,0-.7-.1-.9-.4s-.4-.5-.4-.9ZM391.6,371.2h0c0-.7.2-1.5.5-2.2.3-.7.8-1.4,1.3-2,.6-.6,1.2-1.1,2-1.4.8-.4,1.6-.5,2.6-.5h0c1.2,0,2.2.3,3.2.8,1,.6,1.7,1.3,2.3,2.2.6.9.9,2,.9,3.2h0c0,.9-.2,1.8-.6,2.6-.4.8-.9,1.5-1.6,2.1-.7.6-1.5,1.1-2.5,1.3h0v-2.1c.8-.3,1.4-.9,1.9-1.6.5-.7.7-1.4.7-2.1h0c0-.8-.2-1.5-.5-2.2-.4-.7-.9-1.2-1.5-1.6-.6-.4-1.4-.6-2.3-.6h0c-.8,0-1.5.2-2.2.5-.7.4-1.2.9-1.6,1.5-.4.7-.6,1.4-.6,2.2h0c0,.8.2,1.5.6,2.2.4.7,1,1.2,1.6,1.5h0v2.2c-.9-.3-1.7-.8-2.3-1.4s-1.1-1.3-1.5-2.1c-.3-.8-.5-1.7-.5-2.6ZM391.7,385.5h0c0-1.2.3-2.2.9-3.2.6-1,1.3-1.7,2.3-2.3,1-.6,2-.9,3.2-.9h0c1.2,0,2.3.3,3.2.9,1,.6,1.7,1.3,2.3,2.3s.9,2,.9,3.2h0c0,1.2-.3,2.3-.9,3.2-.6,1-1.3,1.7-2.3,2.3-1,.6-2,.9-3.2.9h0c-1.2,0-2.3-.3-3.2-.9-1-.6-1.7-1.3-2.3-2.3-.6-1-.9-2-.9-3.2ZM393.6,385.5h0c0,.8.2,1.6.6,2.2.4.7.9,1.2,1.6,1.6.7.4,1.4.6,2.2.6h0c.8,0,1.6-.2,2.2-.6.7-.4,1.2-.9,1.6-1.6.4-.7.6-1.4.6-2.2h0c0-.8-.2-1.6-.6-2.2-.4-.7-.9-1.2-1.6-1.6-.7-.4-1.4-.6-2.2-.6h0c-.8,0-1.6.2-2.2.6-.7.4-1.2.9-1.6,1.6-.4.7-.6,1.4-.6,2.2Z"/>
  <path class="st2" d="M442,658.8h-1.9v-18.9h6.1c1.1,0,2.1.2,3,.7s1.6,1.1,2.2,2c.6.9.8,1.9.8,3h0c0,1.1-.3,2.1-.8,3-.5.9-1.3,1.5-2.2,2-.9.5-1.9.7-3,.7h-4.1v7.5ZM442,641.7v7.8h4.4c.7,0,1.4-.2,2-.5.6-.4,1-.8,1.3-1.4.3-.6.5-1.3.5-2h0c0-.8-.2-1.4-.5-2-.3-.6-.7-1-1.3-1.3s-1.2-.5-2-.5h-4.4ZM459.6,659h0c-1.2,0-2.3-.3-3.3-.8-1-.5-1.8-1.3-2.4-2.2-.6-1-.9-2.1-.9-3.4h0c0-1.2.3-2.3.9-3.2.6-1,1.3-1.7,2.3-2.3,1-.6,2-.9,3.2-.9h0c1.1,0,2.2.3,3.2.9,1,.6,1.7,1.3,2.3,2.3.6.9.9,2,.9,3.1h0v.8h-11.6v-1.8h9.5c-.2-.9-.7-1.7-1.5-2.4-.8-.6-1.7-1-2.8-1h0c-.9,0-1.6.2-2.3.6-.7.4-1.2,1-1.5,1.7-.4.7-.6,1.5-.6,2.4h0c0,.9.2,1.6.6,2.2.4.6,1,1.1,1.6,1.5.7.4,1.4.5,2.1.5h0c.6,0,1.1,0,1.6-.2.5-.1.9-.3,1.4-.6.4-.3.8-.6,1.1-1h0l1.5,1.2c-.4.5-.9,1-1.5,1.3-.6.4-1.2.7-1.9.9-.6.2-1.3.3-1.9.3ZM470.7,658.8h-1.9v-12.2h1.9v2.4c.2-.7.5-1.2.8-1.6.3-.4.7-.7,1-.8.4-.2.8-.2,1.2-.2h0c.2,0,.4,0,.6,0,.2,0,.4.1.6.2h0v2.5c-.2-.2-.5-.4-.7-.5-.2-.1-.5-.2-.8-.2h0c-.6,0-1.1.2-1.5.6-.4.4-.8,1-1,1.6s-.4,1.3-.4,2h0v6.1ZM481.2,658.8h-1.9v-10.4h-2.8v-1.8h2.8v-4.9c0-.9.1-1.6.4-2.1.3-.5.7-.9,1.2-1.2.6-.3,1.3-.4,2.2-.4h.8v1.8h-1.1c-.5,0-.9.1-1.2.4-.3.2-.4.6-.4,1.2h0v5.3h3v1.8h-3v10.4ZM492,659h0c-1.2,0-2.3-.3-3.4-.8-1-.5-1.8-1.3-2.4-2.2s-.9-2.1-.9-3.4h0c0-1.2.3-2.3.9-3.2.6-1,1.3-1.7,2.3-2.3,1-.6,2-.9,3.2-.9h0c1.2,0,2.2.3,3.2.9,1,.6,1.7,1.3,2.3,2.3.6.9.9,2,.9,3.1h0v.8h-11.6v-1.8h9.5c-.2-.9-.7-1.7-1.5-2.4-.8-.6-1.7-1-2.8-1h0c-.9,0-1.6.2-2.3.6-.7.4-1.2,1-1.5,1.7-.4.7-.6,1.5-.6,2.4h0c0,.9.2,1.6.6,2.2.4.6,1,1.1,1.6,1.5.7.4,1.4.5,2.1.5h0c.6,0,1.1,0,1.6-.2.5-.1.9-.3,1.4-.6.4-.3.8-.6,1.1-1h0l1.5,1.2c-.4.5-.9,1-1.5,1.3-.6.4-1.2.7-1.9.9-.7.2-1.3.3-1.9.3ZM503.1,658.8h-2v-12.2h2v12.2ZM502.1,644.4h0c-.4,0-.6-.1-.9-.4-.2-.2-.4-.5-.4-.9h0c0-.3.1-.6.4-.9.2-.2.5-.4.9-.4h0c.3,0,.6.1.9.4.2.2.4.5.4.9h0c0,.4-.1.7-.4.9-.2.2-.5.4-.9.4ZM511,658.8h-2v-10.4h-3.1v-1.8h3.1v-4.8h2v4.8h3v1.8h-3v10.4ZM521.4,659h0c-1.2,0-2.2-.3-3.2-.9-1-.6-1.8-1.3-2.3-2.3-.6-1-.9-2-.9-3.2h0c0-1.2.3-2.3.9-3.2.6-1,1.4-1.7,2.3-2.3,1-.6,2-.9,3.2-.9h0c1.2,0,2.3.3,3.2.9,1,.6,1.7,1.3,2.3,2.3.6,1,.9,2,.9,3.2h0c0,1.2-.3,2.3-.9,3.2-.6,1-1.4,1.7-2.3,2.3s-2,.9-3.2.9ZM521.4,657h0c.8,0,1.6-.2,2.2-.6.7-.4,1.2-.9,1.6-1.6.4-.7.6-1.4.6-2.2h0c0-.8-.2-1.6-.6-2.2-.4-.7-.9-1.2-1.6-1.6-.7-.4-1.4-.6-2.2-.6h0c-.8,0-1.6.2-2.2.6-.7.4-1.2.9-1.6,1.6-.4.7-.6,1.4-.6,2.2h0c0,.8.2,1.6.6,2.2.4.7.9,1.2,1.6,1.6.7.4,1.4.6,2.2.6Z"/>
  <path class="st4" d="M418.7,466.3h0c-.5,0-.9-.1-1.4-.3s-.7-.6-.7-1.1h0v-13c0-.6.1-1,.4-1.2.3-.2.5-.4.7-.4h-5.4c-.4,0-.8-.2-1-.6-.2-.4-.3-.8-.3-1.2h0c0-.5.1-.9.3-1.3.2-.4.6-.6,1-.6h12.4c.4,0,.8.2,1,.6.2.4.3.8.3,1.3h0c0,.4-.1.8-.3,1.2-.2.4-.5.6-1,.6h-4.2v14.7c0,.5-.2.8-.6,1-.4.2-.8.3-1.3.3ZM434.4,466.3h0c-1.9,0-3.3-.3-4.4-.9-1-.6-1.8-1.5-2.2-2.5-.4-1.1-.7-2.3-.7-3.7h0c0-2.6.6-4.4,1.7-5.5,1.1-1.1,2.7-1.7,4.6-1.7h0c1.2,0,2.2.2,3.1.6.9.4,1.6.9,2.1,1.7s.8,1.6.8,2.6h0c0,3-2.1,4.5-6.3,4.5h-1.6c.2.6.4,1,.7,1.3.3.3,1,.5,1.8.5h0c.5,0,.9,0,1.2,0,.3,0,.6-.1.9-.2s.6,0,.9,0h0c.5,0,.9,0,1.2.3.3.2.4.5.4,1.1h0c0,.8-.3,1.3-1,1.7-.7.4-1.7.5-3.1.5ZM431.2,459.2h0c.1-.2.3-.3.5-.4.2,0,.5,0,.9,0h0c1.1,0,1.8-.1,2.3-.3.4-.2.6-.6.6-1.2h0c0-.7-.2-1.2-.6-1.6-.4-.4-.9-.6-1.5-.6h0c-.7,0-1.2.3-1.6.9-.4.6-.6,1.7-.6,3.3ZM443.8,466.3h0c-1.3,0-2-.6-2-1.9h0v-6.7c0-1.8.6-3.2,1.7-4.2,1.1-1,2.6-1.6,4.5-1.6h0c1.9,0,3.4.5,4.5,1.6,1.1,1,1.7,2.5,1.7,4.2h0v6.7c0,1.3-.7,1.9-2,1.9h0c-1.3,0-2-.6-2-1.9h0v-6.5c0-.9-.2-1.5-.6-2-.4-.5-.9-.7-1.6-.7h0c-.7,0-1.3.2-1.6.7-.4.5-.6,1.1-.6,2h0v6.5c0,1.3-.7,1.9-2,1.9ZM462.2,466.3h0c-3.5,0-5.2-.8-5.2-2.3h0c0-.5.1-.9.4-1.1.3-.3.6-.4,1-.4h0c.2,0,.4,0,.5,0,.2,0,.5.2,1,.3h0c.2,0,.5.1.9.2.4,0,.7.1,1.1.1h0c.7,0,1.1,0,1.4-.2.3-.2.4-.4.4-.8h0c0-.3,0-.6-.2-.7-.1-.2-.5-.3-.9-.5s-1.2-.4-2.2-.7h0c-.9-.3-1.7-.7-2.2-1.4-.6-.7-.8-1.5-.8-2.5h0c0-1.4.5-2.5,1.5-3.2,1-.7,2.4-1.1,4.2-1.1h0c1.3,0,2.4.2,3.1.6.8.4,1.1.9,1.1,1.6h0c0,.4-.1.8-.4,1.1-.3.3-.6.5-1.1.5h0c-.2,0-.4,0-.7,0-.2,0-.5-.1-.9-.2h0c-.3,0-.5-.2-.8-.2s-.6,0-.9,0h0c-.9,0-1.3.3-1.3.9h0c0,.4.2.7.5.9.3.3,1,.5,2,.8h0c1.4.4,2.4,1,3,1.6.6.7,1,1.6,1,2.7h0c0,1.3-.5,2.3-1.5,3.1-1,.8-2.4,1.2-4.1,1.2ZM476.3,466.3h0c-2,0-3.5-.6-4.7-1.7-1.1-1.1-1.7-3-1.7-5.5h0c0-2.5.6-4.4,1.7-5.5,1.2-1.1,2.7-1.7,4.7-1.7h0c2,0,3.6.6,4.7,1.7,1.1,1.1,1.7,2.9,1.7,5.5h0c0,2.5-.6,4.3-1.7,5.5-1.2,1.1-2.7,1.7-4.7,1.7ZM476.3,462.9h0c.5,0,1-.1,1.3-.3.4-.2.6-.6.8-1.2.2-.6.3-1.3.3-2.4h0c0-1,0-1.8-.3-2.4-.2-.6-.5-.9-.8-1.2-.4-.2-.8-.3-1.3-.3h0c-.5,0-.9.1-1.3.3-.4.2-.6.6-.8,1.2-.2.6-.3,1.3-.3,2.4h0c0,1,.1,1.8.3,2.4.2.6.5.9.8,1.2.4.2.8.3,1.3.3Z"/>
  <path class="st3" d="M676.3,319.3h0c-.5,0-.9-.1-1.4-.3-.5-.2-.7-.6-.7-1h0v-13c0-.6.1-1,.4-1.2.3-.2.5-.4.7-.4h-5.4c-.4,0-.8-.2-1-.6-.2-.4-.3-.8-.3-1.2h0c0-.5.1-.9.3-1.3.2-.4.5-.6,1-.6h12.4c.4,0,.8.2,1,.6.2.4.3.8.3,1.3h0c0,.4-.1.8-.3,1.2-.2.4-.5.6-1,.6h-4.2v14.7c0,.5-.2.8-.6,1-.4.2-.8.3-1.3.3ZM691.2,319.3h0c-2,0-3.6-.6-4.7-1.7-1.1-1.1-1.7-3-1.7-5.5h0c0-2.5.6-4.4,1.7-5.5,1.1-1.1,2.7-1.7,4.7-1.7h0c2,0,3.6.6,4.7,1.7,1.2,1.1,1.7,3,1.7,5.5h0c0,2.5-.6,4.3-1.7,5.5-1.1,1.1-2.7,1.7-4.7,1.7ZM691.2,315.9h0c.5,0,1-.1,1.3-.3.4-.2.6-.6.8-1.2.2-.6.3-1.3.3-2.4h0c0-1,0-1.8-.3-2.4-.2-.6-.5-.9-.8-1.2-.4-.2-.8-.3-1.3-.3h0c-.5,0-.9.1-1.3.3-.4.2-.6.6-.8,1.2-.2.6-.3,1.3-.3,2.4h0c0,1,0,1.8.3,2.4.2.6.5.9.8,1.2.4.2.8.3,1.3.3ZM706.2,319.3h0c-2.3,0-3.9-.7-5-2s-1.6-3-1.6-5.2h0c0-2.2.5-3.9,1.6-5.2,1.1-1.3,2.8-2,5-2h0c1.4,0,2.5.1,3.1.5.7.3,1,.8,1,1.6h0c0,.5-.1.9-.4,1.2-.3.2-.7.4-1.2.4h0c-.4,0-.6,0-.8,0-.2,0-.4-.1-.7-.1-.2,0-.6,0-1.1,0h0c-.6,0-1.2.2-1.5.6-.4.4-.7.9-.8,1.5s-.2,1.2-.2,1.9h0c0,.6,0,1.2.2,1.8.1.6.4,1.1.7,1.5.4.4.9.6,1.7.6h0c.7,0,1.2,0,1.6-.1.3-.1.7-.1,1-.1h0c.5,0,.9,0,1.2.3.3.2.4.5.4,1.1h0c0,.8-.3,1.3-1,1.7-.7.4-1.7.6-3.1.6ZM717.8,319.3h0c-1.9,0-3.3-.4-4.3-1.3-1-.9-1.6-2-1.6-3.3h0c0-1.6.7-2.8,2-3.5,1.4-.7,3.4-1,6-.8h0c-.1-.9-.4-1.4-.8-1.7-.4-.3-.9-.5-1.5-.5h0c-.5,0-.8,0-1.1,0-.3,0-.6,0-.9.1-.3,0-.6,0-.9,0h0c-.5,0-.9,0-1.2-.3-.3-.2-.5-.5-.5-1.1h0c0-.8.3-1.3,1-1.7.7-.4,1.7-.6,3.1-.6h0c2.3,0,3.9.6,5,1.9,1.1,1.3,1.7,3,1.7,5.2h0c0,2.5-.5,4.3-1.3,5.5-.9,1.2-2.5,1.8-4.7,1.8ZM715.9,314.6h0c0,1.1.7,1.6,2.1,1.6h0c.5,0,.8,0,1.1-.2.3-.2.4-.5.6-1,.1-.5.2-1.3.3-2.3h0c0,0-.2.2-.4.2-.1,0-.3,0-.5,0h0c-1.2,0-2.1.1-2.5.4s-.7.7-.7,1.3ZM728.6,319.3h0c-1.3,0-2-.6-2-1.9h0v-6.7c0-1.8.6-3.2,1.7-4.2,1.1-1,2.6-1.6,4.5-1.6h0c1.9,0,3.4.5,4.5,1.6,1.1,1,1.7,2.5,1.7,4.2h0v6.7c0,1.3-.7,1.9-2,1.9h0c-1.3,0-2-.6-2-1.9h0v-6.5c0-.9-.2-1.5-.6-2-.4-.5-.9-.7-1.6-.7h0c-.7,0-1.3.2-1.6.7-.4.5-.6,1.1-.6,2h0v6.5c0,1.3-.7,1.9-2,1.9ZM748.7,319.3h0c-1.7,0-3-.4-3.8-1.2-.8-.8-1.2-2.1-1.2-3.8h0v-5.8h-.7c-1.3,0-1.9-.6-1.9-1.7h0c0-1.1.6-1.7,1.9-1.7h.7v-3c0-.6.2-1.1.6-1.5.4-.4.9-.6,1.5-.6h0c.6,0,1.1.2,1.4.5s.5.9.5,1.5h0v1.4c0,.7-.1,1.3-.3,1.7h2.6c1.3,0,1.9.6,1.9,1.7h0c0,1.1-.6,1.7-1.9,1.7h-2.3v5.9c0,.6,0,1,.2,1.2.1.2.3.4.6.4h0c.4,0,.7,0,.9-.1.2,0,.4,0,.7,0h0c.5,0,.9,0,1.2.3.3.2.4.5.5,1.1h0c0,.8-.2,1.3-.7,1.7-.5.4-1.3.6-2.3.6ZM760.2,319.3h0c-1.9,0-3.3-.3-4.4-.9s-1.8-1.5-2.2-2.5c-.4-1.1-.7-2.3-.7-3.7h0c0-2.6.6-4.4,1.7-5.5,1.1-1.1,2.7-1.7,4.6-1.7h0c1.2,0,2.2.2,3.1.6.9.4,1.6.9,2.1,1.7s.8,1.6.8,2.6h0c0,3-2.1,4.5-6.3,4.5h-1.6c.2.6.4,1,.7,1.4.3.3.9.5,1.8.5h0c.5,0,.9,0,1.2,0,.3,0,.6-.1.8-.2.3,0,.6,0,.9,0h0c.5,0,.9,0,1.2.3.3.2.4.5.4,1.1h0c0,.8-.3,1.3-1,1.7-.7.4-1.7.6-3.1.6ZM757,312.2h0c.1-.2.3-.3.5-.4.2,0,.5,0,.9,0h0c1.1,0,1.8-.1,2.3-.3.4-.2.6-.6.6-1.2h0c0-.7-.2-1.2-.6-1.6-.4-.4-.9-.6-1.5-.6h0c-.7,0-1.2.3-1.6.9-.4.6-.6,1.7-.6,3.3Z"/>
</svg>