<?xml version="1.0" encoding="utf-8"?>
<!-- Generated with Wordclouds.com -->
<!DOCTYPE svg PUBLIC "-//W3C//DTD SVG 1.1//EN" "http://www.w3.org/Graphics/SVG/1.1/DTD/svg11.dtd">
<svg xmlns="http://www.w3.org/2000/svg" xmlns:xlink="http://www.w3.org/1999/xlink" x="0" y="0" width="1024" height="768" viewBox="0 0 1024 768" xml:space="preserve">
<desc>Created @ WordClouds.com</desc>

<rect x="0" y="0" width="1024" height="768" fill="#000000" opacity="0" />
<text transform="rotate(16560, 512, 393)" font-weight="400" fill="#f1b814" opacity="1" x="512" y="413.5" font-family="Helvetica" font-size="77.7783833920256px" text-anchor="middle">Surpreendente</text>
<path transform="rotate(2520, 499, 314)" font-weight="400" fill="#41b1ff" opacity="1" d="M293.77 351.50L268.78 351.50L268.78 277.87L293.77 277.87Q305.49 277.87 313.32 282.80Q321.15 287.72 325.09 296.07Q329.03 304.42 329.03 314.58L329.03 314.58Q329.03 325.78 324.72 334.08Q320.42 342.37 312.49 346.94Q304.55 351.50 293.77 351.50L293.77 351.50ZM321.77 314.58L321.77 314.58Q321.77 305.77 318.50 298.92Q315.24 292.08 309.01 288.19Q302.79 284.30 293.77 284.30L293.77 284.30L276.04 284.30L276.04 345.07L293.77 345.07Q302.89 345.07 309.12 341.03Q315.34 336.98 318.55 330.09Q321.77 323.19 321.77 314.58ZM364.81 352.54L364.81 352.54Q359.00 352.54 354.02 350.31Q349.04 348.08 345.41 344.19Q341.78 340.30 339.76 335.22Q337.74 330.14 337.74 324.33L337.74 324.33Q337.74 316.76 341.21 310.43Q344.69 304.11 350.81 300.32Q356.92 296.54 364.70 296.54L364.70 296.54Q372.69 296.54 378.65 300.37Q384.61 304.21 388.04 310.48Q391.46 316.76 391.46 324.23L391.46 324.23Q391.46 325.06 391.46 325.83Q391.46 326.61 391.35 327.03L391.35 327.03L345.10 327.03Q345.62 332.83 348.37 337.34Q351.12 341.86 355.52 344.50Q359.93 347.14 365.12 347.14L365.12 347.14Q370.41 347.14 375.12 344.45Q379.84 341.75 381.71 337.40L381.71 337.40L387.83 339.06Q386.17 342.89 382.75 346.00Q379.32 349.11 374.71 350.83Q370.10 352.54 364.81 352.54ZM344.90 321.94L344.90 321.94L384.82 321.94Q384.41 316.03 381.66 311.57Q378.91 307.11 374.50 304.57Q370.10 302.03 364.81 302.03L364.81 302.03Q359.52 302.03 355.16 304.57Q350.81 307.11 348.06 311.63Q345.31 316.14 344.90 321.94ZM426.41 343.20L428.27 348.91Q427.44 349.22 425.68 350.05Q423.92 350.88 421.43 351.50Q418.94 352.12 416.04 352.12L416.04 352.12Q413.03 352.12 410.38 350.98Q407.74 349.84 406.18 347.51Q404.63 345.17 404.63 341.75L404.63 341.75L404.63 303.07L397.16 303.07L397.16 297.47L404.63 297.47L404.63 279.22L411.68 279.22L411.68 297.47L424.13 297.47L424.13 303.07L411.68 303.07L411.68 339.78Q411.89 342.69 413.81 344.14Q415.73 345.59 418.21 345.59L418.21 345.59Q421.12 345.59 423.50 344.60Q425.89 343.62 426.41 343.20L426.41 343.20ZM432.73 335.94L432.73 335.94Q432.73 330.86 435.64 327.18Q438.54 323.50 443.67 321.48Q448.81 319.46 455.55 319.46L455.55 319.46Q459.49 319.46 463.74 320.08Q467.99 320.70 471.31 321.94L471.31 321.94L471.31 317.38Q471.31 310.54 467.27 306.49Q463.22 302.45 456.07 302.45L456.07 302.45Q451.71 302.45 447.51 304.06Q443.31 305.66 438.75 308.77L438.75 308.77L436.05 303.80Q441.34 300.17 446.42 298.35Q451.50 296.54 456.79 296.54L456.79 296.54Q466.75 296.54 472.56 302.24Q478.36 307.94 478.36 318.00L478.36 318.00L478.36 343.00Q478.36 344.45 478.99 345.12Q479.61 345.80 480.96 345.90L480.96 345.90L480.96 351.50Q479.81 351.60 478.99 351.71Q478.16 351.81 477.74 351.71L477.74 351.71Q475.15 351.60 473.80 350.05Q472.45 348.49 472.35 346.73L472.35 346.73L472.24 342.79Q468.61 347.46 462.81 350.00Q457.00 352.54 450.98 352.54L450.98 352.54Q445.80 352.54 441.60 350.31Q437.40 348.08 435.07 344.29Q432.73 340.51 432.73 335.94ZM468.93 340.09L468.93 340.09Q470.07 338.64 470.69 337.29Q471.31 335.94 471.31 334.91L471.31 334.91L471.31 327.03Q467.78 325.68 464.00 324.95Q460.21 324.23 456.38 324.23L456.38 324.23Q448.81 324.23 444.14 327.23Q439.47 330.24 439.47 335.43L439.47 335.43Q439.47 338.43 441.03 341.08Q442.58 343.72 445.59 345.43Q448.60 347.14 452.64 347.14L452.64 347.14Q457.73 347.14 462.13 345.17Q466.54 343.20 468.93 340.09ZM493.92 341.65L493.92 275.80L500.97 275.80L500.97 339.26Q500.97 343.31 502.42 344.55Q503.87 345.80 505.95 345.80L505.95 345.80Q507.81 345.80 509.68 345.38Q511.55 344.97 512.90 344.55L512.90 344.55L514.14 350.26Q512.17 351.09 509.32 351.60Q506.47 352.12 504.39 352.12L504.39 352.12Q499.62 352.12 496.77 349.32Q493.92 346.52 493.92 341.65L493.92 341.65ZM567.24 319.87L567.24 351.50L560.19 351.50L560.19 321.32Q560.19 312.20 556.97 307.58Q553.76 302.97 547.74 302.97L547.74 302.97Q543.80 302.97 539.91 304.99Q536.02 307.01 533.07 310.48Q530.11 313.96 528.87 318.42L528.87 318.42L528.87 351.50L521.81 351.50L521.81 275.80L528.87 275.80L528.87 309.71Q532.08 303.69 537.84 300.11Q543.59 296.54 550.13 296.54L550.13 296.54Q554.79 296.54 558.06 298.20Q561.33 299.86 563.35 303.02Q565.37 306.18 566.30 310.38Q567.24 314.58 567.24 319.87L567.24 319.87ZM589.33 351.50L582.27 351.50L582.27 297.47L589.33 297.47L589.33 351.50ZM589.33 286.17L582.27 286.17L582.27 275.80L589.33 275.80L589.33 286.17ZM622.62 352.54L622.62 352.54Q615.98 352.54 610.27 350.36Q604.57 348.18 600.42 343.72L600.42 343.72L603.33 338.74Q607.89 343.00 612.50 344.91Q617.12 346.83 622.30 346.83L622.30 346.83Q628.63 346.83 632.57 344.29Q636.51 341.75 636.51 336.98L636.51 336.98Q636.51 333.77 634.59 332.06Q632.68 330.34 629.10 329.26Q625.52 328.17 620.54 326.92L620.54 326.92Q614.94 325.37 611.16 323.66Q607.37 321.94 605.45 319.30Q603.53 316.66 603.53 312.40L603.53 312.40Q603.53 307.11 606.18 303.64Q608.82 300.17 613.44 298.35Q618.05 296.54 623.76 296.54L623.76 296.54Q629.98 296.54 634.75 298.51Q639.52 300.48 642.53 304.00L642.53 304.00L639.10 308.77Q636.20 305.46 632.21 303.85Q628.22 302.24 623.34 302.24L623.34 302.24Q620.02 302.24 617.02 303.12Q614.01 304.00 612.09 306.03Q610.17 308.05 610.17 311.57L610.17 311.57Q610.17 314.48 611.62 316.08Q613.07 317.69 615.98 318.78Q618.88 319.87 623.13 321.11L623.13 321.11Q629.25 322.77 633.82 324.48Q638.38 326.20 640.87 328.89Q643.36 331.59 643.36 336.46L643.36 336.46Q643.36 344.03 637.65 348.29Q631.95 352.54 622.62 352.54ZM679.03 343.20L680.90 348.91Q680.07 349.22 678.31 350.05Q676.54 350.88 674.05 351.50Q671.56 352.12 668.66 352.12L668.66 352.12Q665.65 352.12 663.01 350.98Q660.36 349.84 658.81 347.51Q657.25 345.17 657.25 341.75L657.25 341.75L657.25 303.07L649.79 303.07L649.79 297.47L657.25 297.47L657.25 279.22L664.30 279.22L664.30 297.47L676.75 297.47L676.75 303.07L664.30 303.07L664.30 339.78Q664.51 342.69 666.43 344.14Q668.35 345.59 670.84 345.59L670.84 345.59Q673.74 345.59 676.13 344.60Q678.51 343.62 679.03 343.20L679.03 343.20ZM685.36 335.94L685.36 335.94Q685.36 330.86 688.26 327.18Q691.16 323.50 696.30 321.48Q701.43 319.46 708.17 319.46L708.17 319.46Q712.11 319.46 716.36 320.08Q720.62 320.70 723.94 321.94L723.94 321.94L723.94 317.38Q723.94 310.54 719.89 306.49Q715.85 302.45 708.69 302.45L708.69 302.45Q704.33 302.45 700.13 304.06Q695.93 305.66 691.37 308.77L691.37 308.77L688.68 303.80Q693.96 300.17 699.05 298.35Q704.13 296.54 709.42 296.54L709.42 296.54Q719.37 296.54 725.18 302.24Q730.99 307.94 730.99 318.00L730.99 318.00L730.99 343.00Q730.99 344.45 731.61 345.12Q732.23 345.80 733.58 345.90L733.58 345.90L733.58 351.50Q732.44 351.60 731.61 351.71Q730.78 351.81 730.36 351.71L730.36 351.71Q727.77 351.60 726.42 350.05Q725.08 348.49 724.97 346.73L724.97 346.73L724.87 342.79Q721.24 347.46 715.43 350.00Q709.62 352.54 703.61 352.54L703.61 352.54Q698.42 352.54 694.22 350.31Q690.02 348.08 687.69 344.29Q685.36 340.51 685.36 335.94ZM721.55 340.09L721.55 340.09Q722.69 338.64 723.31 337.29Q723.94 335.94 723.94 334.91L723.94 334.91L723.94 327.03Q720.41 325.68 716.62 324.95Q712.84 324.23 709.00 324.23L709.00 324.23Q701.43 324.23 696.76 327.23Q692.10 330.24 692.10 335.43L692.10 335.43Q692.10 338.43 693.65 341.08Q695.21 343.72 698.22 345.43Q701.22 347.14 705.27 347.14L705.27 347.14Q710.35 347.14 714.76 345.17Q719.16 343.20 721.55 340.09Z" />
<text transform="rotate(2520, 512, 449)" font-weight="400" fill="#f33640" opacity="1" x="512" y="475.5" font-family="Times New Roman" font-size="77.7783833920256px" text-anchor="middle">Para ler e reler</text>
<path transform="rotate(14400, 537, 518)" font-weight="400" fill="#aac1e3" opacity="1" d="M428.93 554.62Q418.58 554.62 412.36 550.69Q406.14 546.77 406.14 538.68L406.14 538.68Q406.14 534.40 407.62 532.14Q409.09 529.89 411.97 529.89L411.97 529.89Q414.07 529.89 415.39 530.98Q416.72 532.07 416.72 533.78L416.72 533.78Q416.72 535.33 416.48 536.50L416.48 536.50Q416.48 536.81 416.37 537.59Q416.25 538.37 416.25 539.22L416.25 539.22Q416.25 542.72 419.79 544.43Q423.33 546.14 429.70 546.14L429.70 546.14Q436.32 546.14 440.05 543.77Q443.78 541.40 443.78 537.12L443.78 537.12Q443.78 534.48 442.07 532.57Q440.36 530.67 437.79 529.38Q435.23 528.10 430.56 526.23L430.56 526.23Q424.57 523.90 420.80 521.80Q417.03 519.70 414.34 516.08Q411.66 512.47 411.66 507.10L411.66 507.10Q411.66 501.50 414.65 497.14Q417.65 492.79 423.29 490.38Q428.93 487.97 436.55 487.97L436.55 487.97Q442.23 487.97 446.97 489.64Q451.72 491.31 454.55 494.73Q457.39 498.16 457.39 503.13L457.39 503.13Q457.39 508.03 455.92 510.52Q454.44 513.01 451.56 513.01L451.56 513.01Q449.54 513.01 448.18 511.77Q446.82 510.52 446.82 508.81L446.82 508.81Q446.82 507.33 447.05 506.09L447.05 506.09Q447.28 503.76 447.28 503.13L447.28 503.13Q447.28 499.87 444.09 498.16Q440.90 496.44 436.16 496.44L436.16 496.44Q429.47 496.44 425.93 498.89Q422.39 501.34 422.39 505.78L422.39 505.78Q422.39 508.73 424.22 510.83Q426.05 512.93 428.77 514.33Q431.49 515.73 436.39 517.68L436.39 517.68Q442.30 520.09 445.88 522.03Q449.46 523.98 451.99 527.32Q454.52 530.67 454.52 535.57L454.52 535.57Q454.52 544.74 447.55 549.68Q440.59 554.62 428.93 554.62L428.93 554.62ZM495.82 536.66Q496.83 536.66 497.41 537.59Q497.99 538.52 497.99 540.16L497.99 540.16Q497.99 543.27 496.52 544.98L496.52 544.98Q493.64 548.48 488.39 551.43Q483.14 554.39 477.15 554.39L477.15 554.39Q468.98 554.39 464.47 549.96Q459.96 545.52 459.96 537.82L459.96 537.82Q459.96 532.46 462.22 527.83Q464.47 523.20 468.48 520.48Q472.48 517.76 477.54 517.76L477.54 517.76Q482.05 517.76 484.77 520.44Q487.49 523.12 487.49 527.71L487.49 527.71Q487.49 533.08 483.64 536.93Q479.79 540.78 470.62 543.03L470.62 543.03Q472.56 546.61 478.01 546.61L478.01 546.61Q481.51 546.61 485.98 544.16Q490.45 541.71 493.72 537.74L493.72 537.74Q494.65 536.66 495.82 536.66L495.82 536.66ZM476.22 525.38Q473.34 525.38 471.36 528.72Q469.37 532.07 469.37 536.81L469.37 536.81L469.37 536.97Q473.96 535.88 476.61 533.70Q479.25 531.52 479.25 528.64L479.25 528.64Q479.25 527.17 478.43 526.27Q477.62 525.38 476.22 525.38L476.22 525.38ZM497.22 554.39Q494.26 554.39 493.06 551.28Q491.85 548.17 491.85 541.32L491.85 541.32Q491.85 531.21 494.73 522.11L494.73 522.11Q495.43 519.86 497.02 518.81Q498.62 517.76 501.49 517.76L501.49 517.76Q503.05 517.76 503.67 518.14Q504.29 518.53 504.29 519.62L504.29 519.62Q504.29 520.87 503.13 525.22L503.13 525.22Q502.35 528.33 501.88 530.67Q501.42 533.00 501.11 536.42L501.11 536.42Q503.67 529.73 506.86 525.53Q510.05 521.33 513.12 519.54Q516.19 517.76 518.76 517.76L518.76 517.76Q523.82 517.76 523.82 522.81L523.82 522.81Q523.82 525.84 522.11 533.78L522.11 533.78Q520.63 540.54 520.63 542.72L520.63 542.72Q520.63 545.83 522.88 545.83L522.88 545.83Q524.44 545.83 526.58 543.93Q528.72 542.02 532.29 537.74L532.29 537.74Q533.23 536.66 534.39 536.66L534.39 536.66Q535.41 536.66 535.99 537.59Q536.57 538.52 536.57 540.16L536.57 540.16Q536.57 543.27 535.09 544.98L535.09 544.98Q531.75 549.10 527.90 551.74Q524.05 554.39 519.15 554.39L519.15 554.39Q515.18 554.39 513.16 552.09Q511.14 549.80 511.14 545.44L511.14 545.44Q511.14 543.27 512.23 537.67L512.23 537.67Q513.24 532.77 513.24 530.90L513.24 530.90Q513.24 529.66 512.38 529.66L512.38 529.66Q511.37 529.66 509.54 532.26Q507.72 534.87 505.81 539.14Q503.91 543.42 502.74 548.17L502.74 548.17Q501.88 551.82 500.76 553.11Q499.63 554.39 497.22 554.39L497.22 554.39ZM544.74 556.10Q540.69 556.10 538.56 554.23Q536.42 552.37 536.42 550.03L536.42 550.03Q536.42 548.01 537.89 546.53Q539.37 545.06 542.25 545.06L542.25 545.06Q543.26 545.06 544.62 545.25Q545.98 545.44 546.68 545.52L546.68 545.52Q546.61 543.50 545.79 541.71Q544.97 539.92 543.73 538.25Q542.48 536.58 541.39 535.33L541.39 535.33Q538.98 539.92 536.61 542.96Q534.24 545.99 531.44 548.71L531.44 548.71Q530.04 550.11 528.48 550.11L528.48 550.11Q527.24 550.11 526.46 549.22Q525.68 548.32 525.68 547.00L525.68 547.00Q525.68 545.44 526.77 544.12L526.77 544.12L527.78 542.88Q532.06 537.59 534.24 534.17L534.24 534.17Q535.56 531.91 537.35 528.14Q539.14 524.37 540.85 520.32L540.85 520.32Q542.33 516.90 546.99 516.90L546.99 516.90Q549.17 516.90 550.03 517.29Q550.88 517.68 550.88 518.53L550.88 518.53Q550.88 519.00 550.57 520.01Q550.26 521.02 549.72 522.03L549.72 522.03Q548.32 524.83 548.32 526.78L548.32 526.78Q548.32 527.94 549.13 529.34Q549.95 530.74 551.66 532.84L551.66 532.84Q554.15 536.11 555.43 538.41Q556.72 540.70 556.72 543.42L556.72 543.42Q556.72 544.20 556.56 545.60L556.56 545.60Q560.37 544.12 565.51 537.74L565.51 537.74Q566.44 536.66 567.61 536.66L567.61 536.66Q568.62 536.66 569.20 537.59Q569.78 538.52 569.78 540.16L569.78 540.16Q569.78 543.11 568.31 544.98L568.31 544.98Q564.42 549.80 560.88 551.55Q557.34 553.30 552.13 553.46L552.13 553.46Q549.02 556.10 544.74 556.10L544.74 556.10ZM573.05 554.39Q567.99 554.39 565.70 550.81Q563.41 547.23 563.41 541.32L563.41 541.32Q563.41 537.82 564.30 532.34Q565.19 526.86 566.59 522.11L566.59 522.11Q567.29 519.62 568.46 518.69Q569.63 517.76 572.19 517.76L572.19 517.76Q576.16 517.76 576.16 520.40L576.16 520.40Q576.16 522.34 574.68 529.42L574.68 529.42Q572.82 537.98 572.82 541.01L572.82 541.01Q572.82 543.34 573.44 544.59Q574.06 545.83 575.54 545.83L575.54 545.83Q576.94 545.83 579.04 543.89Q581.14 541.94 584.64 537.74L584.64 537.74Q585.57 536.66 586.74 536.66L586.74 536.66Q587.75 536.66 588.33 537.59Q588.92 538.52 588.92 540.16L588.92 540.16Q588.92 543.27 587.44 544.98L587.44 544.98Q579.74 554.39 573.05 554.39L573.05 554.39ZM572.89 512.62Q571.81 512.62 570.99 511.81Q570.17 510.99 570.17 509.82L570.17 509.82Q570.17 509.28 570.56 508.34L570.56 508.34L577.79 492.17Q578.49 490.61 579.62 489.87Q580.75 489.13 582.15 489.13L582.15 489.13Q584.09 489.13 585.61 490.53Q587.13 491.93 587.13 494.03L587.13 494.03Q587.13 496.21 585.42 498.39L585.42 498.39L575.38 511.30Q574.37 512.62 572.89 512.62L572.89 512.62ZM621.90 530.36Q622.13 530.28 622.67 530.28L622.67 530.28Q623.84 530.28 624.46 531.06Q625.08 531.83 625.08 533.16L625.08 533.16Q625.08 535.57 624.15 536.93Q623.22 538.29 621.35 538.91L621.35 538.91Q617.77 540.08 613.73 540.08L613.73 540.08Q610.31 540.08 607.27 539.14L607.27 539.14Q605.02 542.80 602.29 546.69L602.29 546.69Q599.18 551.12 596.93 552.76Q594.67 554.39 591.79 554.39L591.79 554.39Q588.61 554.39 586.78 551.90Q584.95 549.41 584.48 544.04L584.48 544.04Q583.55 533.16 583.55 524.99L583.55 524.99L583.55 522.27Q583.63 519.70 584.95 518.69Q586.27 517.68 588.92 517.68L588.92 517.68Q590.94 517.68 591.91 518.57Q592.88 519.47 592.88 521.57L592.88 521.57Q592.88 530.51 593.97 544.82L593.97 544.82Q598.64 537.90 600.97 533.78L600.97 533.78Q599.81 531.52 599.81 528.41L599.81 528.41Q599.81 525.77 600.97 523.28Q602.14 520.79 604.16 519.23Q606.18 517.68 608.75 517.68L608.75 517.68Q611.01 517.68 612.41 519.27Q613.81 520.87 613.81 523.90L613.81 523.90Q613.81 527.40 611.94 531.91L611.94 531.91Q614.90 531.76 619.80 530.74L619.80 530.74L621.90 530.36ZM653.01 536.66Q654.02 536.66 654.60 537.59Q655.18 538.52 655.18 540.16L655.18 540.16Q655.18 543.27 653.71 544.98L653.71 544.98Q650.83 548.48 645.58 551.43Q640.33 554.39 634.34 554.39L634.34 554.39Q626.17 554.39 621.66 549.96Q617.15 545.52 617.15 537.82L617.15 537.82Q617.15 532.46 619.41 527.83Q621.66 523.20 625.67 520.48Q629.67 517.76 634.73 517.76L634.73 517.76Q639.24 517.76 641.96 520.44Q644.68 523.12 644.68 527.71L644.68 527.71Q644.68 533.08 640.83 536.93Q636.98 540.78 627.81 543.03L627.81 543.03Q629.75 546.61 635.20 546.61L635.20 546.61Q638.70 546.61 643.17 544.16Q647.64 541.71 650.91 537.74L650.91 537.74Q651.84 536.66 653.01 536.66L653.01 536.66ZM633.41 525.38Q630.53 525.38 628.55 528.72Q626.56 532.07 626.56 536.81L626.56 536.81L626.56 536.97Q631.15 535.88 633.80 533.70Q636.44 531.52 636.44 528.64L636.44 528.64Q636.44 527.17 635.62 526.27Q634.81 525.38 633.41 525.38L633.41 525.38ZM678.36 536.66Q679.37 536.66 679.96 537.59Q680.54 538.52 680.54 540.16L680.54 540.16Q680.54 543.27 679.06 544.98L679.06 544.98Q675.72 549.10 671.79 551.74Q667.86 554.39 662.88 554.39L662.88 554.39Q656.04 554.39 652.73 548.17Q649.43 541.94 649.43 532.07L649.43 532.07Q649.43 522.58 651.88 510.44Q654.33 498.31 659.11 489.60Q663.90 480.89 670.51 480.89L670.51 480.89Q674.24 480.89 676.38 484.35Q678.52 487.81 678.52 494.27L678.52 494.27Q678.52 503.52 673.38 515.73Q668.25 527.94 659.46 539.92L659.46 539.92Q660.01 543.11 661.25 544.47Q662.50 545.83 664.52 545.83L664.52 545.83Q667.71 545.83 670.12 544.01Q672.53 542.18 676.26 537.74L676.26 537.74Q677.20 536.66 678.36 536.66L678.36 536.66ZM668.80 488.59Q667.01 488.59 664.75 495.04Q662.50 501.50 660.78 511.07Q659.07 520.63 658.92 529.42L658.92 529.42Q664.44 520.32 667.71 511.18Q670.97 502.04 670.97 494.50L670.97 494.50Q670.97 488.59 668.80 488.59L668.80 488.59Z" />
<path transform="rotate(16920, 525, 233)" font-weight="400" fill="#aac1e3" opacity="1" d="M482.49 216.22Q482.49 222.83 477.83 227.62Q473.16 232.40 464.22 234.50L464.22 234.50Q469.04 235.82 471.53 238.82Q474.02 241.81 474.02 245.70L474.02 245.70Q474.02 251.84 470.17 256.36Q466.32 260.87 458.93 263.32Q451.54 265.77 441.12 265.77L441.12 265.77Q437.23 265.77 434.89 265.53L434.89 265.53Q434.82 267.71 433.03 268.80Q431.24 269.89 428.44 269.89L428.44 269.89Q425.64 269.89 424.59 268.64Q423.54 267.40 423.69 264.99L423.69 264.99Q424.39 254.10 426.42 242.16Q428.44 230.22 431.55 219.10L431.55 219.10Q432.09 217.16 433.73 216.38Q435.36 215.60 438.00 215.60L438.00 215.60Q442.75 215.60 442.75 218.24L442.75 218.24Q442.75 219.33 442.28 220.73L442.28 220.73Q440.26 226.80 438.24 237.18Q436.22 247.57 435.36 256.98L435.36 256.98Q439.09 257.29 441.43 257.29L441.43 257.29Q452.32 257.29 457.41 254.14Q462.51 250.99 462.51 246.09L462.51 246.09Q462.51 242.67 459.59 240.33Q456.67 238.00 449.83 237.77L449.83 237.77Q448.27 237.69 447.65 236.99Q447.03 236.29 447.03 234.73L447.03 234.73Q447.03 232.48 447.96 231.08Q448.89 229.68 451.38 229.60L451.38 229.60Q456.91 229.44 461.38 227.97Q465.85 226.49 468.42 223.81Q470.98 221.12 470.98 217.54L470.98 217.54Q470.98 213.03 466.55 210.43Q462.12 207.82 452.94 207.82L452.94 207.82Q444.62 207.82 436.84 209.96Q429.06 212.10 423.62 215.37L423.62 215.37Q421.13 216.84 419.42 216.84L419.42 216.84Q418.02 216.84 417.28 215.87Q416.54 214.90 416.54 213.42L416.54 213.42Q416.54 211.48 417.35 210.08Q418.17 208.68 421.28 206.89L421.28 206.89Q427.82 203.16 436.60 201.06Q445.39 198.96 454.57 198.96L454.57 198.96Q468.65 198.96 475.57 203.70Q482.49 208.44 482.49 216.22L482.49 216.22ZM519.98 242.12Q520.99 242.12 521.54 243.13Q522.08 244.14 522.08 245.70L522.08 245.70Q522.08 249.43 519.83 250.13L519.83 250.13Q515.16 251.77 509.56 252.00L509.56 252.00Q508.08 258.53 503.73 262.46Q499.37 266.39 493.85 266.39L493.85 266.39Q489.18 266.39 485.88 264.13Q482.57 261.88 480.86 258.14Q479.15 254.41 479.15 250.06L479.15 250.06Q479.15 244.14 481.41 239.52Q483.66 234.89 487.63 232.28Q491.59 229.68 496.42 229.68L496.42 229.68Q502.33 229.68 505.94 233.76Q509.56 237.84 510.18 243.83L510.18 243.83Q513.84 243.60 518.89 242.28L518.89 242.28Q519.52 242.12 519.98 242.12L519.98 242.12ZM494.47 258.14Q496.96 258.14 498.79 256.12Q500.62 254.10 501.24 250.29L501.24 250.29Q498.83 248.66 497.54 246.01Q496.26 243.37 496.26 240.41L496.26 240.41Q496.26 239.17 496.49 237.92L496.49 237.92L496.11 237.92Q492.99 237.92 490.93 240.92Q488.87 243.91 488.87 249.36L488.87 249.36Q488.87 253.63 490.54 255.89Q492.22 258.14 494.47 258.14L494.47 258.14ZM520.92 266.39Q517.96 266.39 516.76 263.28Q515.55 260.17 515.55 253.32L515.55 253.32Q515.55 243.21 518.43 234.11L518.43 234.11Q519.13 231.86 520.72 230.81Q522.32 229.76 525.19 229.76L525.19 229.76Q526.75 229.76 527.37 230.14Q527.99 230.53 527.99 231.62L527.99 231.62Q527.99 232.87 526.83 237.22L526.83 237.22Q526.05 240.33 525.58 242.67Q525.12 245.00 524.81 248.42L524.81 248.42Q527.37 241.73 530.56 237.53Q533.75 233.33 536.82 231.54Q539.89 229.76 542.46 229.76L542.46 229.76Q547.52 229.76 547.52 234.81L547.52 234.81Q547.52 237.84 545.81 245.78L545.81 245.78Q544.33 252.54 544.33 254.72L544.33 254.72Q544.33 257.83 546.58 257.83L546.58 257.83Q548.14 257.83 550.28 255.93Q552.42 254.02 555.99 249.74L555.99 249.74Q556.93 248.66 558.09 248.66L558.09 248.66Q559.11 248.66 559.69 249.59Q560.27 250.52 560.27 252.16L560.27 252.16Q560.27 255.27 558.79 256.98L558.79 256.98Q555.45 261.10 551.60 263.74Q547.75 266.39 542.85 266.39L542.85 266.39Q538.88 266.39 536.86 264.09Q534.84 261.80 534.84 257.44L534.84 257.44Q534.84 255.27 535.93 249.67L535.93 249.67Q536.94 244.77 536.94 242.90L536.94 242.90Q536.94 241.66 536.08 241.66L536.08 241.66Q535.07 241.66 533.24 244.26Q531.42 246.87 529.51 251.14Q527.61 255.42 526.44 260.17L526.44 260.17Q525.58 263.82 524.46 265.11Q523.33 266.39 520.92 266.39L520.92 266.39ZM564.16 224.62Q560.89 224.62 559.26 223.11Q557.63 221.59 557.63 218.87L557.63 218.87Q557.63 216.14 559.77 214.32Q561.91 212.49 565.09 212.49L565.09 212.49Q567.97 212.49 569.76 213.89Q571.55 215.29 571.55 217.86L571.55 217.86Q571.55 220.97 569.53 222.79Q567.51 224.62 564.16 224.62L564.16 224.62ZM563.54 266.39Q558.48 266.39 556.19 262.81Q553.89 259.23 553.89 253.32L553.89 253.32Q553.89 249.82 554.79 244.34Q555.68 238.86 557.08 234.11L557.08 234.11Q557.78 231.62 558.95 230.69Q560.12 229.76 562.68 229.76L562.68 229.76Q566.65 229.76 566.65 232.40L566.65 232.40Q566.65 234.34 565.17 241.42L565.17 241.42Q563.31 249.98 563.31 253.01L563.31 253.01Q563.31 255.34 563.93 256.59Q564.55 257.83 566.03 257.83L566.03 257.83Q567.43 257.83 569.53 255.89Q571.63 253.94 575.13 249.74L575.13 249.74Q576.06 248.66 577.23 248.66L577.23 248.66Q578.24 248.66 578.82 249.59Q579.41 250.52 579.41 252.16L579.41 252.16Q579.41 255.27 577.93 256.98L577.93 256.98Q570.23 266.39 563.54 266.39L563.54 266.39ZM607.80 248.66Q608.81 248.66 609.39 249.59Q609.97 250.52 609.97 252.16L609.97 252.16Q609.97 255.27 608.50 256.98L608.50 256.98Q605.15 261.10 601.18 263.74Q597.22 266.39 592.08 266.39L592.08 266.39Q576.22 266.39 576.22 244.07L576.22 244.07Q576.22 240.64 576.45 237.14L576.45 237.14L573.42 237.14Q571.08 237.14 570.27 236.29Q569.45 235.43 569.45 233.57L569.45 233.57Q569.45 229.21 572.95 229.21L572.95 229.21L577.38 229.21Q578.71 220.66 581.43 213.58Q584.15 206.50 588.00 202.30Q591.85 198.10 596.28 198.10L596.28 198.10Q599.55 198.10 601.42 200.98Q603.28 203.86 603.28 208.21L603.28 208.21Q603.28 220.27 593.17 229.21L593.17 229.21L601.88 229.21Q603.13 229.21 603.67 229.76Q604.22 230.30 604.22 231.78L604.22 231.78Q604.22 237.14 595.43 237.14L595.43 237.14L585.94 237.14Q585.78 241.03 585.78 243.21L585.78 243.21Q585.78 251.30 587.69 254.57Q589.59 257.83 593.72 257.83L593.72 257.83Q597.06 257.83 599.63 255.81Q602.20 253.79 605.70 249.74L605.70 249.74Q606.63 248.66 607.80 248.66L607.80 248.66ZM594.18 205.57Q593.02 205.57 591.58 208.48Q590.14 211.40 588.86 216.57Q587.57 221.74 586.72 228.04L586.72 228.04Q591.31 224.08 593.60 219.14Q595.89 214.20 595.89 210.16L595.89 210.16Q595.89 205.57 594.18 205.57L594.18 205.57ZM643.34 242.12Q644.35 242.12 644.90 243.13Q645.44 244.14 645.44 245.70L645.44 245.70Q645.44 249.43 643.18 250.13L643.18 250.13Q638.52 251.77 632.92 252.00L632.92 252.00Q631.44 258.53 627.08 262.46Q622.73 266.39 617.21 266.39L617.21 266.39Q612.54 266.39 609.23 264.13Q605.93 261.88 604.22 258.14Q602.51 254.41 602.51 250.06L602.51 250.06Q602.51 244.14 604.76 239.52Q607.02 234.89 610.98 232.28Q614.95 229.68 619.77 229.68L619.77 229.68Q625.68 229.68 629.30 233.76Q632.92 237.84 633.54 243.83L633.54 243.83Q637.20 243.60 642.25 242.28L642.25 242.28Q642.87 242.12 643.34 242.12L643.34 242.12ZM617.83 258.14Q620.32 258.14 622.15 256.12Q623.97 254.10 624.60 250.29L624.60 250.29Q622.18 248.66 620.90 246.01Q619.62 243.37 619.62 240.41L619.62 240.41Q619.62 239.17 619.85 237.92L619.85 237.92L619.46 237.92Q616.35 237.92 614.29 240.92Q612.23 243.91 612.23 249.36L612.23 249.36Q612.23 253.63 613.90 255.89Q615.57 258.14 617.83 258.14L617.83 258.14Z" />
<path transform="rotate(4320, 525, 592)" font-weight="400" fill="#b3a3ff" opacity="1" d="M471.83 596.44Q472.50 596.44 472.89 597.06Q473.28 597.68 473.28 598.77L473.28 598.77Q473.28 600.79 472.29 601.99L472.29 601.99Q469.80 604.99 467.26 606.63Q464.72 608.26 461.25 608.26L461.25 608.26Q457.88 608.26 455.52 606.44Q453.16 604.63 451.03 600.22L451.03 600.22Q449.32 596.70 448.34 595.01Q447.35 593.33 446.39 592.60Q445.43 591.87 444.03 591.72L444.03 591.72Q443.83 592.81 442.84 598.56L442.84 598.56Q442.43 601.16 442.32 601.73L442.32 601.73Q441.80 604.89 440.25 606.57Q438.69 608.26 435.53 608.26L435.53 608.26Q432.05 608.26 429.38 606.21Q426.71 604.16 425.26 600.51Q423.81 596.85 423.81 592.19L423.81 592.19Q423.81 583.47 426.84 577.15Q429.88 570.82 435.35 567.48Q440.82 564.13 447.97 564.13L447.97 564.13Q452.95 564.13 456.32 565.64Q459.69 567.14 461.33 569.78Q462.96 572.43 462.96 575.75L462.96 575.75Q462.96 578.65 461.58 581.43Q460.21 584.20 457.46 586.33Q454.71 588.45 450.77 589.49L450.77 589.49Q453.26 590.16 454.61 591.67Q455.96 593.17 457.31 596.07L457.31 596.07Q458.76 599.19 460.18 600.64Q461.61 602.09 463.48 602.09L463.48 602.09Q465.14 602.09 466.64 600.97Q468.14 599.86 470.43 597.16L470.43 597.16Q471.05 596.44 471.83 596.44L471.83 596.44ZM435.48 599.44L436.88 591.67Q435.11 591.67 434.47 590.84Q433.82 590.01 433.82 588.97L433.82 588.97Q433.82 587.73 434.62 587.00Q435.43 586.27 436.46 586.27L436.46 586.27L437.76 586.27Q438.59 581.19 439.31 577.51L439.31 577.51Q439.99 574.14 443.67 574.14L443.67 574.14Q446.63 574.14 446.63 576.78L446.63 576.78Q446.63 577.36 446.57 577.67L446.57 577.67L445.02 586.27Q447.82 586.12 450.13 584.93Q452.43 583.73 453.81 581.61Q455.18 579.48 455.18 576.78L455.18 576.78Q455.18 573.52 452.95 571.65Q450.72 569.78 446.42 569.78L446.42 569.78Q441.34 569.78 437.53 572.30Q433.71 574.81 431.59 579.77Q429.46 584.72 429.46 591.82L429.46 591.82Q429.46 595.14 430.14 597.53Q430.81 599.91 431.80 601.10Q432.78 602.30 433.66 602.30L433.66 602.30Q434.34 602.30 434.78 601.62Q435.22 600.95 435.48 599.44L435.48 599.44ZM491.17 596.44Q491.84 596.44 492.23 597.06Q492.62 597.68 492.62 598.77L492.62 598.77Q492.62 600.84 491.63 601.99L491.63 601.99Q489.71 604.32 486.21 606.29Q482.71 608.26 478.72 608.26L478.72 608.26Q473.28 608.26 470.27 605.30Q467.26 602.35 467.26 597.21L467.26 597.21Q467.26 593.64 468.77 590.55Q470.27 587.47 472.94 585.65Q475.61 583.84 478.98 583.84L478.98 583.84Q481.99 583.84 483.80 585.63Q485.62 587.41 485.62 590.47L485.62 590.47Q485.62 594.05 483.05 596.62Q480.48 599.19 474.37 600.69L474.37 600.69Q475.66 603.07 479.29 603.07L479.29 603.07Q481.63 603.07 484.61 601.44Q487.59 599.81 489.77 597.16L489.77 597.16Q490.39 596.44 491.17 596.44L491.17 596.44ZM478.10 588.92Q476.18 588.92 474.86 591.15Q473.54 593.38 473.54 596.54L473.54 596.54L473.54 596.64Q476.60 595.92 478.36 594.47Q480.12 593.01 480.12 591.10L480.12 591.10Q480.12 590.11 479.58 589.51Q479.03 588.92 478.10 588.92L478.10 588.92ZM508.59 593.48Q510.04 593.48 510.04 595.66L510.04 595.66Q510.04 599.76 503.61 599.76L503.61 599.76Q502.37 599.76 500.03 599.29L500.03 599.29Q500.71 602.50 501.15 606.42Q501.59 610.33 501.59 612.87L501.59 612.87Q501.59 618.47 499.77 621.43Q497.96 624.39 495.00 624.39L495.00 624.39Q491.27 624.39 489.69 619.10Q488.11 613.81 488.11 603.13L488.11 603.13Q488.11 593.17 490.26 582.93Q492.41 572.69 496.17 565.97Q499.93 559.26 504.44 559.26L504.44 559.26Q506.88 559.26 508.25 561.44Q509.63 563.61 509.63 567.30L509.63 567.30Q509.63 579.48 495.06 593.84L495.06 593.84Q494.54 598.93 494.54 602.76L494.54 602.76Q494.54 608.10 494.90 613.73Q495.26 619.36 496.09 619.36L496.09 619.36Q497.65 619.36 497.65 613.96L497.65 613.96Q497.65 609.92 497.10 606.13Q496.56 602.35 495.63 598.15L495.63 598.15Q495.57 597.47 496.07 596.44Q496.56 595.40 497.28 594.62Q498.01 593.84 498.58 593.84L498.58 593.84Q499.62 593.84 501.07 593.95L501.07 593.95Q501.54 594.00 502.16 594.00L502.16 594.00Q504.23 594.00 506.77 593.64L506.77 593.64Q507.19 593.59 507.66 593.53Q508.12 593.48 508.59 593.48L508.59 593.48ZM503.35 564.39Q502.42 564.39 501.04 567.56Q499.67 570.72 498.32 575.93Q496.97 581.14 495.99 586.95L495.99 586.95Q500.14 582.23 502.37 577.12Q504.60 572.01 504.65 567.56L504.65 567.56Q504.65 564.39 503.35 564.39L503.35 564.39ZM526.79 596.44Q527.46 596.44 527.85 597.06Q528.24 597.68 528.24 598.77L528.24 598.77Q528.24 600.84 527.26 601.99L527.26 601.99Q525.03 604.73 522.41 606.50Q519.79 608.26 516.47 608.26L516.47 608.26Q511.91 608.26 509.70 604.11Q507.50 599.96 507.50 593.38L507.50 593.38Q507.50 587.05 509.13 578.96Q510.77 570.87 513.96 565.07Q517.14 559.26 521.55 559.26L521.55 559.26Q524.04 559.26 525.47 561.57Q526.89 563.87 526.89 568.18L526.89 568.18Q526.89 574.35 523.47 582.49Q520.05 590.63 514.19 598.61L514.19 598.61Q514.55 600.74 515.38 601.65Q516.21 602.56 517.56 602.56L517.56 602.56Q519.69 602.56 521.29 601.34Q522.90 600.12 525.39 597.16L525.39 597.16Q526.01 596.44 526.79 596.44L526.79 596.44ZM520.41 564.39Q519.22 564.39 517.71 568.70Q516.21 573.00 515.07 579.38Q513.93 585.76 513.83 591.61L513.83 591.61Q517.51 585.55 519.69 579.46Q521.86 573.36 521.86 568.33L521.86 568.33Q521.86 564.39 520.41 564.39L520.41 564.39ZM547.17 596.44Q547.84 596.44 548.23 597.06Q548.62 597.68 548.62 598.77L548.62 598.77Q548.62 600.84 547.63 601.99L547.63 601.99Q545.71 604.32 542.21 606.29Q538.71 608.26 534.72 608.26L534.72 608.26Q529.28 608.26 526.27 605.30Q523.26 602.35 523.26 597.21L523.26 597.21Q523.26 593.64 524.77 590.55Q526.27 587.47 528.94 585.65Q531.61 583.84 534.98 583.84L534.98 583.84Q537.99 583.84 539.80 585.63Q541.62 587.41 541.62 590.47L541.62 590.47Q541.62 594.05 539.05 596.62Q536.49 599.19 530.37 600.69L530.37 600.69Q531.66 603.07 535.29 603.07L535.29 603.07Q537.63 603.07 540.61 601.44Q543.59 599.81 545.77 597.16L545.77 597.16Q546.39 596.44 547.17 596.44L547.17 596.44ZM534.10 588.92Q532.18 588.92 530.86 591.15Q529.54 593.38 529.54 596.54L529.54 596.54L529.54 596.64Q532.60 595.92 534.36 594.47Q536.12 593.01 536.12 591.10L536.12 591.10Q536.12 590.11 535.58 589.51Q535.03 588.92 534.10 588.92L534.10 588.92ZM574.34 596.44Q575.01 596.44 575.40 597.06Q575.79 597.68 575.79 598.77L575.79 598.77Q575.79 600.84 574.80 601.99L574.80 601.99Q572.52 604.68 569.80 606.47Q567.08 608.26 563.66 608.26L563.66 608.26Q561.01 608.26 558.96 607.27Q556.92 606.29 555.72 604.47L555.72 604.47Q552.77 608.21 548.72 608.21L548.72 608.21Q545.87 608.21 544.21 606.55Q542.55 604.89 542.55 602.14L542.55 602.14Q542.55 599.55 543.74 597.94Q544.94 596.33 547.11 596.33L547.11 596.33Q548.98 596.33 548.98 597.73L548.98 597.73Q548.98 598.10 548.88 599.03L548.88 599.03Q548.72 600.90 548.72 601.16L548.72 601.16Q548.72 602.71 550.07 602.71L550.07 602.71Q551.06 602.71 551.96 601.54Q552.87 600.38 553.47 598.36Q554.06 596.33 554.06 593.90L554.06 593.90Q554.06 592.03 553.60 590.76Q553.13 589.49 552.46 589.49L552.46 589.49Q551.89 589.49 551.63 589.77Q551.37 590.06 551.11 590.73L551.11 590.73Q550.80 591.56 550.28 592.06Q549.76 592.55 548.46 592.55L548.46 592.55Q547.32 592.55 546.65 591.74Q545.97 590.94 545.97 589.28L545.97 589.28Q545.97 586.64 547.58 585.13Q549.19 583.63 551.73 583.63L551.73 583.63Q553.91 583.63 555.67 584.69Q557.43 585.76 558.37 587.78L558.37 587.78Q559.92 585.70 561.87 584.67Q563.81 583.63 565.68 583.63L565.68 583.63Q567.70 583.63 568.76 584.56Q569.83 585.50 569.83 587.57L569.83 587.57Q569.83 589.90 568.94 591.23Q568.06 592.55 566.82 592.55L566.82 592.55Q565.68 592.55 565.26 592.08Q564.85 591.61 564.64 590.73L564.64 590.73Q564.54 590.11 564.33 589.80Q564.12 589.49 563.60 589.49L563.60 589.49Q562.98 589.49 562.28 590.66Q561.58 591.82 561.09 593.74Q560.60 595.66 560.60 597.73L560.60 597.73Q560.60 600.17 561.76 601.49Q562.93 602.81 564.95 602.81L564.95 602.81Q566.97 602.81 568.76 601.44Q570.55 600.07 572.94 597.16L572.94 597.16Q573.56 596.44 574.34 596.44L574.34 596.44ZM578.38 580.41Q576.20 580.41 575.12 579.40Q574.03 578.39 574.03 576.58L574.03 576.58Q574.03 574.76 575.45 573.54Q576.88 572.33 579.00 572.33L579.00 572.33Q580.92 572.33 582.12 573.26Q583.31 574.19 583.31 575.90L583.31 575.90Q583.31 577.98 581.96 579.20Q580.61 580.41 578.38 580.41L578.38 580.41ZM577.97 608.26Q574.60 608.26 573.07 605.87Q571.54 603.49 571.54 599.55L571.54 599.55Q571.54 597.21 572.13 593.56Q572.73 589.90 573.66 586.74L573.66 586.74Q574.13 585.08 574.91 584.46Q575.69 583.84 577.40 583.84L577.40 583.84Q580.04 583.84 580.04 585.60L580.04 585.60Q580.04 586.90 579.06 591.61L579.06 591.61Q577.81 597.32 577.81 599.34L577.81 599.34Q577.81 600.90 578.23 601.73Q578.64 602.56 579.63 602.56L579.63 602.56Q580.56 602.56 581.96 601.26Q583.36 599.96 585.69 597.16L585.69 597.16Q586.32 596.44 587.09 596.44L587.09 596.44Q587.77 596.44 588.16 597.06Q588.54 597.68 588.54 598.77L588.54 598.77Q588.54 600.84 587.56 601.99L587.56 601.99Q582.43 608.26 577.97 608.26L577.97 608.26ZM610.53 592.24Q610.69 592.19 611.05 592.19L611.05 592.19Q611.83 592.19 612.24 592.70Q612.66 593.22 612.66 594.10L612.66 594.10Q612.66 595.71 612.03 596.62Q611.41 597.53 610.17 597.94L610.17 597.94Q607.78 598.72 605.09 598.72L605.09 598.72Q602.80 598.72 600.78 598.10L600.78 598.10Q599.28 600.53 597.46 603.13L597.46 603.13Q595.39 606.08 593.89 607.17Q592.38 608.26 590.46 608.26L590.46 608.26Q588.34 608.26 587.12 606.60Q585.90 604.94 585.59 601.36L585.59 601.36Q584.97 594.10 584.97 588.66L584.97 588.66L584.97 586.84Q585.02 585.13 585.90 584.46Q586.78 583.78 588.54 583.78L588.54 583.78Q589.89 583.78 590.54 584.38Q591.19 584.98 591.19 586.38L591.19 586.38Q591.19 592.34 591.92 601.88L591.92 601.88Q595.03 597.27 596.58 594.52L596.58 594.52Q595.80 593.01 595.80 590.94L595.80 590.94Q595.80 589.18 596.58 587.52Q597.36 585.86 598.71 584.82Q600.06 583.78 601.77 583.78L601.77 583.78Q603.27 583.78 604.20 584.85Q605.14 585.91 605.14 587.93L605.14 587.93Q605.14 590.27 603.89 593.27L603.89 593.27Q605.86 593.17 609.13 592.50L609.13 592.50L610.53 592.24ZM634.59 592.08Q635.26 592.08 635.63 592.76Q635.99 593.43 635.99 594.47L635.99 594.47Q635.99 596.96 634.49 597.42L634.49 597.42Q631.37 598.51 627.64 598.67L627.64 598.67Q626.66 603.02 623.75 605.64Q620.85 608.26 617.17 608.26L617.17 608.26Q614.06 608.26 611.85 606.76Q609.65 605.25 608.51 602.76Q607.37 600.27 607.37 597.37L607.37 597.37Q607.37 593.43 608.87 590.34Q610.37 587.26 613.02 585.52Q615.66 583.78 618.88 583.78L618.88 583.78Q622.82 583.78 625.23 586.51Q627.64 589.23 628.06 593.22L628.06 593.22Q630.49 593.07 633.86 592.19L633.86 592.19Q634.28 592.08 634.59 592.08L634.59 592.08ZM617.58 602.76Q619.24 602.76 620.46 601.41Q621.68 600.07 622.09 597.53L622.09 597.53Q620.49 596.44 619.63 594.67Q618.77 592.91 618.77 590.94L618.77 590.94Q618.77 590.11 618.93 589.28L618.93 589.28L618.67 589.28Q616.60 589.28 615.22 591.28Q613.85 593.27 613.85 596.90L613.85 596.90Q613.85 599.76 614.96 601.26Q616.08 602.76 617.58 602.76L617.58 602.76Z" />
<path transform="rotate(7919.999999999999, 487, 170)" font-weight="400" fill="#41b1ff" opacity="1" d="M439.66 183.50L436.03 183.50L436.03 153.53L422.70 176.81L420.42 176.81L407.04 153.53L407.04 183.50L403.41 183.50L403.41 146.68L407.15 146.68L421.51 171.89L435.98 146.68L439.66 146.68L439.66 183.50ZM445.98 175.72L445.98 175.72Q445.98 173.18 447.44 171.34Q448.89 169.50 451.46 168.49Q454.02 167.48 457.39 167.48L457.39 167.48Q459.36 167.48 461.49 167.79Q463.61 168.10 465.27 168.72L465.27 168.72L465.27 166.44Q465.27 163.02 463.25 161.00Q461.23 158.97 457.65 158.97L457.65 158.97Q455.47 158.97 453.37 159.78Q451.27 160.58 448.99 162.14L448.99 162.14L447.64 159.65Q450.29 157.83 452.83 156.93Q455.37 156.02 458.01 156.02L458.01 156.02Q462.99 156.02 465.90 158.87Q468.80 161.72 468.80 166.75L468.80 166.75L468.80 179.25Q468.80 179.97 469.11 180.31Q469.42 180.65 470.10 180.70L470.10 180.70L470.10 183.50Q469.53 183.55 469.11 183.60Q468.70 183.66 468.49 183.60L468.49 183.60Q467.19 183.55 466.52 182.77Q465.84 182.00 465.79 181.11L465.79 181.11L465.74 179.14Q463.93 181.48 461.02 182.75Q458.12 184.02 455.11 184.02L455.11 184.02Q452.52 184.02 450.42 182.90Q448.32 181.79 447.15 179.90Q445.98 178.00 445.98 175.72ZM464.08 177.80L464.08 177.80Q464.65 177.07 464.96 176.40Q465.27 175.72 465.27 175.20L465.27 175.20L465.27 171.26Q463.51 170.59 461.62 170.23Q459.73 169.86 457.81 169.86L457.81 169.86Q454.02 169.86 451.69 171.37Q449.36 172.87 449.36 175.46L449.36 175.46Q449.36 176.97 450.13 178.29Q450.91 179.61 452.41 180.47Q453.92 181.32 455.94 181.32L455.94 181.32Q458.48 181.32 460.68 180.34Q462.89 179.35 464.08 177.80ZM463.61 145.65L459.16 151.35L456.82 150.47L459.88 145.65L463.61 145.65ZM487.26 183.86L487.26 183.86Q484.51 183.86 482.18 182.72Q479.84 181.58 478.16 179.64Q476.47 177.69 475.54 175.20Q474.61 172.71 474.61 170.07L474.61 170.07Q474.61 167.22 475.51 164.70Q476.42 162.19 478.11 160.22Q479.79 158.25 482.07 157.13Q484.36 156.02 487.16 156.02L487.16 156.02Q490.63 156.02 493.20 157.78Q495.76 159.54 497.53 162.14L497.53 162.14L497.53 156.48L500.69 156.48L500.69 183.60Q500.69 187.34 498.90 189.90Q497.11 192.47 494.08 193.77Q491.04 195.06 487.47 195.06L487.47 195.06Q482.85 195.06 480.00 193.40Q477.15 191.74 475.33 188.94L475.33 188.94L477.51 187.23Q479.12 189.77 481.79 191.02Q484.46 192.26 487.47 192.26L487.47 192.26Q490.11 192.26 492.31 191.30Q494.52 190.34 495.84 188.43Q497.16 186.51 497.16 183.60L497.16 183.60L497.16 178.26Q495.61 180.80 492.91 182.33Q490.21 183.86 487.26 183.86ZM488.24 180.91L488.24 180.91Q489.85 180.91 491.33 180.34Q492.81 179.77 494.05 178.81Q495.30 177.85 496.13 176.66Q496.96 175.46 497.16 174.22L497.16 174.22L497.16 165.87Q496.39 163.90 494.93 162.37Q493.48 160.84 491.64 159.99Q489.80 159.13 487.83 159.13L487.83 159.13Q485.55 159.13 483.76 160.09Q481.97 161.05 480.75 162.63Q479.53 164.21 478.86 166.18Q478.19 168.15 478.19 170.12L478.19 170.12Q478.19 172.30 478.96 174.24Q479.74 176.19 481.11 177.72Q482.49 179.25 484.33 180.08Q486.17 180.91 488.24 180.91ZM511.99 183.50L508.47 183.50L508.47 156.48L511.99 156.48L511.99 183.50ZM511.99 150.83L508.47 150.83L508.47 145.65L511.99 145.65L511.99 150.83ZM531.49 184.02L531.49 184.02Q528.53 184.02 526.07 182.90Q523.61 181.79 521.77 179.82Q519.93 177.85 518.92 175.31Q517.90 172.77 517.90 169.91L517.90 169.91Q517.90 166.08 519.62 162.91Q521.33 159.75 524.39 157.88Q527.44 156.02 531.44 156.02L531.44 156.02Q535.22 156.02 538.13 157.76Q541.03 159.49 542.43 162.45L542.43 162.45L539.01 163.54Q537.87 161.46 535.82 160.30Q533.77 159.13 531.28 159.13L531.28 159.13Q528.59 159.13 526.36 160.53Q524.13 161.93 522.80 164.37Q521.48 166.80 521.48 169.91L521.48 169.91Q521.48 172.97 522.83 175.46Q524.18 177.95 526.41 179.43Q528.64 180.91 531.33 180.91L531.33 180.91Q533.10 180.91 534.73 180.29Q536.36 179.66 537.58 178.60Q538.80 177.54 539.22 176.29L539.22 176.29L542.69 177.33Q541.96 179.25 540.28 180.78Q538.59 182.31 536.34 183.16Q534.08 184.02 531.49 184.02ZM559.75 184.02L559.75 184.02Q556.84 184.02 554.38 182.90Q551.92 181.79 550.13 179.84Q548.34 177.90 547.36 175.39Q546.37 172.87 546.37 170.07L546.37 170.07Q546.37 167.17 547.36 164.65Q548.34 162.14 550.16 160.19Q551.97 158.25 554.43 157.13Q556.90 156.02 559.80 156.02L559.80 156.02Q562.70 156.02 565.14 157.13Q567.58 158.25 569.39 160.19Q571.21 162.14 572.19 164.65Q573.18 167.17 573.18 170.07L573.18 170.07Q573.18 172.87 572.19 175.39Q571.21 177.90 569.42 179.84Q567.63 181.79 565.17 182.90Q562.70 184.02 559.75 184.02ZM549.95 170.12L549.95 170.12Q549.95 173.13 551.27 175.59Q552.59 178.06 554.82 179.48Q557.05 180.91 559.75 180.91L559.75 180.91Q562.45 180.91 564.67 179.46Q566.90 178.00 568.25 175.49Q569.60 172.97 569.60 170.02L569.60 170.02Q569.60 167.01 568.25 164.52Q566.90 162.03 564.67 160.58Q562.45 159.13 559.75 159.13L559.75 159.13Q557.05 159.13 554.85 160.63Q552.64 162.14 551.30 164.60Q549.95 167.06 549.95 170.12Z" />
<text transform="rotate(16920, 358, 257)" font-weight="400" fill="#f33640" opacity="1" x="358" y="264" font-family="Helvetica" font-size="25.926127797341866px" text-anchor="middle">instigante</text>
<text transform="rotate(17639.999999999996, 334, 492)" font-weight="400" fill="#01cf46" opacity="1" x="334" y="499" font-family="Helvetica" font-size="25.926127797341866px" text-anchor="middle">primoroso</text>
<path transform="rotate(17639.999999999996, 342, 215)" font-weight="400" fill="#ff9c2e" opacity="1" d="M281.14 224.76L281.14 224.76Q279.69 224.76 278.44 224.20Q277.20 223.64 276.29 222.67Q275.38 221.70 274.88 220.43Q274.37 219.16 274.37 217.71L274.37 217.71Q274.37 215.81 275.24 214.23Q276.11 212.65 277.64 211.71Q279.17 210.76 281.11 210.76L281.11 210.76Q283.11 210.76 284.60 211.72Q286.09 212.68 286.95 214.25Q287.80 215.81 287.80 217.68L287.80 217.68Q287.80 217.89 287.80 218.08Q287.80 218.28 287.78 218.38L287.78 218.38L276.21 218.38Q276.34 219.83 277.03 220.96Q277.72 222.09 278.82 222.75Q279.92 223.41 281.22 223.41L281.22 223.41Q282.54 223.41 283.72 222.74Q284.90 222.06 285.36 220.97L285.36 220.97L286.89 221.39Q286.48 222.35 285.62 223.13Q284.77 223.90 283.61 224.33Q282.46 224.76 281.14 224.76ZM276.16 217.11L276.16 217.11L286.14 217.11Q286.04 215.63 285.35 214.52Q284.66 213.40 283.56 212.77Q282.46 212.13 281.14 212.13L281.14 212.13Q279.82 212.13 278.73 212.77Q277.64 213.40 276.95 214.53Q276.26 215.66 276.16 217.11ZM301.88 216.59L301.88 224.50L300.12 224.50L300.12 216.96Q300.12 214.57 299.42 213.47Q298.72 212.37 297.21 212.37L297.21 212.37Q296.18 212.37 295.16 212.87Q294.15 213.38 293.39 214.25Q292.62 215.11 292.29 216.23L292.29 216.23L292.29 224.50L290.52 224.50L290.52 210.99L292.13 210.99L292.13 214.05Q292.68 213.07 293.56 212.33Q294.44 211.59 295.55 211.17Q296.67 210.76 297.86 210.76L297.86 210.76Q298.98 210.76 299.75 211.17Q300.53 211.59 301.00 212.35Q301.46 213.12 301.67 214.19Q301.88 215.27 301.88 216.59L301.88 216.59ZM311.50 224.76L311.50 224.76Q310.02 224.76 308.79 224.20Q307.56 223.64 306.64 222.66Q305.72 221.67 305.21 220.40Q304.71 219.13 304.71 217.71L304.71 217.71Q304.71 215.79 305.56 214.21Q306.42 212.63 307.95 211.69Q309.48 210.76 311.47 210.76L311.47 210.76Q313.36 210.76 314.82 211.63Q316.27 212.50 316.97 213.97L316.97 213.97L315.26 214.52Q314.69 213.48 313.66 212.90Q312.64 212.31 311.39 212.31L311.39 212.31Q310.05 212.31 308.93 213.01Q307.82 213.71 307.16 214.93Q306.49 216.15 306.49 217.71L306.49 217.71Q306.49 219.24 307.17 220.48Q307.84 221.73 308.96 222.46Q310.07 223.20 311.42 223.20L311.42 223.20Q312.30 223.20 313.12 222.89Q313.93 222.58 314.54 222.05Q315.15 221.52 315.36 220.90L315.36 220.90L317.10 221.41Q316.73 222.37 315.89 223.14Q315.05 223.90 313.92 224.33Q312.79 224.76 311.50 224.76ZM318.78 220.61L318.78 220.61Q318.78 219.34 319.51 218.42Q320.24 217.50 321.52 216.99Q322.80 216.49 324.49 216.49L324.49 216.49Q325.47 216.49 326.54 216.64Q327.60 216.80 328.43 217.11L328.43 217.11L328.43 215.97Q328.43 214.26 327.42 213.25Q326.41 212.24 324.62 212.24L324.62 212.24Q323.53 212.24 322.48 212.64Q321.43 213.04 320.29 213.82L320.29 213.82L319.61 212.57Q320.94 211.67 322.21 211.21Q323.48 210.76 324.80 210.76L324.80 210.76Q327.29 210.76 328.74 212.19Q330.19 213.61 330.19 216.13L330.19 216.13L330.19 222.37Q330.19 222.74 330.35 222.91Q330.50 223.07 330.84 223.10L330.84 223.10L330.84 224.50Q330.55 224.53 330.35 224.55Q330.14 224.58 330.04 224.55L330.04 224.55Q329.39 224.53 329.05 224.14Q328.71 223.75 328.69 223.31L328.69 223.31L328.66 222.32Q327.75 223.49 326.30 224.12Q324.85 224.76 323.35 224.76L323.35 224.76Q322.05 224.76 321.00 224.20Q319.95 223.64 319.37 222.70Q318.78 221.75 318.78 220.61ZM327.83 221.65L327.83 221.65Q328.12 221.29 328.27 220.95Q328.43 220.61 328.43 220.35L328.43 220.35L328.43 218.38Q327.55 218.04 326.60 217.86Q325.65 217.68 324.69 217.68L324.69 217.68Q322.80 217.68 321.64 218.43Q320.47 219.19 320.47 220.48L320.47 220.48Q320.47 221.23 320.86 221.89Q321.25 222.56 322.00 222.98Q322.75 223.41 323.76 223.41L323.76 223.41Q325.03 223.41 326.13 222.92Q327.24 222.43 327.83 221.65ZM345.36 216.59L345.36 224.50L343.59 224.50L343.59 216.96Q343.59 214.57 342.89 213.47Q342.19 212.37 340.69 212.37L340.69 212.37Q339.65 212.37 338.64 212.87Q337.63 213.38 336.87 214.25Q336.10 215.11 335.76 216.23L335.76 216.23L335.76 224.50L334.00 224.50L334.00 210.99L335.61 210.99L335.61 214.05Q336.15 213.07 337.04 212.33Q337.92 211.59 339.03 211.17Q340.15 210.76 341.34 210.76L341.34 210.76Q342.45 210.76 343.23 211.17Q344.01 211.59 344.48 212.35Q344.94 213.12 345.15 214.19Q345.36 215.27 345.36 216.59L345.36 216.59ZM355.13 222.43L355.60 223.85Q355.39 223.93 354.95 224.14Q354.51 224.34 353.89 224.50Q353.26 224.66 352.54 224.66L352.54 224.66Q351.79 224.66 351.13 224.37Q350.46 224.09 350.08 223.50Q349.69 222.92 349.69 222.06L349.69 222.06L349.69 212.39L347.82 212.39L347.82 210.99L349.69 210.99L349.69 206.43L351.45 206.43L351.45 210.99L354.56 210.99L354.56 212.39L351.45 212.39L351.45 221.57Q351.50 222.30 351.98 222.66Q352.46 223.02 353.08 223.02L353.08 223.02Q353.81 223.02 354.41 222.78Q355.00 222.53 355.13 222.43L355.13 222.43ZM356.71 220.61L356.71 220.61Q356.71 219.34 357.44 218.42Q358.16 217.50 359.45 216.99Q360.73 216.49 362.42 216.49L362.42 216.49Q363.40 216.49 364.46 216.64Q365.53 216.80 366.36 217.11L366.36 217.11L366.36 215.97Q366.36 214.26 365.35 213.25Q364.34 212.24 362.55 212.24L362.55 212.24Q361.46 212.24 360.41 212.64Q359.36 213.04 358.22 213.82L358.22 213.82L357.54 212.57Q358.86 211.67 360.14 211.21Q361.41 210.76 362.73 210.76L362.73 210.76Q365.22 210.76 366.67 212.19Q368.12 213.61 368.12 216.13L368.12 216.13L368.12 222.37Q368.12 222.74 368.28 222.91Q368.43 223.07 368.77 223.10L368.77 223.10L368.77 224.50Q368.48 224.53 368.28 224.55Q368.07 224.58 367.97 224.55L367.97 224.55Q367.32 224.53 366.98 224.14Q366.64 223.75 366.62 223.31L366.62 223.31L366.59 222.32Q365.68 223.49 364.23 224.12Q362.78 224.76 361.28 224.76L361.28 224.76Q359.98 224.76 358.93 224.20Q357.88 223.64 357.30 222.70Q356.71 221.75 356.71 220.61ZM365.76 221.65L365.76 221.65Q366.05 221.29 366.20 220.95Q366.36 220.61 366.36 220.35L366.36 220.35L366.36 218.38Q365.48 218.04 364.53 217.86Q363.58 217.68 362.62 217.68L362.62 217.68Q360.73 217.68 359.56 218.43Q358.40 219.19 358.40 220.48L358.40 220.48Q358.40 221.23 358.79 221.89Q359.18 222.56 359.93 222.98Q360.68 223.41 361.69 223.41L361.69 223.41Q362.96 223.41 364.06 222.92Q365.16 222.43 365.76 221.65ZM371.02 217.79L371.02 217.79Q371.02 215.87 371.82 214.27Q372.61 212.68 374.01 211.72Q375.41 210.76 377.19 210.76L377.19 210.76Q378.88 210.76 380.22 211.65Q381.55 212.55 382.30 213.82L382.30 213.82L382.30 205.57L384.07 205.57L384.07 222.37Q384.07 222.74 384.22 222.91Q384.38 223.07 384.69 223.10L384.69 223.10L384.69 224.50Q384.17 224.58 383.88 224.55L383.88 224.55Q383.34 224.53 382.92 224.11Q382.51 223.70 382.51 223.20L382.51 223.20L382.51 221.88Q381.71 223.20 380.33 223.98Q378.96 224.76 377.48 224.76L377.48 224.76Q376.08 224.76 374.90 224.19Q373.72 223.62 372.85 222.63Q371.98 221.65 371.50 220.39Q371.02 219.13 371.02 217.79ZM382.30 219.86L382.30 219.86L382.30 215.69Q381.97 214.75 381.21 213.99Q380.46 213.22 379.52 212.77Q378.57 212.31 377.64 212.31L377.64 212.31Q376.55 212.31 375.67 212.77Q374.78 213.22 374.15 214.00Q373.51 214.78 373.18 215.76Q372.84 216.75 372.84 217.79L372.84 217.79Q372.84 218.87 373.22 219.86Q373.59 220.84 374.29 221.61Q374.99 222.37 375.90 222.79Q376.81 223.20 377.87 223.20L377.87 223.20Q378.54 223.20 379.27 222.94Q379.99 222.69 380.66 222.23Q381.32 221.78 381.76 221.16Q382.20 220.53 382.30 219.86ZM393.81 224.76L393.81 224.76Q392.36 224.76 391.13 224.20Q389.90 223.64 389.00 222.67Q388.11 221.70 387.62 220.44Q387.12 219.19 387.12 217.79L387.12 217.79Q387.12 216.33 387.62 215.08Q388.11 213.82 389.02 212.85Q389.92 211.87 391.16 211.32Q392.39 210.76 393.84 210.76L393.84 210.76Q395.29 210.76 396.51 211.32Q397.73 211.87 398.64 212.85Q399.54 213.82 400.04 215.08Q400.53 216.33 400.53 217.79L400.53 217.79Q400.53 219.19 400.04 220.44Q399.54 221.70 398.65 222.67Q397.75 223.64 396.52 224.20Q395.29 224.76 393.81 224.76ZM388.91 217.81L388.91 217.81Q388.91 219.31 389.57 220.55Q390.24 221.78 391.35 222.49Q392.47 223.20 393.81 223.20L393.81 223.20Q395.16 223.20 396.28 222.48Q397.39 221.75 398.07 220.49Q398.74 219.24 398.74 217.76L398.74 217.76Q398.74 216.26 398.07 215.01Q397.39 213.77 396.28 213.04Q395.16 212.31 393.81 212.31L393.81 212.31Q392.47 212.31 391.36 213.07Q390.26 213.82 389.59 215.05Q388.91 216.28 388.91 217.81ZM410.22 210.94L410.22 212.55Q408.46 212.60 407.13 213.53Q405.79 214.47 405.25 216.10L405.25 216.10L405.25 224.50L403.48 224.50L403.48 210.99L405.14 210.99L405.14 214.23Q405.84 212.81 407.00 211.93Q408.15 211.04 409.45 210.94L409.45 210.94Q409.71 210.91 409.90 210.91Q410.09 210.91 410.22 210.94L410.22 210.94Z" />
<path transform="rotate(11880.000000000002, 355, 532)" font-weight="400" fill="#ff9c2e" opacity="1" d="M329.09 532.22Q329.42 532.22 329.62 532.53Q329.81 532.84 329.81 533.39L329.81 533.39Q329.81 534.42 329.32 534.99L329.32 534.99Q328.21 536.37 326.92 537.25Q325.64 538.13 324.01 538.13L324.01 538.13Q322.63 538.13 321.78 537.14L321.78 537.14Q320.30 538.10 318.69 538.13L318.69 538.13Q318.35 543.13 317.16 546.49Q315.97 549.85 313.66 549.85L313.66 549.85Q312.26 549.85 311.59 548.84Q310.91 547.83 310.91 546.04L310.91 546.04Q310.91 543.50 312.08 540.11Q313.25 536.73 315.68 532.66L315.68 532.66Q315.68 528.87 315.63 527.40L315.63 527.40Q315.61 526.64 316.23 526.20Q316.85 525.76 317.78 525.76L317.78 525.76Q318.33 525.76 318.57 525.98Q318.82 526.20 318.85 526.85L318.85 526.85Q318.85 527.50 318.87 527.81L318.87 527.81Q319.70 526.77 320.51 526.32Q321.31 525.87 322.22 525.87L322.22 525.87Q323.67 525.87 324.59 527.03Q325.51 528.20 325.51 530.09L325.51 530.09Q325.51 531.47 325.07 532.76Q324.63 534.06 323.85 535.12L323.85 535.12Q324.39 535.28 324.76 535.28L324.76 535.28Q325.61 535.28 326.39 534.66Q327.17 534.03 328.39 532.58L328.39 532.58Q328.70 532.22 329.09 532.22L329.09 532.22ZM318.82 535.64Q319.75 535.43 320.54 534.62Q321.33 533.80 321.80 532.59Q322.27 531.39 322.27 530.07L322.27 530.07Q322.27 529.29 321.96 528.89Q321.65 528.49 321.13 528.49L321.13 528.49Q320.19 528.49 318.87 530.46L318.87 530.46Q318.85 531.60 318.85 533.80L318.85 533.80Q318.85 534.99 318.82 535.64L318.82 535.64ZM313.87 547.31Q314.57 547.31 315.03 544.26Q315.50 541.21 315.63 536.68L315.63 536.68Q314.52 539.27 313.87 541.63Q313.22 543.99 313.22 545.60L313.22 545.60Q313.22 546.43 313.41 546.87Q313.61 547.31 313.87 547.31L313.87 547.31ZM339.28 532.22Q339.61 532.22 339.81 532.53Q340.00 532.84 340.00 533.39L340.00 533.39Q340.00 534.42 339.51 534.99L339.51 534.99Q338.55 536.16 336.80 537.14Q335.05 538.13 333.05 538.13L333.05 538.13Q330.33 538.13 328.83 536.65Q327.32 535.17 327.32 532.61L327.32 532.61Q327.32 530.82 328.08 529.28Q328.83 527.73 330.16 526.83Q331.50 525.92 333.18 525.92L333.18 525.92Q334.69 525.92 335.59 526.81Q336.50 527.71 336.50 529.24L336.50 529.24Q336.50 531.03 335.22 532.31Q333.94 533.59 330.88 534.34L330.88 534.34Q331.52 535.54 333.34 535.54L333.34 535.54Q334.51 535.54 336.00 534.72Q337.49 533.90 338.58 532.58L338.58 532.58Q338.89 532.22 339.28 532.22L339.28 532.22ZM332.74 528.46Q331.78 528.46 331.12 529.57Q330.46 530.69 330.46 532.27L330.46 532.27L330.46 532.32Q331.99 531.96 332.87 531.23Q333.75 530.51 333.75 529.55L333.75 529.55Q333.75 529.06 333.48 528.76Q333.21 528.46 332.74 528.46L332.74 528.46ZM339.74 538.13Q338.76 538.13 338.36 537.09Q337.95 536.06 337.95 533.77L337.95 533.77Q337.95 530.40 338.91 527.37L338.91 527.37Q339.15 526.62 339.68 526.27Q340.21 525.92 341.17 525.92L341.17 525.92Q341.69 525.92 341.89 526.05Q342.10 526.18 342.10 526.54L342.10 526.54Q342.10 526.96 341.71 528.41L341.71 528.41Q341.45 529.44 341.30 530.22Q341.14 531.00 341.04 532.14L341.04 532.14Q341.89 529.91 342.96 528.51Q344.02 527.11 345.04 526.51Q346.07 525.92 346.92 525.92L346.92 525.92Q348.61 525.92 348.61 527.60L348.61 527.60Q348.61 527.94 348.38 529.24L348.38 529.24Q348.17 530.27 348.17 530.53L348.17 530.53Q348.17 531.44 348.82 531.44L348.82 531.44Q349.54 531.44 350.68 530.30L350.68 530.30Q351.02 529.96 351.38 529.96L351.38 529.96Q351.72 529.96 351.91 530.26Q352.11 530.56 352.11 531.05L352.11 531.05Q352.11 532.01 351.59 532.56L351.59 532.56Q350.86 533.31 349.89 533.84Q348.92 534.37 347.83 534.37L347.83 534.37Q346.46 534.37 345.74 533.67Q345.03 532.97 345.03 531.78L345.03 531.78Q345.03 531.39 345.11 531.00L345.11 531.00Q345.16 530.48 345.16 530.30L345.16 530.30Q345.16 529.89 344.88 529.89L344.88 529.89Q344.49 529.89 343.85 530.75Q343.22 531.62 342.59 533.05Q341.97 534.47 341.58 536.06L341.58 536.06Q341.30 537.27 340.92 537.70Q340.55 538.13 339.74 538.13L339.74 538.13ZM360.04 530.74Q360.77 530.74 360.77 531.83L360.77 531.83Q360.77 533.88 357.55 533.88L357.55 533.88Q356.93 533.88 355.76 533.64L355.76 533.64Q356.10 535.25 356.32 537.21Q356.54 539.17 356.54 540.44L356.54 540.44Q356.54 543.24 355.64 544.71Q354.73 546.19 353.25 546.19L353.25 546.19Q351.38 546.19 350.59 543.55Q349.80 540.90 349.80 535.56L349.80 535.56Q349.80 530.59 350.88 525.46Q351.95 520.34 353.83 516.99Q355.71 513.63 357.97 513.63L357.97 513.63Q359.19 513.63 359.87 514.72Q360.56 515.81 360.56 517.65L360.56 517.65Q360.56 523.74 353.28 530.92L353.28 530.92Q353.02 533.46 353.02 535.38L353.02 535.38Q353.02 538.05 353.20 540.86Q353.38 543.68 353.79 543.68L353.79 543.68Q354.57 543.68 354.57 540.98L354.57 540.98Q354.57 538.96 354.30 537.07Q354.03 535.17 353.56 533.07L353.56 533.07Q353.54 532.74 353.78 532.22Q354.03 531.70 354.39 531.31Q354.75 530.92 355.04 530.92L355.04 530.92Q355.56 530.92 356.28 530.97L356.28 530.97Q356.52 531.00 356.83 531.00L356.83 531.00Q357.86 531.00 359.14 530.82L359.14 530.82Q359.34 530.79 359.58 530.77Q359.81 530.74 360.04 530.74L360.04 530.74ZM357.42 516.20Q356.96 516.20 356.27 517.78Q355.58 519.36 354.91 521.96Q354.24 524.57 353.74 527.47L353.74 527.47Q355.82 525.11 356.93 522.56Q358.05 520.01 358.07 517.78L358.07 517.78Q358.07 516.20 357.42 516.20L357.42 516.20ZM370.36 532.22Q370.70 532.22 370.89 532.53Q371.09 532.84 371.09 533.39L371.09 533.39Q371.09 534.42 370.59 534.99L370.59 534.99Q369.64 536.16 367.89 537.14Q366.14 538.13 364.14 538.13L364.14 538.13Q361.42 538.13 359.91 536.65Q358.41 535.17 358.41 532.61L358.41 532.61Q358.41 530.82 359.16 529.28Q359.91 527.73 361.25 526.83Q362.58 525.92 364.27 525.92L364.27 525.92Q365.77 525.92 366.68 526.81Q367.59 527.71 367.59 529.24L367.59 529.24Q367.59 531.03 366.30 532.31Q365.02 533.59 361.96 534.34L361.96 534.34Q362.61 535.54 364.42 535.54L364.42 535.54Q365.59 535.54 367.08 534.72Q368.57 533.90 369.66 532.58L369.66 532.58Q369.97 532.22 370.36 532.22L370.36 532.22ZM363.83 528.46Q362.87 528.46 362.21 529.57Q361.55 530.69 361.55 532.27L361.55 532.27L361.55 532.32Q363.08 531.96 363.96 531.23Q364.84 530.51 364.84 529.55L364.84 529.55Q364.84 529.06 364.57 528.76Q364.29 528.46 363.83 528.46L363.83 528.46ZM372.38 524.21Q371.29 524.21 370.75 523.70Q370.21 523.20 370.21 522.29L370.21 522.29Q370.21 521.38 370.92 520.77Q371.63 520.16 372.69 520.16L372.69 520.16Q373.65 520.16 374.25 520.63Q374.85 521.10 374.85 521.95L374.85 521.95Q374.85 522.99 374.17 523.60Q373.50 524.21 372.38 524.21L372.38 524.21ZM372.18 538.13Q370.49 538.13 369.73 536.94Q368.96 535.74 368.96 533.77L368.96 533.77Q368.96 532.61 369.26 530.78Q369.56 528.95 370.02 527.37L370.02 527.37Q370.26 526.54 370.65 526.23Q371.04 525.92 371.89 525.92L371.89 525.92Q373.21 525.92 373.21 526.80L373.21 526.80Q373.21 527.45 372.72 529.81L372.72 529.81Q372.10 532.66 372.10 533.67L372.10 533.67Q372.10 534.45 372.31 534.86Q372.51 535.28 373.01 535.28L373.01 535.28Q373.47 535.28 374.17 534.63Q374.87 533.98 376.04 532.58L376.04 532.58Q376.35 532.22 376.74 532.22L376.74 532.22Q377.08 532.22 377.27 532.53Q377.46 532.84 377.46 533.39L377.46 533.39Q377.46 534.42 376.97 534.99L376.97 534.99Q374.41 538.13 372.18 538.13L372.18 538.13ZM386.93 532.22Q387.27 532.22 387.46 532.53Q387.65 532.84 387.65 533.39L387.65 533.39Q387.65 534.42 387.16 534.99L387.16 534.99Q386.05 536.37 384.72 537.25Q383.40 538.13 381.69 538.13L381.69 538.13Q376.40 538.13 376.40 530.69L376.40 530.69Q376.40 529.55 376.48 528.38L376.48 528.38L375.47 528.38Q374.69 528.38 374.42 528.10Q374.15 527.81 374.15 527.19L374.15 527.19Q374.15 525.74 375.31 525.74L375.31 525.74L376.79 525.74Q377.23 522.89 378.14 520.53Q379.05 518.17 380.33 516.77Q381.61 515.37 383.09 515.37L383.09 515.37Q384.18 515.37 384.80 516.33Q385.42 517.29 385.42 518.74L385.42 518.74Q385.42 522.76 382.05 525.74L382.05 525.74L384.96 525.74Q385.37 525.74 385.55 525.92Q385.74 526.10 385.74 526.59L385.74 526.59Q385.74 528.38 382.81 528.38L382.81 528.38L379.64 528.38Q379.59 529.68 379.59 530.40L379.59 530.40Q379.59 533.10 380.23 534.19Q380.86 535.28 382.24 535.28L382.24 535.28Q383.35 535.28 384.21 534.60Q385.06 533.93 386.23 532.58L386.23 532.58Q386.54 532.22 386.93 532.22L386.93 532.22ZM382.39 517.86Q382.00 517.86 381.52 518.83Q381.04 519.80 380.62 521.52Q380.19 523.25 379.90 525.35L379.90 525.35Q381.43 524.03 382.20 522.38Q382.96 520.73 382.96 519.39L382.96 519.39Q382.96 517.86 382.39 517.86L382.39 517.86ZM398.78 530.04Q399.11 530.04 399.29 530.38Q399.48 530.71 399.48 531.23L399.48 531.23Q399.48 532.48 398.72 532.71L398.72 532.71Q397.17 533.26 395.30 533.33L395.30 533.33Q394.81 535.51 393.36 536.82Q391.91 538.13 390.07 538.13L390.07 538.13Q388.51 538.13 387.41 537.38Q386.31 536.63 385.74 535.38Q385.17 534.14 385.17 532.69L385.17 532.69Q385.17 530.71 385.92 529.17Q386.67 527.63 387.99 526.76Q389.31 525.89 390.92 525.89L390.92 525.89Q392.89 525.89 394.10 527.25Q395.30 528.61 395.51 530.61L395.51 530.61Q396.73 530.53 398.41 530.09L398.41 530.09Q398.62 530.04 398.78 530.04L398.78 530.04ZM390.27 535.38Q391.10 535.38 391.71 534.71Q392.32 534.03 392.53 532.76L392.53 532.76Q391.72 532.22 391.30 531.34Q390.87 530.46 390.87 529.47L390.87 529.47Q390.87 529.06 390.95 528.64L390.95 528.64L390.82 528.64Q389.78 528.64 389.09 529.64Q388.41 530.64 388.41 532.45L388.41 532.45Q388.41 533.88 388.96 534.63Q389.52 535.38 390.27 535.38L390.27 535.38Z" />
<text transform="rotate(10440, 695, 254)" font-weight="400" fill="#41b1ff" opacity="1" x="695" y="263" font-family="Times New Roman" font-size="25.926127797341866px" text-anchor="middle">envolvente</text>
</svg>