<?xml version="1.0" encoding="utf-8"?>
<!-- Generator: Adobe Illustrator 27.4.1, SVG Export Plug-In . SVG Version: 6.00 Build 0)  -->
<svg version="1.1" id="Layer_1" xmlns="http://www.w3.org/2000/svg" xmlns:xlink="http://www.w3.org/1999/xlink" x="0px" y="0px"
	 viewBox="0 0 250 300" style="enable-background:new 0 0 250 300;" xml:space="preserve">
<style type="text/css">
	.st0{fill:#FF3939;}
	.st1{display:none;}
	.st2{display:inline;}
	.st3{display:inline;fill:#FF9901;}
	.st4{display:inline;fill:#FF9900;}
</style>
<g>
	<path class="st0" d="M207.7,190c-7.9,2.4-14.7-0.1-21.5-4.3c-1.5,18.5-8.3,34.6-21.9,47.6c2.6-11.4,0.9-21.3-5.8-30.6
		c-6.7,14.9-15.2,27.9-22.8,42.1c-4,7.8-7.1,15.9-10.8,23.9c-4.5-14.1-12-26.4-19.3-38.8c-5.2-8.9-9.5-18.1-14.1-27.3
		c-6.8,9.3-8.5,19.2-6.3,30C72,219.8,65,204.3,63.7,185.7c-6.9,4.1-13.6,6.8-21.5,4.4c5.9-14.1,10.3-28.4,11.2-43.7
		c1-24,2.2-48.1,9.4-71.2c0.3-1,0.6-1.9,0.8-2.9c1.1-5.2,4.1-9.1,7.9-12.7c14.2-13.4,30.7-23,49.7-27.9c2.3-0.6,5.1-0.6,7.4,0
		c20.7,5.4,38.3,16.1,53.2,31.5c3.3,3.5,4,8,5.2,12.3c5.7,19.9,8.5,40.2,8.8,61C195.9,155.1,199.9,173,207.7,190z M124.4,206.2
		c0.3,0,0.6,0,0.9,0c3.3-10.5,5.1-21.5,8.3-32c3.6-12.2,9.6-23.2,17.1-33.4c0.5-0.7,0.7-2.2,0.3-2.7c-4.5-5-7.1-10.8-8.8-17.2
		c-2.1-7.9-9.9-13.4-17.8-13.1c-8,0.3-15.2,6.1-17.1,14.1c-1.4,6-4.1,11.3-8.3,15.8c-1,1.1-1,1.8-0.2,2.9
		c11.4,14.8,17.9,31.6,21.6,49.8C121.6,195.6,123.1,200.9,124.4,206.2z M72.2,105.8c0,7.6,4.6,13.9,12.1,16.6
		c8.8,3.1,17.7-4.4,16.1-13.7c-0.2-1.1-0.7-2.3-1.5-3c-4.8-4.6-10.5-7.9-17.2-8.2C73.8,97.1,72.6,97.7,72.2,105.8z M149.4,110.3
		c0,8.4,6.3,13.9,14.1,12.7c9.6-1.5,16.3-12.3,13.6-21.8c-0.6-2.3-1.8-3.3-4.1-3.6c-8.1-1.1-14.6,2.1-20.7,6.8
		C150.2,106,149,108,149.4,110.3z"/>
	<path class="st0" d="M138.8,125.4c-0.8,1.7-1.6,3.3-2.4,5.1c-1.9-1.2-2.6-2.3-1.8-4C135.4,124.8,136.7,124.6,138.8,125.4z"/>
	<path class="st0" d="M111,125.7c0.8,1.7,1.6,3.3,2.4,5.1c1.9-1.2,2.6-2.3,1.8-4C114.4,125.2,113.1,124.9,111,125.7z"/>
</g>
<g class="st1">
	<path class="st2" d="M127.3,101.5c20-3.6,19,4.6,18.4-16.2c0.7-21.1-26.2-26.8-40.1-14C90,91.8,108.2,90.5,72.8,87
		c-5.1-1.1-12.6,0.7-14.5-5.4c0.7-10,5.4-20,12-28.1c19-21.6,50.9-25.3,77.9-20.1c58.6,11.3,38.2,72.3,41.7,116.3
		c-2.2,18.3,17.6,29.7,12.6,36.9c-6.9,6.2-14.1,12-20.9,18.2c-8.8,10.2-14.9,1.7-21.5-5.5c-2.7-3.7-5.6-7.5-8-11.2
		c-1.4,1.3-3,2.6-4.3,4.1c-15.6,16.2-39,21.7-60.7,17.2c-35.8-7.6-42.7-54.4-24.2-80.2C77.3,108.3,105,103.9,127.3,101.5z
		 M131.6,174.5c8.2-6.2,12.6-16.3,13.6-26.5c1-6.4,0.4-15.1,0.7-22.4c0.1-0.7-0.3-1.4-1.1-0.9c-5.9,0.1-11.8,0.4-17.6,1.4
		C84,130.9,94.3,196.8,131.6,174.5z"/>
	<path class="st3" d="M16.8,212.4c37.2,24,80.5,40.8,125.4,35.1c14.6-1.7,29.2-5.2,43.3-10.1c6-2.2,12.1-4.4,17.9-7.1
		c4-0.7,11-7.7,13.4-2.1c-11.4,20.9-39.6,30.2-61.6,36.6c-37.5,9.3-78.1,0.9-110-20.6c-11-7-21.2-15.3-30.1-24.8
		C9,215.1,6.5,205.8,16.8,212.4z"/>
	<path class="st4" d="M239.2,222.6c-1.1,5.6-2.9,11.2-5.6,16.3c-1.2,2.6-11.9,18.8-12.9,11c3.2-9.5,8.4-18.9,7.7-29
		c-1.8-9.4-38.2,1.8-33-4.9c9.1-7.4,22-8.5,33.3-7.7C239.5,208.7,242,212.4,239.2,222.6z"/>
</g>
</svg>
